<svg width="512" height="512" viewBox="0 0 512 512" fill="none" xmlns="http://www.w3.org/2000/svg">
<rect width="512" height="512" fill="white"/>
<path d="M239.741 144.429C240.193 145.533 244.495 156.761 244.552 156.846L246.124 156.646C247.379 158.955 248.157 160.933 250.238 162.46C253.631 170.021 255.827 170.914 264.096 170.305L263.814 169.647C265.544 169.537 267.377 169.335 269.113 169.177C265.79 168.772 262.506 169.068 260.852 165.907C265.307 163.483 265.487 167.36 270.837 164.804C350.261 176.881 397.07 249.398 390.462 326.547C389.402 338.925 382.881 352.828 375.488 362.557C374.365 364.035 370.319 369.021 370.157 370.308C373.743 369.791 378.234 368.802 381.87 368.114L386.53 368.568C401.771 375.417 409.373 367.61 422.487 382.347L426.88 384.186C465.108 397.211 449.695 410.19 420.37 418.778C395.393 426.093 370.322 429.302 344.496 431.659C287.491 436.645 230.164 436.778 173.136 432.055C147.949 429.971 121.633 427.109 97.1279 420.764C87.6719 418.082 74.6169 414.198 67.0089 408.008C51.6029 395.475 84.9859 381.823 93.2909 381.807L95.2009 378.941C99.7929 370.187 114.34 366.462 123.257 368.954C127.825 369.635 126.945 370.057 130.483 368.204C132.434 367.602 134.484 367.083 136.462 366.549C136.389 366.178 129.769 358.29 128.602 356.506C99.4159 311.904 119.273 241.087 153.289 203.801C172.376 182.879 200.774 169.268 230.664 165.528C237.449 164.944 244.916 164.478 238.918 153.696C237.408 150.981 234.761 149.608 231.831 148.55C231.59 147.759 231.77 147.499 231.899 146.557L234.412 145.268L237.681 146.564L237.96 146.686C238.664 145.667 238.354 146.063 239.164 145.104L239.741 144.429Z" fill="url(#paint0_linear_162_453)"/>
<path d="M130.483 368.204C132.434 367.602 134.484 367.083 136.462 366.549C138.872 367.165 143.867 371.31 145.057 373.126C143.779 379.628 151.791 387.876 156.116 392.018C160.718 393.586 162.707 394.28 165.716 398.416C166.126 399.24 168.115 403.093 168.248 403.701C189.777 414.272 200.792 416.398 223.231 404.908C231.128 402.508 241.615 404.337 250.068 404.522C255.853 404.649 266.232 403.578 271.433 404.672C287.071 399.962 288.944 406.066 300.816 407.263C315.738 413.167 332.34 409.77 345.399 401.236C345.803 395.577 346.793 397.144 344.985 391.647L344.095 386.183C356.007 382.144 366.769 371.086 370.157 370.308C373.743 369.791 378.234 368.802 381.87 368.114L386.53 368.568C401.771 375.417 409.373 367.61 422.487 382.347L426.88 384.186C465.108 397.211 449.695 410.19 420.37 418.778C395.393 426.093 370.322 429.302 344.496 431.659C287.491 436.645 230.164 436.778 173.136 432.055C147.949 429.971 121.633 427.109 97.1279 420.764C87.6719 418.082 74.6169 414.198 67.0089 408.008C51.6029 395.475 84.9859 381.823 93.2909 381.807L95.2009 378.941C99.7929 370.187 114.34 366.462 123.257 368.954C127.825 369.635 126.945 370.057 130.483 368.204Z" fill="#EED7C5"/>
<path d="M145.473 392.38C149.898 391.472 151.548 391.701 156.116 392.018C160.718 393.586 162.707 394.28 165.716 398.416C166.126 399.24 168.115 403.093 168.248 403.701C189.777 414.272 200.792 416.398 223.231 404.908C231.128 402.508 241.615 404.337 250.068 404.522C255.853 404.649 266.232 403.578 271.433 404.672L277.721 407.552L278.562 409.138C281.631 414.765 280.59 413.769 281.845 419.462C284.626 415.025 281.344 411.183 286.264 408.454C295.696 410.325 317.201 416.829 326.922 413.128C329.655 413.289 330.039 412.671 331.585 414.947C330.122 419.496 314.358 426.74 310.195 427.272C310.605 427.642 310.804 427.917 311.271 428.11C296.241 430.781 285.891 431.224 270.89 427.324C258.009 432.113 249.817 432.923 236.021 430.706C225.147 431.643 213.858 431.735 204.8 425.222L198.504 426.789C188.62 428.221 174.272 423.712 163.823 424.367C160.421 424.58 156.519 423.132 153.379 421.837C146.734 422.014 140.929 419.182 134.794 416.876C130.625 415.31 127.88 415.35 123.577 414.575C127.745 412.74 128.03 413.483 129.613 410.327C129.307 407.415 129.366 405.945 129.486 403.094L131.739 399.724L135.475 396.935C139.198 394.879 141.489 393.943 145.473 392.38Z" fill="#93552C"/>
<path d="M145.473 392.38C156.364 392.231 164.776 395.959 159.501 408.251C158.299 409.308 155.127 412.367 153.82 412.719C139.766 416.505 125.121 415.678 135.475 396.935C139.198 394.879 141.489 393.943 145.473 392.38Z" fill="#B67448"/>
<path d="M223.231 404.908C231.128 402.508 241.615 404.337 250.068 404.522C255.853 404.649 266.232 403.578 271.433 404.672L277.721 407.552C276.778 409.51 276.132 410.77 275.47 412.83C270.672 404.885 265.884 403.82 257.331 406.992L256.535 407.28C251.515 409.12 251.61 410.01 249.076 414.981C248.312 411.928 248.155 410.512 247.842 407.42C238.335 405.896 219.468 406.281 212.691 414.073C210.543 413.395 206.919 414.48 204.312 414.544C191.345 414.865 176.465 415.637 168.248 403.701C189.777 414.272 200.792 416.398 223.231 404.908Z" fill="#6D3C1D"/>
<path d="M257.331 406.992C265.884 403.82 270.672 404.885 275.47 412.83C267.39 428.134 242.43 422.425 257.331 406.992Z" fill="#B67448"/>
<path d="M153.379 421.837L157.84 421.653C166.34 421.705 174.405 422.837 182.942 423.014C190.082 423.161 194.136 421.066 198.504 426.789C188.62 428.221 174.272 423.712 163.823 424.367C160.421 424.58 156.519 423.132 153.379 421.837Z" fill="#B67448"/>
<path d="M212.594 422.177C219.018 427.197 227.963 428.604 236.021 430.706C225.147 431.643 213.858 431.735 204.8 425.222L212.594 422.177Z" fill="#F1B68A"/>
<path d="M381.87 368.114L386.53 368.568C389.52 373.663 392.009 372.391 393.678 376.656C395.24 379.04 398.843 380.556 401.436 381.634C395.384 381.914 397.062 385.068 393.813 388.714C396.359 391.788 397.453 393.321 399.56 396.714C399.608 401.417 399.658 403.357 400.502 407.939C394.549 412.222 390.836 413.12 383.725 415.17L381.951 415.08C374.954 420.058 371.205 422.907 362.32 422.253C358.129 423.232 356.387 423.517 352.101 423.854C346.35 425.263 328.486 427.121 322.423 426.829C318.277 427.509 315.457 428.021 311.271 428.11C310.804 427.917 310.605 427.642 310.195 427.272C314.358 426.74 330.122 419.496 331.585 414.947C330.039 412.671 329.655 413.289 326.922 413.128C317.201 416.829 295.696 410.325 286.264 408.454C281.344 411.183 284.626 415.025 281.845 419.462C280.59 413.769 281.631 414.765 278.562 409.138L277.721 407.552L271.433 404.672C287.071 399.962 288.944 406.066 300.816 407.263C315.738 413.167 332.34 409.77 345.399 401.236C345.803 395.577 346.793 397.144 344.985 391.647L344.095 386.183C356.007 382.144 366.769 371.086 370.157 370.308C373.743 369.791 378.234 368.802 381.87 368.114Z" fill="#90562C"/>
<path d="M381.87 368.114L386.53 368.568C389.52 373.663 392.009 372.391 393.678 376.656C395.24 379.04 398.843 380.556 401.436 381.634C395.384 381.914 397.062 385.068 393.813 388.714C379.81 382.094 369.148 386.259 358.665 396.127C350.829 396.636 350.493 395.591 345.399 401.236C345.803 395.577 346.793 397.144 344.985 391.647L344.095 386.183C356.007 382.144 366.769 371.086 370.157 370.308C373.743 369.791 378.234 368.802 381.87 368.114Z" fill="url(#paint1_linear_162_453)"/>
<path d="M381.87 368.114L386.53 368.568C389.52 373.663 392.009 372.391 393.678 376.656L391.613 377.759C387.268 377.562 382.89 372.144 381.87 368.114Z" fill="#834B25"/>
<path d="M300.816 407.263C315.738 413.167 332.34 409.77 345.399 401.236C343.218 409.96 333.275 410.197 326.509 411.885C311.43 412.893 299.357 409.679 284.727 407.057C282.742 406.701 280.211 408.083 278.562 409.138L277.721 407.552L271.433 404.672C287.071 399.962 288.944 406.066 300.816 407.263Z" fill="#432108"/>
<path d="M322.423 426.829C324.527 426.19 327.811 424.487 330.209 423.724C338.13 421.203 344.237 422.637 352.101 423.854C346.35 425.263 328.486 427.121 322.423 426.829Z" fill="#F1B68A"/>
<path d="M373.007 414.248C375.976 414.722 378.95 414.867 381.951 415.08C374.954 420.058 371.205 422.907 362.32 422.253C368.209 420.314 369.158 419.063 373.007 414.248Z" fill="#F1B68A"/>
<path d="M376.756 389.692C382.949 389.002 392.984 388.681 394.993 396.056C394.291 400.335 391.627 401.817 388.213 404.332C376.16 407.167 361.161 397.989 376.756 389.692Z" fill="#AA6A3F"/>
<path d="M352.474 398.523C358.118 398.211 366.252 399.761 366.206 406.79C365.079 409.445 363.315 410.197 360.891 411.707C347.855 415.027 341.692 407.432 352.474 398.523Z" fill="#AA6A3F"/>
<path d="M369.536 405.009C372.403 407.057 372.436 408.316 371.987 411.718C369.824 409.564 369.763 407.904 369.536 405.009Z" fill="#5D3217"/>
<path d="M130.483 368.204C132.434 367.602 134.484 367.083 136.462 366.549C138.872 367.165 143.867 371.31 145.057 373.126C143.779 379.628 151.791 387.876 156.116 392.018C151.548 391.701 149.898 391.472 145.473 392.38C141.489 393.943 139.198 394.879 135.475 396.935L131.739 399.724L129.486 403.094C129.366 405.945 129.307 407.415 129.613 410.327C128.03 413.483 127.745 412.74 123.577 414.575C122.538 414.293 122.855 414.321 121.985 414.249L119.44 414.026C111.709 413.349 97.0609 406.898 88.0309 405.693C81.1159 404.771 80.0179 395.72 82.8439 389.253C84.8119 385.142 89.0039 384.118 93.0279 382.988L93.2909 381.807L95.2009 378.941C99.7929 370.187 114.34 366.462 123.257 368.954C127.825 369.635 126.945 370.057 130.483 368.204Z" fill="#90562C"/>
<path d="M130.483 368.204C132.434 367.602 134.484 367.083 136.462 366.549C138.872 367.165 143.867 371.31 145.057 373.126C143.779 379.628 151.791 387.876 156.116 392.018C151.548 391.701 149.898 391.472 145.473 392.38C141.489 393.943 139.198 394.879 135.475 396.935L131.739 399.724L130.187 397.195C127.693 398.372 126.661 398.55 124.018 399.122L124.215 399.836C112.12 399.587 118.45 401.572 109.748 390.622C111.691 388.887 124.293 389.601 128.254 385.229C135.674 377.037 129.206 375.885 130.483 368.204Z" fill="#6D3C1D"/>
<path d="M124.018 399.122C121.442 399.265 120.755 399.442 118.326 398.769L117.887 397.599C121.42 394.588 126.497 394.65 130.187 397.195C127.693 398.372 126.661 398.55 124.018 399.122Z" fill="#432108"/>
<path d="M95.2012 378.941C99.7932 370.187 114.34 366.462 123.257 368.954C123.861 371.19 124.469 371.936 125.861 373.797C125.757 383.056 115.017 382.712 108.304 382.672C102.922 382.639 99.9862 380.801 95.2012 378.941Z" fill="#AA6A3F"/>
<path d="M93.0278 382.988C94.8978 385.872 96.9497 385.964 99.0957 388.657C107.507 399.21 92.4578 399.471 85.2148 398.948C84.7498 396.137 84.2817 391.471 82.8438 389.253C84.8118 385.142 89.0038 384.118 93.0278 382.988Z" fill="#AA6A3F"/>
<path d="M130.187 397.195L131.739 399.724L129.486 403.094L128.22 403.703C126.761 401.431 126.55 401.177 124.215 399.836L124.018 399.122C126.661 398.55 127.693 398.372 130.187 397.195Z" fill="#5D3217"/>
<path d="M386.53 368.568C401.771 375.417 409.373 367.61 422.487 382.347C423.668 386.883 424.039 385.925 427.105 389.213C432.688 395.2 434.738 402.571 424.624 405.441C423.598 405.726 422.564 405.98 421.523 406.205L420.354 405.922C415.884 405.796 407.01 407.71 400.502 407.939C399.658 403.357 399.608 401.417 399.56 396.714C397.453 393.321 396.359 391.788 393.813 388.714C397.062 385.068 395.384 381.914 401.436 381.634C398.843 380.556 395.24 379.04 393.678 376.656C392.009 372.391 389.52 373.663 386.53 368.568Z" fill="#834B25"/>
<path d="M386.53 368.568C401.771 375.417 409.373 367.61 422.487 382.347C418.147 385.241 405.874 384.428 401.436 381.634C398.843 380.556 395.24 379.04 393.678 376.656C392.009 372.391 389.52 373.663 386.53 368.568Z" fill="#90562C"/>
<path d="M411.203 387.175C416.305 386.895 417.258 387.376 421.856 384.915L422.752 385.436L422.753 387.534C419.851 390.302 417.337 387.283 414.416 389.868C414.659 390.677 414.871 391.549 415.229 392.3C418.412 393.712 418.779 393.932 420.481 396.963L420.02 397.651C418.194 397.388 412.883 394.587 410.904 393.617C408.927 394.217 408.358 394.509 406.33 394.465C405.952 392.731 404.758 388.46 405.214 387.036C408.047 386.3 408.392 386.337 411.203 387.175Z" fill="#5D3217"/>
<path d="M411.203 387.175C416.305 386.895 417.258 387.376 421.856 384.915L422.752 385.436L422.753 387.534C419.851 390.302 417.337 387.283 414.416 389.868C414.659 390.677 414.871 391.549 415.229 392.3C412.61 391.763 410.848 391.497 408.344 390.477L408.426 389.266L411.203 387.175Z" fill="#6D3C1D"/>
<path d="M400.502 407.939C407.01 407.71 415.884 405.796 420.354 405.922C410.761 410.375 394.251 416.778 383.725 415.17C390.836 413.12 394.549 412.222 400.502 407.939Z" fill="#F1B68A"/>
<path d="M422.487 382.347L426.88 384.186C431.459 389.193 435.074 392.517 434.761 399.95C434.477 406.705 426.656 407.671 421.523 406.205C422.564 405.98 423.598 405.726 424.624 405.441C434.738 402.571 432.688 395.2 427.105 389.213C424.039 385.925 423.668 386.883 422.487 382.347Z" fill="#F1B68A"/>
<path d="M239.741 144.429C240.193 145.533 244.495 156.761 244.552 156.846C244.962 162.617 245.348 170.349 237.279 169.761C204.409 173.427 171.26 186.557 150.911 213.292C119.768 254.208 107.1 331.083 151.74 366.713C153.098 367.806 154.511 368.829 155.973 369.777C158.866 371.763 160.235 372.813 163.511 374.121C166.332 375.811 168.183 376.367 171.27 377.449C187.425 368.334 198.859 370.651 214.987 379.797C217.487 381.215 220.518 383.908 222.844 385.124C229.437 391.675 259.667 390.888 269.147 390.212C275.937 389.498 283.14 388.677 288.997 385.021C308.156 373.063 322.347 364.936 344.001 377.612C347.678 376.078 348.681 375.618 351.948 373.377C354.4 372.499 359.077 368.732 360.871 366.876C402.872 323.45 381.319 243.896 343.703 204.906C324.804 185.318 290.898 170.543 264.096 170.305L263.814 169.647C265.544 169.537 267.377 169.335 269.113 169.177C265.79 168.772 262.506 169.068 260.852 165.907C265.307 163.483 265.487 167.36 270.837 164.804C350.261 176.881 397.07 249.398 390.462 326.547C389.402 338.925 382.881 352.828 375.488 362.557C374.365 364.035 370.319 369.021 370.157 370.308C366.769 371.086 356.007 382.144 344.095 386.183L344.985 391.647C346.793 397.144 345.803 395.577 345.399 401.236C332.34 409.77 315.738 413.167 300.816 407.263C288.944 406.066 287.071 399.962 271.433 404.672C266.232 403.578 255.853 404.649 250.068 404.522C241.615 404.337 231.128 402.508 223.231 404.908C200.792 416.398 189.777 414.272 168.248 403.701C168.115 403.093 166.126 399.24 165.716 398.416C162.707 394.28 160.718 393.586 156.116 392.018C151.791 387.876 143.779 379.628 145.057 373.126C143.867 371.31 138.872 367.165 136.462 366.549C136.389 366.178 129.769 358.29 128.602 356.506C99.4158 311.904 119.273 241.087 153.289 203.801C172.376 182.879 200.774 169.268 230.664 165.528C237.449 164.944 244.916 164.478 238.918 153.696C237.408 150.981 234.761 149.608 231.831 148.55C231.59 147.759 231.77 147.499 231.899 146.557L234.412 145.268L237.681 146.564L237.96 146.686C238.664 145.667 238.354 146.063 239.164 145.104L239.741 144.429Z" fill="#6B9632"/>
<path d="M169.833 386.928L170.052 386.546C180.011 369.468 200.504 374.599 214.548 383.263C220.377 387.792 225.427 391.073 223.093 399.305L223.89 399.103L225.875 399.708C226.121 401.763 224.611 403.269 223.231 404.908C200.792 416.398 189.777 414.272 168.248 403.701C168.115 403.093 166.126 399.24 165.716 398.416C166.591 394.994 168.275 389.54 167.002 386.447L169.833 386.928Z" fill="#EBF4B7"/>
<path d="M167.002 386.447L169.833 386.928C166.667 399.083 173.233 405.262 184.39 407.83C191.315 409.397 198.508 409.346 205.41 407.682C213.657 406.023 217.076 405.069 223.093 399.305L223.89 399.103L225.875 399.708C226.121 401.763 224.611 403.269 223.231 404.908C200.792 416.398 189.777 414.272 168.248 403.701C168.115 403.093 166.126 399.24 165.716 398.416C166.591 394.994 168.275 389.54 167.002 386.447Z" fill="#23170A"/>
<path d="M214.548 383.263C220.377 387.792 225.427 391.073 223.093 399.305C217.076 405.069 213.657 406.023 205.41 407.682C208.003 403.992 212.823 400.844 215.151 396.891C217.794 392.404 215.351 388.192 214.64 383.853L214.548 383.263Z" fill="#C4E17E"/>
<path d="M295.208 384.608C308.376 375.067 335.387 366.712 344.095 386.183L344.985 391.647C346.793 397.144 345.803 395.577 345.399 401.236C332.34 409.77 315.738 413.167 300.816 407.263C302.07 404.169 295.392 405.129 293.451 402.083C290.132 400.148 288.634 399.41 285.908 396.676C288.054 390.412 290.197 389.056 295.208 384.608Z" fill="#EBF4B7"/>
<path d="M344.985 391.647C346.793 397.144 345.803 395.577 345.399 401.236C332.34 409.77 315.738 413.167 300.816 407.263C302.07 404.169 295.392 405.129 293.451 402.083C298.292 403.704 301.699 403.938 305.621 405.137C319.38 408.418 340.864 408.844 344.985 391.647Z" fill="#23170A"/>
<path d="M295.208 384.608C294.519 400.431 299.039 395.555 305.621 405.137C301.699 403.938 298.292 403.704 293.451 402.083C290.132 400.148 288.634 399.41 285.908 396.676C288.054 390.412 290.197 389.056 295.208 384.608Z" fill="#C4E17E"/>
<path d="M223.89 399.103C227.588 395.634 231.269 396.389 236.361 397.611C253.108 401.627 270.022 396.64 285.908 396.676C288.634 399.41 290.132 400.148 293.451 402.083C295.392 405.129 302.07 404.169 300.816 407.263C288.944 406.066 287.071 399.962 271.433 404.672C266.232 403.578 255.853 404.649 250.068 404.522C241.615 404.337 231.128 402.508 223.231 404.908C224.611 403.269 226.121 401.763 225.875 399.708L223.89 399.103Z" fill="#391B05"/>
<path d="M145.057 373.126C149.341 376.396 165.82 385.263 167.002 386.447C168.275 389.54 166.591 394.994 165.716 398.416C162.707 394.28 160.718 393.586 156.116 392.018C151.791 387.876 143.779 379.628 145.057 373.126Z" fill="#432108"/>
<path d="M239.741 144.429C240.193 145.533 244.495 156.761 244.552 156.846C244.962 162.617 245.348 170.349 237.279 169.761L231.767 169.223C235.383 169.009 239.912 169.163 242.313 166.484C241.248 166.163 233.698 166.842 231.255 166.683L230.664 165.528C237.449 164.944 244.916 164.478 238.918 153.696C237.408 150.981 234.761 149.608 231.831 148.55C231.59 147.759 231.77 147.499 231.899 146.557L234.412 145.268L237.681 146.564L237.96 146.686C238.664 145.667 238.354 146.063 239.164 145.104L239.741 144.429Z" fill="#507116"/>
<path d="M269.147 390.212C275.58 386.9 279.622 387.917 286.171 385.398C289.263 384.208 291.308 379.741 293.166 378.946C301.964 375.181 311.81 371.577 320.677 368.084C324.157 372.237 329.495 368.882 332.834 370.272C344.248 375.026 339.617 376.871 351.948 373.377C348.681 375.618 347.678 376.078 344.001 377.612C322.347 364.936 308.156 373.063 288.997 385.021C283.14 388.677 275.937 389.498 269.147 390.212Z" fill="#A2D27E"/>
<path d="M163.265 370.54C167.392 370.673 173.746 369.616 176.106 372.691C179.355 372.154 190.204 369.69 192.806 369.812C200.111 370.153 220.192 378.549 222.844 385.124C220.518 383.908 217.487 381.215 214.987 379.797C198.859 370.651 187.425 368.334 171.27 377.449C168.183 376.367 166.332 375.811 163.511 374.121C163.792 373.607 163.369 371.263 163.265 370.54Z" fill="#A2D27E"/>
<path d="M155.973 369.777C158.666 367.685 157.443 368.136 160.595 367.783C162.186 368.853 162.338 368.797 163.265 370.54C163.369 371.263 163.792 373.607 163.511 374.121C160.235 372.813 158.866 371.763 155.973 369.777Z" fill="#B7DE93"/>
<path d="M231.427 309.243C229.095 303.732 223.454 284.359 229.088 279.735C247.023 283.175 252.864 286.79 270.834 280.354C273.646 279.346 277.722 278.652 278.916 281.855C283.819 295.006 273.697 316.328 261.849 321.85C249.497 328.439 237.934 319.416 231.427 309.243Z" fill="#E86058"/>
<path d="M231.427 309.243C229.095 303.732 223.454 284.359 229.088 279.735C247.023 283.175 252.864 286.79 270.834 280.354C273.646 279.346 277.722 278.652 278.916 281.855C283.819 295.006 273.697 316.328 261.849 321.85C261.28 321.205 261.106 320.744 260.682 319.977C298.093 297.981 237.157 279.409 233.389 307.669L231.427 309.243Z" fill="#94230F"/>
<path d="M233.389 307.669C241.741 319.163 246.142 323.521 260.682 319.977C261.106 320.744 261.28 321.205 261.849 321.85C249.497 328.439 237.934 319.416 231.427 309.243L233.389 307.669Z" fill="#B12D1C"/>
<path d="M330.329 277.15C339.602 276.318 349.92 279.591 353.557 288.97C354.966 292.584 354.886 296.61 353.334 300.165C350.735 306.143 346.196 308.593 340.514 310.915C331.008 312.249 320.241 311.572 316.11 301.046C314.582 297.089 314.675 292.689 316.368 288.799C319.279 282.025 323.985 279.76 330.329 277.15Z" fill="#F1B68A"/>
<path d="M168.654 275.694C178.558 275.21 188.084 278.239 190.575 289.113C191.608 293.664 190.713 298.44 188.103 302.309C184.481 307.607 180.624 308.763 174.757 309.991C165.093 310.227 155.239 307.33 152.263 296.932C151.112 292.893 151.682 288.558 153.838 284.953C157.282 279.316 162.514 277.081 168.654 275.694Z" fill="#FAA470"/>
<path d="M300.292 247.83C304.294 247.715 316.794 250.421 318.826 253.177C318.357 253.674 317.786 254.279 317.113 254.994C317.797 260.208 320.585 267.789 319.054 272.874C317.544 277.886 312.843 281.202 308.369 283.495C304.196 283.988 301.032 284.195 297.037 282.569C292.833 280.888 289.493 277.57 287.782 273.378C283.071 262.011 289.728 252.24 300.292 247.83Z" fill="#23170A"/>
<path d="M298.775 253.317C300.847 252.282 303.315 252.445 305.233 253.743C307.15 255.041 308.219 257.273 308.028 259.581C307.837 261.889 306.416 263.915 304.311 264.88C301.131 266.339 297.369 264.977 295.859 261.821C294.348 258.665 295.646 254.881 298.775 253.317Z" fill="#FFFFFE"/>
<path d="M196.15 247.092C222.563 244.535 224.217 276.111 201.657 282.473C189.015 281.717 181.058 271.805 185.188 258.827C188.322 248.98 187.684 255.347 184.401 251.201C189.189 250.214 190.983 249.914 195.269 247.58L196.15 247.092Z" fill="#23170A"/>
<path d="M196.715 251.787C198.874 250.822 201.387 251.111 203.27 252.542C205.153 253.973 206.106 256.318 205.755 258.657C205.404 260.996 203.806 262.958 201.586 263.773C198.311 264.976 194.673 263.367 193.36 260.134C192.046 256.902 193.53 253.21 196.715 251.787Z" fill="#FFFFFE"/>
<path d="M187.638 194.623C209.405 193.69 207.466 220.362 184.296 227.782C160.535 230.91 163.783 200.183 187.638 194.623Z" fill="#EBF4B7"/>
<path d="M254.533 121.085C267.812 85.7602 310.413 71.4872 344.825 80.4942C349.059 81.6032 366.93 86.3432 364.697 92.0012C358.1 99.5562 353.407 107.82 347.355 115.188C333.117 132.523 311.471 145.365 288.846 146.754C279.917 147.302 268.655 145.009 262.623 151.686C259.737 154.88 259.063 159.464 258.396 163.662L270.837 164.804C265.487 167.36 265.307 163.483 260.852 165.907C262.506 169.068 265.79 168.772 269.113 169.177C267.377 169.335 265.544 169.537 263.814 169.647L264.096 170.305C255.827 170.914 253.631 170.021 250.238 162.46C247.893 151.4 248.155 140.277 245.725 128.962L247.92 128.651C247.934 127.277 247.618 126.844 247.05 125.61L246.843 125.168L247.883 124.088C248.397 125.187 250.116 130.821 250.599 132.291C251.627 128.729 253.24 124.626 254.533 121.085Z" fill="#C4E17E"/>
<path d="M362.414 90.479L364.697 92.001C358.1 99.556 353.407 107.82 347.355 115.188C333.117 132.523 311.471 145.365 288.846 146.754C279.917 147.302 268.655 145.009 262.623 151.686C259.737 154.88 259.063 159.464 258.396 163.662L270.837 164.804C265.487 167.36 265.307 163.483 260.852 165.907C262.506 169.068 265.79 168.772 269.113 169.177C267.377 169.335 265.544 169.537 263.814 169.647C260.882 169.25 257.823 169.4 255.604 167.762C254.574 164.957 256.545 161.389 256.27 157.489C256.93 153.91 261.072 145.558 262.861 141.765L264.95 143.668C265.568 143.809 268.756 143.215 270.508 143.294C283.284 143.874 298.671 144.435 310.118 137.852C326.068 133.489 342.426 114.313 352.026 101.558C355.364 97.124 357.919 93.876 362.414 90.479Z" fill="#698A26"/>
<path d="M259.977 117.437C260.015 121.89 257.268 125.008 258.288 128.692C261.275 131.001 263.186 131.457 266.123 133.204C267.675 130.091 268.577 127.39 271.907 126.12C268.632 131.431 265.635 136.156 262.861 141.765C261.072 145.558 256.93 153.91 256.27 157.489C256.545 161.389 254.574 164.957 255.604 167.762C257.823 169.4 260.882 169.25 263.814 169.647L264.096 170.305C255.827 170.914 253.631 170.021 250.238 162.46C247.893 151.4 248.155 140.277 245.725 128.962L247.92 128.651C247.934 127.277 247.618 126.844 247.05 125.61L246.843 125.168L247.883 124.088C248.397 125.187 250.116 130.821 250.599 132.291C251.627 128.729 253.24 124.626 254.533 121.085L256.918 123.511C257.835 121.28 258.83 119.54 259.977 117.437Z" fill="#A2D27E"/>
<path d="M254.533 121.085L256.918 123.511C254.823 130.272 249.659 155.977 254.564 161.239C255.331 159.773 255.703 159.038 256.27 157.489C256.545 161.389 254.574 164.957 255.604 167.762C257.823 169.4 260.882 169.25 263.814 169.647L264.096 170.305C255.827 170.914 253.631 170.021 250.238 162.46C247.893 151.4 248.155 140.277 245.725 128.962L247.92 128.651C247.934 127.277 247.618 126.844 247.05 125.61L246.843 125.168L247.883 124.088C248.397 125.187 250.116 130.821 250.599 132.291C251.627 128.729 253.24 124.626 254.533 121.085Z" fill="url(#paint2_linear_162_453)"/>
<path d="M254.533 121.085C267.812 85.7602 310.413 71.4872 344.825 80.4942C349.059 81.6032 366.93 86.3432 364.697 92.0012L362.414 90.4792C329.954 72.7042 279.369 80.5472 261.085 115.234C260.702 115.961 260.333 116.696 259.977 117.437C258.83 119.54 257.835 121.28 256.918 123.511L254.533 121.085Z" fill="#899D2B"/>
<path d="M264.95 143.668C271.997 129.911 278.106 119.62 291.309 110.698C287.807 116.529 279.059 122.04 272.831 131.984L273.781 132.285C280.58 134.496 286.58 138.379 292.761 140.996C296.045 142.387 305.647 137.412 310.118 137.852C298.671 144.435 283.284 143.874 270.508 143.294C268.756 143.215 265.568 143.809 264.95 143.668Z" fill="#A2D27E"/>
<path d="M271.907 126.12C286.367 108.805 306.811 95.6552 330.319 97.4562C329.852 98.8472 319.835 98.9962 317.183 99.6102C307.399 101.877 299.632 105.248 291.309 110.698C278.106 119.62 271.997 129.911 264.95 143.668L262.861 141.765C265.635 136.156 268.632 131.431 271.907 126.12Z" fill="#899D2B"/>
<path d="M141.89 88.8234C170.773 67.8574 218.283 75.7094 238.966 104.987C243.055 110.77 246.075 117.239 247.883 124.088L246.843 125.168L247.05 125.61C247.618 126.844 247.934 127.277 247.92 128.651L245.725 128.962C248.155 140.277 247.893 151.4 250.238 162.46C248.157 160.933 247.379 158.955 246.124 156.646L244.552 156.846C244.495 156.761 240.193 145.533 239.741 144.429L239.164 145.104C238.354 146.063 238.664 145.667 237.96 146.686L237.681 146.564L234.412 145.268L231.899 146.557C231.77 147.499 231.59 147.759 231.831 148.55C216.675 150.229 204.103 147.601 190.524 140.637C176.147 133.139 163.894 122.134 154.897 108.642C152.706 105.361 150.836 101.36 148.719 97.8864C146.62 94.4414 142.958 92.1454 141.89 88.8234Z" fill="#C4E17E"/>
<path d="M141.89 88.8232L144.955 89.0242C149.657 92.6852 152.453 96.0102 155.766 100.964C168.059 119.351 183.354 134.548 205.494 140.188C217.509 145.266 227.685 142.445 234.412 145.268L231.899 146.557C231.77 147.499 231.59 147.759 231.831 148.55C216.675 150.229 204.103 147.601 190.524 140.637C176.147 133.139 163.894 122.134 154.897 108.642C152.706 105.361 150.836 101.36 148.719 97.8862C146.62 94.4412 142.958 92.1452 141.89 88.8232Z" fill="url(#paint3_linear_162_453)"/>
<path d="M141.89 88.8234C170.773 67.8574 218.283 75.7094 238.966 104.987C243.055 110.77 246.075 117.239 247.883 124.088L246.843 125.168L247.05 125.61C247.618 126.844 247.934 127.277 247.92 128.651L245.725 128.962C244.822 125.146 244.469 123.924 242.894 120.351C228.859 82.4314 177.34 68.3834 144.955 89.0244L141.89 88.8234Z" fill="#899D2B"/>
<path d="M213.21 112.905C223.369 120.542 233.815 134.433 237.681 146.564L234.412 145.268C227.685 142.445 217.509 145.266 205.494 140.188C208.1 139.486 209.78 140.546 213.337 140.59C216.997 137.971 220.302 127.714 222.085 123.182C219.188 119.78 214.838 116.773 213.21 112.905Z" fill="#A2D27E"/>
<path d="M242.894 120.351C244.469 123.924 244.822 125.146 245.725 128.962C248.155 140.277 247.893 151.4 250.238 162.46C248.157 160.933 247.379 158.955 246.124 156.646L244.552 156.846C244.495 156.761 240.193 145.533 239.741 144.429C238.541 139.456 233.209 132.511 230.842 127.525L231.938 127.534C234.442 129.96 235.898 133.211 237.555 136.311C239.372 135.54 241.532 135.086 243.467 134.601C246.959 131.079 242.532 125.86 242.894 120.351Z" fill="#A2D27E"/>
<path d="M213.21 112.905L212.482 112.275C204.751 105.642 195.992 102.3 186.308 99.5451C183.534 98.7561 178.541 97.7401 176.334 96.3101C194.185 97.2591 213.31 107.678 225.167 120.925C227.093 123.095 228.985 125.295 230.842 127.525C233.209 132.511 238.541 139.456 239.741 144.429L239.164 145.104C238.354 146.063 238.664 145.667 237.96 146.686L237.681 146.564C233.815 134.433 223.369 120.542 213.21 112.905Z" fill="#899D2B"/>
<defs>
<linearGradient id="paint0_linear_162_453" x1="279.61" y1="393.977" x2="214.377" y2="165.287" gradientUnits="userSpaceOnUse">
<stop stop-color="#ACDC91"/>
<stop offset="1" stop-color="#FFFFC0"/>
</linearGradient>
<linearGradient id="paint1_linear_162_453" x1="345.045" y1="391.578" x2="388.917" y2="375.705" gradientUnits="userSpaceOnUse">
<stop stop-color="#3B1D06"/>
<stop offset="1" stop-color="#6F3C21"/>
</linearGradient>
<linearGradient id="paint2_linear_162_453" x1="248.138" y1="143.603" x2="257.084" y2="142.763" gradientUnits="userSpaceOnUse">
<stop stop-color="#4D6E14"/>
<stop offset="1" stop-color="#5F8620"/>
</linearGradient>
<linearGradient id="paint3_linear_162_453" x1="224.54" y1="154.626" x2="143.811" y2="88.9737" gradientUnits="userSpaceOnUse">
<stop stop-color="#5D7D18"/>
<stop offset="1" stop-color="#98A02A"/>
</linearGradient>
</defs>
</svg>
