<svg width="96" height="96" viewBox="0 0 96 96" fill="none" xmlns="http://www.w3.org/2000/svg">
<rect width="96" height="96" fill="white"/>
<path d="M28.8207 65.2164C32.6556 61.7384 35.2139 64.1262 39.4385 64.5581C40.7771 64.6949 41.1915 64.7319 42.3373 65.4401C44.339 65.189 45.5692 65.9607 47.1699 64.713C47.4315 64.5091 48.2375 64.4197 48.6058 64.3752L48.6204 64.6559C48.4172 65.6553 48.1895 66.6495 47.9373 67.6377C47.8249 68.2962 47.6695 69.3899 47.49 69.9932C47.9409 70.2148 48.0983 70.1957 48.612 70.2428C49.2366 70.2723 51.253 70.4082 51.7696 70.3528L52.1704 70.3365L52.3785 70.071C52.4576 70.1052 52.5366 70.1396 52.6157 70.1738C52.7098 69.8439 52.3695 70.2053 52.1086 69.5034C52.3184 68.6194 52.4498 67.5109 52.5827 66.5966L52.7616 65.6079L52.8691 64.9177C53.2812 65.1027 53.7566 65.3019 54.15 65.5128C56.1148 64.3913 57.9042 63.6039 60.2836 64.1256C61.9015 64.4803 63.604 66.6392 65.0604 65.747C65.6691 65.4444 66.6822 64.4846 67.251 64.2553C68.753 63.6498 70.9873 63.3674 72.5869 63.7618C74.9817 64.3523 75.3403 65.7121 74.1698 67.7053C76.5393 67.7481 77.0888 68.2301 79.2502 68.7662C81.5651 69.3403 83.9551 68.3687 85.489 70.9569L85.6555 71.0737C87.4412 71.5843 93.9089 72.8083 93.2946 75.3337C92.8086 76.0326 92.5716 75.9411 91.9946 76.84C86.6427 78.6278 82.2844 80.4662 76.5673 81.2668C74.2943 81.5852 71.9081 81.7929 69.6329 82.0336C56.7695 83.3805 43.5672 83.3038 30.7104 81.9041C28.9014 81.6967 26.9113 81.8777 25.12 81.6273C18.0664 80.6409 10.6711 79.5109 3.99149 76.9913C3.21722 76.6993 1.44058 75.2159 2.17368 74.3525C3.16801 73.1812 5.8482 72.5041 7.26251 72.0327C8.65993 71.3886 10.383 71.2282 12.0582 70.6224C13.0875 68.7368 15.9884 68.7662 17.4422 68.207L17.8484 68.055L18.0438 67.9819C18.9123 66.7346 19.5303 66.0374 21.0161 65.4786C22.7023 64.8543 24.5679 64.9293 26.1986 65.687L28.8207 65.2164Z" fill="#E5C289"/>
<path d="M7.26251 72.0323C8.65993 71.3883 10.383 71.2278 12.0582 70.6221C11.8064 70.9617 11.3527 71.5555 11.1868 71.9182C11.4906 71.8105 12.0166 71.3998 12.3019 71.1955C12.3007 71.6661 12.2883 71.8853 12.373 72.3438C12.69 72.6338 12.733 72.6251 13.1649 72.7302L12.7458 73.2791C14.2424 73.324 14.6632 73.2327 16.0327 73.817L16.2155 73.8955L16.2694 73.9732C16.5685 74.2498 16.5609 74.4747 16.6377 74.8805C17.6485 75.8349 18.8143 75.1008 18.8283 77.0097C19.6281 77.2242 21.9279 77.655 22.4942 77.9218C25.1915 79.1918 26.2953 80.1094 29.4167 79.6851C30.1473 79.5858 30.6373 79.8816 31.3912 79.4332C31.4198 79.4367 31.4482 79.4404 31.4768 79.4441C32.9527 80.0879 34.7727 80.0721 36.5259 80.4171C37.4035 80.0183 39.1046 79.7512 39.4311 78.8935C40.5492 78.508 41.4019 78.1574 42.4831 77.6919C45.9561 79.9934 47.0694 78.2865 50.5074 77.1883C50.7513 77.1103 52.1757 77.115 52.5292 77.1156C53.0721 77.3173 55.9653 78.4991 56.3625 78.5679C58.8234 78.9942 62.556 78.785 65.0846 78.4799C65.686 78.4072 67.4004 77.6952 68.0716 77.528C68.9022 77.3212 69.602 77.2763 70.4197 77.1533C70.8444 76.9502 71.2543 76.748 71.6279 76.4547C72.7604 75.5655 74.7178 75.2211 76.1177 74.9433C78.5702 74.4232 81.35 74.4218 82.8224 72.5351C83.1872 72.2984 83.4509 72.227 83.8622 72.0787C84.4368 71.7675 85.2629 71.4505 85.6555 71.0734C87.4412 71.5839 93.9089 72.808 93.2946 75.3334C92.8086 76.0322 92.5716 75.9408 91.9946 76.8396C86.6427 78.6274 82.2844 80.4659 76.5673 81.2665C74.2943 81.5849 71.9081 81.7925 69.6329 82.0333C56.7695 83.3801 43.5672 83.3035 30.7104 81.9038C28.9014 81.6963 26.9113 81.8774 25.12 81.6269C18.0664 80.6406 10.6711 79.5106 3.99149 76.991C3.21722 76.6989 1.44058 75.2156 2.17368 74.3522C3.16801 73.1808 5.8482 72.5038 7.26251 72.0323Z" fill="#F4E0C2"/>
<path d="M7.26367 72.0323C8.6611 71.3883 10.3842 71.2278 12.0593 70.6221C11.8076 70.9617 11.3538 71.5555 11.1879 71.9182C11.4918 71.8105 12.0178 71.3998 12.3031 71.1955C12.3019 71.6661 12.2895 71.8853 12.3741 72.3438C12.6912 72.6338 12.7342 72.6251 13.1661 72.7302L12.7469 73.2791L12.4495 73.2179C11.066 73.138 10.5343 73.3769 9.22064 73.545C8.29527 73.6634 7.92307 72.7244 7.33161 72.1026L7.26367 72.0323Z" fill="#ECD2A8"/>
<path d="M11.1875 71.9181C11.4913 71.8103 12.0173 71.3996 12.3026 71.1953C12.3014 71.6659 12.289 71.8851 12.3737 72.3436C12.6907 72.6336 12.7337 72.6249 13.1656 72.73L12.7465 73.2789L12.449 73.2177C12.015 73.1221 11.5833 73.0169 11.1541 72.9022L10.9902 72.6161L11.1875 71.9181Z" fill="#E5C289"/>
<path d="M16.2711 73.9736C16.5702 74.2502 16.5626 74.4752 16.6394 74.8809C17.6502 75.8354 18.816 75.1013 18.83 77.0102C17.6343 76.9513 15.1625 76.9066 14.0391 77.0798C14.3678 76.6568 14.6659 76.5863 15.1923 76.4951L15.069 76.5532L15.3319 76.6333L15.3764 76.4947C14.7847 76.2385 14.8035 76.271 14.4817 75.6965L14.4177 75.5804C15.4388 75.4898 15.7047 74.7697 16.2711 73.9736Z" fill="#ECD2A8"/>
<path d="M70.4199 77.1534C70.8446 76.9503 71.2545 76.7481 71.6282 76.4548C72.7606 75.5656 74.718 75.2212 76.1179 74.9434L76.9961 75.365L76.8825 75.5757C75.3591 75.877 71.526 77.1188 70.4199 77.1534Z" fill="#ECD2A8"/>
<path d="M14.4154 75.5801L14.4794 75.6962C14.8012 76.2707 14.7825 76.2381 15.3741 76.4944L15.3296 76.633L15.0667 76.5529L15.1901 76.4948C14.6637 76.586 14.3656 76.6565 14.0368 77.0795C13.7527 77.2159 13.7535 77.2383 13.4445 77.2589C12.6282 77.2412 12.2103 77.2457 11.582 76.7296C12.7155 75.9947 13.0845 75.8993 14.4154 75.5801Z" fill="#E2BE8A"/>
<path d="M13.4457 77.2588L13.2001 77.4432C13.0554 77.9879 13.0628 78.0555 12.7166 78.4784L12.3563 78.4767C11.9089 78.1564 11.7292 78.0683 11.1973 77.9295L11.1997 77.6036C11.5094 77.2599 11.5271 77.1892 11.5833 76.7295C12.2116 77.2456 12.6295 77.2411 13.4457 77.2588Z" fill="#ECD2A8"/>
<path d="M80.0551 74.8031C80.7942 74.7361 81.7965 74.6152 82.4448 75.0059L82.4788 75.2706L82.1342 75.5804C81.5005 75.657 80.0419 75.8671 79.7383 75.2453L80.0551 74.8031Z" fill="#B0875D"/>
<path d="M72.8458 77.1689C73.0354 77.198 73.2151 77.2587 73.4006 77.3123C73.2439 77.8503 72.494 78.4482 71.982 78.6398C71.6324 78.565 71.542 78.5664 71.2402 78.3574C71.4617 78.2832 71.6824 78.2068 71.9021 78.1277C72.6414 77.8581 72.5345 77.8313 72.8458 77.1689Z" fill="#ECD2A8"/>
<path d="M28.8215 65.2164C32.6564 61.7384 35.2147 64.1262 39.4393 64.5581C40.7778 64.6949 41.1922 64.7319 42.3381 65.4401C44.3397 65.189 45.57 65.9607 47.1706 64.713C47.4323 64.5091 48.2382 64.4197 48.6065 64.3752L48.6212 64.6559C48.418 65.6553 48.1903 66.6495 47.9381 67.6377C47.8257 68.2962 47.6703 69.3899 47.4907 69.9932C47.9416 70.2148 48.0991 70.1957 48.6127 70.2428C49.2373 70.2723 51.2538 70.4082 51.7703 70.3528L52.1711 70.3365L52.3793 70.071C52.4583 70.1052 52.5374 70.1396 52.6164 70.1738C52.7105 69.8439 52.3702 70.2053 52.1094 69.5034C52.3192 68.6194 52.4505 67.5109 52.5835 66.5966L52.7624 65.6079L52.8698 64.9177C53.282 65.1027 53.7573 65.3019 54.1507 65.5128C56.1155 64.3913 57.9049 63.6039 60.2844 64.1256C61.9023 64.4803 63.6048 66.6392 65.0611 65.747C65.6698 65.4444 66.6829 64.4846 67.2517 64.2553C68.7537 63.6498 70.988 63.3674 72.5876 63.7618C74.9825 64.3523 75.3411 65.7121 74.1705 67.7053C76.5401 67.7481 77.0895 68.2301 79.2509 68.7662C81.5659 69.3403 83.9558 68.3687 85.4897 70.9569L85.1906 71.0955C84.0544 70.0912 83.0576 69.8185 81.6023 69.6336C80.0991 69.4002 78.5724 69.4231 77.0669 69.1553C76.9464 69.1339 76.4519 69.4746 76.3428 69.5584C75.9885 68.8929 76.6794 69.1446 76.0237 68.5415C75.3938 68.3693 75.2661 68.3285 74.5919 68.3374L74.4867 68.53L74.8221 69.1578C73.8459 69.3324 70.7192 69.235 70.2259 69.621L70.1312 69.5903C69.1426 69.2756 66.7603 69.2556 65.6017 69.2027L65.5494 69.0723L65.7022 68.7695C65.3102 68.2834 64.2278 67.8736 63.6503 68.1341L63.7909 68.2309C64.1748 68.4972 64.362 68.5776 64.5403 69.005L64.4989 69.3403C63.3524 67.8571 61.8121 68.3846 61.7998 70.2004L61.9194 70.4076C62.2525 70.9188 62.5201 70.9734 63.1434 71.1095C63.2396 71.1301 63.3361 71.1495 63.4327 71.1674L63.5587 71.4086C63.414 71.8094 63.353 71.9355 63.3067 72.3538C63.1099 72.3105 62.4719 72.1581 62.293 72.162C61.2171 72.2327 60.4278 70.2708 59.6186 70.0939C56.5806 69.4297 52.6907 69.6078 51.0385 72.7206C50.6275 73.495 52.2895 73.3879 52.6533 74.0755L52.4447 74.3545C51.9926 74.4073 50.7307 73.791 50.5034 73.3533C49.6806 71.7692 48.2506 71.4683 46.6327 71.0681C46.3194 70.6778 46.1473 70.4731 45.7328 70.1932C45.0341 69.7884 44.2104 69.6391 43.4216 69.4511C41.4391 69.2509 41.2071 69.6152 39.5719 69.5936C39.3855 69.8923 39.2458 70.0375 39.1815 70.3668L37.9651 71.12L38.8279 71.2389C38.2934 71.9365 33.913 72.3544 33.1227 72.7157C31.8335 73.3603 31.4879 72.907 31.0154 73.3313C30.847 73.4571 30.6774 73.616 30.4892 73.6707C29.647 73.5748 28.9318 73.6835 28.1479 73.4635C27.3162 73.2563 28.1524 72.8304 27.7662 72.3233C26.8647 71.1396 25.6834 71.8766 24.3887 71.8755C22.652 71.8741 21.3691 71.4696 19.7499 71.1977C19.5204 71.1699 19.2915 71.1384 19.0627 71.1033C17.1165 70.8002 17.5068 70.1419 16.3179 69.3246C15.4354 69.0202 14.2158 69.6939 13.5052 70.2012C13.184 70.4583 12.5693 70.9213 12.3027 71.1958C12.0173 71.4001 11.4914 71.8108 11.1875 71.9186C11.3534 71.5559 11.8072 70.962 12.0589 70.6224C13.0883 68.7368 15.9891 68.7662 17.443 68.207L17.8492 68.055L18.0445 67.9819C18.9131 66.7346 19.5311 66.0374 21.0168 65.4786C22.7031 64.8543 24.5687 64.9293 26.1993 65.687L28.8215 65.2164Z" fill="#7D6248"/>
<path d="M54.9256 65.7294C57.1955 64.2825 59.9801 64.2104 62.2094 65.7762C62.6782 66.8266 63.4549 66.6722 64.4169 66.6194L64.5547 66.7974C64.2413 67.6114 63.6441 67.1714 62.8023 67.2134C62.0493 67.2511 61.051 67.834 60.5036 67.7337C60.8614 67.4301 61.079 67.275 61.4718 67.0171L61.478 66.7171C60.3525 66.9477 60.4717 67.625 60.0943 67.8956C59.0494 68.6451 54.7317 69.7092 53.4714 69.6853C53.2816 69.3656 53.289 69.3497 53.1974 69.0068L52.8386 68.7075C52.4291 68.9073 52.3949 69.0933 52.1094 69.5026C52.3192 68.6186 52.4505 67.51 52.5835 66.5957L52.7624 65.6071C53.5556 65.8143 54.0956 65.9006 54.9256 65.7294Z" fill="#B0875D"/>
<path d="M54.9269 65.7294C57.1968 64.2825 59.9814 64.2104 62.2107 65.7762L61.9416 66.0396C61.3955 66.0019 60.2157 66.6783 59.9204 67.0981C59.2217 67.5187 56.6385 68.1277 55.8352 67.7183C55.5787 67.5875 55.8896 67.0697 54.9665 66.6594C54.7392 66.2512 54.8296 66.321 54.9269 65.7294Z" fill="#E2BE8A"/>
<path d="M52.7629 65.6074C53.5561 65.8146 54.0961 65.9009 54.9261 65.7298C54.8288 66.3213 54.7384 66.2515 54.9657 66.6597C55.8888 67.07 55.5779 67.5878 55.8344 67.7186C56.6377 68.1281 59.2209 67.519 59.9197 67.0984L59.841 67.5398C59.1831 68.0288 56.8705 68.4055 55.9516 68.3315C54.2884 67.5899 55.9971 66.9689 52.584 66.5961L52.7629 65.6074Z" fill="#C49A68"/>
<path d="M29.6156 69.4997C31.3042 67.9524 35.8365 67.9417 37.8833 68.719C38.2925 68.8746 39.1238 69.3695 39.5716 69.594C39.3853 69.8927 39.2455 70.0379 39.1813 70.3672L37.9648 71.1204C37.4575 71.347 37.0096 71.5418 36.4889 71.741C34.7782 70.6315 31.2111 72.2246 29.3945 70.0992L29.6156 69.4997Z" fill="#ECD2A8"/>
<path d="M38.2031 64.9668C39.0007 65.0049 39.8956 65.1861 40.6927 65.325C41.3986 65.6428 42.1976 65.9643 42.8135 66.4189C43.091 66.7867 43.0079 66.8096 43.3445 66.8757C43.9936 65.1695 45.6061 65.9089 46.7011 66.6634C46.892 67.2081 46.9163 67.8238 46.6583 68.3352C45.5662 69.0077 44.8689 68.1084 43.8822 67.8549C42.8417 67.5875 41.2605 67.5671 40.3547 66.9408C40.0461 66.7391 39.6489 66.4086 39.3482 66.1744C39.0665 65.8405 38.5204 65.3003 38.2031 64.9668Z" fill="#C49A68"/>
<path d="M40.6935 65.3252C41.3994 65.643 42.1983 65.9645 42.8143 66.4191C42.7604 66.8382 42.8579 66.684 42.5535 66.9202C41.6787 66.8786 40.8637 66.8092 40.082 66.3727C40.279 66.0197 40.4828 65.6706 40.6935 65.3252Z" fill="#E2BE8A"/>
<path d="M46.701 66.6641C46.9198 66.8185 47.2352 67.0037 47.3797 67.2043L47.938 67.6377C47.8256 68.2961 47.6702 69.3898 47.4907 69.9931C46.7712 69.9361 46.576 69.6765 45.8794 69.3767C43.7089 68.9171 43.1961 68.7042 40.9838 68.9031C40.645 67.7544 40.3932 68 40.0801 67.2918L40.3545 66.9415C41.2603 67.5678 42.8416 67.5882 43.882 67.8556C44.8687 68.1091 45.566 69.0084 46.6582 68.3359C46.9161 67.8245 46.8918 67.2088 46.701 66.6641Z" fill="#B0875D"/>
<path d="M47.3812 67.2041L47.9395 67.6375C47.8271 68.2959 47.6717 69.3896 47.4922 69.9929C46.7727 69.9358 46.5775 69.6763 45.8809 69.3764C47.4726 68.8846 46.4388 68.1647 47.3812 67.2041Z" fill="#987048"/>
<path d="M36.4892 71.7404C34.6352 72.0172 29.2093 72.8347 28.2734 70.8539C28.4655 70.5301 29.2925 69.8012 29.6159 69.499L29.3948 70.0986C31.2114 72.224 34.7784 70.6308 36.4892 71.7404Z" fill="#E2BE8A"/>
<path d="M30.4888 73.6704C28.932 73.2331 29.0239 73.5839 28.1429 72.1499C27.6435 71.3374 27.1426 71.3166 26.2541 71.1708L26.0898 70.916C26.5769 70.67 26.8913 70.3662 27.3777 70.4217C28.8026 72.4546 30.8293 72.5858 33.1223 72.7153C31.8331 73.36 31.4875 72.9067 31.015 73.3309C30.8466 73.4568 30.677 73.6156 30.4888 73.6704Z" fill="#C49A68"/>
<path d="M16.3184 69.325C16.8985 69.222 17.9252 68.7415 18.3023 68.7975C19.399 71.1546 19.3191 69.5124 20.5846 70.6189L20.721 70.9878L19.7504 71.1981C19.5208 71.1702 19.2919 71.1387 19.0632 71.1037C17.1169 70.8005 17.5072 70.1423 16.3184 69.325Z" fill="#C49A68"/>
<path d="M48.6121 70.2422C49.2367 70.2716 51.2532 70.4076 51.7697 70.3522C51.4681 71.0197 51.3948 71.4141 50.7803 71.7447C49.9573 71.8973 48.6251 71.0364 48.3262 70.3876L48.6121 70.2422Z" fill="#987048"/>
<path d="M39.3477 66.1748C39.6484 66.409 40.0456 66.7396 40.3541 66.9412L40.0797 67.2916C40.3929 67.9997 40.6446 67.7542 40.9835 68.9028C40.5777 69.0165 39.9498 68.9896 39.5959 68.7432C39.2748 67.9645 39.8137 67.4308 39.4043 66.3245L39.3477 66.1748Z" fill="#987048"/>
<path d="M21.7031 70.1686C16.3075 69.956 19.105 63.7455 26.8281 66.4933C27.5872 66.0583 28.0335 65.7559 28.668 66.4401C28.5916 67.0065 28.6696 67.0689 28.9442 67.6069L28.1634 67.6652L28.045 67.8032L27.7739 68.2061L27.5952 68.6028C27.7823 69.2918 27.8562 69.1297 27.6193 69.6295C26.3483 70.6128 23.1271 70.6985 21.7031 70.1686Z" fill="#ECD2A8"/>
<path d="M21.7051 70.1683C23.5914 69.0233 25.337 69.2433 27.5972 68.6025C27.7843 69.2915 27.8582 69.1294 27.6213 69.6293C26.3503 70.6126 23.1291 70.6983 21.7051 70.1683Z" fill="#E2BE8A"/>
<path d="M26.8301 66.4936C27.5891 66.0586 28.0354 65.7562 28.6699 66.4404C28.5935 67.0069 28.6716 67.0693 28.9462 67.6072L28.1653 67.6655L28.047 67.8035L27.7758 68.2064C27.6955 67.275 27.4856 67.0814 26.8301 66.4936Z" fill="#987048"/>
<path d="M29.3526 65.6001C31.948 62.9417 37.2995 63.4513 38.923 66.8806C39.1116 67.3307 39.107 67.3457 39.0121 67.8151C38.2494 68.3706 35.5254 67.7782 34.0814 67.8433L33.6155 67.8295C32.1339 68.1278 31.484 68.0089 30.1389 67.4497C29.5295 67.2079 29.469 67.1616 29.0801 66.6337L29.1425 66.2994L29.3526 65.6001Z" fill="#ECD2A8"/>
<path d="M29.3526 65.6006L30.0472 66.2584C30.5617 66.3863 30.8302 66.4733 31.3704 66.4127C32.8847 66.243 37.9668 67.5153 38.923 66.8811C39.1116 67.3311 39.107 67.3462 39.0121 67.8156C38.2494 68.371 35.5254 67.7787 34.0814 67.8438L33.6155 67.83C32.1339 68.1282 31.484 68.0094 30.1389 67.4502C29.5295 67.2084 29.469 67.162 29.0801 66.6341L29.1425 66.2998L29.3526 65.6006Z" fill="#E5C289"/>
<path d="M29.3526 65.6006L30.0472 66.2584C31.723 67.7047 33.0377 66.098 34.0814 67.8438L33.6155 67.83C32.1339 68.1282 31.484 68.0094 30.1389 67.4502C29.5295 67.2084 29.469 67.162 29.0801 66.6341L29.1425 66.2999L29.3526 65.6006Z" fill="#E2BE8A"/>
<path d="M29.1425 66.2988C30.9664 67.686 31.61 66.8724 32.8419 67.8149L33.6155 67.829C32.1339 68.1272 31.484 68.0084 30.1389 67.4491C29.5295 67.2073 29.469 67.161 29.0801 66.6331L29.1425 66.2988Z" fill="#C49A68"/>
<path d="M69.1717 64.3047C70.9374 64.1486 75.3199 63.8744 73.9723 66.9553C73.8146 67.145 73.5009 67.5442 73.3432 67.705C71.9431 68.2998 69.0214 68.6024 67.5433 68.1573C66.5625 67.8622 65.9709 67.5977 64.8946 67.4237L64.7031 67.3938L65.5704 66.1784C66.6512 65.0973 67.7405 64.709 69.1717 64.3047Z" fill="#E5C289"/>
<path d="M69.1715 64.3047C70.9373 64.1486 75.3198 63.8744 73.9722 66.9553C72.1873 66.9073 70.24 67.0502 68.6807 67.0033L68.3477 66.842C68.9453 66.263 69.1874 66.5553 68.9774 65.7384C68.8395 65.2021 68.9401 64.8002 69.1715 64.3047Z" fill="#ECD2A8"/>
<path d="M65.5704 66.1777C66.5681 66.9845 68.7869 67.8813 70.0845 67.7406C70.8433 67.6125 72.5757 67.5946 73.3432 67.7044C71.9431 68.2992 69.0214 68.6018 67.5433 68.1567C66.5625 67.8615 65.9709 67.597 64.8946 67.423L64.7031 67.3931L65.5704 66.1777Z" fill="#E2BE8A"/>
<path d="M28.6703 66.4414C28.8105 66.4985 28.975 66.5469 29.082 66.6344C29.4709 67.1623 29.5315 67.2086 30.1408 67.4504C29.894 67.9225 29.5358 68.816 29.1094 68.961L28.9406 68.7878L28.9466 67.6082C28.6719 67.0702 28.5939 67.0078 28.6703 66.4414Z" fill="#75553E"/>
<path d="M28.0469 67.8037L28.1653 67.6657L28.9461 67.6074L28.9401 68.787C28.8491 69.2669 28.9325 69.1909 28.6581 69.5231L28.4734 69.4397C28.1064 68.8782 28.1128 68.4614 28.0469 67.8037Z" fill="#B0875D"/>
<path d="M14.2294 72.3418C14.4758 72.3494 17.0152 72.6196 17.4549 72.6757C18.0719 72.5688 18.1752 72.5346 18.7255 72.8147C19.2748 73.5481 18.3661 74.1504 17.8205 74.646C19.8576 77.5491 21.6291 76.2846 24.5769 77.2976C25.0376 77.456 25.2986 78.2119 25.732 78.3694C27.0448 78.6889 28.6588 77.9524 29.8825 78.4051C30.1905 78.519 30.6061 78.6957 30.8385 78.5771L30.9833 78.0644L31.2879 78.5985C32.8165 79.0119 36.9563 76.7503 38.5853 77.2049C38.629 77.217 38.9513 77.6663 39.0143 77.7587C40.1122 77.9637 41.0627 77.3872 42.1314 77.4483C45.1366 77.6205 43.4658 79.982 48.8289 77.569L48.8583 77.4115C48.1219 77.2199 47.3312 76.994 46.5843 76.8834C47.4979 76.8869 48.3776 76.9695 49.2752 77.1295C50.301 77.3124 51.7363 76.4142 52.5295 77.1155C52.1761 77.1149 50.7517 77.1101 50.5077 77.1882C47.0697 78.2864 45.9564 79.9933 42.4834 77.6918C41.4022 78.1573 40.5495 78.5078 39.4314 78.8934C39.1049 79.7511 37.4038 80.0182 36.5262 80.417C34.7731 80.072 32.953 80.0878 31.4771 79.444C31.4485 79.4403 31.4201 79.4366 31.3915 79.4331C30.6376 79.8815 30.1476 79.5857 29.417 79.6849C26.2957 80.1092 25.1918 79.1917 22.4945 77.9217C21.9282 77.6549 19.6284 77.224 18.8286 77.0096C18.8146 75.1007 17.6488 75.8348 16.638 74.8804C16.5612 74.4746 16.5688 74.2497 16.2697 73.9731L16.2158 73.8954L16.033 73.8169C14.6635 73.2326 14.2427 73.3238 12.7461 73.2789L13.1652 72.73L14.2294 72.3418Z" fill="#E2BE8A"/>
<path d="M31.3906 79.4336C31.496 79.3417 32.8799 79.131 33.2302 79.0523L32.6594 78.8019L32.6905 78.6334C33.8713 78.0464 36.086 79.228 37.4612 79.2189C38.1519 79.2144 38.7603 79.0486 39.4306 78.8939C39.104 79.7516 37.403 80.0187 36.5254 80.4175C34.7722 80.0725 32.9521 80.0883 31.4763 79.4445C31.4476 79.4408 31.4192 79.4371 31.3906 79.4336Z" fill="#ECD2A8"/>
<path d="M39.1818 70.3662C39.0148 71.2461 39.437 71.4467 38.3441 72.05C37.6324 72.4428 37.4346 72.6578 36.8898 73.2576C34.7149 73.2489 32.8209 74.4664 31.0156 73.3307C31.4881 72.9064 31.8337 73.3597 33.1229 72.7151C33.9132 72.3538 38.2937 71.9359 38.8281 71.2383L37.9653 71.1194L39.1818 70.3662Z" fill="#E2BE8A"/>
<path d="M81.6015 69.6338C83.0568 69.8187 84.0536 70.0914 85.1898 71.0957L85.4889 70.9571L85.6555 71.0739C85.2629 71.451 84.4367 71.768 83.8622 72.0792L84.0186 71.603C82.8501 71.1209 82.7702 71.2307 81.5735 71.3781C81.6388 71.3701 79.9935 70.1141 79.7852 69.967C80.017 69.8012 81.2468 69.6772 81.6015 69.6338Z" fill="#E2BE8A"/>
<path d="M13.5046 70.2012C13.9974 70.4646 14.0616 70.5015 14.3984 70.9449C14.5724 71.741 14.355 71.6419 14.2292 72.3422L13.1651 72.7305C12.7332 72.6254 12.6902 72.6341 12.3731 72.3441C12.2885 71.8856 12.3009 71.6664 12.3021 71.1958C12.5687 70.9212 13.1834 70.4582 13.5046 70.2012Z" fill="#E2BE8A"/>
<path d="M61.9199 70.4072C63.0917 70.6548 64.9939 70.8251 65.7155 71.6789L65.7338 71.8879C65.0985 72.5703 64.5274 72.471 63.7186 72.3205L63.4932 72.443L63.3073 72.3534C63.3536 71.9351 63.4145 71.809 63.5592 71.4082L63.4333 71.167C63.3367 71.1491 63.2401 71.1298 63.144 71.1092C62.5206 70.973 62.253 70.9184 61.9199 70.4072Z" fill="#E2BE8A"/>
<path d="M84.0184 71.6035L83.8619 72.0797C83.4506 72.228 83.1869 72.2995 82.8221 72.5361C82.111 72.7054 79.3162 72.9357 78.8748 72.4301L78.8641 72.5814L78.7109 72.5092C80.1421 71.8729 82.9767 72.158 84.0184 71.6035Z" fill="#B0875D"/>
<path d="M43.4226 69.4502C44.2115 69.6382 45.0352 69.7876 45.7339 70.1923C44.9463 70.5937 42.629 70.6487 42.2305 69.7499C42.6593 69.4238 42.8238 69.5077 43.4226 69.4502Z" fill="#ECD2A8"/>
<path d="M20.9648 73.5851C22.3295 73.6842 24.2332 73.2421 25.165 73.7948C25.383 74.2376 25.2718 74.2495 25.1318 74.8246C23.6745 75.4499 21.6039 75.0598 20.9648 73.5851Z" fill="#E2BE8A"/>
<path d="M54.0684 76.6302C54.1847 76.6197 56.4686 76.885 56.5262 76.9035C56.282 77.1599 56.3603 77.004 56.3514 77.4141C56.1488 77.6246 56.1696 77.5877 55.9166 77.7459C54.9865 77.7515 54.3461 77.5745 54.0684 76.6302Z" fill="#E2BE8A"/>
<path d="M60.9906 72.7385C61.4624 72.7354 62.0096 72.7634 62.3627 73.0582C61.9847 73.4738 61.7101 73.4583 61.1151 73.6596C60.9204 74.0777 60.7219 74.2423 60.3034 74.3597C60.2099 73.6882 60.5897 73.3055 60.9906 72.7385Z" fill="#E2BE8A"/>
<path d="M15.6749 69.9171C16.0848 69.8981 16.3444 69.9202 16.6005 70.2229C16.4265 70.7035 16.0305 70.9133 15.6031 71.2326C15.1652 71.245 14.9468 71.1696 14.7852 70.7739C14.9855 70.251 15.1745 70.1972 15.6749 69.9171Z" fill="#E2BE8A"/>
<path d="M69.4686 75.4018C70.0082 75.299 69.8542 75.2491 70.2931 75.4314L70.2861 75.6493C69.9456 76.1509 69.7292 76.1882 69.1769 76.3962C68.7087 76.2664 68.4059 76.2186 68.2031 75.8633C68.5008 75.5262 68.9945 75.4996 69.4686 75.4018Z" fill="#E2BE8A"/>
<path d="M65.8086 71.6765C66.8042 71.5202 67.6472 71.6992 68.1526 72.6021C67.3341 72.7366 66.3583 72.274 65.8086 71.6765Z" fill="#E2BE8A"/>
<path d="M66.0703 75.4583C66.8785 75.2939 67.1733 75.2593 67.9132 75.6037C67.17 75.7293 66.7204 75.8329 66.0703 75.4583Z" fill="#E2BE8A"/>
<path d="M47.5994 37.7813C47.3105 29.7144 47.7577 22.7341 54.3876 17.1446C58.6719 13.5327 67.6239 11.0356 72.2552 15.0724C73.8555 16.4672 70.9896 21.4256 69.8499 22.4429C66.7413 26.3464 62.4496 29.0475 57.8143 30.8806C56.163 31.5617 54.0669 32.5318 52.5988 33.5252C48.5455 37.3525 51.0913 42.4632 52.2631 47.0218C52.7275 48.8286 52.9892 50.8308 53.1613 52.6862C53.4968 56.7623 53.3993 60.8625 52.87 64.9178L52.7625 65.608L52.5836 66.5966C52.4506 67.5109 52.3193 68.6194 52.1095 69.5034C52.3703 70.2054 52.7106 69.8439 52.6165 70.1738C52.5375 70.1396 52.4584 70.1052 52.3794 70.0711L52.1713 70.3366L51.7704 70.3528C51.2539 70.4082 49.2374 70.2723 48.6128 70.2428C48.0992 70.1957 47.9417 70.2148 47.4909 69.9932C47.6704 69.3899 47.8258 68.2962 47.9382 67.6378C48.1904 66.6495 48.4181 65.6553 48.6213 64.656L48.6067 64.3752C48.6371 64.2753 48.6674 64.1754 48.6977 64.0756C49.6206 58.5247 51.3867 42.3727 43.7188 40.5621L43.8468 40.2414L44.6209 40.056C45.6805 40.3602 45.9909 40.5786 46.7642 41.3789C46.9453 41.6605 46.8897 41.573 47.1697 41.788C47.4736 41.2712 47.1759 40.2014 46.984 39.6628C47.1425 39.5086 47.3811 39.33 47.5586 39.187L47.5994 37.7813Z" fill="url(#paint0_linear_138_939)"/>
<path d="M47.6005 37.7813C47.3117 29.7144 47.7588 22.7341 54.3888 17.1446C58.6731 13.5327 67.625 11.0356 72.2564 15.0724C73.8566 16.4672 70.9907 21.4256 69.851 22.4429C66.7424 26.3464 62.4507 29.0475 57.8154 30.8806C56.1642 31.5617 54.068 32.5318 52.6 33.5252L52.1763 33.0319C53.7635 31.6443 57.2942 30.4303 59.2734 29.5488C64.8052 27.0842 71.3094 22.3018 72.2029 15.908C67.9052 11.1546 57.9575 14.4044 53.8572 18.389C47.4693 24.5969 48.3488 31.2705 48.0392 39.3905C48.0192 39.1092 47.7028 38.1366 47.6005 37.7813Z" fill="#497228"/>
<path d="M47.5994 37.7812C47.7017 38.1365 48.0181 39.1091 48.0381 39.3905C47.5919 41.1014 49.5767 46.5217 49.8176 48.9875C50.3993 54.9423 49.9571 59.0882 49.2368 64.8314C49.0217 64.6722 48.8918 64.6887 48.6213 64.6559L48.6067 64.3752C48.6371 64.2753 48.6674 64.1754 48.6977 64.0755C49.6206 58.5247 51.3867 42.3727 43.7188 40.562L43.8468 40.2413L44.6209 40.056C45.6805 40.3602 45.9909 40.5785 46.7642 41.3789C46.9453 41.6604 46.8897 41.5729 47.1697 41.7879C47.4736 41.2712 47.1759 40.2014 46.984 39.6628C47.1425 39.5085 47.3811 39.3299 47.5586 39.187L47.5994 37.7812Z" fill="#497228"/>
<path d="M52.6416 52.3557L52.8759 52.332L53.1606 52.6859C53.4962 56.762 53.3986 60.8622 52.8693 64.9175L52.7619 65.6077L52.583 66.5963C52.45 67.5106 52.3186 68.6191 52.1089 69.5031C52.3697 70.2051 52.71 69.8436 52.6159 70.1736C52.5369 70.1394 52.4578 70.105 52.3788 70.0708L52.1706 70.3363L51.7698 70.3525C51.2533 70.408 49.2368 70.272 48.6122 70.2426C48.0986 70.1954 47.9411 70.2145 47.4902 69.9929C47.6698 69.3896 47.8252 68.296 47.9376 67.6375C48.1898 66.6493 48.4175 65.655 48.6206 64.6557C48.8912 64.6884 49.0211 64.672 49.2362 64.8312C48.9673 66.4758 48.5369 68.2276 48.1655 69.8636C49.0546 69.9367 50.3524 69.9243 51.2811 69.9567C52.8133 62.3604 52.9698 59.9592 52.6416 52.3557Z" fill="#497228"/>
<path d="M52.1757 33.0322L52.5994 33.5255C48.5461 37.3528 51.0918 42.4635 52.2636 47.0222C52.7281 48.8289 52.9897 50.8311 53.1618 52.6865L52.8771 52.3326L52.6428 52.3563C52.473 51.863 52.0112 48.3548 51.7739 47.4168C50.8897 43.925 49.6164 41.1498 49.8305 37.4597C49.9577 35.269 50.6268 34.4283 52.1757 33.0322Z" fill="#497228"/>
<path d="M62.5418 18.6448C63.18 18.4063 65.7 17.402 66.2316 17.5833C65.1565 18.0473 63.5703 18.5585 62.6289 19.0407C56.991 22.1926 53.1473 25.947 50.6561 32.036C50.5085 32.3971 50.7022 33.2469 50.7777 33.6459L50.6167 33.7254L50.1412 33.1155C49.8507 33.3278 49.6827 33.6811 49.495 33.9983C49.3511 34.3721 49.228 34.5931 49.0371 34.947L48.835 35.0069C48.4319 34.0693 49.1876 32.3726 49.671 31.5421C53.2173 25.4714 55.6873 21.6724 62.5418 18.6448Z" fill="#5A8929"/>
<path d="M49.671 31.542C49.9656 32.1385 49.6543 33.3463 49.495 33.9982C49.3511 34.372 49.228 34.593 49.0371 34.9468L48.835 35.0068C48.4319 34.0692 49.1876 32.3725 49.671 31.542Z" fill="#497228"/>
<path d="M43.7182 40.5619C37.6519 40.3905 31.6978 42.8189 25.6951 41.119C23.6956 40.6123 22.7541 38.7854 23.523 36.8532C25.8356 31.0417 32.8202 27.7381 38.7467 29.7556C43.2945 31.3039 45.607 35.1732 47.5581 39.1868C47.3806 39.3298 47.142 39.5084 46.9835 39.6626C47.1753 40.2012 47.473 41.271 47.1692 41.7878C46.8892 41.5728 46.9448 41.6603 46.7636 41.3788C45.9904 40.5784 45.6799 40.36 44.6203 40.0558L43.8463 40.2412L43.7182 40.5619Z" fill="url(#paint1_linear_138_939)"/>
<path d="M43.7182 40.5619C37.6519 40.3905 31.6978 42.8189 25.6951 41.119C23.6956 40.6123 22.7541 38.7854 23.523 36.8532C25.8356 31.0417 32.8202 27.7381 38.7467 29.7556C43.2945 31.3039 45.607 35.1732 47.5581 39.1868C47.3806 39.3298 47.142 39.5084 46.9835 39.6626L46.7788 39.4791C45.2556 35.6512 43.1585 32.1912 39.1634 30.529C33.6079 28.2178 26.6036 31.2765 24.187 36.7121C23.4771 38.309 23.8802 39.7938 25.6089 40.3843C31.7923 42.4965 38.3385 39.3417 44.6203 40.0558L43.8463 40.2412L43.7182 40.5619Z" fill="#497228"/>
<path d="M34.6484 34.3135C38.5811 34.151 41.8283 34.9275 44.9612 37.5497C46.2873 38.6596 46.2285 39.4829 46.843 40.3117C46.8498 39.9745 46.873 39.8093 46.7779 39.4792L46.9826 39.6627C47.1744 40.2013 47.4721 41.2711 47.1682 41.7879C46.8883 41.5728 46.9439 41.6604 46.7627 41.3788L47.0138 41.0402C42.7777 37.107 43.0075 35.4651 35.9178 34.7322C35.4198 34.5957 35.1275 34.5193 34.6484 34.3135Z" fill="#5A8929"/>
<path d="M35.9193 34.7322C34.0432 34.7166 32.3633 34.6677 30.5317 35.1417L30.4199 35.1715C31.2837 34.6366 33.6201 34.3314 34.6499 34.3135C35.1289 34.5192 35.4213 34.5957 35.9193 34.7322Z" fill="#6C9637"/>
<defs>
<linearGradient id="paint0_linear_138_939" x1="40.0085" y1="48.473" x2="78.5967" y2="32.8654" gradientUnits="userSpaceOnUse">
<stop stop-color="#6A9F28"/>
<stop offset="1" stop-color="#AFD85C"/>
</linearGradient>
<linearGradient id="paint1_linear_138_939" x1="41.8834" y1="45.4966" x2="29.0911" y2="31.279" gradientUnits="userSpaceOnUse">
<stop stop-color="#72A92C"/>
<stop offset="1" stop-color="#AED45D"/>
</linearGradient>
</defs>
</svg>
