<svg width="96" height="96" viewBox="0 0 96 96" fill="none" xmlns="http://www.w3.org/2000/svg">
  <circle cx="48" cy="48" r="46" fill="#FFF6F2" stroke="#FFD1C1" stroke-width="4" />
  <path d="M48 22C38 34 38 56 48 66C58 56 58 34 48 22Z" fill="#FF8BA7" />
  <path d="M32 42C38 50 50 52 58 46C50 38 38 36 32 42Z" fill="#FFA6C1" />
  <rect x="46" y="62" width="4" height="18" rx="2" fill="#3B9E5A" />
  <path d="M48 68C42 64 36 64 36 64C36 64 39 74 48 76C57 74 60 64 60 64C60 64 54 64 48 68Z" fill="#B6EDC6" />
</svg>














