<svg width="96" height="96" viewBox="0 0 96 96" fill="none" xmlns="http://www.w3.org/2000/svg">
<rect width="96" height="96" fill="white"/>
<path d="M48.6931 20.1324C47.6784 16.6911 47.1035 13.7183 48.9751 10.4035C52.3346 4.45386 58.773 3.76108 64.7911 4.05619C65.9395 14.0144 60.1912 16.6648 52.3357 19.7044C47.8169 21.453 49.1665 40.4815 49.6014 44.4971L49.959 47.6129C51.6859 44.9672 51.4192 44.1971 52.6 41.6325C54.9923 36.4219 59.7306 32.6707 65.3482 31.5399C69.8839 30.5934 75.8503 31.5627 79.9394 33.6893C79.1808 35.8896 78.4031 37.5987 76.8673 39.3848C72.197 44.8164 65.0347 47.1032 58.0146 46.9111C54.5453 46.8162 51.3115 47.1039 51.0604 51.4072C50.9565 54.1722 51.571 57.2408 51.7261 60.0228C52.2694 65.1082 52.7385 70.0304 52.9567 75.1473C53.4586 73.8354 53.6864 73.1428 55.2009 73.9156C56.5948 74.6269 58.9496 76.445 57.3488 78.0796L56.9783 78.4651C57.0019 78.7373 56.9553 78.6103 57.169 78.8366C57.5233 78.9081 57.6217 78.866 57.8513 79.0688C57.7155 79.2233 57.579 79.3506 57.5051 79.5399L57.2133 79.9648C57.3776 80.2894 57.6354 80.7643 57.7724 81.0849C58.2292 81.3646 58.052 81.3354 58.5043 81.3251L58.7889 81.1387L58.8529 81.6928C58.2024 81.9614 57.494 82.2293 56.9295 82.6494L56.2835 82.9474C55.3812 82.8744 54.2096 82.7078 53.4145 83.1625L53.3717 82.8787C53.1682 83.0011 53.0466 83.1126 52.8183 83.0853C52.3716 83.1675 51.8637 83.2794 51.5235 83.6066L51.3051 83.5985C50.6 83.6789 49.8482 83.5072 49.0965 83.46L48.8069 83.4281C48.5162 83.0524 48.599 82.9731 48.5486 82.4336C48.5524 82.1512 48.6146 81.7295 48.6479 81.437L48.6856 80.5651C48.8329 80.3038 48.8987 79.7472 48.7551 79.4631C47.9394 78.6026 46.9101 79.1822 46.1422 79.7038L46.0769 79.5118C46.0932 79.1366 46.1445 79.2986 45.936 79.0041C46.1564 78.9706 46.1733 78.9528 46.3796 78.8611C46.0556 78.7238 45.9794 78.6878 45.697 78.4749L45.6336 78.4261C45.7733 78.4645 45.9142 78.4987 46.0558 78.5288C46.3043 78.5809 48.7148 78.5852 48.8926 78.4715C49.0412 77.8415 48.8947 77.3007 48.5246 76.8032L48.6181 76.2737L48.918 76.0884C49.0609 75.2447 48.9612 73.2646 48.9584 72.3485C48.9458 68.7194 48.6456 65.0731 48.3186 61.4654C48.0616 58.6316 47.864 55.7226 47.2641 52.9563C46.5057 49.4587 44.4433 46.7419 40.7428 46.3088C38.9258 46.096 37.1046 46.059 35.2974 45.7922C28.8091 44.7557 22.8553 41.597 18.8821 36.2798C18.3072 35.5103 17.6689 34.5063 17.3359 33.6147C27.123 28.6144 38.7953 30.7779 43.793 41.1728C44.9784 43.6382 45.1324 45.1771 46.9816 47.3861C46.5367 40.9316 46.3303 34.2731 46.679 27.7625C46.7213 26.9746 46.6541 25.562 46.148 25.0488C45.0155 23.824 43.0957 23.8448 41.5396 23.8168C34.7488 23.6945 29.7724 20.974 27.6688 14.1616C29.4149 13.4106 30.803 12.8607 32.662 12.4366C38.1797 11.1776 44.3452 12.9948 46.7832 18.4879C47.4326 19.9514 47.6195 21.491 47.7094 23.0861C48.0827 22.0595 48.3845 21.1791 48.6931 20.1324Z" fill="#49572B"/>
<path d="M77.7433 33.375L79.3364 33.9475C76.0772 41.9205 69.0398 45.4817 60.7537 46.1615C55.4897 46.5933 49.7924 45.1071 50.4002 52.818C51.1316 62.0943 52.2446 71.3297 52.7113 80.6344C52.7589 81.4509 52.7938 82.2679 52.8161 83.0854C52.3694 83.1676 51.8615 83.2795 51.5213 83.6067L51.3029 83.5986L51.2978 83.4335C51.3832 83.0927 51.4391 81.8033 51.4651 81.3802C52.077 71.3829 51.0116 60.3822 49.4238 50.4953C49.7634 49.5494 50.0738 49.9803 49.7147 48.7692C50.2915 48.3283 50.5473 47.7487 51.0264 47.1389C51.4171 46.5347 51.7579 46.2074 52.0088 45.5208C52.0274 45.4317 52.1148 45.1938 52.1481 45.0943L52.242 45.2106C52.5101 45.1432 53.1718 44.6147 53.4373 44.4186C53.7667 44.146 54.162 43.7185 54.4756 43.4029C59.3193 38.5287 65.3577 36.0883 72.0073 34.8041L73.8396 34.5183C74.4664 33.9496 77.2374 34.1877 77.8961 33.6499L77.7433 33.375Z" fill="url(#paint0_linear_138_940)"/>
<path d="M53.4395 44.4182C53.7688 44.1456 54.1641 43.7181 54.4777 43.4025C59.3215 38.5283 65.3599 36.0879 72.0095 34.8037L71.7021 35.08C66.9543 36.2258 61.7446 38.1757 57.9149 41.303C56.3436 41.8136 54.5223 43.8908 53.4398 45.1456L53.4395 44.4182Z" fill="#576D2B"/>
<path d="M53.4405 45.1453C54.5231 43.8906 56.3444 41.8133 57.9157 41.3027C57.2081 42.1208 54.0679 46.2341 53.2242 46.1982C53.0777 46.0269 53.1114 46.1028 53.0496 45.8947C52.8807 46.1844 52.8171 46.3365 52.5732 46.5598C52.2564 46.4928 52.3929 46.5694 52.1753 46.2827L52.1663 45.8344C51.6305 46.4792 51.7355 46.9142 51.0293 47.1382C51.42 46.5341 51.7608 46.2067 52.0117 45.5202C52.0303 45.4311 52.1177 45.1932 52.151 45.0937L52.2449 45.21C52.513 45.1426 53.1747 44.6141 53.4402 44.418L53.4405 45.1453Z" fill="#8DB031"/>
<path d="M52.151 45.0936L52.245 45.2099C52.5131 45.1425 53.1748 44.614 53.4403 44.418L53.4406 45.1453C53.2292 45.432 52.8745 46.0118 52.5764 46.1101L52.5575 46.0363C52.4937 45.7983 52.4958 45.7416 52.3186 45.5651L52.0117 45.5202C52.0304 45.4311 52.1177 45.1931 52.151 45.0936Z" fill="#516629"/>
<path d="M52.7134 80.6348C52.7611 81.4512 52.7959 82.2682 52.8182 83.0857C52.3715 83.1679 51.8636 83.2798 51.5234 83.607C51.5399 83.2417 51.5195 83.0171 51.6776 82.687C52.1085 82.5144 52.3604 82.3759 52.5535 81.952C52.5241 81.396 52.592 81.175 52.7134 80.6348Z" fill="#6E912A"/>
<path d="M73.8408 34.5179C74.1515 34.4859 74.6776 34.388 74.9382 34.5019C74.0756 34.7434 72.6311 34.9333 71.7012 35.0801L72.0085 34.8037L73.8408 34.5179Z" fill="#6E912A"/>
<path d="M49.3236 19.8945C48.3236 16.4263 47.6245 13.9685 49.5707 10.5156C52.5552 5.2205 58.811 4.21657 64.327 4.57633C64.6339 8.09004 64.4491 10.3828 62.0666 13.3503C60.6366 15.1312 58.8314 16.1544 56.8211 17.1805C54.8062 18.2089 51.6963 18.6399 50.3528 20.4602C49.7882 21.225 49.5614 22.7397 49.2108 23.6726C48.9534 22.3154 50.5766 20.4696 50.0154 19.4901L49.8975 19.5197C49.851 20.2278 49.3098 21.311 48.8384 21.8319C48.9249 21.5192 49.0032 21.2044 49.0732 20.8876C49.1378 20.5759 49.2431 20.2082 49.3236 19.8945Z" fill="url(#paint1_linear_138_940)"/>
<path d="M61.4699 6.34082C60.6551 7.07502 58.6689 8.00499 57.5735 8.81819C55.045 10.7191 52.9817 13.1706 51.54 15.9876C50.9383 17.1789 49.9376 20.0371 49.0742 20.8879C49.1388 20.5763 49.2441 20.2086 49.3246 19.8948C49.333 19.8848 49.8044 18.5197 49.8514 18.3789C50.3016 17.0323 50.9082 15.8181 51.6391 14.6008C53.6728 11.2149 57.7384 7.73356 61.4699 6.34082Z" fill="#516629"/>
<path d="M61.4688 6.34019C61.6409 6.06066 63.2893 4.91398 63.5287 4.8877L63.45 5.00858L63.657 5.23095C63.4413 5.39051 61.6524 6.3058 61.4688 6.34019Z" fill="#B0CC39"/>
<path d="M18.1914 34.2174C18.6819 33.5713 20.0718 33.9563 20.9729 33.9803C21.0666 34.2088 20.985 34.1368 21.1871 34.2343C22.3137 34.3538 23.3709 34.5282 24.4773 34.6583C28.379 35.361 33.7132 37.2495 36.9266 39.6303C38.6049 40.5856 40.6816 42.3954 42.1777 43.6745C42.8698 44.2662 43.8412 45.6081 44.6604 46.2547L44.718 46.185L45.0699 45.9912C45.9254 46.8492 46.9844 48.094 47.7125 49.0625C47.6894 45.7742 47.2246 42.3866 47.1978 39.0379C47.2728 39.1376 47.2863 39.2847 47.3162 39.418L47.2449 39.2609L47.3697 39.447C47.3358 38.9386 47.3605 38.842 47.5099 38.365L47.5495 38.2411C47.6401 38.7893 48.2573 48.6975 48.2195 48.908C47.9963 49.4412 48.0282 49.7013 48.0303 50.2783C47.9097 50.1603 47.791 50.0401 47.6746 49.9179C47.54 50.5943 48.3808 50.6302 47.7131 51.7657C45.4968 45.3857 41.5062 45.6865 35.8385 45.0857C33.1234 44.7978 27.1664 43.1335 25.136 41.2382C24.03 40.7271 21.999 39.0213 21.1969 38.1021C20.213 37.3918 18.8127 35.3014 18.1914 34.2174Z" fill="url(#paint2_linear_138_940)"/>
<path d="M21.1875 34.2344C22.3141 34.3539 23.3713 34.5283 24.4777 34.6583C28.3794 35.361 33.7136 37.2496 36.927 39.6303L36.8542 39.6751C34.9395 39.4023 32.3506 39.3088 30.355 39.0922C28.2582 38.8647 22.2568 35.8443 21.1875 34.2344Z" fill="#B0CC39"/>
<path d="M21.1973 38.1025C21.7599 38.1508 24.4354 40.5717 25.0846 41.0696L25.1364 41.2386C24.0304 40.7275 21.9994 39.0217 21.1973 38.1025Z" fill="#B0CC39"/>
<path d="M18.1899 34.2178L18.0352 33.9472C18.298 33.6074 20.1087 33.0664 20.6491 32.8625C29.8621 29.3866 40.0848 33.1231 43.715 42.5506C44.1635 43.7153 44.3989 44.9576 45.0684 45.9917L44.7165 46.1855L44.6589 46.2552C43.8397 45.6085 42.8683 44.2667 42.1762 43.6749C40.6801 42.3959 38.6034 40.5861 36.925 39.6307C33.7117 37.25 28.3775 35.3614 24.4758 34.6587C23.3694 34.5287 22.3122 34.3543 21.1856 34.2348C20.9835 34.1373 21.0651 34.2093 20.9714 33.9808C20.0703 33.9568 18.6804 33.5718 18.1899 34.2178Z" fill="url(#paint3_linear_138_940)"/>
<path d="M24.4629 34.502C28.5774 34.9591 32.9524 36.5679 36.515 38.6646C37.5427 39.2695 38.5202 39.993 39.5266 40.6292C41.3663 42.1515 41.8107 42.8578 43.2697 44.2259L43.3728 44.3298C43.9667 44.9216 44.4621 45.1414 44.7187 46.1863L44.6611 46.256C43.8419 45.6093 42.8705 44.2675 42.1784 43.6757C40.6823 42.3967 38.6056 40.5869 36.9273 39.6315C33.7139 37.2508 28.3797 35.3622 24.478 34.6595L24.4629 34.502Z" fill="#576D2B"/>
<path d="M39.5254 40.6289C40.9827 40.6665 42.7378 42.8073 43.2717 44.161C43.2707 44.1825 43.2696 44.2041 43.2685 44.2256C41.8095 42.8575 41.3652 42.1512 39.5254 40.6289Z" fill="#8DB031"/>
<path d="M20.9727 33.9814C21.5594 34.0777 24.1836 34.3487 24.4619 34.5018L24.477 34.6594C23.3706 34.5293 22.3134 34.355 21.1868 34.2355C20.9847 34.1379 21.0663 34.2099 20.9727 33.9814Z" fill="#8DB031"/>
<path d="M52.1484 45.0939C52.327 44.4014 52.5367 43.4918 52.7714 42.8389C54.1737 38.9376 57.6429 35.167 61.4079 33.4395C66.8765 30.9307 72.2547 31.4309 77.7437 33.3746L77.8964 33.6495C77.2378 34.1873 74.4668 33.9492 73.84 34.5179L72.0077 34.8037C65.3581 36.0879 59.3197 38.5283 54.476 43.4025C54.1624 43.7181 53.767 44.1456 53.4377 44.4182C53.1722 44.6143 52.5105 45.1428 52.2424 45.2102L52.1484 45.0939Z" fill="url(#paint4_linear_138_940)"/>
<path d="M48.8382 21.832C49.3096 21.3112 49.8508 20.2279 49.8972 19.5199L50.0151 19.4902C50.5764 20.4697 48.9532 22.3156 49.2106 23.6727C48.4254 29.5743 48.2299 34.3349 48.6038 40.3026C48.7354 42.4016 49.1504 45.0854 49.2457 46.981C49.3543 47.5066 49.4849 48.3155 49.7159 48.7686C50.075 49.9796 49.7646 49.5488 49.4251 50.4947C51.0128 60.3816 52.0783 71.3822 51.4663 81.3796C51.4404 81.8026 51.3844 83.0921 51.2991 83.4329C50.8894 83.4407 50.8243 83.5046 50.4895 83.3265L50.3934 82.9408C50.3161 82.3068 50.3621 82.0545 49.8766 81.7326C49.4186 81.429 49.4799 80.3327 49.4603 79.7621C49.6798 76.7545 49.5848 73.5454 49.5717 70.5279C49.5673 69.5053 49.466 68.3616 49.4913 67.3738C49.3459 64.4925 48.9251 61.5279 48.7835 58.7282C48.6749 58.3486 48.533 57.0116 48.4722 56.5553C48.2528 54.909 48.0904 53.3948 47.7118 51.7661C48.3794 50.6305 47.5387 50.5946 47.6733 49.9182C47.7897 50.0405 47.9083 50.1606 48.029 50.2786C48.0269 49.7016 47.995 49.4415 48.2181 48.9083C48.256 48.6979 47.6387 38.7896 47.5481 38.2414C47.4678 37.9663 47.5011 37.1477 47.4765 36.8213C47.2672 34.0311 47.9742 30.3648 47.8503 27.7056C47.8766 27.3322 47.7794 24.9012 47.7892 24.8795L47.8595 24.8598C48.062 24.6469 48.5012 22.5526 48.8382 21.832Z" fill="#B0CC39"/>
<path d="M49.4919 67.3741L49.5138 67.2495C49.7038 66.1303 49.3875 65.3812 49.5179 64.3789C49.5889 65.1784 49.6441 66.7151 49.8673 67.3976C50.2545 69.578 50.1306 72.9414 50.238 75.244C50.3753 78.1865 50.6419 79.9741 50.394 82.941C50.3167 82.3071 50.3627 82.0548 49.8772 81.7329C49.4192 81.4292 49.4805 80.333 49.4609 79.7623C49.6804 76.7548 49.5854 73.5456 49.5723 70.5282C49.5679 69.5056 49.4666 68.3618 49.4919 67.3741Z" fill="#8DB031"/>
<path d="M48.218 48.9082C48.3365 50.5783 48.3883 52.0359 48.5739 53.7283C48.6606 54.5198 48.8751 56.5984 48.878 57.3377C48.821 57.8388 48.8317 58.2784 48.7833 58.7281C48.6747 58.3485 48.5328 57.0115 48.472 56.5552C48.2526 54.9089 48.0903 53.3947 47.7116 51.766C48.3793 50.6304 47.5385 50.5945 47.6731 49.9181C47.7895 50.0404 47.9082 50.1605 48.0288 50.2785C48.0267 49.7015 47.9948 49.4414 48.218 48.9082Z" fill="#8DB031"/>
<path d="M49.2468 46.9805C49.3554 47.5061 49.486 48.315 49.717 48.7681C50.0761 49.9791 49.7657 49.5483 49.4261 50.4942C49.127 48.6827 49.2845 48.576 49.2468 46.9805Z" fill="#8DB031"/>
<path d="M28.3418 14.5693C28.7474 14.6571 29.0923 14.7478 29.4905 14.8579C29.5533 15.0026 29.5919 15.0851 29.6896 15.2124C31.6001 15.092 33.7364 15.4544 35.5662 16.0206L35.7743 15.9098C37.8655 16.6276 39.5047 17.3171 41.3553 18.562C43.992 20.0758 45.0697 22.5289 47.0116 24.2196C46.9149 23.9609 46.8292 23.7639 46.7811 23.4892L47.1796 23.582C47.4735 24.0601 47.6765 24.3292 47.7917 24.8798C47.7819 24.9016 47.8791 27.3326 47.8528 27.706C47.9767 30.3652 47.2697 34.0315 47.479 36.8217C47.5036 37.1481 47.4703 37.9667 47.5506 38.2418L47.5111 38.3657C47.3617 38.8427 47.3369 38.9393 47.3708 39.4477L47.246 39.2616L47.3174 39.4187C47.2874 39.2854 47.274 39.1383 47.199 39.0386C46.9671 36.9465 47.1464 34.4068 47.1513 32.2817C47.1547 30.7785 47.5777 26.632 47.2016 25.4519C46.256 22.4844 41.077 23.3969 38.5805 22.89C36.4907 22.4656 35.5257 22.3432 33.5929 21.2537C31.0101 19.8293 29.1152 17.4173 28.3418 14.5693Z" fill="url(#paint5_linear_138_940)"/>
<path d="M35.7725 15.9092C37.8637 16.627 39.5029 17.3164 41.3536 18.5614C41.2237 18.7911 41.1851 18.7945 40.9734 18.9445C39.9443 19.0018 39.4579 18.4052 38.6047 18.0607C37.7188 17.7031 36.7329 17.6554 35.8338 17.2532L35.8654 17.1858C36.3201 17.3135 36.9014 17.4526 37.3708 17.4036C37.2527 16.8876 36.0675 16.1413 35.5645 16.02L35.7725 15.9092Z" fill="#B0CC39"/>
<path d="M47.0098 24.2187C46.9131 23.9599 46.8274 23.7629 46.7793 23.4883L47.1778 23.581C47.4717 24.0591 47.6747 24.3282 47.7899 24.8789C47.7801 24.9006 47.8773 27.3316 47.851 27.705C47.6766 27.0575 47.7834 26.0832 47.6344 25.4136C47.5298 24.9432 47.1158 24.7115 47.0098 24.2187Z" fill="#8DB031"/>
<path d="M28.3418 14.5685L28.4199 14.3909C31.0498 13.3818 33.3885 12.6285 36.2463 12.6398C39.7201 12.6534 43.354 14.0752 45.2865 17.1076C46.919 19.2955 46.8278 21.149 47.1796 23.5812L46.7811 23.4884C46.8292 23.763 46.9149 23.96 47.0116 24.2188C45.0697 22.528 43.992 20.0749 41.3553 18.5612C39.5047 17.3162 37.8655 16.6268 35.7743 15.909L35.5662 16.0198C33.7364 15.4535 31.6001 15.0912 29.6896 15.2116C29.5919 15.0843 29.5533 15.0018 29.4905 14.857C29.0923 14.747 28.7474 14.6562 28.3418 14.5685Z" fill="#B0CC39"/>
<path d="M35.7724 15.9095C35.0763 15.7244 34.2375 15.5438 33.6172 15.2031C36.9679 15.8302 39.5533 16.6854 42.4694 18.4373L43.4611 18.3138C43.3013 18.2058 43.3285 18.2204 43.15 18.2515C42.261 18.4063 40.7014 17.2584 39.701 16.8208C40.9595 16 40.8663 16.0885 42.3093 15.9355C42.3351 15.8096 42.3637 15.6882 42.407 15.567C42.7463 15.4227 43.0646 15.1955 43.3411 15.3277C44.014 15.6497 44.6904 16.8256 45.2846 17.1081C46.9171 19.2961 46.826 21.1496 47.1777 23.5817L46.7792 23.4889C46.8273 23.7636 46.913 23.9606 47.0097 24.2193C45.0679 22.5286 43.9902 20.0755 41.3535 18.5617C39.5028 17.3168 37.8636 16.6273 35.7724 15.9095Z" fill="url(#paint6_linear_138_940)"/>
<path d="M45.9883 21.9307L46.0213 21.9366C46.3665 22.1619 46.5186 22.5099 46.7345 22.875C46.3845 22.6557 46.1209 22.3221 45.9883 21.9307Z" fill="#516629"/>
<path d="M53.3215 79.3568C53.9578 78.9913 53.8446 78.8494 54.7251 78.5752C55.6278 79.2351 55.3243 78.7568 56.2114 79.1115C56.7851 79.2849 56.8001 79.418 57.2144 79.9641C57.3786 80.2887 57.6364 80.7636 57.7734 81.0842C58.2302 81.3639 58.053 81.3347 58.5053 81.3244L58.7899 81.138L58.8539 81.6922C58.2034 81.9607 57.495 82.2286 56.9305 82.6487L56.2845 82.9467C55.3822 82.8737 54.2106 82.7071 53.4155 83.1618L53.3727 82.878C53.3037 82.5601 53.2519 81.7476 53.3968 81.4394C53.3577 80.9408 53.2824 80.2918 53.342 79.8064L53.5377 79.7494C53.3072 79.6516 53.3214 79.6462 53.1465 79.4619L53.3215 79.3568Z" fill="#CD995F"/>
<path d="M53.3215 79.3568C53.9578 78.9913 53.8446 78.8494 54.7251 78.5752C55.6278 79.2351 55.3243 78.7568 56.2114 79.1115C56.7851 79.2849 56.8001 79.418 57.2144 79.9641C57.3786 80.2887 57.6364 80.7636 57.7734 81.0842C56.03 81.6718 56.9953 82.7977 54.9226 82.2731C55.5457 81.8705 55.5235 82.3392 55.9905 81.4562C55.9237 80.8751 54.7371 80.2021 53.9938 79.4552C53.8317 79.5732 53.7215 79.6627 53.5377 79.7494C53.3072 79.6516 53.3214 79.6462 53.1465 79.4619L53.3215 79.3568Z" fill="#B2824F"/>
<path d="M53.3215 79.3568C53.9578 78.9913 53.8446 78.8494 54.7251 78.5752C55.6278 79.2351 55.3243 78.7568 56.2114 79.1115C56.1819 79.5921 56.3485 79.6491 56.6907 79.9993L56.6175 80.1382C55.2493 80.4143 55.017 79.3024 54.2979 79.2889L53.9938 79.4552C53.8317 79.5732 53.7215 79.6627 53.5377 79.7494C53.3072 79.6516 53.3214 79.6462 53.1465 79.4619L53.3215 79.3568Z" fill="#534D32"/>
<path d="M57.772 81.085C58.2287 81.3646 58.0515 81.3354 58.5038 81.3252L58.7884 81.1388L58.8524 81.6929C58.202 81.9614 57.4935 82.2294 56.9291 82.6495L56.2831 82.9475C55.3807 82.8744 54.2091 82.7079 53.414 83.1625L53.3712 82.8787C53.3022 82.5608 53.2504 81.7484 53.3954 81.4401C53.5116 81.8453 53.5188 82.0725 53.5555 82.4861C54.0136 82.4465 54.5012 82.4392 54.9211 82.2738C56.9938 82.7985 56.0286 81.6726 57.772 81.085Z" fill="#5B4930"/>
<path d="M49.0957 83.4601C49.3316 82.1835 49.2532 81.009 49.4605 79.7627C49.48 80.3334 49.4188 81.4296 49.8767 81.7333C50.3622 82.0552 50.3162 82.3075 50.3935 82.9414L50.4896 83.3271C50.8244 83.5052 50.8895 83.4413 51.2992 83.4335L51.3042 83.5986C50.5991 83.679 49.8474 83.5073 49.0957 83.4601Z" fill="#6E912A"/>
<path d="M53.0508 77.0879C53.6186 77.8051 53.9743 78.0504 54.7231 78.5763C53.8427 78.8505 53.9559 78.9925 53.3196 79.3579C53.1327 78.9035 53.1004 77.6546 53.0508 77.0879Z" fill="#FEFDFE"/>
<path d="M54.0211 73.9355C55.1982 74.9092 57.5041 75.2502 57.1055 77.0993C56.9552 77.7963 56.6708 77.9667 56.1435 78.343L55.9867 78.3129C55.8537 78.0538 55.7248 77.8263 55.579 77.5741L55.5115 77.6337L55.6455 78.3841C53.7208 77.3171 52.7155 76.1328 54.0211 73.9355Z" fill="#8DB031"/>
<path d="M69.2254 76.8047C69.3837 77.0971 69.4316 77.5444 69.1364 77.7758C68.2479 77.519 66.9909 77.7664 66.0597 77.8959C66.3174 78.2443 66.3901 78.3982 66.7737 78.6055C67.5011 78.5497 68.2932 78.5818 68.9966 78.7855C69.1417 78.8628 69.3792 78.9701 69.4859 79.0768C70.2877 78.9853 71.1631 79.1969 70.8286 80.2087C72.3783 80.6387 74.0203 79.8119 75.03 81.862C76.7566 81.8459 78.4635 81.7061 79.7026 83.1519C80.3465 83.903 80.4974 83.5315 80.9682 83.9635C81.4155 83.9988 81.5028 84.0031 81.9185 84.1642C82.1296 84.2383 83.1182 84.6018 83.274 84.6305C84.3265 85.0002 84.9834 85.2462 85.8862 85.9502C86.1367 86.2302 86.1978 86.3405 86.3948 86.6648C86.3001 87.3726 84.8749 87.9168 84.2257 88.206C76.0786 91.834 66.8211 92.0264 58.0636 92.6461C55.6105 92.8121 52.2832 92.9545 49.9448 92.8498C48.9957 93.0802 48.4643 93.0146 47.4998 92.8585C45.4669 92.9669 43.4385 92.6492 41.3972 92.5948C37.3678 92.4875 33.067 91.8577 29.0786 91.7012C26.1017 91.5844 11.1554 89.047 10 86.7324C10.1083 85.1958 13.0551 84.6507 14.206 84.2266C14.7999 83.9596 16.7865 83.4779 17.4338 83.4587C18.228 83.0447 18.6434 82.3243 19.989 81.8333C21.2329 81.3792 21.8121 81.6497 22.9372 81.3234C23.1296 81.0335 23.7038 80.1064 23.9495 79.9252C25.1353 79.0501 27.6943 79.1522 28.8173 78.2752C29.6854 77.5974 30.4205 76.6337 31.2487 77.6312C31.3804 78.0417 31.29 78.3339 31.2144 78.7536L31.2811 78.9608L31.5761 79.0617C32.5346 78.2978 33.1967 78.0293 34.4374 77.9663L34.4114 77.7292L34.9049 77.9676L35.0265 77.882L34.9521 77.3206C35.1474 77.5783 35.3993 77.9541 35.6515 78.1331C36.054 78.1377 36.1748 78.1264 36.5541 78.2506C36.9008 78.305 37.3061 78.2352 37.5444 78.3079L37.9182 78.4745L37.8924 78.532C38.4043 78.7363 38.6974 78.8333 39.1497 79.1529C39.2793 79.1063 39.2817 79.0854 39.3958 78.9993L39.2875 78.534L40.0577 78.4731C40.8239 78.3969 41.2374 76.9132 42.2309 77.6703C43.4403 77.9917 44.4027 78.1956 45.6348 78.4254L45.6982 78.4742C45.9806 78.6871 46.0568 78.7232 46.3808 78.8604C46.1745 78.9521 46.1577 78.97 45.9372 79.0035C46.1458 79.298 46.0944 79.136 46.0781 79.5111L46.1435 79.7031C46.9114 79.1815 47.9406 78.602 48.7563 79.4624C48.8999 79.7465 48.8341 80.3031 48.6868 80.5645L48.6491 81.4364C48.6158 81.7289 48.5536 82.1505 48.5498 82.433C48.6002 82.9724 48.5174 83.0518 48.8081 83.4274L49.0978 83.4594C49.8495 83.5066 50.6012 83.6782 51.3063 83.5978L51.5247 83.6059C51.8649 83.2787 52.3728 83.1668 52.8195 83.0846C53.0479 83.112 53.1694 83.0004 53.3729 82.878L53.4157 83.1618C54.2108 82.7071 55.3824 82.8737 56.2847 82.9468L56.9307 82.6488C57.4952 82.2286 58.2037 81.9607 58.8541 81.6922L59.4376 81.6312C60.017 81.5595 60.3745 81.5365 60.9585 81.5264L60.8662 81.4043C60.6658 81.2757 60.5497 81.1938 60.361 81.0483L60.3861 80.757C60.7006 80.3983 61.0128 80.0156 61.2097 79.5773C62.9047 78.1297 64.8876 77.1403 67.1495 76.9405C67.7967 76.8834 68.6596 77.0188 69.2254 76.8047Z" fill="#E6BA78"/>
<path d="M14.206 84.2258C14.7999 83.9588 16.7865 83.4771 17.4338 83.458L17.3078 83.5139C16.9394 83.6061 15.6784 84.7077 15.4366 84.9851L15.4598 85.1732C15.5944 85.2366 15.6235 85.2693 15.7635 85.2877C16.4738 85.2435 17.1847 85.2114 17.8961 85.1913C18.3724 85.0754 18.7063 84.9267 19.1574 84.7404L19.9943 84.752C21.0929 84.8153 21.6911 84.9441 22.7746 84.8049L22.8793 84.7913C23.2952 84.9862 23.3409 85.0172 23.6191 85.3815L23.6272 85.6117C23.2441 85.8825 22.8599 86.0259 22.7465 86.3757C23.2428 86.9178 23.688 87.278 24.1618 87.7644C25.1734 88.0296 28.6922 89.0789 29.2952 89.8319C29.7805 89.9635 29.9454 89.9339 30.4315 89.9006C30.9037 89.6531 31.3569 89.4411 31.7689 89.1023C33.0351 89.0756 33.3992 90.0115 34.8489 89.5373C35.3744 89.1474 35.6246 89.1494 36.2553 89.1175C37.5006 89.0542 38.4409 88.6671 39.5707 88.1867L40.5709 88.8223C41.3246 88.7241 41.9968 88.598 42.7431 88.7311C44.414 89.4606 44.2776 89.78 46.1784 89.603C47.0505 89.1641 47.7743 89.0505 48.7174 88.8443C49.0121 89.0627 50.0589 90.2152 50.3895 90.3454C53.6581 91.6335 58.5671 90.3517 61.8929 89.9524C63.2536 89.7888 67.3992 89.7503 67.6698 89.2452C66.6484 88.8055 64.6745 89.8567 63.2724 89.3028C63.569 88.8555 66.4301 88.5544 67.3254 88.3664C68.553 87.9072 69.7763 87.6724 71.0655 87.4545C72.1884 87.2647 74.2048 86.2614 75.1151 87.0813L75.335 87.0303L75.2605 86.9036L75.3245 86.72C75.7076 86.4775 76.2574 86.4472 76.7176 86.3838L76.2355 86.2851L76.3469 85.9514C76.6325 85.4893 77.1507 85.4233 77.5772 84.747C77.8474 84.6374 78.2346 84.5625 78.5279 84.4925C79.189 84.5127 81.1159 84.8107 81.55 84.6771C81.2789 84.487 81.2826 84.4873 81.0739 84.228C81.311 84.0577 81.562 84.1424 81.9185 84.1635C82.1296 84.2376 83.1182 84.601 83.274 84.6298C84.3265 84.9994 84.9834 85.2455 85.8862 85.9494C86.1367 86.2294 86.1978 86.3398 86.3948 86.6641C86.3001 87.3718 84.8749 87.9161 84.2257 88.2052C76.0786 91.8332 66.8211 92.0256 58.0636 92.6454C55.6105 92.8113 52.2832 92.9538 49.9448 92.8491C48.9957 93.0794 48.4643 93.0138 47.4998 92.8578C45.4669 92.9662 43.4385 92.6484 41.3972 92.594C37.3678 92.4867 33.067 91.8569 29.0786 91.7004C26.1017 91.5837 11.1554 89.0462 10 86.7316C10.1083 85.1951 13.0551 84.6499 14.206 84.2258Z" fill="#F0D6B3"/>
<path d="M81.5483 84.6793C81.2771 84.4892 81.2808 84.4895 81.0721 84.2302C81.3092 84.0599 81.5602 84.1446 81.9167 84.1657C82.1278 84.2398 83.1164 84.6032 83.2723 84.632C84.3247 85.0017 84.9816 85.2477 85.8844 85.9516C84.9724 86.7395 82.1267 86.8087 80.9018 86.997C79.2859 87.2454 77.5835 87.6893 75.9799 87.9045C75.6843 87.6748 75.2514 87.4025 75.1133 87.0835L75.3332 87.0325L75.2587 86.9058L75.3227 86.7222C75.7058 86.4797 76.2556 86.4494 76.7158 86.386L76.2337 86.2873L76.3451 85.9536C76.6308 85.4915 77.1489 85.4255 77.5754 84.7492C77.8456 84.6396 78.2328 84.5647 78.5261 84.4947C79.1873 84.5149 81.1141 84.8129 81.5483 84.6793Z" fill="#EECA90"/>
<path d="M81.5484 84.6793C81.2773 84.4892 81.2809 84.4895 81.0723 84.2302C81.3093 84.0599 81.5603 84.1446 81.9168 84.1657C82.128 84.2398 83.1166 84.6032 83.2724 84.632C83.4817 84.9832 83.5718 84.994 83.5351 85.342C83.1746 85.4221 82.1894 84.7506 81.5484 84.6793Z" fill="#77553C"/>
<path d="M76.7169 86.3857C77.0991 86.5584 77.2448 86.5455 77.4414 86.8572C77.0701 87.1523 75.8231 87.0492 75.3343 87.0322L75.2598 86.9055L75.3238 86.722C75.7069 86.4794 76.2566 86.4492 76.7169 86.3857Z" fill="#B2824F"/>
<path d="M34.8471 89.539C35.3725 89.1492 35.6228 89.1512 36.2535 89.1192C37.4987 89.0559 38.4391 88.6688 39.5689 88.1885L40.5691 88.8241C41.3228 88.7258 41.9949 88.5997 42.7413 88.7329C42.315 88.8849 40.7274 89.523 40.4584 89.5967C40.1645 90.1838 40.0023 90.2963 39.3844 90.521C39.0177 90.6544 38.5059 90.8836 38.1487 90.7494C37.0313 90.4954 35.6608 90.4037 34.5164 90.2978C33.2752 90.1829 31.563 90.37 30.4297 89.9023C30.9019 89.6549 31.3551 89.4429 31.7671 89.1041C33.0333 89.0773 33.3974 90.0133 34.8471 89.539Z" fill="#EECA90"/>
<path d="M38.148 90.7485L38.2696 90.6518L38.0117 90.4256C38.2711 90.0961 39.9494 89.7281 40.4576 89.5957C40.1637 90.1829 40.0015 90.2954 39.3836 90.52C39.017 90.6534 38.5051 90.8827 38.148 90.7485Z" fill="#E6BA78"/>
<path d="M19.1558 84.7422L19.9928 84.7538C21.0914 84.8171 21.6896 84.9459 22.7731 84.8067L22.8777 84.7931C23.2937 84.9879 23.3393 85.019 23.6175 85.3833L23.6256 85.6135C23.2425 85.8843 22.8583 86.0276 22.745 86.3775C23.2413 86.9196 23.6864 87.2798 24.1603 87.7662C25.1718 88.0314 28.6907 89.0807 29.2936 89.8337C28.0683 89.5568 27.5925 89.0291 26.1212 88.6267C24.0322 88.0552 22.0638 88.2247 20.2135 87.8038L19.869 88.0915C19.3048 88.2065 18.8268 88.1521 18.294 87.9512L18.2585 87.782L18.4994 87.627C19.4447 87.1187 21.851 86.9935 21.1604 85.6827C20.4043 85.1201 18.8806 85.2193 17.8945 85.193C18.3708 85.0772 18.7047 84.9285 19.1558 84.7422Z" fill="#EECA90"/>
<path d="M18.5007 87.6265C19.1589 87.673 19.3249 87.6782 19.9741 87.5823C20.1214 87.4471 20.1414 87.4362 20.2512 87.2715C20.4087 87.4637 20.4219 87.5073 20.6226 87.6565L20.5343 87.6357C20.4274 87.7075 20.3365 87.7567 20.2147 87.8033L19.8703 88.091C19.306 88.206 18.828 88.1516 18.2952 87.9507L18.2598 87.7815L18.5007 87.6265Z" fill="#B2824F"/>
<path d="M14.2031 84.2258C14.797 83.9588 16.7836 83.4771 17.4309 83.458L17.3049 83.5139C16.9365 83.6061 15.6755 84.7077 15.4337 84.9851L15.4569 85.1732C15.5915 85.2366 15.6206 85.2693 15.7606 85.2877C15.3183 85.5094 14.2686 85.6114 13.7227 85.5443C14.0841 85.3724 14.6479 85.1475 14.8052 84.7991C14.674 84.4568 14.5521 84.4623 14.2031 84.2258Z" fill="#EECA90"/>
<path d="M47.498 92.8584C48.1495 92.4766 49.3391 92.3328 49.9431 92.8497C48.994 93.08 48.4625 93.0144 47.498 92.8584Z" fill="#DDAA6D"/>
<path d="M17.4328 83.4599C18.227 83.0459 18.6423 82.3254 19.988 81.8344C21.2319 81.3803 21.8111 81.6508 22.9361 81.3246C23.1286 81.0346 23.7028 80.1076 23.9485 79.9263C25.1343 79.0512 27.6933 79.1533 28.8163 78.2764C29.6844 77.5986 30.4195 76.6348 31.2477 77.6323C31.3794 78.0428 31.289 78.335 31.2134 78.7547L31.2801 78.962L31.5751 79.0628C31.3666 79.4571 31.3304 79.3653 31.4226 79.6769L31.6249 79.7357C33.151 80.7206 33.0832 80.4624 34.724 80.9284L34.6849 81.0137L35.0874 81.0881C35.0906 81.6518 34.7087 81.4294 34.9997 81.8011L34.8256 81.8648L34.4076 82.2099L34.6847 82.3173C35.4711 82.0905 37.0596 82.15 37.8393 82.4465C38.2343 82.4041 38.353 82.4752 38.7317 82.6053C39.2578 82.8194 39.5529 83.2016 40.0344 83.274L40.547 83.0537L40.6083 83.3054L40.4607 83.374C40.1966 83.9182 40.3903 84.4518 40.3153 84.5438C39.2205 85.8862 34.8608 85.0716 34.4948 87.0318L34.6109 87.2145C34.352 87.3052 34.2801 87.3156 34.0181 87.363L33.7769 87.3664L33.8458 87.5904C33.2334 88.3775 31.2639 88.2014 31.1347 88.8407L31.5598 89.0738L31.7679 89.1042C31.3559 89.443 30.9026 89.655 30.4305 89.9024C29.9444 89.9358 29.7794 89.9654 29.2941 89.8338C28.6912 89.0808 25.1723 88.0315 24.1608 87.7663C23.6869 87.2799 23.2418 86.9197 22.7455 86.3776C22.8588 86.0277 23.243 85.8844 23.6261 85.6136L23.618 85.3834C23.3399 85.0191 23.2942 84.988 22.8783 84.7932L22.7736 84.8068C21.6901 84.946 21.0919 84.8172 19.9933 84.7539L19.1564 84.7423C18.7053 84.9286 18.3714 85.0773 17.8951 85.1931C17.1837 85.2133 16.4728 85.2454 15.7624 85.2896C15.6225 85.2712 15.5933 85.2385 15.4588 85.1751L15.4355 84.987C15.6774 84.7096 16.9384 83.608 17.3068 83.5158L17.4328 83.4599Z" fill="url(#paint7_linear_138_940)"/>
<path d="M21.587 82.252C22.0867 82.1944 22.6105 82.0926 23.1084 82.0049C23.7955 84.0235 28.8192 83.6316 30.4531 83.1529C31.7144 84.3343 31.9892 84.4599 33.8129 84.875C34.1751 84.9576 34.513 84.9655 34.8194 85.1701L34.5619 85.2579C34.4369 85.8187 34.3957 85.7199 33.9468 86.2017L34.2594 86.3191C34.3884 86.6466 34.3786 86.5021 34.2556 86.8687L34.4948 87.0316L34.6109 87.2142C34.352 87.305 34.2801 87.3154 34.0181 87.3628L33.7769 87.3661L33.8458 87.5902C33.2334 88.3773 31.2639 88.2012 31.1347 88.8405L31.5598 89.0736L31.7679 89.104C31.3559 89.4428 30.9026 89.6548 30.4305 89.9022C29.9444 89.9355 29.7794 89.9652 29.2941 89.8336C28.6912 89.0806 25.1723 88.0313 24.1608 87.7661C23.6869 87.2796 23.2418 86.9194 22.7455 86.3773C22.8589 86.0275 23.243 85.8842 23.6261 85.6133L23.618 85.3832C23.3399 85.0188 23.2942 84.9878 22.8783 84.793L22.7736 84.8066C21.6901 84.9458 21.0919 84.8169 19.9933 84.7537L19.1564 84.7421C18.7053 84.9284 18.3714 85.0771 17.8951 85.1929C17.1837 85.2131 16.4728 85.2452 15.7624 85.2893C15.6225 85.271 15.5933 85.2383 15.4588 85.1749L15.4355 84.9867C15.6774 84.7094 16.9384 83.6078 17.3068 83.5156C16.9718 84.1975 16.8177 84.5227 16.5934 85.2417C17.6322 84.4803 20.0758 81.5177 21.587 82.252Z" fill="#E6BA78"/>
<path d="M23.1091 82.0049C23.7962 84.0235 28.8199 83.6316 30.4538 83.1529C31.7151 84.3343 31.9899 84.4599 33.8136 84.875C34.1758 84.9576 34.5137 84.9655 34.8201 85.1701L34.5626 85.2579C34.4367 85.2875 33.3865 85.5531 33.3758 85.554C32.4601 85.6604 32.1979 85.5518 31.3501 85.2129L31.2217 85.1273C31.2736 84.9872 31.3278 84.8538 31.3844 84.7153C31.3288 84.2388 30.9768 83.9995 30.6116 83.6429C28.9354 83.59 26.3141 84.7612 24.8878 83.8514C24.266 83.2133 24.0106 83.5254 23.3322 83.0994C23.0639 82.7605 23.1119 82.4356 23.1091 82.0049Z" fill="#CD995F"/>
<path d="M31.3477 85.212L31.4798 85.1692C32.1958 84.9309 32.8758 84.4448 33.3733 85.5531C32.4576 85.6595 32.1954 85.5508 31.3477 85.212Z" fill="#DDAA6D"/>
<path d="M33.9462 86.2021L34.2588 86.3195C34.3878 86.647 34.378 86.5025 34.255 86.8691L34.4942 87.032L34.6103 87.2146C34.3514 87.3054 34.2795 87.3158 34.0175 87.3632L33.7763 87.3666C32.5312 87.5425 31.5396 88.0078 30.2812 88.1697C30.4992 87.6861 31.6486 87.229 32.1464 87.0488C32.7831 86.6859 33.5334 86.6808 33.9462 86.2021Z" fill="url(#paint8_linear_138_940)"/>
<path d="M33.9462 86.2021L34.2589 86.3195C34.3879 86.647 34.3781 86.5025 34.2551 86.8691C33.382 86.8547 32.6849 87.2246 32.1465 87.0488C32.7832 86.6859 33.5335 86.6808 33.9462 86.2021Z" fill="#B2824F"/>
<path d="M33.7766 87.3662L33.8455 87.5903C33.2331 88.3773 31.2636 88.2013 31.1344 88.8406L31.5595 89.0736C30.5274 89.1594 30.0618 89.1675 29.0391 89.1031C29.481 88.7898 29.8671 88.5201 30.2816 88.1693C31.54 88.0075 32.5315 87.5421 33.7766 87.3662Z" fill="#77553C"/>
<path d="M21.5859 82.252C22.0856 82.1944 22.6094 82.0926 23.1074 82.0049C23.1101 82.4356 23.0622 82.7605 23.3304 83.0994C24.0088 83.5254 24.2642 83.2133 24.8861 83.8514C23.1256 82.9413 23.3522 84.9407 21.5859 82.252Z" fill="#DDAA6D"/>
<path d="M19.1556 84.7416C18.6863 84.737 18.5988 84.8223 18.3027 84.5706C18.5824 84.0172 19.595 83.6286 20.1529 83.9373C20.2546 84.3053 20.1859 84.3123 19.9925 84.7532L19.1556 84.7416Z" fill="#DDAA6D"/>
<path d="M27.8 85.468C28.2222 85.4018 28.5526 85.4119 28.8981 85.6433L28.8532 85.7932C28.4058 85.9754 28.2338 86.0041 27.7745 86.0916C28.032 86.1638 28.275 86.1959 28.457 86.379C28.1689 86.5529 27.9141 86.5441 27.5745 86.5786C26.7954 86.0891 25.748 85.9202 25.5957 85.7812C26.3835 85.4212 27.0955 85.8116 27.8 85.468Z" fill="#77553C"/>
<path d="M31.7953 83.6914L31.7188 83.4763C31.9714 82.3707 33.8824 82.026 34.8235 81.8633L34.4056 82.2084L34.6827 82.3158C35.469 82.089 37.0576 82.1485 37.8372 82.445C38.2322 82.4026 38.3509 82.4737 38.7296 82.6037C39.2557 82.8179 39.5508 83.2001 40.0323 83.2725L40.545 83.0521L40.6062 83.3039L40.4587 83.3725C40.1945 83.9167 40.3882 84.4502 40.3132 84.5422C39.2184 85.8847 34.8588 85.0701 34.4928 87.0303L34.2536 86.8674C34.3765 86.5008 34.3863 86.6453 34.2574 86.3178L33.9447 86.2004C34.3937 85.7186 34.4349 85.8174 34.5598 85.2566L34.8174 85.1688C36.2542 84.7159 38.6274 84.8097 39.9439 83.8675C39.1821 83.2739 35.0782 85.7441 31.7953 83.6914Z" fill="#DDAA6D"/>
<path d="M31.7953 83.6914L31.7188 83.4763C31.9714 82.3707 33.8824 82.026 34.8235 81.8633L34.4056 82.2084L34.6827 82.3158C35.4691 82.089 37.0576 82.1485 37.8372 82.445C38.2322 82.4026 38.3509 82.4737 38.7296 82.6037C37.4119 84.3639 33.6734 83.3833 31.7953 83.6914Z" fill="#EECA90"/>
<path d="M34.6836 82.3167C35.47 82.0899 37.0585 82.1494 37.8381 82.4459C37.3075 82.8088 35.5482 82.8356 34.923 82.6673C34.7496 82.6207 34.7488 82.4781 34.6836 82.3167Z" fill="#5B4930"/>
<path d="M23.8104 82.0126C22.9491 80.3792 26.023 79.58 27.1601 79.6635L27.7844 79.6143C27.1838 80.5465 26.9796 80.7512 27.0318 81.8705C27.6694 81.7465 28.7034 81.4815 29.282 81.2142C29.95 81.1331 30.3544 81.0261 31.01 80.854L31.0502 81.0091L30.7638 81.2841C30.9217 81.6672 30.9339 81.7173 30.9274 82.1314C30.1059 83.5906 24.7538 83.1813 23.8104 82.0126Z" fill="#DDAA6D"/>
<path d="M23.8104 82.0123C22.9491 80.3788 26.023 79.5797 27.1601 79.6631C26.9359 80.0379 26.7049 80.4128 26.497 80.7965C25.7497 81.5034 26.1434 82.3011 25.6109 82.3239C25.1011 82.3456 24.3425 82.0594 23.8104 82.0123Z" fill="#E6BA78"/>
<path d="M27.1607 79.6635L27.785 79.6143C27.1843 80.5465 26.9801 80.7512 27.0323 81.8705C27.6699 81.7465 28.7039 81.4815 29.2826 81.2142C29.9506 81.1331 30.3549 81.0261 31.0106 80.854L31.0507 81.0091L30.7643 81.2841C30.3331 81.5897 29.8582 81.9808 29.3551 82.0967C28.4968 82.3763 27.0197 82.8756 26.4048 82.0166C26.2559 81.6007 26.3958 81.2453 26.4975 80.7969C26.7054 80.4131 26.9364 80.0382 27.1607 79.6635Z" fill="#49572B"/>
<path d="M27.7839 79.6144C28.2356 79.1374 30.1392 77.6115 30.75 77.8978C30.9099 78.3332 30.6638 78.8511 30.4805 79.272C30.1001 79.6049 30.1492 79.4602 30.0975 79.8597L30.1533 79.8734C29.9068 80.5706 29.7998 80.6735 29.2815 81.2143C28.7029 81.4816 27.6689 81.7466 27.0313 81.8706C26.979 80.7513 27.1833 80.5466 27.7839 79.6144Z" fill="#8DB031"/>
<path d="M31.2124 78.7539L31.2791 78.9611C31.0378 79.64 31.4236 79.8072 31.0092 80.8538C30.3536 81.0259 29.9492 81.1329 29.2812 81.214C29.7995 80.6731 29.9065 80.5703 30.153 79.8731L30.0973 79.8593C30.1489 79.4598 30.0999 79.6046 30.4802 79.2717C30.8494 79.0869 30.9368 79.0562 31.2124 78.7539Z" fill="#8DB031"/>
<path d="M32.2958 81.9459C32.0458 82.1828 31.9893 82.2887 31.6694 82.3162L31.4321 82.1038C31.1974 81.545 31.0895 80.9213 31.6579 80.5625C32.1672 80.6411 32.3193 80.9308 32.5066 81.3795L32.2958 81.9459Z" fill="#AB7853"/>
<path d="M32.5057 81.3796C33.3448 81.1851 34.0872 81.2804 34.9445 81.3541C34.1398 81.5265 33.0659 81.8077 32.2949 81.946L32.5057 81.3796Z" fill="#B2824F"/>
<path d="M34.9494 77.3213C35.1446 77.579 35.3965 77.9548 35.6487 78.1337C36.0512 78.1383 36.172 78.127 36.5513 78.2513C36.8981 78.3057 37.3033 78.2358 37.5416 78.3086L37.9154 78.4752L37.8896 78.5326C38.4015 78.737 38.6946 78.834 39.1469 79.1536C39.2765 79.107 39.2789 79.086 39.393 79L39.2847 78.5346L40.0549 78.4738C40.8211 78.3975 41.2346 76.9138 42.2282 77.671C43.4375 77.9924 44.3999 78.1962 45.632 78.4261L45.6954 78.4749C45.9779 78.6877 46.0541 78.7238 46.3781 78.8611C46.1717 78.9527 46.1549 78.9706 45.9345 79.0041C46.143 79.2986 46.0917 79.1366 46.0753 79.5118L46.1407 79.7038C46.9086 79.1822 47.9379 78.6026 48.7536 79.4631C48.8972 79.7472 48.8313 80.3038 48.6841 80.5651L48.6463 81.437C48.613 81.7295 48.5509 82.1512 48.5471 82.4336C48.5975 82.9731 48.5147 83.0524 48.8054 83.4281L49.095 83.46C49.8467 83.5072 50.5984 83.6789 51.3035 83.5985L51.522 83.6066C51.8621 83.2794 52.3701 83.1675 52.8167 83.0853C53.0451 83.1126 53.1667 83.0011 53.3701 82.8786L53.4129 83.1625C52.2897 83.5132 50.8278 84.4068 50.0234 85.2744L49.5953 85.3342C48.8724 84.434 47.8248 83.7253 46.6381 84.0376C46.1891 84.2255 45.1243 84.2983 44.6287 84.2882C44.3868 84.0415 44.2647 84.1886 44.1364 83.8211L44.3987 83.6501C43.5497 83.4139 42.4573 83.2175 41.7201 82.7408L41.2974 83.0047C41.1456 82.877 40.9391 82.8119 40.7515 82.7356C40.7139 82.7914 40.5621 83.0075 40.5453 83.0532L40.0326 83.2736C39.5511 83.2011 39.256 82.8189 38.7299 82.6048C38.3512 82.4747 38.2325 82.4037 37.8375 82.446C37.0579 82.1495 35.4694 82.09 34.683 82.3168L34.4059 82.2094L34.8238 81.8643L34.998 81.8006C34.707 81.4289 35.0888 81.6513 35.0856 81.0876L34.6831 81.0132L34.7222 80.9279C33.0815 80.4619 33.1493 80.7201 31.6231 79.7352L31.4209 79.6764C31.3286 79.3648 31.3648 79.4566 31.5733 79.0623C32.5319 78.2985 33.1939 78.03 34.4346 77.967L34.4086 77.7298L34.9022 77.9682L35.0238 77.8826L34.9494 77.3213Z" fill="#5B4930"/>
<path d="M40.056 78.4735C40.8222 78.3972 41.2357 76.9135 42.2292 77.6706C43.4386 77.992 44.401 78.1959 45.6331 78.4258L45.6965 78.4745C45.9789 78.6874 46.0551 78.7235 46.3791 78.8607C46.1728 78.9524 46.156 78.9703 45.9355 79.0038C46.1441 79.2983 46.0927 79.1363 46.0764 79.5115L46.1418 79.7034C46.9097 79.1818 47.9389 78.6023 48.7546 79.4627C48.8982 79.7468 48.8324 80.3034 48.6851 80.5648L48.6474 81.4367C47.289 82.8727 47.2233 81.9303 46.2226 82.633C45.5567 82.2198 44.4126 82.0598 43.617 81.8984C42.6664 81.4463 42.3401 82.0802 41.6628 80.6109L41.2537 80.4748C40.9304 80.1937 40.7277 79.8598 40.4875 79.5072L40.4189 79.3411C40.1944 79.5853 40.1979 79.6062 40.1159 79.9377L39.7561 79.6687L39.7969 79.603L39.75 79.5051L39.0371 79.4792L39.148 79.1532C39.2775 79.1066 39.28 79.0857 39.3941 78.9996L39.2858 78.5343L40.056 78.4735Z" fill="#CD995F"/>
<path d="M40.056 78.4735C40.8222 78.3972 41.2357 76.9135 42.2292 77.6706C43.4386 77.992 44.401 78.1959 45.6331 78.4258L45.6965 78.4745C45.9789 78.6874 46.0551 78.7235 46.3791 78.8607C46.1728 78.9524 46.156 78.9703 45.9355 79.0038C46.1441 79.2983 46.0927 79.1363 46.0764 79.5115C44.9805 79.1121 44.8079 79.1859 43.6416 79.4421L43.0223 79.5894C42.8439 79.5735 41.9547 79.2387 41.7152 79.1548C41.1845 79.1811 40.881 79.1332 40.4875 79.5072L40.4189 79.3411C40.1944 79.5853 40.1979 79.6062 40.1159 79.9377L39.7561 79.6687L39.7969 79.603L39.75 79.5051L39.0371 79.4792L39.148 79.1532C39.2775 79.1066 39.28 79.0857 39.3941 78.9996L39.2858 78.5343L40.056 78.4735Z" fill="#516629"/>
<path d="M40.056 78.4735C40.8222 78.3972 41.2357 76.9135 42.2292 77.6706L41.5206 78.4414L41.5574 78.5924C41.7902 78.6701 42.1313 78.7602 42.3244 78.8885L42.3214 78.9922C42.1544 79.0327 41.8622 79.0918 41.7152 79.1548C41.1845 79.1811 40.881 79.1332 40.4875 79.5072L40.4189 79.3411C40.1944 79.5853 40.1979 79.6062 40.1159 79.9377L39.7561 79.6687L39.7969 79.603L39.75 79.5051L39.0371 79.4792L39.148 79.1532C39.2775 79.1066 39.28 79.0857 39.3941 78.9996L39.2858 78.5343L40.056 78.4735Z" fill="#576D2B"/>
<path d="M42.324 78.8887C43.3603 79.1173 44.8401 79.0274 45.9352 79.0039C46.1437 79.2984 46.0924 79.1364 46.076 79.5116C44.9801 79.1123 44.8075 79.1861 43.6412 79.4422L43.022 79.5895C42.8436 79.5737 41.9544 79.2388 41.7148 79.1549C41.8618 79.0919 42.154 79.0328 42.321 78.9923L42.324 78.8887Z" fill="#FEFDFE"/>
<path d="M42.321 78.9922C42.8772 79.2706 43.0292 79.3649 43.6412 79.4421L43.022 79.5894C42.8436 79.5736 41.9544 79.2387 41.7148 79.1548C41.8618 79.0918 42.154 79.0327 42.321 78.9922Z" fill="#534D32"/>
<path d="M41.6621 80.611L42.1337 80.541C42.7933 81.8416 43.9547 81.265 44.6057 81.1708C44.7508 81.1497 45.4885 82.4894 46.404 82.1092C46.5504 81.8685 46.6574 81.6819 46.7863 81.4313L46.9904 81.4653C47.0912 81.6515 47.1573 81.7887 47.2905 81.9568C47.7879 81.852 47.6096 81.948 47.97 81.6024C48.0555 81.2763 48.1084 81.0813 48.2298 80.7681C48.3959 80.6877 48.5092 80.6287 48.6844 80.5649L48.6467 81.4368C47.2882 82.8727 47.2226 81.9304 46.2219 82.6331C45.556 82.2199 44.4119 82.0598 43.6163 81.8985C42.6657 81.4464 42.3394 82.0803 41.6621 80.611Z" fill="#C89059"/>
<path d="M40.4883 79.5067C40.8818 79.1328 41.1853 79.1806 41.716 79.1543C41.9555 79.2382 42.8447 79.573 43.0231 79.5889L43.4061 79.9973C43.134 80.6459 42.8193 80.5079 42.1351 80.5405L41.6636 80.6105L41.2545 80.4743C40.9311 80.1932 40.7284 79.8593 40.4883 79.5067Z" fill="#DDAA6D"/>
<path d="M43.6408 79.4426C44.807 79.1864 44.9797 79.1126 46.0755 79.5119L46.1409 79.7039L46.4289 80.0585L46.102 80.0678C44.5393 78.8763 44.4669 80.8579 43.4044 79.9983L43.0215 79.5899L43.6408 79.4426Z" fill="#5B4930"/>
<path d="M46.4304 80.0586C46.8456 80.1688 47.0164 80.2003 47.3987 80.422L47.434 80.5623C46.9102 80.6221 46.5546 80.3425 46.1035 80.0679L46.4304 80.0586Z" fill="#B2824F"/>
<path d="M31.5733 79.0621C32.5319 78.2983 33.1939 78.0298 34.4346 77.9668L34.9373 78.1707L34.8675 78.4166C35.0378 78.8087 35.1298 79.001 35.3465 79.3727C35.7017 79.9696 35.8749 80.4309 36.1309 81.0688C35.6806 81.011 35.1706 80.9273 34.7222 80.9277C33.0815 80.4617 33.1493 80.7199 31.6231 79.735L31.4209 79.6762C31.3286 79.3646 31.3648 79.4564 31.5733 79.0621Z" fill="#E6BA78"/>
<path d="M35.3484 79.3721C35.7036 79.969 35.8768 80.4303 36.1328 81.0682C35.6825 81.0104 35.1724 80.9267 34.7241 80.9271C33.0834 80.4611 33.1512 80.7193 31.625 79.7344L31.7121 79.5645L32.0539 79.6748L32.1789 79.5442C32.5396 80.2573 32.9838 80.2131 33.7265 80.3618C34.2024 80.1295 35.1077 79.7781 35.3484 79.3721Z" fill="#DDAA6D"/>
<path d="M31.5733 79.0621C32.5319 78.2983 33.1939 78.0298 34.4346 77.9668L34.9373 78.1707L34.8675 78.4166C33.6853 78.5011 32.9976 78.6396 32.177 79.5448L32.0521 79.6754L31.7102 79.5651L31.6231 79.735L31.4209 79.6762C31.3286 79.3646 31.3648 79.4564 31.5733 79.0621Z" fill="url(#paint9_linear_138_940)"/>
<path d="M36.0995 81.71C38.206 81.739 39.064 81.5304 40.7538 82.7354C40.7162 82.7912 40.5644 83.0073 40.5476 83.053L40.035 83.2734C39.5535 83.201 39.2583 82.8187 38.7323 82.6046C38.3536 82.4746 38.2349 82.4035 37.8399 82.4458C37.0602 82.1493 35.4717 82.0899 34.6853 82.3167L34.4082 82.2093L34.8261 81.8642L35.0003 81.8004L36.0995 81.71Z" fill="#E6BA78"/>
<path d="M37.8927 78.5322C38.4046 78.7366 38.6977 78.8336 39.15 79.1532L39.0391 79.4792L39.7521 79.505L39.799 79.6029L39.7582 79.6687C39.4444 80.1527 39.0376 80.7116 38.9232 81.2691C38.6785 81.3773 38.6042 81.3386 38.318 81.3321C37.8929 81.188 37.9651 81.2824 37.7358 80.9807C37.5589 80.1629 37.6544 79.5021 37.7783 78.677L37.8927 78.5322Z" fill="#DDAA6D"/>
<path d="M39.0376 79.4795L39.7505 79.5053L39.7974 79.6033L39.7566 79.669C39.4428 80.153 39.036 80.7119 38.9216 81.2694C38.6769 81.3776 38.6027 81.339 38.3164 81.3324L38.4684 80.6007L39.0376 79.4795Z" fill="#516629"/>
<path d="M34.9509 77.3213C35.1461 77.579 35.398 77.9548 35.6502 78.1337L35.5991 78.3335C35.8117 78.775 36.5025 80.2536 36.7606 80.5702L36.9528 80.9134L36.8843 81.1035L36.4184 81.1517L36.4985 81.3354C36.6887 81.4032 36.8113 81.4411 37.0068 81.4919L37.068 81.6054C36.7812 81.647 36.2541 81.6354 36.0987 81.7101L34.9995 81.8006C34.7085 81.4289 35.0904 81.6513 35.0872 81.0876L34.6847 81.0132L34.7238 80.9279C35.1721 80.9275 35.6822 81.0112 36.1325 81.069C35.8765 80.4311 35.7032 79.9698 35.3481 79.3729C35.1313 79.0012 35.0394 78.8089 34.869 78.4168L34.9388 78.1709L34.4361 77.967L34.4102 77.7298L34.9037 77.9682L35.0253 77.8826L34.9509 77.3213Z" fill="#49572B"/>
<path d="M41.7227 82.7406C42.9997 82.2584 44.8172 82.4002 45.8854 83.3069L45.9457 83.5528C45.5032 83.8794 44.9896 83.7194 44.4012 83.6499C43.5522 83.4136 42.4599 83.2172 41.7227 82.7406Z" fill="#E6BA78"/>
<path d="M41.2554 80.4756L41.6644 80.6118C42.3418 82.0811 42.668 81.4471 43.6186 81.8992C42.414 82.1995 40.0333 82.4764 41.2554 80.4756Z" fill="#B2824F"/>
<path d="M39.7568 79.6689L40.1166 79.9379C40.3213 80.3437 40.3923 80.4346 40.3529 80.8801C40.1045 81.3255 39.9452 81.3664 39.4446 81.3183L38.9219 81.2694C39.0363 80.7119 39.4431 80.153 39.7568 79.6689Z" fill="#CD995F"/>
<path d="M46.2227 82.6329C47.2234 81.9302 47.289 82.8725 48.6475 81.4365C48.6142 81.729 48.552 82.1507 48.5482 82.4331L48.4016 83.0548C47.7048 83.0175 47.8493 82.5587 46.327 82.7159L46.2227 82.6329Z" fill="#B2824F"/>
<path d="M46.3262 82.7163C47.8485 82.5591 47.704 83.0179 48.4007 83.0552C48.2836 83.4515 48.3729 83.3769 48.0998 83.5345C47.3753 83.6201 46.8944 83.1488 46.3262 82.7163Z" fill="#AB7853"/>
<path d="M35.5996 78.334L36.6457 78.7148C36.6912 79.3321 36.7428 79.9523 36.7612 80.5707C36.503 80.2541 35.8122 78.7755 35.5996 78.334Z" fill="#DDAA6D"/>
<path d="M69.2238 76.8047C69.382 77.0971 69.43 77.5444 69.1347 77.7758C68.2463 77.519 66.9893 77.7664 66.0581 77.8959C66.3158 78.2443 66.3885 78.3982 66.772 78.6055C67.4995 78.5497 68.2915 78.5818 68.9949 78.7855C69.1401 78.8628 69.3776 78.9701 69.4842 79.0768C70.286 78.9853 71.1615 79.1969 70.8269 80.2087L70.5903 80.3768L70.4353 80.5901L70.1837 80.3273C70.028 80.4853 70.0806 80.6601 70.0647 80.9554C70.2888 81.5329 70.5086 81.9428 70.4209 82.5612L69.802 82.6732C68.6413 82.8476 68.1811 82.613 67.2134 82.0148L66.7708 82.2298C66.8504 82.4449 66.9474 82.734 67.0388 82.9381C66.6607 82.9434 66.4036 82.8671 66.0373 82.7861C65.2051 82.2311 64.7955 82.8231 64.146 82.1817C63.5384 81.6147 61.7604 81.5404 60.9568 81.5264L60.8645 81.4043C60.6641 81.2757 60.548 81.1938 60.3594 81.0483L60.3844 80.757C60.699 80.3983 61.0112 80.0156 61.2081 79.5773C62.9031 78.1297 64.886 77.1403 67.1478 76.9405C67.7951 76.8834 68.658 77.0188 69.2238 76.8047Z" fill="#576D2B"/>
<path d="M66.7715 78.6064C67.4989 78.5506 68.2909 78.5827 68.9944 78.7864C69.1395 78.8637 69.377 78.971 69.4837 79.0777C70.2855 78.9862 71.1609 79.1978 70.8264 80.2096L70.5898 80.3777L70.4347 80.591L70.1831 80.3282C70.0275 80.4862 70.08 80.661 70.0641 80.9563C70.2882 81.5338 70.508 81.9437 70.4204 82.5621C70.2529 82.5124 70.0861 82.4608 69.9201 82.4068C69.2871 82.1994 69.1441 82.121 68.8694 81.5866C68.4397 81.1382 66.9068 79.5953 66.7958 79.0487L66.7715 78.6064Z" fill="#B0CC39"/>
<path d="M66.7715 78.6064C67.4989 78.5506 68.2909 78.5827 68.9944 78.7864C69.1395 78.8637 69.377 78.971 69.4837 79.0777C70.2855 78.9862 71.1609 79.1978 70.8264 80.2096L70.5898 80.3777L70.4347 80.591L70.1831 80.3282C70.0275 80.4862 70.08 80.661 70.0641 80.9563C69.5128 79.8536 68.8677 79.6886 67.7818 79.2877L66.7958 79.0487L66.7715 78.6064Z" fill="#4C4B29"/>
<path d="M69.4844 79.0779C70.2862 78.9863 71.1616 79.198 70.8271 80.2097L70.5905 80.3778C69.8985 80.0552 69.8162 79.7549 69.4844 79.0779Z" fill="#534D32"/>
<path d="M66.7715 78.6064C67.4989 78.5506 68.2909 78.5827 68.9944 78.7864C68.4712 78.8443 68.1909 78.9117 67.7818 79.2877L66.7958 79.0487L66.7715 78.6064Z" fill="#49572B"/>
<path d="M65.1742 79.7705C65.5889 81.1249 65.6823 81.2513 66.6859 82.2561L66.7696 82.2306C66.8492 82.4456 66.9462 82.7348 67.0375 82.9388C66.6594 82.9442 66.4023 82.8679 66.036 82.7869C65.2038 82.2318 64.7943 82.8239 64.1448 82.1825C63.5371 81.6155 61.7592 81.5412 60.9555 81.5271L60.8633 81.405C60.9447 80.9977 60.956 80.9056 61.1529 80.5435L61.368 80.4815C61.7871 80.676 61.778 80.7634 62.1435 80.6572L62.1958 80.5972L62.6456 80.7685C63.1739 80.8574 63.9039 81.0621 64.3741 80.9666L64.7164 80.6832C64.7584 80.3966 65.0158 80.0331 65.1742 79.7705Z" fill="#77553C"/>
<path d="M65.1751 79.7705C65.5898 81.1249 65.6831 81.2513 66.6867 82.2561C66.1923 82.2786 65.1257 81.9274 64.5977 81.7788C64.6921 81.3784 64.8049 81.0778 64.7173 80.6832C64.7593 80.3966 65.0167 80.0331 65.1751 79.7705Z" fill="#B2824F"/>
<path d="M60.8633 81.405C60.9447 80.9977 60.956 80.9055 61.1529 80.5435L61.368 80.4814C61.7871 80.676 61.778 80.7634 62.1435 80.6572L62.1958 80.5971L62.6456 80.7685C61.4288 81.157 62.111 81.3669 60.8633 81.405Z" fill="#5B4930"/>
<path d="M69.2238 76.8047C69.382 77.0971 69.43 77.5444 69.1347 77.7758C68.2463 77.519 66.9893 77.7664 66.0581 77.8959C64.9523 77.9454 62.6104 78.8095 61.866 79.6971C61.6593 79.9438 61.5874 80.225 61.3692 80.4807L61.1542 80.5428C60.9573 80.9048 60.946 80.997 60.8645 81.4043C60.6641 81.2757 60.548 81.1938 60.3594 81.0483L60.3844 80.757C60.699 80.3983 61.0112 80.0156 61.2081 79.5773C62.9031 78.1297 64.886 77.1403 67.1478 76.9405C67.7951 76.8834 68.658 77.0188 69.2238 76.8047Z" fill="#49572B"/>
<path d="M67.2128 82.0151C66.4267 81.4718 65.3461 80.2313 65.9686 79.2427C66.8651 79.1766 67.689 81.3866 68.8694 81.586C69.144 82.1204 69.287 82.1989 69.92 82.4062C70.0861 82.4602 70.2529 82.5118 70.4203 82.5615L69.8013 82.6735C68.6407 82.8479 68.1805 82.6133 67.2128 82.0151Z" fill="#8DB031"/>
<path d="M62.1973 80.5977C62.7644 79.8796 64.2799 78.6043 65.242 78.94C65.3912 79.3038 65.3008 79.3254 65.1757 79.771C65.0173 80.0336 64.7599 80.3972 64.7179 80.6837L64.3755 80.9671C63.9054 81.0626 63.1754 80.858 62.6471 80.769L62.1973 80.5977Z" fill="#DDAA6D"/>
<path d="M46.1777 89.6041L46.4124 89.2804C47.2429 88.1499 48.6337 88.0732 49.8429 88.6275L49.3906 88.7591L49.3224 88.9216C50.887 91.1692 52.2077 90.4734 54.4442 90.5977C57.2294 90.7523 59.3419 89.8997 62.0049 89.7256L62.025 89.6613C61.0286 89.2891 58.7793 89.8263 57.7532 89.6718C56.0584 89.4167 53.7646 89.6784 52.2047 89.4255C51.9548 89.2124 51.9701 89.2926 51.9166 89.0347C52.5754 89.661 52.4474 89.4076 53.2749 89.3556C54.7088 89.2656 62.4028 89.8509 63.2717 89.304C64.6738 89.8578 66.6477 88.8066 67.669 89.2463C67.3985 89.7514 63.2529 89.79 61.8921 89.9535C58.5663 90.3528 53.6574 91.6346 50.3887 90.3466C50.0582 90.2163 49.0113 89.0639 48.7167 88.8455C47.7736 89.0516 47.0498 89.1652 46.1777 89.6041Z" fill="#EECA90"/>
<path d="M70.0665 80.9553C70.0824 80.66 70.0298 80.4852 70.1855 80.3271L70.437 80.59L70.5431 80.7603L70.9732 81.1507C72.6199 82.9942 70.6784 83.2442 69.5975 83.9659C68.2945 83.8242 67.5035 83.8234 66.3149 83.2707C66.1513 83.0546 66.1356 83.0515 66.0391 82.786C66.4054 82.867 66.6625 82.9433 67.0405 82.9379C66.9492 82.7339 66.8522 82.4448 66.7726 82.2297L67.2151 82.0147C68.1828 82.6129 68.6431 82.8475 69.8037 82.6731L70.4227 82.5611C70.5104 81.9427 70.2906 81.5328 70.0665 80.9553Z" fill="#CD995F"/>
<path d="M70.0642 80.9553C70.08 80.66 70.0275 80.4852 70.1831 80.3271L70.4347 80.59L70.5407 80.7603L70.9709 81.1507C71.058 82.1594 71.2049 83.0273 69.9057 83.1264L69.3984 82.9554L69.8014 82.6731L70.4204 82.5611C70.5081 81.9427 70.2882 81.5328 70.0642 80.9553Z" fill="#5B4930"/>
<path d="M66.7715 82.2297L67.214 82.0146C68.1817 82.6128 68.642 82.8474 69.8026 82.673L69.3996 82.9553L69.9069 83.1263C68.5923 83.4451 68.3446 83.2631 67.0394 82.9379C66.9481 82.7339 66.8511 82.4447 66.7715 82.2297Z" fill="#534D32"/>
<path d="M70.5906 80.3771L70.8272 80.209C72.3769 80.639 74.0189 79.8122 75.0286 81.8623C76.7552 81.8462 78.4621 81.7064 79.7012 83.1522C80.3451 83.9033 80.496 83.5318 80.9668 83.9639C80.299 84.4933 79.151 83.406 78.5597 83.0833C77.144 82.3102 75.857 82.2383 74.3255 82.6532L74.2317 82.2175C74.7092 80.826 71.2374 80.7408 70.5416 80.7607L70.4355 80.5904L70.5906 80.3771Z" fill="#5B4930"/>
<path d="M49.5989 85.3342L50.027 85.2744C50.6148 85.6204 51.1148 85.6675 51.7801 85.7838C52.0596 85.8177 52.1546 85.8086 52.438 85.7904C52.3812 85.9204 52.2446 86.2094 52.2073 86.3294C51.9064 86.3222 51.4318 86.6551 50.9113 86.6545C50.5595 86.654 49.5906 86.3736 49.4615 86.4031C48.7188 86.5732 48.4665 87.1113 47.5901 86.8535C47.0411 86.6918 45.8777 86.5301 45.5195 86.0014L45.6101 85.6595C46.0417 85.5301 46.3672 85.9253 46.9382 85.8828C47.8057 85.8183 48.5951 85.618 49.4689 85.5682L49.5897 85.4271L49.5989 85.3342Z" fill="#DDAA6D"/>
<path d="M49.5971 85.3342L50.0252 85.2744C50.613 85.6204 51.113 85.6675 51.7782 85.7838C51.2228 86.4813 50.1728 85.8326 49.5879 85.4271L49.5971 85.3342Z" fill="#77553C"/>
<path d="M33.777 87.3657L34.0182 87.3623C34.7708 87.8974 34.809 87.5996 35.3902 87.8922C35.7622 88.5272 36.3401 88.0384 36.9541 88.4223L36.925 88.5872C35.8862 88.8617 35.5289 88.3532 34.8673 89.0949L34.8479 89.5385C33.3983 90.0127 33.0341 89.0768 31.7679 89.1035L31.5599 89.0731L31.1348 88.84C31.264 88.2007 33.2335 88.3768 33.8459 87.5897L33.777 87.3657Z" fill="#DDAA6D"/>
<path d="M33.777 87.3657L34.0182 87.3623C34.7708 87.8974 34.809 87.5996 35.3902 87.8922C34.4104 88.8493 31.8868 88.0956 31.7679 89.1035L31.5599 89.0731L31.1348 88.84C31.264 88.2007 33.2335 88.3768 33.8459 87.5897L33.777 87.3657Z" fill="#B2824F"/>
<path d="M67.3242 88.3679C67.5271 88.1439 67.7231 87.9525 67.9841 87.7959C68.8339 87.2859 74.8861 85.6599 75.5868 85.8702C75.8177 85.9395 75.9998 85.9506 76.2416 85.9528L76.3457 85.9529L76.2343 86.2865L76.7164 86.3853C76.2561 86.4487 75.7064 86.4789 75.3233 86.7215L75.2593 86.905L75.3338 87.0317L75.1138 87.0828C74.2036 86.2628 72.1872 87.2662 71.0643 87.456C69.775 87.6739 68.5518 87.9087 67.3242 88.3679Z" fill="#EECA90"/>
<path d="M59.4346 81.6312C60.014 81.5595 60.3715 81.5365 60.9554 81.5264C60.623 82.3008 59.4422 82.4099 59.5405 83.1098C59.873 83.469 60.2106 83.4167 60.7112 83.5908C60.8827 83.8553 61.0598 84.1396 61.2425 84.3944C60.7585 84.1877 60.1142 84.124 59.7757 83.9504C58.7516 83.4254 58.01 83.0588 56.9277 82.6487C57.4922 82.2286 58.2006 81.9607 58.8511 81.6922L59.4346 81.6312Z" fill="#C89059"/>
<path d="M60.9559 81.5264C61.7596 81.5404 63.5375 81.6147 64.1451 82.1817C62.5748 82.4109 61.8757 82.1313 60.6258 83.1267L59.73 83.0586C59.9172 83.0606 60.6561 83.41 60.8357 83.5608L60.7117 83.5908C60.2111 83.4167 59.8735 83.469 59.5409 83.1098C59.4427 82.4099 60.6235 82.3008 60.9559 81.5264Z" fill="#DDAA6D"/>
<path d="M41.2988 83.0052L41.7215 82.7412C42.4587 83.2179 43.5511 83.4143 44.4001 83.6506L44.1378 83.8216C44.2661 84.189 44.3882 84.0419 44.6301 84.2886C44.3657 84.6193 44.7114 85.251 44.478 85.6123C44.0918 85.6574 43.1223 85.2606 42.7715 85.0633L42.8033 84.94C43.2512 84.8608 43.446 84.8153 43.8808 84.684L43.9568 84.5266C42.8727 83.5176 41.9147 83.6067 41.2988 83.0052Z" fill="#77553C"/>
<path d="M56.2832 82.9474L56.9292 82.6494C58.0115 83.0595 58.7531 83.4261 59.7772 83.9511C60.1157 84.1247 60.76 84.1884 61.2439 84.395L61.2216 84.638C60.0303 84.3619 59.6197 84.9143 58.6999 84.1305C57.9456 83.4877 57.228 83.2302 56.2832 82.9474Z" fill="#77553C"/>
<path d="M75.2617 84.433C76.1275 84.0393 77.4939 83.6856 78.4428 83.6094L78.6249 83.6855C78.6941 83.9994 78.5773 84.1699 78.5256 84.4932C78.2323 84.5632 77.8451 84.6381 77.5749 84.7477L77.4504 84.7085C77.1437 84.4346 75.8761 84.4985 75.2617 84.433Z" fill="#CD995F"/>
<path d="M77.4495 84.7092C76.6145 84.9355 74.5044 84.9829 73.8105 84.3911C74.3094 84.1379 74.7042 84.3065 75.2608 84.4336C75.8752 84.4992 77.1428 84.4353 77.4495 84.7092Z" fill="#77553C"/>
<path d="M60.8369 83.5608C61.2602 83.5605 61.5534 83.5032 61.8795 83.7451C61.872 84.1552 61.5106 84.3269 61.2219 84.6373L61.2442 84.3944C61.0615 84.1396 60.8844 83.8553 60.7129 83.5908L60.8369 83.5608Z" fill="#CD995F"/>
<path d="M52.4357 85.7891C52.8572 85.8762 53.5965 86.0064 53.9839 86.1227L54.0588 86.3154L54.091 86.1592L54.2276 86.2587C53.7357 86.4313 52.7446 86.3558 52.2051 86.3281C52.2424 86.2081 52.3789 85.9191 52.4357 85.7891Z" fill="#B2824F"/>
<path d="M74.2322 82.2178L74.326 82.6535C73.8227 82.8276 73.4611 82.9792 72.9564 82.8153L72.9492 82.6619C73.3076 82.3685 73.7753 82.3147 74.2322 82.2178Z" fill="#77553C"/>
<path d="M64.7836 87.3427C64.5727 87.2979 63.9571 87.3274 63.4672 87.2283L63.416 87.105C64.1899 86.7206 66.2628 86.8829 67.0951 86.9479C67.461 86.9765 68.7502 86.1353 69.2012 86.2476C69.1456 86.4015 68.502 86.6824 68.2626 86.9698C67.2951 87.7788 65.9117 87.8374 64.7836 87.3427Z" fill="#CD995F"/>
<path d="M64.7852 87.3436C65.2944 86.9884 67.4041 87.052 68.2642 86.9707C67.2966 87.7798 65.9133 87.8383 64.7852 87.3436Z" fill="#77553C"/>
<path d="M56.4336 85.8106C56.6309 85.7713 56.8371 85.774 57.0405 85.7656L57.118 85.9105L57.2252 85.9174C56.6254 86.1813 55.9815 86.2816 55.3385 86.4104L54.9373 86.5197L54.732 86.3748L54.6602 86.3852L54.7498 86.1994C55.2619 85.8883 55.8367 85.8747 56.4336 85.8106Z" fill="#AB7853"/>
<path d="M42.747 87.9064L42.8572 87.9313C42.4869 88.1737 42.1455 88.2479 41.7248 88.3687C41.527 88.1606 41.5647 88.2767 41.5615 88.0284C41.8282 87.86 42.4006 87.9083 42.747 87.9064Z" fill="#AB7853"/>
<path d="M28.1889 73.8337C26.3817 75.1096 24.232 75.1173 22.1539 74.4834C21.6069 74.3165 18.5979 73.1002 19.2318 72.1321C20.3616 70.4071 24.3578 70.3812 26.1185 71.0661C27.0943 71.4456 27.7774 72.0783 28.1938 73.0619C31.2068 73.5431 33.0516 75.0229 34.9519 77.3207L35.0263 77.882L34.9047 77.9676L34.4111 77.7292C32.6766 75.5896 30.8295 74.4585 28.1889 73.8337Z" fill="#516629"/>
<path d="M19.5625 72.2483C21.7845 71.1222 25.11 70.652 27.1424 72.4006C27.4341 72.8257 27.5392 72.7806 27.256 73.2232L27.5585 73.4249C26.9597 74.7796 22.2637 74.2775 21.2711 73.4316C20.8154 73.2106 20.0024 72.5724 19.5625 72.2483Z" fill="#B0CC39"/>
<path d="M27.1439 72.4004C27.4356 72.8254 27.5407 72.7803 27.2575 73.2229L27.56 73.4247C26.9612 74.7793 22.2652 74.2773 21.2726 73.4314L21.3211 73.2952L21.0156 73.0129C21.306 72.903 21.786 73.1383 22.252 73.0385C23.0884 72.8593 24.1781 72.417 25.0132 72.4348C25.6492 72.4484 26.3506 72.7864 27.0686 72.725L27.1439 72.4004Z" fill="#8DB031"/>
<path d="M34.6217 71.9052C32.9721 71.9193 31.4019 71.3304 30.2888 70.1642C28.4163 68.2023 29.2129 66.4053 31.9877 66.7345C33.6859 66.9358 34.2572 67.3056 35.3491 68.5471C38.2322 68.6123 39.014 71.6394 35.5461 71.9468L35.3929 71.7476L35.2339 71.7974C34.988 71.5789 34.6971 71.3646 34.4348 71.1618L34.2836 71.2308L33.9908 71.436L34.5192 71.5225C34.5633 71.6663 34.5998 71.7588 34.6217 71.9052Z" fill="#49572B"/>
<path d="M30.9242 69.98C27.547 67.2186 32.9797 65.863 34.8768 69.0758C34.8048 69.4522 34.8032 69.7009 34.5441 69.9716C33.8533 69.9893 33.795 69.3145 33.1719 69.2941C33.1048 69.5239 33.1419 69.766 33.1568 70.0096C32.4119 69.9821 31.6031 70.0648 30.9242 69.98Z" fill="#B0CC39"/>
<path d="M34.8783 69.0771L35.0259 69.5983L35.0737 70.6702C35.1085 70.9273 35.1765 71.5915 35.2335 71.7987C34.9875 71.5802 34.6967 71.3659 34.4344 71.1631L34.2832 71.232L33.9904 71.4373C32.849 71.1231 31.8765 70.7054 30.9258 69.9813C31.6046 70.0661 32.4135 69.9834 33.1583 70.0109C33.1435 69.7673 33.1064 69.5252 33.1734 69.2954C33.7965 69.3159 33.8549 69.9906 34.5456 69.9729C34.8047 69.7022 34.8064 69.4536 34.8783 69.0771Z" fill="#8DB031"/>
<path d="M34.2825 71.2306C34.0335 70.9604 33.9733 70.911 33.8047 70.5914C34.2153 70.3098 34.5261 70.4964 34.8662 70.7207L35.073 70.6688C35.1078 70.9258 35.1758 71.59 35.2328 71.7973C34.9869 71.5787 34.696 71.3644 34.4337 71.1616L34.2825 71.2306Z" fill="#6E912A"/>
<path d="M35.2745 69.4599C35.571 69.1117 35.4204 69.2047 35.8344 69.083C36.4723 69.1834 37.3505 69.6274 37.1627 70.4102C36.9991 71.093 36.1973 71.3038 35.6114 71.5153C35.5634 71.5639 35.4232 71.6975 35.392 71.7479L35.233 71.7977C35.176 71.5905 35.108 70.9263 35.0732 70.6692L35.0254 69.5973L35.2745 69.4599Z" fill="#8DB031"/>
<path d="M35.0254 69.5974L35.2745 69.46C35.3443 69.9681 35.5073 70.8865 35.4543 71.3593L35.6114 71.5154C35.5634 71.564 35.4232 71.6975 35.392 71.748L35.233 71.7978C35.176 71.5906 35.108 70.9264 35.0732 70.6693L35.0254 69.5974Z" fill="#576D2B"/>
<path d="M69.2238 76.8052C69.8399 75.2997 73.2517 74.9459 74.5745 75.2945C84.6564 77.9501 70.6176 81.2662 69.1348 77.7763C69.43 77.5449 69.3821 77.0976 69.2238 76.8052Z" fill="#516629"/>
<path d="M70.667 76.28C72.7843 74.9429 75.8204 76.0865 77.7454 77.2476C77.5323 77.3908 77.107 77.6958 76.9008 77.8065C76.5542 77.9894 76.3261 78.1265 75.947 78.2419C74.3951 79.067 70.9084 78.9377 69.6035 77.5862C69.7997 77.3749 69.8594 77.4241 70.2034 77.3422C70.0097 77.2175 69.8152 77.117 69.6775 76.9367C69.8517 76.6136 70.2793 76.4834 70.667 76.28Z" fill="#B0CC39"/>
<path d="M75.947 78.2422C74.3951 79.0673 70.9084 78.938 69.6035 77.5865C69.7997 77.3751 69.8594 77.4244 70.2034 77.3424C70.0097 77.2177 69.8152 77.1173 69.6775 76.937C69.8517 76.6139 70.2793 76.4837 70.667 76.2803C70.4556 76.5314 70.3363 76.6679 70.0978 76.8919C70.2802 76.9455 70.3082 76.9323 70.5006 76.9272C71.8102 77.0602 75.0192 77.5219 76.2556 77.9145C76.1246 77.9804 76.0159 78.0554 75.9047 78.1508L75.947 78.2422Z" fill="#8DB031"/>
<path d="M48.5247 76.8036C46.0602 78.584 42.3896 77.6753 40.266 75.7784C39.9581 75.5033 39.9411 75.2974 39.9435 74.9378C40.0888 74.6702 40.2568 74.4851 40.5559 74.3815C43.0624 73.5139 47.3592 73.3762 48.6182 76.274L48.5247 76.8036Z" fill="#49572B"/>
<path d="M43.5968 74.3491C44.8146 74.2438 47.4055 74.7607 47.7128 76.2045C47.4299 77.3516 46.002 77.1841 45.0509 77.1731C42.848 76.894 42.1308 76.4181 40.3066 75.046C41.4578 74.6614 42.4038 74.483 43.5968 74.3491Z" fill="url(#paint10_linear_138_940)"/>
<path d="M66.0274 72.3413C64.5162 67.384 74.9517 66.5703 72.1848 70.6557C71.3768 71.8313 70.1387 72.641 68.7385 72.9098C68.2205 73.0057 67.5357 73.0326 67.0214 72.9027L66.954 72.7182L67.0837 72.6291C67.4661 72.6421 67.6761 72.6418 68.0465 72.5472C67.5773 72.5091 67.2229 72.5096 66.7817 72.3412C66.6633 72.254 66.6468 72.1795 66.5621 72.0363L66.4651 72.0378L66.0274 72.3413Z" fill="#B0CC39"/>
<path d="M66.0274 72.3413C64.5162 67.384 74.9517 66.5703 72.1848 70.6557C71.3768 71.8313 70.1387 72.641 68.7385 72.9098C68.2205 73.0057 67.5357 73.0326 67.0214 72.9027L66.954 72.7182L67.0837 72.6291C67.4661 72.6421 67.6761 72.6418 68.0465 72.5472C68.7527 72.3091 70.079 71.9093 70.5892 71.4367C71.6325 70.5651 71.7872 70.1649 72.1285 68.8377C69.7078 68.4243 66.2225 68.797 66.4651 72.0378L66.0274 72.3413Z" fill="#49572B"/>
<path d="M66.7832 72.3405C67.3324 71.7209 68.0392 70.8307 68.8089 70.5498C68.5622 70.8701 68.3812 71.1205 68.0833 71.4011C68.7331 71.3445 69.9876 71.0713 70.4941 71.2096L70.5906 71.4361C70.0804 71.9086 68.7542 72.3084 68.048 72.5465C67.5788 72.5085 67.2244 72.5089 66.7832 72.3405Z" fill="#8DB031"/>
<path d="M66.5625 72.0363C67.1353 71.579 68.4486 70.4871 69.095 70.2881L68.8078 70.5505C68.0381 70.8314 67.3313 71.7216 66.7822 72.3412C66.6638 72.2541 66.6473 72.1795 66.5625 72.0363Z" fill="#516629"/>
<path d="M59.2995 75.7796C54.8184 74.1077 59.5339 68.753 61.8876 70.3098C63.1524 72.3859 62.5622 75.1821 60.0241 75.716C59.8951 75.4445 59.8549 75.4341 59.6131 75.2701C59.3702 75.5372 59.2976 75.5158 59.2995 75.7796Z" fill="#B0CC39"/>
<path d="M59.2995 75.7796C54.8184 74.1077 59.5339 68.753 61.8876 70.3098L61.2069 70.3904C58.9023 71.057 56.3319 73.8752 59.4133 75.2872L59.6131 75.2701C59.3702 75.5372 59.2976 75.5158 59.2995 75.7796Z" fill="#49572B"/>
<path d="M61.2077 70.3911L61.8884 70.3105C63.1532 72.3866 62.563 75.1828 60.0249 75.7168C59.8959 75.4452 59.8557 75.4348 59.6139 75.2708L59.4141 75.2879C59.4663 74.7987 59.5182 74.6367 59.6585 74.1828L59.781 74.1923C59.8994 74.3842 59.9156 74.9662 59.9405 75.2329C60.0981 75.1404 60.2542 75.0455 60.4088 74.9483C62.2562 73.7813 62.3406 72.1531 61.2077 70.3911Z" fill="url(#paint11_linear_138_940)"/>
<path d="M66.465 72.0377L66.562 72.0361C66.6467 72.1793 66.6632 72.2539 66.7816 72.341C67.2228 72.5094 67.5772 72.509 68.0464 72.547C67.676 72.6416 67.466 72.6419 67.0836 72.629L66.9539 72.7181L67.0213 72.9025C66.3793 72.8576 64.9672 74.744 64.3783 75.2187C63.2215 76.1515 61.6538 78.1229 61.2079 79.5777C61.011 80.016 60.6987 80.3987 60.3842 80.7574L60.3592 81.0487C60.5478 81.1942 60.6639 81.2761 60.8643 81.4046L60.9566 81.5267C60.3726 81.5368 60.0152 81.5599 59.4358 81.6316L58.8522 81.6925L58.7882 81.1384L58.4922 80.7551L58.6055 80.6576C59.7161 80.68 58.9175 80.0724 60.2386 79.8943C60.3338 79.6171 60.313 79.7666 60.2157 79.4262C60.9474 78.5019 61.5673 77.1255 62.3369 76.1726C63.1694 75.1419 64.1725 74.3624 65.1013 73.4377C65.3599 73.1802 65.7345 72.6673 66.0273 72.3412L66.465 72.0377Z" fill="#576D2B"/>
<path d="M58.6055 80.6578C59.7161 80.6802 58.9175 80.0726 60.2386 79.8945C59.6155 80.7459 59.8303 80.7273 59.4358 81.6317L58.8522 81.6927L58.7882 81.1386L58.4922 80.7553L58.6055 80.6578Z" fill="#5B4930"/>
<path d="M59.6149 75.2715C59.8567 75.4355 59.8969 75.4459 60.026 75.7174C59.8783 76.1938 59.5842 78.7444 59.8305 79.2221L60.2172 79.4268C60.3146 79.7671 60.3353 79.6177 60.2402 79.8949C58.919 80.0729 59.7176 80.6806 58.607 80.6581L58.4937 80.7556L58.7897 81.1389L58.5052 81.3254C58.0529 81.3356 58.23 81.3648 57.7733 81.0851C57.6363 80.7645 57.3784 80.2897 57.2142 79.965L57.506 79.5402C57.5799 79.3508 57.7163 79.2235 57.8521 79.069C57.6225 78.8662 57.5242 78.9084 57.1699 78.8369C58.3287 78.6434 58.0788 78.9364 58.91 78.9443C59.1098 78.1727 59.2123 76.6387 59.3013 75.781C59.2995 75.5172 59.372 75.5386 59.6149 75.2715Z" fill="#516629"/>
<path d="M57.8508 79.0674C58.7075 79.473 58.7061 79.7496 58.6057 80.6565L58.4924 80.754L58.7884 81.1373L58.5038 81.3238C58.0515 81.334 58.2287 81.3632 57.772 81.0835C57.635 80.7629 57.3771 80.288 57.2129 79.9634L57.5047 79.5386C57.5786 79.3492 57.715 79.2219 57.8508 79.0674Z" fill="#C89059"/>
<path d="M57.5047 79.54C57.7611 79.971 57.951 80.3189 58.1759 80.7673C58.4001 80.8009 58.3049 80.8256 58.4924 80.7555L58.7884 81.1388L58.5038 81.3252C58.0515 81.3355 58.2287 81.3647 57.772 81.085C57.635 80.7644 57.3771 80.2895 57.2129 79.9649L57.5047 79.54Z" fill="#516629"/>
<path d="M34.2831 71.232L34.4343 71.1631C34.6966 71.3659 34.9874 71.5802 35.2334 71.7987L35.3924 71.7489L35.5456 71.948C36.7136 74.1384 37.1449 75.7147 37.5554 78.1557L37.5424 78.3094C37.3041 78.2367 36.8988 78.3065 36.5521 78.2521C36.625 75.93 35.744 73.8657 34.6211 71.9065C34.5993 71.76 34.5628 71.6676 34.5186 71.5238L33.9902 71.4373L34.2831 71.232Z" fill="#576D2B"/>
<path d="M37.556 78.154C38.5756 77.0612 39.3136 77.0686 40.0563 78.473L39.2861 78.5338L39.3944 78.9992C39.2803 79.0852 39.2778 79.1062 39.1483 79.1528C38.696 78.8332 38.4028 78.7362 37.8909 78.5318L37.9168 78.4744L37.543 78.3078L37.556 78.154Z" fill="#4C4B29"/>
<path d="M37.9164 78.4758C38.2126 78.0723 38.0646 78.1742 38.4723 78C38.8093 78.0436 39.1562 78.1806 39.2857 78.5352L39.394 79.0006C39.2799 79.0866 39.2775 79.1076 39.148 79.1542C38.6956 78.8346 38.4025 78.7376 37.8906 78.5332L37.9164 78.4758Z" fill="#5B4930"/>
<defs>
<linearGradient id="paint0_linear_138_940" x1="43.3652" y1="76.6318" x2="75.1637" y2="31.3161" gradientUnits="userSpaceOnUse">
<stop stop-color="#6F9828"/>
<stop offset="1" stop-color="#B8D93B"/>
</linearGradient>
<linearGradient id="paint1_linear_138_940" x1="56.7659" y1="19.5683" x2="56.1193" y2="4.87136" gradientUnits="userSpaceOnUse">
<stop stop-color="#92BD33"/>
<stop offset="1" stop-color="#C6DF40"/>
</linearGradient>
<linearGradient id="paint2_linear_138_940" x1="37.2857" y1="53.7742" x2="31.1735" y2="30.4619" gradientUnits="userSpaceOnUse">
<stop stop-color="#7FA92F"/>
<stop offset="1" stop-color="#BBDC3A"/>
</linearGradient>
<linearGradient id="paint3_linear_138_940" x1="31.5415" y1="44.9644" x2="32.5368" y2="32.0526" gradientUnits="userSpaceOnUse">
<stop stop-color="#93B72A"/>
<stop offset="1" stop-color="#C2DD41"/>
</linearGradient>
<linearGradient id="paint4_linear_138_940" x1="64.7987" y1="45.5226" x2="65.5758" y2="31.6175" gradientUnits="userSpaceOnUse">
<stop stop-color="#96BA2F"/>
<stop offset="1" stop-color="#C3DE40"/>
</linearGradient>
<linearGradient id="paint5_linear_138_940" x1="46.6321" y1="39.8524" x2="34.6329" y2="12.2359" gradientUnits="userSpaceOnUse">
<stop stop-color="#6A9328"/>
<stop offset="1" stop-color="#BFDF3D"/>
</linearGradient>
<linearGradient id="paint6_linear_138_940" x1="40.0356" y1="19.7521" x2="43.2585" y2="15.2255" gradientUnits="userSpaceOnUse">
<stop stop-color="#556D1F"/>
<stop offset="1" stop-color="#C6E93E"/>
</linearGradient>
<linearGradient id="paint7_linear_138_940" x1="28.2703" y1="77.4012" x2="28.2754" y2="84.8568" gradientUnits="userSpaceOnUse">
<stop stop-color="#4C5626"/>
<stop offset="1" stop-color="#764C42"/>
</linearGradient>
<linearGradient id="paint8_linear_138_940" x1="32.5849" y1="86.8704" x2="32.7701" y2="87.4833" gradientUnits="userSpaceOnUse">
<stop stop-color="#B07B43"/>
<stop offset="1" stop-color="#D8A66E"/>
</linearGradient>
<linearGradient id="paint9_linear_138_940" x1="33.0253" y1="78.3639" x2="33.2101" y2="78.8316" gradientUnits="userSpaceOnUse">
<stop stop-color="#61442C"/>
<stop offset="1" stop-color="#5C5532"/>
</linearGradient>
<linearGradient id="paint10_linear_138_940" x1="45.4459" y1="77.6976" x2="43.0589" y2="73.6911" gradientUnits="userSpaceOnUse">
<stop stop-color="#85AF30"/>
<stop offset="1" stop-color="#ADCA38"/>
</linearGradient>
<linearGradient id="paint11_linear_138_940" x1="62.5234" y1="71.938" x2="59.1657" y2="73.8617" gradientUnits="userSpaceOnUse">
<stop stop-color="#425020"/>
<stop offset="1" stop-color="#5E6F38"/>
</linearGradient>
</defs>
</svg>
