<svg width="96" height="96" viewBox="0 0 96 96" fill="none" xmlns="http://www.w3.org/2000/svg">
<rect width="96" height="96" fill="white"/>
<path d="M43.19 16.8152C43.2564 14.1891 44.1295 11.3498 45.9616 9.76345C48.0002 7.99816 48.9407 7.96399 51.1196 8.75079C51.6365 8.93746 53.5728 7.83473 54.6292 9.44478C56.3954 11.4956 56.8972 14.4602 56.8027 17.0974C58.8288 14.9108 63.3005 11.3691 66.5455 13.8823C67.3856 14.533 67.5561 15.7162 67.6803 16.7297C70.3816 16.9373 71.0379 19.0729 70.7993 21.5086C70.359 26.004 67.4969 28.4369 63.88 30.5679C66.8309 30.4174 69.8534 30.7445 72.2015 32.7369C74.5405 34.722 72.8008 36.9086 70.7571 38.1248C71.436 40.8352 69.6262 42.1729 67.1421 42.6603C62.572 43.5572 57.0063 43.5341 53.4187 40.0985C52.9088 42.3349 52.5962 43.3777 50.9078 45.005C50.8416 45.0688 49.7318 46.1983 49.7197 46.2173C49.5932 46.2635 49.3892 46.3266 49.2837 46.3948C48.7903 46.717 48.0722 47.1428 47.5226 47.3548C47.252 47.5723 47.2355 47.5775 47.1455 47.8996C47.0497 47.5785 47.1836 47.5829 46.6964 47.69C44.8091 48.1047 43.9789 48.2633 42.262 47.3161L41.645 46.2316C40.4737 46.626 39.1435 47.11 37.9458 46.5724C35.3653 45.4142 35.5736 41.8979 36.4762 39.7339L36.0582 39.7417C32.6108 40.2197 28.376 39.4776 25.5063 37.4449C23.7991 36.2356 23.8346 34.6179 25.0032 33.0575C21.4007 27.6774 28.5434 26.8868 32.1817 26.9497C29.045 23.8304 25.623 16.6546 32.1398 15.2876C32.7345 12.1342 36.0292 11.1727 38.6328 12.6129C40.5141 13.6537 41.9949 15.0408 43.19 16.8152Z" fill="#D37F7E"/>
<path d="M52.4787 33.1284C54.0391 32.8502 56.385 32.1865 58.0013 31.7907C59.5226 31.4179 61.9625 30.8755 63.3528 30.4072L63.4626 30.7414C63.5777 30.7895 63.7438 30.8661 63.8578 30.9007C66.2366 30.6911 69.9502 31.2868 71.7682 32.8554C74.2482 34.9951 72.2597 36.7246 70.3144 37.9198C72.2068 43.2857 62.8329 42.9796 59.6848 42.628C58.052 42.4456 53.9078 40.9228 53.3515 39.2131C53.3297 39.1457 53.3087 39.0778 53.2888 39.0098C53.0358 39.2826 53.0379 39.7574 53.0103 40.1236C52.7054 44.1587 47.6564 48.3131 43.6256 47.5742C42.8206 47.4265 42.1469 46.5076 41.6906 45.9032C40.4921 46.2703 39.0247 46.8972 37.8678 46.1965C35.7146 44.8925 36.0674 41.7728 36.8098 39.8213L37.1391 39.0856C38.0066 37.6897 38.713 36.9553 39.9869 35.9188C41.7888 34.4522 45.6412 33.317 47.9775 33.6627L48.8196 33.6905C49.4134 33.7168 49.6461 33.6969 50.2391 33.6258C50.7608 33.6553 51.0626 33.5584 51.5687 33.4384C51.9873 33.3434 52.0992 33.3223 52.4787 33.1284Z" fill="#FEBBBA"/>
<path d="M52.4778 33.1284C54.0382 32.8502 56.3841 32.1865 58.0003 31.7907C59.5217 31.4179 61.9615 30.8755 63.3519 30.4072L63.4616 30.7414C63.5767 30.7895 63.7428 30.8661 63.8568 30.9007C62.7646 31.1126 61.3366 31.4329 60.2405 31.6968L60.1452 31.902C60.9031 31.8781 63.0662 31.7601 63.7203 32.0121C63.5497 32.4749 62.4381 32.4142 61.9735 32.5004C60.3485 32.802 58.1808 33.0415 56.9705 34.2601C56.0871 34.1779 51.6686 34.2009 51.3477 33.8694L51.5678 33.4384C51.9864 33.3434 52.0982 33.3223 52.4778 33.1284Z" fill="url(#paint0_linear_138_943)"/>
<path d="M51.5678 33.4385L51.3477 33.8695C51.6686 34.201 56.0871 34.178 56.9705 34.2602C59.1816 34.6656 64.4699 35.1304 66.3234 36.3806L66.343 36.4821C61.6195 34.4086 54.4782 35.3704 49.4765 34.1221C49.1501 34.0407 48.7944 34.0883 48.4996 33.9227C48.3298 33.8275 48.1515 33.7479 47.9766 33.6628L48.8187 33.6906C49.4125 33.7169 49.6452 33.697 50.2382 33.6259C50.7598 33.6554 51.0617 33.5585 51.5678 33.4385Z" fill="#E2878A"/>
<path d="M52.7685 24.5561C54.6908 20.2799 57.3905 15.4563 62.0127 13.7443C65.0961 12.6022 67.1056 13.6957 67.3438 16.9609L68.8188 17.1225C71.8875 19.7539 70.3202 24.2444 68.101 26.8918C66.8047 28.438 65.1005 29.4616 63.3513 30.4077C61.9609 30.876 59.5211 31.4184 57.9997 31.7912C56.3835 32.187 54.0376 32.8508 52.4772 33.1289C52.0977 33.3228 51.9858 33.344 51.5672 33.4389C51.061 33.5589 50.7592 33.6558 50.2376 33.6263C49.6446 33.6974 49.4118 33.7173 48.8181 33.691C48.1188 33.4684 47.2941 33.4946 46.836 32.9427C46.4633 32.321 45.0386 30.3304 44.4242 30.0707C43.753 29.787 42.538 30.1296 42.0195 29.2201C41.9363 28.6862 42.0827 28.4805 42.3294 28.0319C42.8278 27.1257 43.753 27.5411 44.4338 27.9767L44.5962 27.8654L44.5701 27.7542L44.4047 27.5505C43.7504 25.7028 46.0309 25.1661 46.6463 27.0063L46.7649 26.9672C46.8987 27.5204 47.0629 28.3045 47.2586 28.8177C47.5179 27.945 46.9738 26.4695 46.7519 25.4937L46.8911 25.0783L46.9384 24.768C47.27 23.6458 48.1006 23.7426 49.0369 24.0017C49.3863 24.6187 49.3806 24.6453 49.524 25.3349C49.2345 25.9599 49.1812 25.9379 48.6812 26.398C48.6834 26.9751 48.6529 27.921 48.7733 28.4549C49.2719 28.9924 48.8803 29.1633 49.3824 29.7892C49.4308 30.2788 49.4612 31.1393 49.671 31.5407C50.1266 30.6789 51.0328 28.0583 51.3501 27.0783C50.877 25.7144 51.0041 25.1846 52.3216 24.587L52.7685 24.5561Z" fill="#FEBBBA"/>
<path d="M46.9384 24.7677C47.27 23.6456 48.1006 23.7423 49.0369 24.0015C49.3863 24.6184 49.3806 24.645 49.524 25.3346C49.2345 25.9596 49.1812 25.9376 48.6812 26.3977C48.6834 26.9749 48.6529 27.9207 48.7733 28.4546C49.2719 28.9922 48.8803 29.163 49.3824 29.789C49.4308 30.2785 49.4612 31.139 49.671 31.5404C50.1266 30.6786 51.0328 28.058 51.3501 27.078C50.877 25.7142 51.0041 25.1844 52.3216 24.5867L52.7685 24.5559C55.4115 26.5447 52.1172 27.2222 52.0085 27.4646C51.3586 28.9147 49.8678 32.0361 49.7238 33.5488C50.5666 32.4 51.5125 31.2967 52.3135 30.1263C52.6378 29.6524 52.3592 29.0693 52.6708 28.605C54.0748 26.655 56.0821 29.2823 54.1241 30.5939C53.6532 30.5045 53.2389 30.3587 52.8687 30.6344C51.7583 31.4613 51.2642 32.6345 50.2376 33.6261C49.6446 33.6972 49.4118 33.7171 48.8181 33.6908C48.1188 33.4681 47.2941 33.4944 46.836 32.9424C46.4633 32.3207 45.0386 30.3302 44.4242 30.0704C43.753 29.7867 42.538 30.1294 42.0195 29.2198C41.9363 28.6859 42.0827 28.4803 42.3294 28.0316C42.8278 27.1254 43.753 27.5408 44.4338 27.9765L44.5962 27.8651L44.5701 27.7539L44.4047 27.5503C43.7504 25.7025 46.0309 25.1659 46.6463 27.006L46.7649 26.967C46.8987 27.5202 47.0629 28.3042 47.2586 28.8175C47.5179 27.9447 46.9738 26.4692 46.7519 25.4935L46.8911 25.0781L46.9384 24.7677Z" fill="#FDD93D"/>
<path d="M46.7539 25.4935L46.8931 25.0781C47.1347 25.7515 47.2119 25.9623 47.9363 26.1971C48.194 26.4918 48.2268 26.8387 48.228 27.2196C48.2341 29.236 48.4603 31.3233 48.4508 33.3305C48.2684 32.8348 47.4884 30.8219 47.5385 30.3835C47.5679 29.8354 47.4019 29.3496 47.2607 28.8175C47.52 27.9448 46.9759 26.4693 46.7539 25.4935Z" fill="#E2878A"/>
<path d="M44.598 27.8652C44.9967 28.1046 45.1664 28.1549 45.6062 28.26C46.5689 29.2209 47.3278 31.7321 47.8308 33.0888C46.881 32.0588 45.3707 30.208 44.622 28.9762C44.5196 28.8079 44.513 28.2486 44.4355 27.9766L44.598 27.8652Z" fill="#FEBBBA"/>
<path d="M47.4059 24.3069C47.9937 23.9003 48.1223 23.9643 48.7876 24.1089C49.6828 25.1995 49.2911 26.0039 47.9357 26.1974C47.2114 25.9626 47.1341 25.7517 46.8926 25.0784L46.9399 24.7681C47.1056 24.6501 47.2624 24.4602 47.4059 24.3069Z" fill="#FDE892"/>
<path d="M44.405 27.5504C44.381 26.3438 44.9432 25.3945 46.1673 26.5706C46.6264 27.0117 45.92 28.5629 44.6622 27.6194L44.5704 27.7541L44.405 27.5504Z" fill="#FDE892"/>
<path d="M48.7734 28.4551C49.272 28.9926 48.8805 29.1635 49.3825 29.7894C49.431 30.279 49.4613 31.1395 49.6711 31.5409C49.623 31.8421 49.1454 33.2474 49.0265 33.6194C48.8539 32.3538 48.8248 29.8128 48.7734 28.4551Z" fill="url(#paint1_linear_138_943)"/>
<path d="M46.6485 27.0068L46.767 26.9678C46.9008 27.521 47.0651 28.305 47.2608 28.8183C47.4019 29.3503 47.568 29.8361 47.5386 30.3843C47.0892 29.1817 46.1739 28.2866 46.6485 27.0068Z" fill="#FEBBBA"/>
<path d="M52.1437 24.9598C52.5175 24.8761 52.9069 25.0041 53.1583 25.2933C53.4095 25.5825 53.4824 25.9863 53.3477 26.345C53.2132 26.7038 52.8931 26.96 52.5137 27.0123C51.9597 27.0887 51.4441 26.7143 51.3448 26.1637C51.2457 25.6129 51.598 25.0819 52.1437 24.9598Z" fill="#FDE892"/>
<path d="M53.5642 28.2577C54.1165 28.1856 54.625 28.5687 54.7083 29.1199C54.7915 29.6709 54.4191 30.1874 53.8701 30.2819C53.5052 30.3447 53.1346 30.2052 52.9016 29.917C52.6687 29.6289 52.6095 29.2371 52.7469 28.893C52.8842 28.5488 53.197 28.3059 53.5642 28.2577Z" fill="#FDE892"/>
<path d="M42.9735 27.7197C43.8841 27.758 44.4778 28.3074 44.2883 29.2458C44.1389 29.4504 44.114 29.5236 43.8718 29.6C43.3072 29.7853 43.0774 29.852 42.6037 29.4363C42.1823 28.7137 42.453 28.2418 42.9735 27.7197Z" fill="#FDE892"/>
<path d="M50.2383 33.6261C51.2649 32.6346 51.759 31.4613 52.8694 30.6344C53.2396 30.3588 53.6539 30.5046 54.1248 30.5939C53.268 31.4863 51.6739 32.3473 50.9699 33.3197L50.9986 33.1877L51.1292 33.4089L51.0787 33.0667L51.2729 33.3831C51.7041 33.2263 52.3366 33.1798 52.4779 33.1287C52.0984 33.3226 51.9865 33.3437 51.5679 33.4387C51.0617 33.5587 50.7599 33.6556 50.2383 33.6261Z" fill="#FCA09E"/>
<path d="M32.3861 15.4933C32.4049 15.0296 32.4672 14.3698 32.7464 14.0254C34.7127 11.6383 36.9552 11.7858 39.4043 13.4545C43.3731 16.1587 45.8909 22.3991 46.7653 26.9673L46.6468 27.0064C46.0313 25.1662 43.7509 25.7028 44.4052 27.5506L44.5705 27.7543L44.5966 27.8655L44.4342 27.9768C43.7534 27.5412 42.8283 27.1258 42.3298 28.032C42.0831 28.4806 41.9368 28.6863 42.02 29.2202C42.5384 30.1297 43.7534 29.7871 44.4246 30.0708C45.039 30.3305 46.4637 32.3211 46.8364 32.9428C46.3352 32.93 42.8529 30.5499 42.096 30.1208C41.1194 29.5665 40.1147 29.0633 39.0858 28.6134C36.9042 27.6711 35.0783 27.2354 32.7376 27.0167C30.3772 24.7104 26.5596 18.8601 30.3624 16.1338C30.9602 15.7052 31.6719 15.6189 32.3861 15.4933Z" fill="#FEBBBA"/>
<path d="M25.3389 33.104C24.7035 32.0729 23.9438 30.5041 24.6516 29.3765C25.7457 27.6331 28.6503 27.341 30.4321 27.2454C34.5105 27.0267 38.2035 28.1645 41.6846 30.2263C43.395 31.2391 44.9645 32.4415 46.7276 33.3542C44.6139 33.4947 41.043 32.8229 38.8954 32.5387C36.3 32.1772 33.6729 32.0973 31.0603 32.3004C30.4961 32.3397 29.3935 32.3592 28.9263 32.5755L28.9228 32.6523C29.1518 32.7151 29.3387 32.7836 29.5462 32.6589C29.6643 32.5876 29.9206 32.4834 30.0431 32.4574C32.1115 32.0167 42.1554 33.0235 43.4935 33.8024L43.3962 33.9618C42.7455 33.941 42.1676 34.345 41.602 34.6201C39.4358 35.6736 38.0201 37.1348 36.7669 39.1483C36.4477 39.2186 35.8907 39.3059 35.6036 39.3831C35.4894 39.403 35.3745 39.4195 35.2593 39.4329C32.1631 39.8108 28.0464 38.8595 25.5253 36.9979C23.9786 35.856 24.1436 34.4252 25.3389 33.104Z" fill="#FEBBBA"/>
<path d="M46.7529 25.4941C46.1365 24.0326 45.7424 22.056 45.1296 20.5058C44.9503 19.7696 43.766 18.1717 43.6787 17.5428C43.2055 14.1301 45.116 9.71495 48.5838 8.62133C49.5484 8.3171 50.3172 8.6988 51.1232 9.18622C51.6459 8.91889 52.0369 8.81788 52.5969 8.65004C56.0529 9.81308 56.4563 14.3914 56.3708 17.4643C54.8879 19.2818 52.9581 22.3297 52.3226 24.5873C51.0051 25.185 50.8781 25.7148 51.3511 27.0786C51.0338 28.0586 50.1276 30.6792 49.672 31.541C49.4622 31.1396 49.4318 30.2791 49.3834 29.7896C48.8813 29.1636 49.2729 28.9927 48.7743 28.4552C48.6539 27.9213 48.6844 26.9755 48.6822 26.3983C49.1823 25.9382 49.2355 25.9602 49.5251 25.3352C49.3816 24.6456 49.3874 24.619 49.0379 24.002C48.1016 23.7429 47.271 23.6462 46.9395 24.7683L46.8921 25.0786L46.7529 25.4941Z" fill="#FCA09E"/>
<path d="M49.0371 24.0022C49.072 20.3306 49.4787 16.6718 50.2507 13.0823L50.3314 13.0088C49.6723 15.6895 49.6465 19.0901 49.5967 21.8495C49.5881 22.3241 49.6555 25.0558 49.5243 25.3354C49.3808 24.6458 49.3866 24.6192 49.0371 24.0022Z" fill="#D37F7E"/>
<path d="M48.6835 26.398C49.1836 25.938 49.2369 25.96 49.5264 25.335C49.4746 26.7845 49.3893 28.3473 49.3847 29.7893C48.8827 29.1634 49.2742 28.9925 48.7757 28.455C48.6553 27.9211 48.6858 26.9752 48.6835 26.398Z" fill="#E2878A"/>
<path d="M36.7669 39.1487L37.1384 39.0859L36.8091 39.8217L36.4762 39.7338L36.0582 39.7415L35.704 39.6194L35.6035 39.3835C35.8906 39.3063 36.4476 39.219 36.7669 39.1487Z" fill="#E2878A"/>
<path d="M18.9042 44.4861C22.2239 44.0027 25.3806 44.1334 28.6041 45.0983C35.5837 47.1922 41.258 52.3066 44.0666 59.0349C44.8113 60.8055 45.5175 63.8862 46.3463 65.3361C46.5543 59.4031 46.6771 53.8708 47.1446 47.8996C47.2346 47.5774 47.2511 47.5723 47.5217 47.3548C48.0713 47.1427 48.7894 46.717 49.2828 46.3948C49.3883 46.3266 49.5923 46.2634 49.7188 46.2172C49.4533 49.1512 49.2435 52.09 49.0895 55.0321C49.04 56.0352 49.0464 58.417 48.9163 59.2623C48.9339 60.5256 48.8161 64.9786 48.9661 65.8918L49.4234 66.0734C49.2809 66.9043 48.9766 68.8509 48.7699 69.5712L49.1675 69.6938C49.7552 68.704 49.9942 68.2971 50.8992 67.6024C51.5045 67.502 52.2425 67.2334 52.6698 67.711C52.1582 67.8048 51.7223 67.877 51.2061 67.9388C50.0444 68.876 49.0485 70.3635 49.0016 71.8357C48.9101 74.7111 49.0763 79.0864 49.4848 81.896C51.3955 79.1594 54.3119 77.2918 57.5955 76.7025C59.3483 76.3847 61.51 76.4391 63.2676 76.8504C63.5217 76.9098 64.0196 77.1225 64.2529 77.0587C64.133 76.8463 63.8012 76.7162 63.5533 76.5938C61.4525 75.556 60.8072 74.2586 60.7157 71.9626C63.0988 72.011 65.2113 72.2159 65.5172 75.0524L65.6053 75.1462L65.7298 75.0994C66.0753 74.9714 66.206 74.8895 66.5634 74.9658C67.0923 75.4811 66.6767 75.5711 67.1169 75.8307C67.6191 75.6294 68.1347 75.4796 68.5706 75.3136C69.5029 74.9585 72.9894 75.2838 72.1911 76.918C71.6103 78.1069 68.7343 78.2346 67.6753 78.0946C71.0185 79.5284 73.9797 82.0538 73.8689 86.01C75.8364 86.2651 76.3303 85.8455 78.0575 87.2982C79.218 87.3471 83.2843 87.9621 83.5788 89.2507C83.5014 89.5592 83.3648 89.7603 83.0733 89.9218C81.7768 90.8097 79.6635 91.0099 78.3334 91.5677C74.6917 93.1294 71.035 93.351 67.1547 93.6847C65.0173 93.8685 64.0958 94.4277 61.9415 93.8234C61.7368 93.766 58.3915 94.8978 57.4279 94.9284C54.6532 95.0167 51.8377 95.0651 49.0604 94.8145C47.9615 94.7214 46.7049 94.3716 45.6278 94.2785C44.3185 94.1653 43.4009 94.1696 42.0978 93.9434C42.0235 93.9887 41.559 94.2581 41.4781 94.265C40.157 94.3241 35.4028 94.4711 34.3322 93.878C31.9258 92.3165 29.9286 93.1885 27.2515 93.0474C24.2201 92.8878 21.6658 92.0155 18.8256 91.1925C16.8693 90.6256 14.4962 90.7696 12.533 89.5068C12.1605 89.2673 12.148 89.3736 12 88.9463C12.4236 87.6001 16.5513 86.6945 17.8609 86.4708L19.2702 86.1576C20.4687 84.5517 23.8278 82.908 25.8087 83.3841C27.1074 80.9691 28.8129 80.8403 31.3073 80.6433C32.024 80.5867 32.5598 79.9194 33.2479 80.6253C33.2779 81.0492 33.0478 81.4819 32.8821 81.894C33.2123 82.1825 33.2829 82.2712 33.7043 82.3664C34.4705 82.2942 34.6732 81.9259 35.42 81.8371C35.831 81.9271 35.9389 81.9564 36.3561 81.9393C36.8412 81.8843 37.2489 81.8398 37.7384 81.821L38.2985 81.8656C39.1139 81.923 39.4171 81.8922 40.1409 82.2541C40.3468 81.9329 40.7719 81.6505 41.086 81.4067C40.3334 80.7697 39.401 80.0384 39.2781 79.01C39.5467 78.1345 40.2771 78.1405 41.0997 78.1377C43.2362 78.1309 44.7903 78.7735 46.2766 80.3092C46.1254 76.2004 46.7401 71.5084 45.6944 67.541C44.7648 64.0144 40.8411 64.1154 37.9713 63.3916C36.4724 63.0042 35.0096 62.4883 33.5989 61.8499C25.6159 58.1988 21.8883 52.4608 18.9042 44.4861Z" fill="#557322"/>
<path d="M25.8087 83.3843C27.1074 80.9693 28.8129 80.8405 31.3073 80.6435C32.024 80.5869 32.5598 79.9196 33.2479 80.6254C33.2779 81.0494 33.0478 81.4821 32.8821 81.8942C33.2123 82.1826 33.2829 82.2713 33.7043 82.3666C34.4705 82.2944 34.6732 81.9261 35.42 81.8372C35.831 81.9273 35.9389 81.9566 36.3561 81.9395C36.8412 81.8845 37.2489 81.84 37.7384 81.8211L38.2985 81.8658C39.1139 81.9232 39.4171 81.8924 40.1409 82.2543L40.135 82.354L39.6118 82.667L39.5538 83.2284C41.0342 83.3352 41.4008 83.4569 42.7566 84.052C43.2466 84.3884 43.5281 84.5515 43.7473 85.1381L43.8061 85.5388C44.1114 85.4887 44.2562 85.4512 44.5621 85.4726C45.2535 85.8777 45.4664 85.991 46.0363 86.5293L46.111 86.5989C46.1256 86.6133 46.1401 86.6276 46.1547 86.6419L46.1983 86.8378L45.9275 87.1934L45.9897 87.5371C46.4905 87.5932 46.7377 87.5095 47.2284 87.4004L48.3817 87.191C49.1024 87.3415 49.3487 87.4247 50.035 87.7025L50.2242 87.2159C50.1547 86.8361 50.1437 86.7341 50.1553 86.3487C50.4014 85.9746 50.8983 85.8668 51.3707 85.6757L51.9771 85.5492C53.9832 85.0543 55.3093 85.1104 57.0986 86.1136L57.4149 86.4452L57.5842 86.8161L57.8995 86.8968C58.7491 86.8934 60.0179 86.8442 60.7749 87.1747L60.9389 87.3542C60.8835 87.6299 60.8147 87.6892 60.6495 87.9109L60.6677 88.2413C61.4233 88.0015 61.445 87.7959 61.7854 87.1114L62.8331 86.5896C64.4817 86.0035 65.1081 85.8013 66.8592 85.8903L67.74 85.745C68.2843 85.6119 68.4886 85.4846 68.9802 85.2221L69.7618 85.3739C70.1533 85.3133 70.6377 85.6319 71.676 85.5867L71.5899 85.5595C72.218 85.5315 73.0264 85.6391 73.3518 85.085C73.3607 85.4781 73.3765 85.8879 73.3747 86.2796L73.859 86.11L73.8689 86.0102C75.8364 86.2653 76.3303 85.8457 78.0575 87.2984C79.218 87.3473 83.2843 87.9623 83.5788 89.2509C83.5014 89.5594 83.3648 89.7605 83.0733 89.922C81.7768 90.8099 79.6635 91.0101 78.3334 91.5679C74.6917 93.1296 71.035 93.3512 67.1547 93.6849C65.0173 93.8687 64.0958 94.4278 61.9415 93.8236C61.7368 93.7662 58.3915 94.8979 57.4279 94.9286C54.6532 95.0169 51.8377 95.0653 49.0604 94.8147C47.9615 94.7216 46.7049 94.3718 45.6278 94.2787C44.3185 94.1655 43.4009 94.1698 42.0978 93.9436C42.0235 93.9889 41.559 94.2583 41.4781 94.2652C40.157 94.3243 35.4028 94.4713 34.3322 93.8781C31.9258 92.3167 29.9286 93.1887 27.2515 93.0476C24.2201 92.888 21.6658 92.0156 18.8256 91.1927C16.8693 90.6258 14.4962 90.7698 12.533 89.507C12.1605 89.2675 12.148 89.3738 12 88.9465C12.4236 87.6003 16.5513 86.6947 17.8609 86.471L19.2702 86.1578C20.4687 84.5518 23.8278 82.9082 25.8087 83.3843Z" fill="#F4E0C1"/>
<path d="M32.9684 82.7711C32.8607 82.4035 32.8811 82.285 32.8844 81.8944C33.2146 82.1828 33.2852 82.2715 33.7066 82.3667C34.4729 82.2946 34.6755 81.9262 35.4223 81.8374C35.8333 81.9275 35.9412 81.9568 36.3584 81.9396C36.8435 81.8846 37.2513 81.8401 37.7407 81.8213L38.3008 81.8659C39.1162 81.9234 39.4194 81.8925 40.1433 82.2545L40.1373 82.3541L39.6142 82.6672L39.5562 83.2286C41.0366 83.3353 41.4032 83.457 42.7589 84.0521C43.249 84.3886 43.5305 84.5517 43.7497 85.1383L43.8084 85.539C44.1137 85.4889 44.2586 85.4513 44.5645 85.4728C45.2559 85.8779 45.4687 85.9912 46.0386 86.5295L46.1133 86.599C46.1279 86.6135 46.1425 86.6277 46.1571 86.642L46.2006 86.838L45.9298 87.1935L45.992 87.5373C46.4929 87.5933 46.74 87.5096 47.2307 87.4006L48.3841 87.1911C49.1047 87.3416 49.351 87.4249 50.0374 87.7027L50.2265 87.216C50.157 86.8363 50.1461 86.7342 50.1576 86.3489C50.4037 85.9748 50.9006 85.8669 51.3731 85.6758L51.9794 85.5493C53.9855 85.0545 55.3117 85.1105 57.101 86.1137L57.4172 86.4453L57.5865 86.8162L57.9018 86.8969C58.7514 86.8936 60.0203 86.8443 60.7772 87.1749L60.9412 87.3544C60.8858 87.6301 60.817 87.6893 60.6518 87.9111L60.6701 88.2414C61.3721 88.6417 62.4075 89.2933 63.0082 89.6235C63.2707 89.8234 63.52 90.0499 63.8271 90.1507C63.3949 90.3681 63.2935 90.3248 63.1051 90.6963L63.2408 91.0888C62.8834 91.2556 62.8054 91.267 62.5505 91.5518C62.0143 91.9724 61.8882 92.0472 61.2369 92.2638C60.3799 92.4924 58.5558 92.3217 57.6258 92.2391C55.6848 92.2377 52.324 93.4261 50.0545 93.133C49.2482 93.0289 48.6573 92.5767 48.1314 92.5292C46.3086 92.3644 46.2337 92.7844 44.5923 91.9042C44.4424 91.8752 44.4063 91.7974 44.2727 91.674C43.9484 90.2203 42.6021 90.6213 41.422 90.7559C41.2949 90.7285 38.9468 91.2422 38.6427 91.3265C38.6858 91.5401 38.6893 91.5498 38.6809 91.7665C38.5871 91.7854 38.4081 91.8255 38.3164 91.8073C36.3601 91.4181 34.8769 91.606 33.4701 90.1275C32.4815 89.8969 32.255 90.1577 31.7585 89.2142L32.0151 89.1801L32.4702 89.1985C32.8768 89.2722 33.0509 89.3278 33.3919 89.1344C33.6118 88.8165 33.5612 88.6642 33.5398 88.2616L33.4967 88.0457C33.2919 87.7603 32.9967 87.7164 32.6462 87.5988L32.7409 87.2511C32.8437 87.0614 32.8515 86.9861 32.911 86.7807C33.4697 86.5969 33.4578 86.5881 33.6722 86.0726L33.1238 85.4752L32.7135 85.2729C31.9079 85.4568 31.0237 85.6927 30.1997 85.6291C30.353 85.4804 30.3581 85.4225 30.4403 85.2262C30.1116 84.8869 30.0975 84.7176 29.9844 84.2721C31.1582 84.2119 32.3899 83.8768 32.9684 82.7711Z" fill="#E7C68E"/>
<path d="M32.9684 82.7711C32.8607 82.4035 32.8811 82.285 32.8844 81.8944C33.2146 82.1828 33.2852 82.2715 33.7066 82.3667C34.4729 82.2946 34.6755 81.9262 35.4223 81.8374C35.8333 81.9275 35.9412 81.9568 36.3584 81.9396C36.8435 81.8846 37.2513 81.8401 37.7407 81.8213L38.3008 81.8659C39.1162 81.9234 39.4194 81.8925 40.1433 82.2545L40.1373 82.3541L39.6142 82.6672L39.5562 83.2286C41.0366 83.3353 41.4032 83.457 42.7589 84.0521C43.249 84.3886 43.5305 84.5517 43.7497 85.1383L43.8084 85.539C44.1137 85.4889 44.2586 85.4513 44.5645 85.4728C45.2559 85.8779 45.4687 85.9912 46.0386 86.5295L46.1133 86.599C46.1279 86.6135 46.1425 86.6277 46.1571 86.642L46.2006 86.838L45.9298 87.1935L45.992 87.5373L45.7556 87.547L44.9926 87.72C44.5299 87.7312 44.4713 87.6515 44.1638 87.8992L44.157 88.1269L44.2044 88.5981C43.6062 88.5063 42.5488 88.5297 41.9116 88.525C41.2427 88.0306 40.7223 87.9275 40.045 87.4408C39.8486 87.0026 39.7875 86.8775 39.399 86.5649L39.667 86.464C39.0872 86.4051 37.7199 86.4228 37.0832 86.4131C36.8403 86.4724 36.4559 86.5523 36.2353 86.6449C35.3557 86.6765 34.4682 86.4222 33.6722 86.0726L33.1238 85.4752L32.7135 85.2729C31.9079 85.4568 31.0237 85.6927 30.1997 85.6291C30.353 85.4804 30.3581 85.4225 30.4403 85.2262C30.1116 84.8869 30.0975 84.7176 29.9844 84.2721C31.1582 84.2119 32.3899 83.8768 32.9684 82.7711Z" fill="#D5A76D"/>
<path d="M32.9684 82.7711C32.8607 82.4035 32.8811 82.285 32.8844 81.8944C33.2146 82.1828 33.2852 82.2715 33.7066 82.3667C34.4729 82.2946 34.6755 81.9262 35.4223 81.8374C35.8333 81.9275 35.9412 81.9568 36.3584 81.9396C36.8435 81.8846 37.2513 81.8401 37.7407 81.8213L38.3008 81.8659C39.1162 81.9234 39.4194 81.8925 40.1433 82.2545L40.1373 82.3541L39.6142 82.6672L39.5562 83.2286C37.905 83.2977 35.5773 83.4148 34.2337 84.4464L34.0326 84.6688C33.9166 85.5985 36.3563 85.8276 37.1093 85.9515L36.9432 86.3969L37.0832 86.4131C36.8403 86.4724 36.4559 86.5523 36.2353 86.6449C35.3557 86.6765 34.4682 86.4222 33.6722 86.0726L33.1238 85.4752L32.7135 85.2729C31.9079 85.4568 31.0237 85.6927 30.1997 85.6291C30.353 85.4804 30.3581 85.4225 30.4403 85.2262C30.1116 84.8869 30.0975 84.7176 29.9844 84.2721C31.1582 84.2119 32.3899 83.8768 32.9684 82.7711Z" fill="#795E35"/>
<path d="M32.9684 82.7705C33.4009 82.952 34.1364 83.2642 34.3554 83.6586C34.0693 83.8465 34.0497 83.9329 33.7743 83.9263C33.6787 83.4454 33.7722 83.5127 33.4762 83.2689L33.223 83.2491C32.9556 83.711 33.4678 83.8866 33.2437 84.6104C32.5408 85.2801 31.3635 84.8991 30.4403 85.2257C30.1116 84.8864 30.0975 84.717 29.9844 84.2715C31.1582 84.2114 32.3899 83.8763 32.9684 82.7705Z" fill="#BE8E59"/>
<path d="M32.7129 85.2725C32.8167 85.2419 33.0988 85.1892 33.1958 85.2318C34.4873 85.7968 35.5432 86.1635 36.9427 86.3965L37.0827 86.4127C36.8398 86.472 36.4553 86.5518 36.2348 86.6445C35.3551 86.6761 34.4676 86.4218 33.6716 86.0722L33.1233 85.4748L32.7129 85.2725Z" fill="#D5A76D"/>
<path d="M38.3008 81.8652C39.1162 81.9226 39.4194 81.8918 40.1432 82.2538L40.1373 82.3534L39.6142 82.6665C39.2164 82.6868 38.9372 82.7101 38.5356 82.6643C38.2405 82.3681 38.3301 82.3712 38.3008 81.8652Z" fill="#7C6C44"/>
<path d="M35.0163 82.3224C35.5733 82.3014 35.9566 82.3787 36.2811 82.8598L36.1939 83.0396L35.743 83.1924C35.2608 83.3627 34.6124 83.6492 34.4492 82.9304C34.6379 82.506 34.5608 82.6502 35.0163 82.3224Z" fill="#D5A76D"/>
<path d="M39.5548 83.2285C41.0352 83.3353 41.4018 83.457 42.7576 84.0521C43.2476 84.3885 43.5291 84.5516 43.7483 85.1382C43.6912 85.1357 43.3885 85.0581 43.3325 85.0433C41.6733 84.6081 35.354 85.2125 34.0312 84.6688L34.2324 84.4464C35.576 83.4147 37.9037 83.2976 39.5548 83.2285Z" fill="#EED2A0"/>
<path d="M40.1545 83.9912L40.1416 84.261C40.6421 84.6088 42.3736 84.5553 43.0501 84.5556C42.9602 84.4048 42.8312 84.2042 42.7576 84.0514C43.2476 84.3878 43.5291 84.5509 43.7483 85.1375C43.6912 85.135 43.3885 85.0573 43.3325 85.0426C41.6733 84.6074 35.354 85.2118 34.0312 84.668L34.2324 84.4457C34.7779 84.6977 36.8088 84.6352 37.4409 84.5356L37.5041 84.3471C38.2982 84.2617 39.674 84.4723 40.1545 83.9912Z" fill="#E7C68E"/>
<path d="M37.5039 84.3473C37.5308 84.1665 37.5879 84.0578 37.6574 83.8881C38.273 83.4405 39.5029 83.7124 40.1543 83.9914C39.6738 84.4724 38.2981 84.2619 37.5039 84.3473Z" fill="#7C6C44"/>
<path d="M43.806 85.5382C44.1113 85.4881 44.2562 85.4506 44.5621 85.472C45.2535 85.8771 45.4663 85.9904 46.0362 86.5287L46.1109 86.5983C46.1255 86.6127 46.1401 86.627 46.1547 86.6412L46.1982 86.8372L45.9274 87.1928L45.9896 87.5365L45.7532 87.5462C45.3321 87.3943 44.9195 87.2199 44.517 87.0239C44.0951 86.822 43.7992 86.7065 43.6484 86.2857C43.9249 85.9961 43.846 86.0879 44.3438 86.0164C44.1006 85.9898 44.0779 85.9801 43.8446 85.9014L43.806 85.5382Z" fill="#EED2A0"/>
<path d="M43.8086 85.5382C44.1139 85.4881 44.2587 85.4506 44.5646 85.472C45.256 85.8771 45.4689 85.9904 46.0388 86.5287L46.1135 86.5983C46.1281 86.6127 46.1426 86.627 46.1572 86.6412L46.2008 86.8372L45.9299 87.1928C45.4165 86.6008 45.0351 86.3516 44.3463 86.0164C44.1031 85.9898 44.0805 85.9801 43.8472 85.9014L43.8086 85.5382Z" fill="#795E35"/>
<path d="M37.1075 85.9513C39.7705 86.0651 40.2967 85.8087 42.737 85.6689L42.8321 85.798C42.3528 86.2619 40.3817 86.4162 39.6652 86.4638C39.0854 86.4049 37.7181 86.4226 37.0814 86.4129L36.9414 86.3967L37.1075 85.9513Z" fill="#795E35"/>
<path d="M51.9772 85.5492C53.9833 85.0544 55.3095 85.1104 57.0988 86.1137L57.415 86.4453L57.5843 86.8162L57.8996 86.8968C57.6564 88.5452 55.7344 88.845 54.37 88.7491C54.2484 88.7406 54.2903 88.7402 54.1702 88.7991C53.0915 88.9571 51.7894 88.7873 50.8342 88.2149L50.0352 87.7026L50.2243 87.216C50.1548 86.8362 50.1439 86.7341 50.1554 86.3488C50.4015 85.9747 50.8984 85.8669 51.3709 85.6758L51.9772 85.5492Z" fill="#D5A76D"/>
<path d="M51.9785 85.5492C53.9846 85.0544 55.3108 85.1104 57.1001 86.1137L57.4163 86.4453C56.7278 86.9198 52.6327 86.049 51.9785 85.5492Z" fill="#E7C68E"/>
<path d="M50.2243 87.2158C50.7791 87.4835 51.2016 87.8898 51.7137 88.1253C52.4318 88.4556 53.7655 87.9979 54.1702 88.799C53.0915 88.957 51.7894 88.7871 50.8342 88.2148L50.0352 87.7025L50.2243 87.2158Z" fill="#795E35"/>
<path d="M44.5911 91.9034C44.4896 91.4599 44.5013 91.4024 44.6116 90.959L44.6843 91.0781C45.7757 92.8517 46.6603 92.1097 48.283 92.384C49.8391 92.6473 50.9853 92.1319 52.2843 92.1005C53.6052 92.0687 56.3883 92 57.6246 92.2384C55.6836 92.237 52.3228 93.4254 50.0533 93.1322C49.247 93.0282 48.6561 92.576 48.1302 92.5285C46.3073 92.3637 46.2325 92.7837 44.5911 91.9034Z" fill="#EED2A0"/>
<path d="M58.7834 91.7739C58.6097 91.5779 58.3102 91.5936 58.0684 91.3275C58.462 90.7081 59.3927 90.7316 60.0262 90.8205C60.6238 90.7494 61.5775 90.6174 62.1117 90.8917C62.3929 91.1425 62.395 91.194 62.5493 91.5512C62.013 91.9718 61.887 92.0467 61.2357 92.2633C60.0792 92.2543 59.8551 92.1415 58.7834 91.7739Z" fill="#BE8E59"/>
<path d="M62.1115 90.8916C62.3927 91.1424 62.3948 91.1939 62.549 91.5511C62.0128 91.9717 61.8868 92.0466 61.2355 92.2632C60.079 92.2542 59.8549 92.1414 58.7832 91.7738C59.702 91.6667 61.8167 92.2242 62.1051 91.018L62.1115 90.8916Z" fill="#E7C68E"/>
<path d="M60.0257 90.8205C60.6233 90.7494 61.577 90.6174 62.1113 90.8917L62.1049 91.0181C61.4925 91.0946 60.2834 91.5928 59.7461 91.2523L60.0257 90.8205Z" fill="#D5A76D"/>
<path d="M45.9913 87.5371C46.4921 87.5931 46.7393 87.5094 47.2299 87.4004L47.1504 87.488C46.5875 88.1175 46.6877 88.8613 45.8654 88.9413C45.5082 88.976 44.54 88.7328 44.2036 88.5979L44.1562 88.1267L44.1631 87.8991C44.4705 87.6513 44.5291 87.7311 44.9918 87.7198L45.7549 87.5468L45.9913 87.5371Z" fill="#D5A76D"/>
<path d="M44.9918 87.7195C45.4051 87.7397 45.6969 87.6951 45.991 87.9565L45.9208 88.1143C45.2797 88.34 44.8104 88.3026 44.1562 88.1264L44.1631 87.8988C44.4705 87.651 44.5291 87.7308 44.9918 87.7195Z" fill="#795E35"/>
<path d="M48.3835 87.1904C49.1042 87.341 49.3504 87.4242 50.0368 87.702L50.8358 88.2143L50.7784 88.4484C50.1286 88.7794 48.3932 88.115 47.625 87.8726L47.6332 87.7192C48.0414 87.5799 48.1224 87.5349 48.3835 87.1904Z" fill="#EED2A0"/>
<path d="M37.0823 86.4131C37.719 86.4228 39.0863 86.405 39.6661 86.464L39.3981 86.5648C37.4123 86.462 37.8295 87.3484 36.2344 86.6449C36.455 86.5522 36.8394 86.4723 37.0823 86.4131Z" fill="#D5A76D"/>
<path d="M37.0074 89.2324C37.8278 89.0933 39.4261 89.1413 39.9256 89.8989C39.6021 90.96 35.1118 91.3624 34.4492 90.121C34.712 89.6351 35.3202 89.545 35.834 89.5231C36.2238 89.4213 36.6151 89.3244 37.0074 89.2324Z" fill="#D5A76D"/>
<path d="M37.0066 89.2334C37.5743 89.2958 38.1533 89.3285 38.6019 89.7112C37.3119 89.7242 36.9785 89.3953 35.7294 89.8794L35.6602 89.7717L35.8332 89.5241C36.2231 89.4224 36.6143 89.3254 37.0066 89.2334Z" fill="#957044"/>
<path d="M48.4746 91.0993L48.5996 90.8043C49.2287 90.254 50.3509 90.3267 51.0063 90.8008L50.9304 91.0991C50.2732 91.4741 49.0612 91.6865 48.4746 91.0993Z" fill="#D5A76D"/>
<path d="M48.4746 91.0993L48.5996 90.8043C49.2287 90.254 50.3509 90.3267 51.0063 90.8008C49.9803 90.9448 49.6562 90.8575 48.4746 91.0993Z" fill="#957044"/>
<path d="M52.8652 89.9024C53.4816 89.8696 54.6375 89.6096 54.8609 90.2367C54.3614 90.2481 53.2774 90.3329 52.8704 90.142L52.8652 89.9024Z" fill="#957044"/>
<path d="M41.8203 89.7703C42.4098 89.7311 42.8461 89.5566 43.0862 90.1464C42.6049 90.2101 42.3134 90.3058 41.9049 90.1154L41.8203 89.7703Z" fill="#BE8E59"/>
<path d="M73.352 85.085C73.361 85.4781 73.3768 85.8879 73.3749 86.2796L73.8592 86.1099L73.8691 86.0101C75.8367 86.2653 76.3305 85.8456 78.0578 87.2983L78.3893 87.6928C78.3576 87.852 78.3637 87.8907 78.2964 88.0358C77.8556 88.7484 76.5487 90.096 75.649 89.5611L75.5756 89.4073C75.822 89.358 76.1103 89.3274 76.3044 89.1832L76.2481 89.082C75.5646 88.9313 73.1308 89.6768 72.1052 89.8106L71.4475 90.1364C70.7555 90.1823 70.4549 90.179 69.765 90.1205C69.4414 90.1428 67.5354 89.9043 67.0677 89.8598C66.4247 90.4326 65.6619 90.4218 64.9817 89.8929C64.4617 89.8334 64.3026 89.9147 63.825 90.1506C63.5179 90.0497 63.2686 89.8232 63.0061 89.6233C62.4054 89.2931 61.37 88.6415 60.668 88.2413C61.4236 88.0014 61.4453 87.7959 61.7857 87.1113L62.8333 86.5896C64.4819 86.0035 65.1083 85.8013 66.8594 85.8903L67.7402 85.7449C68.2845 85.6119 68.4889 85.4846 68.9804 85.2221L69.762 85.3739C70.1535 85.3133 70.638 85.6319 71.6763 85.5867L71.5902 85.5595C72.2183 85.5315 73.0267 85.6391 73.352 85.085Z" fill="#E7C68E"/>
<path d="M62.8333 86.5895C64.4819 86.0034 65.1083 85.8012 66.8594 85.8902C65.2137 86.3094 64.2844 86.4877 62.6563 87.1293C64.0497 87.4254 65.8747 87.7044 66.8955 88.9652C66.9942 89.0871 67.0483 89.6781 67.0677 89.8597C66.4247 90.4325 65.6619 90.4217 64.9817 89.8929C64.4617 89.8333 64.3026 89.9146 63.825 90.1505C63.5179 90.0496 63.2686 89.8231 63.0061 89.6232C62.4054 89.293 61.37 88.6414 60.668 88.2412C61.4236 88.0013 61.4453 87.7958 61.7856 87.1113L62.8333 86.5895Z" fill="#D5A76D"/>
<path d="M62.8457 89.291C63.6393 88.4746 63.6259 88.571 64.8553 88.48C65.1375 88.4592 65.4204 88.5704 65.6457 88.7433L65.7945 89.0821C65.542 89.4259 65.3934 89.3434 65.3228 89.6335L64.8085 89.5477L64.9816 89.8928C64.4616 89.8332 64.3025 89.9145 63.8249 90.1504C63.5178 90.0495 63.2685 89.8231 63.006 89.6232L63.3162 89.4435L62.8457 89.291Z" fill="#BE8E59"/>
<path d="M63.316 89.4438C63.7741 89.4049 64.4592 89.2755 64.8084 89.548L64.9815 89.8931C64.4615 89.8335 64.3024 89.9148 63.8248 90.1507C63.5176 90.0498 63.2684 89.8233 63.0059 89.6234L63.316 89.4438Z" fill="#E7C68E"/>
<path d="M62.8468 89.2905C62.0232 87.3322 66.9639 87.709 66.33 89.5779C65.9988 89.7632 65.6862 89.7366 65.3239 89.6331C65.3945 89.3429 65.5431 89.4254 65.7956 89.0817L65.6468 88.7428C65.4215 88.57 65.1386 88.4588 64.8564 88.4796C63.627 88.5706 63.6404 88.4741 62.8468 89.2905Z" fill="#795E35"/>
<path d="M73.352 85.085C73.361 85.4781 73.3768 85.8879 73.3749 86.2796L73.8592 86.1099C73.789 86.3334 73.7504 86.524 73.6077 86.7078C73.1267 86.7822 71.5258 87.292 71.1678 87.0055C69.835 85.9383 69.4549 85.7232 67.7402 85.7449C68.2845 85.6119 68.4888 85.4846 68.9804 85.2221L69.762 85.3739C70.1535 85.3133 70.638 85.6319 71.6763 85.5867L71.5902 85.5595C72.2182 85.5315 73.0267 85.6391 73.352 85.085Z" fill="#5D6327"/>
<path d="M73.3537 85.085C73.3627 85.4781 73.3784 85.8879 73.3766 86.2796C72.9606 86.318 72.0585 86.5325 71.6152 86.625C71.025 86.036 70.4954 85.753 69.7637 85.3739C70.1552 85.3133 70.6397 85.6319 71.6779 85.5867L71.5919 85.5595C72.2199 85.5315 73.0284 85.6391 73.3537 85.085Z" fill="#78AB2E"/>
<path d="M69.1375 88.9348C69.7938 88.4953 70.9575 88.3911 71.585 88.9442L71.9082 89.0793C71.9289 89.459 71.6723 89.7886 71.4476 90.136C70.7556 90.1819 70.455 90.1785 69.7652 90.12C69.3733 89.9771 69.027 89.8743 68.8418 89.5181C68.8943 89.1393 68.8646 89.2678 69.1375 88.9348Z" fill="#D5A76D"/>
<path d="M69.1387 88.9348C69.795 88.4953 70.9587 88.3911 71.5861 88.9442L71.4156 89.2193C70.6414 89.4847 69.7915 89.4909 69.1387 88.9348Z" fill="#BE8E59"/>
<path d="M73.8708 86.0098C75.8384 86.2649 76.3322 85.8453 78.0595 87.298L78.391 87.6924C78.3593 87.8516 78.3654 87.8903 78.2981 88.0354C77.0395 87.9291 77.2576 86.0171 73.6094 86.7074C73.7521 86.5236 73.7906 86.333 73.8609 86.1096L73.8708 86.0098Z" fill="#795E35"/>
<path d="M72.1055 89.81L72.4205 89.3268C73.8054 88.6263 74.8361 88.2265 76.2484 89.0813C75.5649 88.9307 73.1311 89.6761 72.1055 89.81Z" fill="#EED2A0"/>
<path d="M67.6287 86.7473C68.2777 86.7382 69.8314 86.9603 70.4141 87.2342L70.4402 87.4047L70.1245 87.5411C69.3144 87.56 67.8488 87.8613 67.3203 87.4234C67.3416 87.0068 67.3311 87.1407 67.6287 86.7473Z" fill="url(#paint2_linear_138_943)"/>
<path d="M75.6565 88.0609C76.3147 88.0256 77.0338 87.9318 77.6056 88.2798L77.6493 88.4966C77.1963 88.4841 75.9303 88.5345 75.6152 88.3501L75.6565 88.0609Z" fill="#795E35"/>
<path d="M25.8096 83.3843C27.1083 80.9693 28.8138 80.8405 31.3082 80.6435C32.0249 80.5869 32.5607 79.9196 33.2489 80.6254C33.2788 81.0494 33.0488 81.4821 32.883 81.8942C32.8796 82.2849 32.8593 82.4033 32.9669 82.7709C32.3885 83.8767 31.1568 84.2118 29.9829 84.2719C30.0961 84.7174 30.1102 84.8868 30.4389 85.2261C30.3567 85.4223 30.3516 85.4802 30.1982 85.6289C31.0223 85.6925 31.9065 85.4567 32.712 85.2727L33.1224 85.475C32.1852 85.967 31.1169 85.9805 30.6203 86.199C29.4464 87.261 27.8214 85.9216 26.9027 86.2381C24.9714 86.9034 21.3637 88.2252 19.3004 87.0161C19.2584 86.7865 19.2716 86.402 19.2711 86.1578C20.4696 84.5518 23.8287 82.9082 25.8096 83.3843Z" fill="url(#paint3_linear_138_943)"/>
<path d="M25.8105 83.3843C27.1092 80.9693 28.8147 80.8405 31.3091 80.6435C32.0258 80.5869 32.5616 79.9196 33.2498 80.6254C33.2797 81.0494 33.0497 81.4821 32.8839 81.8942C32.8805 82.2849 32.8602 82.4033 32.9678 82.7709C32.3894 83.8767 31.1577 84.2118 29.9839 84.2719C29.6128 84.2519 29.7684 84.1954 29.4974 84.4343L29.3875 84.4185C28.832 84.3509 28.4384 84.2734 27.8847 84.3676C27.1874 84.3053 27.0634 84.2631 26.4037 84.0166C26.191 83.6715 26.1565 83.5846 25.8105 83.3843Z" fill="#557322"/>
<path d="M26.4707 83.2957C27.799 81.3134 29.3647 81.2846 31.5683 80.9538C31.961 80.8949 32.2317 80.8413 32.6339 80.8853L32.7106 81.0167C32.588 81.3876 32.3005 81.6015 32.0105 81.8814C32.4796 81.9928 32.3518 81.8886 32.5677 82.2244C32.3728 83.931 27.4987 84.4921 26.4883 83.4931L26.4707 83.2957Z" fill="#90BD3C"/>
<path d="M26.4707 83.2961C27.9192 84.0651 29.7601 81.8897 32.0105 81.8818C32.4796 81.9932 32.3518 81.889 32.5677 82.2248C32.3728 83.9315 27.4987 84.4926 26.4883 83.4936L26.4707 83.2961Z" fill="#78AB2E"/>
<path d="M19.2711 86.1569C20.4696 84.5509 23.8287 82.9073 25.8096 83.3833C26.1556 83.5837 26.1901 83.6706 26.4028 84.0157L26.0276 84.595C25.7838 84.2087 25.7038 83.9412 25.1898 83.8518C23.6796 83.5888 21.9172 84.6346 20.7169 85.4283C19.6645 86.1239 19.8348 86.3759 19.3004 87.0152C19.2584 86.7856 19.2716 86.4011 19.2711 86.1569Z" fill="url(#paint4_linear_138_943)"/>
<path d="M30.1991 85.6286C31.0232 85.6923 31.9074 85.4564 32.7129 85.2725L33.1233 85.4748C32.1861 85.9668 31.1178 85.9803 30.6212 86.1987C30.0296 86.3068 29.0634 86.5727 28.5833 86.2506C28.5017 85.8846 28.5058 86.0296 28.6427 85.6493C29.2737 85.8375 29.5515 85.7517 30.1991 85.6286Z" fill="#D5A76D"/>
<path d="M26.4025 84.0166C27.0621 84.2631 27.1862 84.3054 27.8835 84.3676L27.6879 84.5668C27.3727 84.7639 27.4933 84.9735 26.7544 85.317C26.3583 85.2709 26.4901 85.2952 26.1345 85.0085C26.0542 84.8122 26.0365 84.8046 26.0273 84.5959L26.4025 84.0166Z" fill="#BE8E59"/>
<path d="M29.4973 84.4338C29.7683 84.1949 29.6127 84.2514 29.9837 84.2714C30.0968 84.7169 30.111 84.8863 30.4396 85.2256C30.3575 85.4218 30.3524 85.4797 30.199 85.6284C29.5514 85.7514 29.2735 85.8373 28.6426 85.6491C29.2371 84.9745 29.4059 85.7027 29.4973 84.4338Z" fill="#795E35"/>
<path d="M27.885 84.3679C28.4387 84.2737 28.8323 84.3512 29.3878 84.4188C29.0733 84.9703 28.6143 85.1714 28.0101 85.0008C27.8047 84.8216 27.7944 84.8322 27.6895 84.567L27.885 84.3679Z" fill="#E7C68E"/>
<path d="M23.476 85.5986C23.7368 85.6191 23.7245 85.6234 23.965 85.7329L23.8915 85.9147C23.45 86.1849 23.2932 86.3105 22.9009 86.6465L22.758 86.7687L22.5762 86.6951L22.603 86.4261C22.866 85.9442 23.0128 85.8869 23.476 85.5986Z" fill="#957044"/>
<path d="M33.1231 85.4746L33.6714 86.072C33.4571 86.5875 33.4689 86.5963 32.9102 86.7801C32.8507 86.9855 32.8429 87.0608 32.7402 87.2505L32.6454 87.5982C32.996 87.7158 33.2911 87.7597 33.4959 88.0451L33.539 88.2611C33.5604 88.6636 33.611 88.8159 33.3912 89.1338C33.0502 89.3272 32.876 89.2716 32.4695 89.1979L32.0143 89.1796L31.7578 89.2136C32.2542 90.1571 32.4807 89.8963 33.4694 90.1269C34.8761 91.6054 36.3594 91.4175 38.3157 91.8067C38.4074 91.8249 38.5864 91.7848 38.6802 91.766C38.6885 91.5492 38.685 91.5395 38.6419 91.3259C38.946 91.2416 41.2942 90.7279 41.4213 90.7553C41.049 90.9666 38.9597 91.8852 38.64 91.8831C36.8573 91.8714 34.1305 91.5422 32.456 91.0967L31.8549 90.5009L31.7178 90.4773C31.3176 90.4137 30.8576 90.2917 30.4567 90.3347C28.5893 90.5352 27.0195 90.4925 25.1511 90.2586C24.3858 90.7563 23.8649 90.8633 22.9804 91.066C22.8526 91.02 22.7248 90.9739 22.5969 90.9278C21.7533 90.7053 21.6552 89.7036 20.7501 89.5764C21.2234 89.0561 21.9084 89.4545 22.3285 89.7716C23.0545 89.6794 24.1426 89.4583 24.7901 89.11C24.9214 88.5577 24.6667 89.1235 24.5877 88.2178C23.9044 87.3938 19.7836 87.7012 18.8642 88.0258C18.4335 87.6907 18.287 87.6991 17.75 87.628L17.9243 87.3846C18.4124 87.3341 18.4312 87.6334 18.9249 87.6377C19.0417 87.3593 19.1253 86.6709 18.96 86.4311C18.5964 86.5186 18.3237 86.5614 17.9569 86.6165L17.8625 86.4706L19.2718 86.1574C19.2723 86.4016 19.2591 86.7861 19.3011 87.0157C21.3643 88.2248 24.9721 86.903 26.9034 86.2377C27.822 85.9212 29.4471 87.2606 30.6209 86.1985C31.1175 85.9801 32.1859 85.9666 33.1231 85.4746Z" fill="#EED2A0"/>
<path d="M27.875 88.8039C28.144 88.5518 28.4181 88.3052 28.6969 88.0642C30.1252 86.848 31.1231 86.6322 32.9102 86.7801C32.8507 86.9855 32.8429 87.0608 32.7401 87.2505L32.6454 87.5982C32.996 87.7157 33.2911 87.7596 33.4959 88.045L33.539 88.261C33.5604 88.6636 33.611 88.8159 33.3911 89.1338C33.0502 89.3272 32.876 89.2716 32.4695 89.1979L32.0143 89.1795L31.7577 89.2136C30.687 88.7204 30.1331 89.0539 29.0097 89.4652C28.7015 89.3989 28.3772 89.2506 28.0813 89.1311L27.875 88.8039Z" fill="#795E35"/>
<path d="M28.0801 89.131C29.2835 88.8993 30.2869 88.0253 31.5723 87.9158C32.4249 87.8432 32.8163 88.3148 33.5378 88.2609C33.5592 88.6634 33.6097 88.8158 33.3899 89.1337C33.0489 89.327 32.8748 89.2714 32.4682 89.1978L32.0131 89.1794L31.7565 89.2134C30.6857 88.7202 30.1319 89.0538 29.0084 89.4651C28.7003 89.3987 28.376 89.2505 28.0801 89.131Z" fill="#D5A76D"/>
<path d="M32.0137 89.1796C32.2312 88.6343 32.7989 88.4949 33.3378 88.6481L33.3437 88.7885C32.9991 89.0421 32.8804 89.0658 32.4688 89.198L32.0137 89.1796Z" fill="#795E35"/>
<path d="M32.6459 87.5983C31.8847 87.3732 31.1924 87.6208 30.334 87.6568L30.3525 87.5753C31.3929 87.1519 31.5877 87.1881 32.7406 87.2507L32.6459 87.5983Z" fill="#D5A76D"/>
<path d="M29.0097 89.4654C28.2774 89.6104 26.4264 89.3765 26.6015 88.4122L26.8646 88.3721C27.2303 88.6004 27.4318 88.7527 27.8751 88.804L28.0814 89.1312C28.3773 89.2508 28.7016 89.399 29.0097 89.4654Z" fill="#E7C68E"/>
<path d="M24.0499 89.7881L24.3955 89.9079L24.4615 90.1007C24.0833 90.5492 23.1595 90.558 22.621 90.5579C22.3262 90.3985 22.4237 90.5105 22.2812 90.2506C22.7798 89.9028 23.2236 90.2407 24.0499 89.7881Z" fill="#BE8E59"/>
<path d="M63.8256 90.1501C64.3032 89.9142 64.4623 89.8329 64.9823 89.8925C65.6624 90.4214 66.4253 90.4322 67.0682 89.8594C67.536 89.9039 69.4419 90.1423 69.7656 90.12C70.4554 90.1785 70.756 90.1818 71.448 90.136C70.2323 91.0031 66.4593 90.6696 64.9466 90.6864C64.5365 90.691 63.8107 91.0326 63.2392 91.0882L63.1035 90.6957C63.2919 90.3242 63.3933 90.3675 63.8256 90.1501Z" fill="#EED2A0"/>
<path d="M17.7496 87.6279C18.2866 87.699 18.4331 87.6907 18.8638 88.0257C18.502 88.1744 17.9277 88.2347 17.5545 88.0845L17.5156 87.8875L17.7496 87.6279Z" fill="#D5A76D"/>
<path d="M19.5234 44.8883C19.5816 44.877 19.6397 44.8666 19.698 44.8571C25.0545 43.9702 30.9406 45.7582 35.3641 48.8602C39.9473 52.074 42.8575 56.6164 44.8038 61.8265C45.1087 62.6424 45.2565 63.9154 45.5186 64.7377C45.8469 65.7684 46.3347 65.9633 46.5403 67.1711C46.4178 67.5143 46.7381 69.1927 46.6968 70.0864C46.6466 69.1088 46.3841 68.1496 46.0577 67.2433C44.6743 63.4015 42.0302 63.9942 38.7001 63.153C36.9577 62.7128 34.8951 61.9292 33.2525 61.1679C26.1559 57.8786 22.1282 52.1078 19.5234 44.8883Z" fill="url(#paint5_linear_138_943)"/>
<path d="M24.3353 46.043C24.8594 46.1528 26.935 46.9994 27.5749 47.2291C27.8711 47.6014 28.7943 48.7034 28.3363 49.147L28.0216 48.9642C26.9941 48.3472 23.713 46.7596 23.1113 46.2037L24.3353 46.043Z" fill="#90BD3C"/>
<path d="M24.2797 47.2266C24.9483 47.4385 25.7687 47.8678 26.2693 48.3537L26.1094 48.3811C25.0895 48.9966 23.8226 48.4617 24.2797 47.2266Z" fill="#90BD3C"/>
<path d="M49.4805 82.729C51.735 79.4994 54.7894 77.2766 58.8717 76.9758C59.9627 76.8953 62.2055 76.8601 63.0477 77.5857C63.4143 77.8442 64.036 77.8605 64.4664 77.7986C64.2317 77.8843 63.8911 77.8878 63.7456 77.9557C68.1129 78.0543 70.0176 80.5758 72.0973 83.9787C71.4257 81.4392 70.721 81.4732 69.4651 79.5929C71.2953 80.7555 72.7872 82.3692 73.2569 84.5517C73.2943 84.7287 73.3262 84.9067 73.3526 85.0855C73.0272 85.6396 72.2188 85.5321 71.5907 85.56L71.6768 85.5872C70.6385 85.6325 70.1541 85.3138 69.7625 85.3744L68.981 85.2226C68.4894 85.4851 68.285 85.6124 67.7408 85.7455L66.8599 85.8908C65.1089 85.8018 64.4825 86.004 62.8339 86.5901L61.7862 87.1119C61.4458 87.7964 61.4241 88.002 60.6685 88.2418L60.6503 87.9114C60.8155 87.6897 60.8842 87.6304 60.9397 87.3547L60.7757 87.1752C60.0187 86.8447 58.7498 86.8939 57.9003 86.8973L57.5849 86.8166L57.4157 86.4457L57.0994 86.1141C55.3101 85.1109 53.984 85.0548 51.9779 85.5497L51.3715 85.6762C51.5595 85.097 51.5329 85.1877 52.0814 85.0147C51.3525 84.8911 50.7243 84.5905 49.7795 84.4545C49.676 83.8801 49.5763 83.3049 49.4805 82.729Z" fill="url(#paint6_linear_138_943)"/>
<path d="M61.7372 84.1711C61.3757 82.5955 62.5743 81.4308 63.8729 82.6335C64.2164 82.9514 64.261 83.4484 64.3641 83.8852C64.8336 83.7292 65.3627 83.1338 65.6503 83.0445C66.6911 82.721 69.4451 82.519 70.003 83.7242C70.0326 84.8891 69.087 84.7785 68.9816 85.2217C68.49 85.4842 68.2857 85.6115 67.7414 85.7445L66.8606 85.8899C65.1095 85.8009 64.4831 86.003 62.8345 86.5892L62.5959 86.3494L62.2871 85.6895L62.1491 85.5711C62.0194 84.9984 61.9408 84.7209 61.7372 84.1711Z" fill="#557322"/>
<path d="M62.1308 83.2665C62.3682 82.9032 62.423 82.7734 62.8235 82.5948C64.1859 82.5802 63.7391 84.5178 63.2944 85.3017L63.1259 85.4537L62.9181 85.3881C62.5988 85.4839 62.5364 85.4838 62.2862 85.6898L62.1482 85.5713C62.0186 84.9986 61.9399 84.7211 61.7363 84.1713L62.1452 84.1234L62.1308 83.2665Z" fill="#90BD3C"/>
<path d="M62.1452 84.1236L62.1308 83.2666C63.3562 83.8991 62.5909 84.5672 63.2944 85.3018L63.1259 85.4538L62.9181 85.3882C62.5988 85.4841 62.5364 85.4839 62.2862 85.6899L62.1482 85.5714C62.0186 84.9988 61.9399 84.7213 61.7363 84.1714L62.1452 84.1236Z" fill="#78AB2E"/>
<path d="M62.1452 84.123C62.3849 84.6977 62.5426 84.8851 62.9181 85.3877C62.5988 85.4835 62.5364 85.4834 62.2862 85.6894L62.1482 85.5709C62.0186 84.9982 61.9399 84.7207 61.7363 84.1709L62.1452 84.123Z" fill="#5A7A26"/>
<path d="M66.5504 83.2612C68.0258 83.13 68.5201 83.2134 69.7342 84.0253C69.0123 84.5601 68.7073 84.7278 67.8908 85.1108C67.0268 85.333 64.7774 85.524 64.9975 84.1036C65.3965 83.5395 65.9042 83.4484 66.5504 83.2612Z" fill="#90BD3C"/>
<path d="M57.0996 86.1134C57.293 86.033 57.3723 86.0124 57.4987 85.8345C57.9665 85.7347 58.12 85.8023 58.4467 86.2053L59.3072 85.9902C60.7367 85.6447 61.0253 85.6673 62.357 86.2475L62.5954 86.3496L62.8341 86.5894L61.7864 87.1112C61.446 87.7957 61.4243 88.0013 60.6687 88.2411L60.6505 87.9107C60.8156 87.689 60.8844 87.6297 60.9398 87.354L60.7759 87.1745C60.0189 86.844 58.75 86.8932 57.9004 86.8965L57.5851 86.8159L57.4158 86.445L57.0996 86.1134Z" fill="#795E35"/>
<path d="M59.3078 85.9902C60.7373 85.6447 61.0259 85.6673 62.3576 86.2475C61.4499 86.959 59.5771 86.4746 58.4706 86.309L58.4473 86.2053L59.3078 85.9902Z" fill="#BE8E59"/>
<path d="M52.081 85.0144C54.0239 84.3284 56.8898 85.1692 58.9465 85.5216L59.0317 85.6502L59.6121 85.5682L59.6653 85.7217C59.224 85.8486 58.8842 85.8515 58.4297 85.8818L58.4247 85.9727C58.7765 86.0014 58.9553 86.0131 59.3066 85.9906L58.4461 86.2057C58.1194 85.8027 57.9659 85.7351 57.4981 85.8349C57.3717 86.0128 57.2924 86.0334 57.099 86.1138C55.3097 85.1105 53.9836 85.0545 51.9774 85.5493L51.3711 85.6759C51.559 85.0967 51.5325 85.1874 52.081 85.0144Z" fill="url(#paint7_linear_138_943)"/>
<path d="M58.9476 85.5215C60.318 84.6021 60.7454 84.8808 62.1491 85.5716L62.2871 85.6901L62.5959 86.3499L62.3575 86.2478C61.0258 85.6676 60.7372 85.645 59.3077 85.9905C58.9564 86.013 58.7775 86.0013 58.4258 85.9726L58.4308 85.8818C58.8853 85.8514 59.2251 85.8485 59.6664 85.7217L59.6131 85.5681L59.0327 85.6501L58.9476 85.5215Z" fill="#5D6327"/>
<path d="M63.0492 77.585C63.4159 77.8435 64.0376 77.8597 64.468 77.7979C64.2333 77.8836 63.8927 77.8871 63.7471 77.955C61.9445 78.0414 60.1222 78.3461 58.4879 79.2008C57.8569 79.5308 57.1432 80.1676 56.4883 80.4417C58.246 78.6076 60.7027 78.0988 63.0492 77.585Z" fill="#5A7A26"/>
<path d="M49.2827 46.3944C49.3882 46.3262 49.5923 46.263 49.7187 46.2168C49.4532 49.1507 49.2434 52.0895 49.0895 55.0317C49.04 56.0348 49.0463 58.4166 48.9162 59.2619C48.9339 60.5251 48.816 64.9781 48.966 65.8913L49.4233 66.073C49.2809 66.9038 48.9765 68.8505 48.7699 69.5707L49.1675 69.6933C47.6625 72.2618 49.169 83.3915 49.5161 86.7378C48.0614 86.8139 48.4869 86.5027 46.6957 87.0403C46.5155 81.5756 46.9274 75.7014 46.6944 70.0863C46.7357 69.1925 46.4153 67.5141 46.5379 67.171C46.6792 67.0223 46.7856 66.8725 46.7888 66.6594C46.8172 64.7477 46.8025 62.8169 46.8655 60.9073C46.9625 57.9632 47.2106 55.0153 47.3303 52.0751C47.2399 50.4058 47.5754 49.0951 47.5216 47.3543C48.0712 47.1423 48.7893 46.7165 49.2827 46.3944Z" fill="#90BD3C"/>
<path d="M48.5859 57.9502C48.9468 58.3854 48.746 58.7244 48.9186 59.2621C48.9362 60.5254 48.8184 64.9784 48.9684 65.8915L49.4257 66.0732C49.2832 66.9041 48.9788 68.8507 48.7722 69.571L48.546 69.4551C48.27 68.5402 48.468 59.184 48.5859 57.9502Z" fill="#557322"/>
<path d="M49.2833 46.3944C49.3888 46.3262 49.5928 46.263 49.7193 46.2168C49.4538 49.1507 49.244 52.0895 49.09 55.0317C49.0405 56.0348 49.0469 58.4166 48.9168 59.2619C48.7442 58.7242 48.945 58.3851 48.5842 57.95C48.5435 57.566 48.6396 56.154 48.6607 55.7065C48.732 54.3444 48.7774 52.981 48.797 51.617C48.9174 51.1524 49.2109 47.1921 49.2833 46.3944Z" fill="#5A7A26"/>
<path d="M49.2844 46.3945C49.2119 47.1923 48.9185 51.1525 48.7981 51.6172C48.7179 50.671 48.981 49.2273 48.523 48.8041C47.291 48.9522 47.6479 50.9795 47.332 52.0753C47.2415 50.406 47.577 49.0953 47.5233 47.3545C48.0729 47.1424 48.791 46.7167 49.2844 46.3945Z" fill="#78AB2E"/>
<path d="M40.1358 82.3535L40.4193 82.6224C40.511 82.5804 40.5694 82.576 40.6036 82.5147C40.9572 82.6576 40.9881 82.6546 41.3744 82.6824L41.4665 82.7506C41.7035 82.8666 41.9674 83.0273 42.2208 83.0314C42.6276 83.0827 43.4294 83.4555 43.7758 83.6759C45.1183 84.1361 45.2179 83.097 46.1826 83.798L46.2769 84.021C46.1896 84.9399 46.1732 85.7203 46.1556 86.6414C46.141 86.6271 46.1264 86.6129 46.1118 86.5984L46.0371 86.5289C45.4672 85.9906 45.2544 85.8772 44.563 85.4722C44.2571 85.4507 44.1122 85.4883 43.8069 85.5384L43.7482 85.1377C43.529 84.5511 43.2475 84.388 42.7574 84.0515C41.4017 83.4564 41.0351 83.3347 39.5547 83.228L39.6127 82.6666L40.1358 82.3535Z" fill="#D5A76D"/>
<path d="M40.1358 82.3535L40.4193 82.6224C40.511 82.5804 40.5694 82.576 40.6036 82.5147C40.9572 82.6576 40.9881 82.6546 41.3744 82.6824L41.4665 82.7506C41.7035 82.8666 41.9674 83.0273 42.2208 83.0314C43.8926 84.0857 43.6194 83.8144 44.563 85.4722C44.2571 85.4507 44.1122 85.4883 43.8069 85.5384L43.7482 85.1377C43.529 84.5511 43.2475 84.388 42.7574 84.0515C41.4017 83.4564 41.0351 83.3347 39.5547 83.228L39.6127 82.6666L40.1358 82.3535Z" fill="#795E35"/>
<path d="M43.7773 83.6759C44.2096 83.3937 44.5938 83.1609 44.9759 82.8115C45.8409 82.8269 46.6777 82.9031 46.2784 84.021L46.1841 83.7981C45.2195 83.0971 45.1199 84.1362 43.7773 83.6759Z" fill="#5D6327"/>
<path d="M40.6035 82.515C40.9261 82.2353 41.2448 81.95 41.5835 81.6904L42.9007 82.3291C42.3846 82.4209 41.8991 82.4619 41.4664 82.7509L41.3743 82.6827C40.9881 82.6549 40.9571 82.658 40.6035 82.515Z" fill="#FFFEFE"/>
<path d="M40.0547 78.7223C41.1678 78.6482 42.0493 78.5978 43.1554 78.8762C44.5113 79.2175 46.6097 80.3401 46.132 82.0659L45.8239 82.2079C45.7418 82.2108 45.6597 82.2123 45.5775 82.2125C43.903 82.2223 41.7965 81.5788 40.6216 80.3475C40.3436 80.0562 39.6758 79.2685 39.6777 78.8844L40.0547 78.7223Z" fill="#90BD3C"/>
<path d="M61.1348 72.3828C63.7299 72.5788 65.3964 73.0226 64.8622 76.1162C63.9203 76.1043 63.2762 76.1304 62.5216 75.4686C61.6247 74.682 61.2315 73.5329 61.1348 72.3828Z" fill="#90BD3C"/>
<path d="M67.2649 76.4903C68.2608 75.4584 71.2541 75.2135 71.6863 76.49C71.5296 76.7965 71.4643 76.8202 71.1836 77.0393C70.1321 77.7679 67.6548 78.1233 67.0605 76.8461C67.1234 76.648 67.1331 76.6548 67.2649 76.4903Z" fill="#90BD3C"/>
<path d="M71.1836 77.0401C70.1321 77.7688 67.6548 78.1242 67.0605 76.8469C67.1234 76.6489 67.1331 76.6557 67.2649 76.4912L67.4279 76.665C68.9414 76.687 69.6885 76.752 71.1836 77.0401Z" fill="#78AB2E"/>
<path d="M48.9676 65.8921C48.9757 65.8686 48.9839 65.8452 48.9921 65.8218C50.363 59.0956 54.6136 52.9774 60.7988 49.8619C64.1807 48.1586 68.003 47.2688 71.7908 47.3285C72.4693 47.3393 74.2858 47.1551 74.6306 47.7872C74.6288 48.5482 74.2321 49.6004 73.9787 50.3355C72.7101 54.0156 70.6408 57.6002 67.9086 60.3803C64.7679 63.5759 59.357 66.4123 54.9523 67.2412C54.4647 67.3933 53.1871 67.6979 52.6714 67.7113C52.244 67.2338 51.506 67.5023 50.9007 67.6027C49.9957 68.2975 49.7568 68.7044 49.1691 69.6941L48.7715 69.5715C48.9781 68.8513 49.2825 66.9046 49.4249 66.0738L48.9676 65.8921Z" fill="url(#paint8_linear_138_943)"/>
<path d="M48.9668 65.8921C48.9748 65.8686 48.983 65.8452 48.9912 65.8218C50.3622 59.0956 54.6128 52.9774 60.798 49.8619C64.1798 48.1586 68.0021 47.2688 71.79 47.3285C72.4685 47.3393 74.285 47.1551 74.6297 47.7872C74.6279 48.5482 74.2312 49.6004 73.9778 50.3355C72.7093 54.0156 70.64 57.6002 67.9077 60.3803C64.7671 63.5759 59.3561 66.4123 54.9515 67.2412C55.3603 66.5917 57.1601 66.241 57.9274 65.9728C66.6042 62.9398 71.9234 56.7285 74.2381 47.886C62.2237 46.5844 51.6874 54.1383 49.4241 66.0738L48.9668 65.8921Z" fill="#5A7A26"/>
<path d="M31.229 78.3361C28.8581 79.3571 25.2671 78.7081 23.1678 77.2779C22.7301 76.9797 22.3997 76.6941 22.3047 76.1519C22.9778 74.018 31.4206 74.2367 31.5393 77.7419L31.229 78.3361Z" fill="#5A7A26"/>
<path d="M25.1169 75.3076C26.854 75.0872 30.1768 75.4637 31.0127 77.2708C30.9767 78.3778 29.4405 78.3088 28.5774 78.3863C26.1608 78.3615 24.2676 77.7003 22.543 76.0266C23.4399 75.6089 24.1481 75.4545 25.1169 75.3076Z" fill="#90BD3C"/>
<path d="M31.7538 72.5625C31.452 72.2241 31.218 72.0291 31.1152 71.5929C31.528 69.717 38.3044 70.6027 39.0386 72.5742C39.7506 74.4859 38.3604 74.6029 37.0821 74.5938C38.4163 78.1073 37.9356 78.5711 38.2994 81.8662L37.7393 81.8215C37.7425 80.4336 37.3636 74.9863 36.1304 74.3921C34.4555 74.2108 33.03 73.6613 31.7538 72.5625Z" fill="#90BD3C"/>
<path d="M31.7538 72.5625C31.452 72.2241 31.218 72.0291 31.1152 71.5929C31.528 69.717 38.3044 70.6027 39.0386 72.5742C39.7506 74.4859 38.3604 74.6029 37.0821 74.5938C38.4163 78.1073 37.9356 78.5711 38.2994 81.8662L37.7393 81.8215C37.7425 80.4336 37.3636 74.9863 36.1304 74.3921C35.9408 74.2329 35.9562 74.1806 35.8963 73.9384C36.8571 74.0454 38.4005 74.4676 38.7752 73.3891C38.5737 70.9203 33.0825 70.5954 31.5546 71.4211C31.5689 71.668 31.8406 71.9574 32.0108 72.1971L31.7538 72.5625Z" fill="url(#paint9_linear_138_943)"/>
<path d="M32.0109 72.1973C33.3837 73.2869 34.2431 73.5303 35.8964 73.9385C35.9564 74.1808 35.9409 74.2331 36.1305 74.3923C34.4557 74.211 33.0301 73.6615 31.7539 72.5627L32.0109 72.1973Z" fill="#5A7A26"/>
<path d="M62.8004 1C63.351 2.10289 62.8801 3.75516 63.3896 4.46784C64.0334 5.36841 66.0291 5.54141 67.0546 5.67948C65.6679 5.89987 64.9885 5.91035 63.7661 6.60344C62.9616 7.84712 63.0984 8.67979 62.8473 10.1528L62.7816 10.264C61.9543 7.01886 62.9525 6.35509 58.8477 5.72657C60.0672 5.39392 60.7109 5.44906 61.8509 4.8023C62.7849 3.15458 62.303 2.61309 62.8004 1Z" fill="#F4E0C1"/>
<path d="M62.7831 4.81738C63.1128 5.16248 63.4099 5.3007 63.6357 5.6259C63.5863 6.00761 63.4079 6.03282 63.0358 6.34967L62.8284 6.37427L62.0605 5.6376L62.7831 4.81738Z" fill="#EED2A0"/>
<path d="M70.2564 4.25293C70.2183 6.21476 70.611 6.76658 72.4193 7.2253C70.5743 7.58923 70.5266 7.99949 70.2329 9.76979L70.1617 9.79546C70.0571 7.89757 69.8255 7.63951 68.0352 7.21618C70.1753 6.61484 69.8368 6.22858 70.2564 4.25293Z" fill="#FDE892"/>
<path d="M76.0469 11.7705C76.4484 13.4743 76.4325 12.9995 77.4488 13.7577C77.3953 13.7986 77.342 13.8399 77.289 13.8813C76.4252 14.5582 76.1887 14.7017 76.0645 15.7972L76.0476 15.9513C75.4789 14.683 76.4811 14.7805 74.5293 13.88L74.5422 13.7351C75.7551 13.1889 75.7489 13.0431 76.0469 11.7705Z" fill="#F4E0C1"/>
<path d="M31.5388 77.7422C34.3128 79.7321 33.9887 79.4927 36.3565 81.9394C35.9393 81.9566 35.8313 81.9273 35.4204 81.8372C34.3251 80.46 32.822 79.0879 31.2285 78.3364L31.5388 77.7422Z" fill="#557322"/>
<defs>
<linearGradient id="paint0_linear_138_943" x1="57.1787" y1="31.7333" x2="57.594" y2="33.8829" gradientUnits="userSpaceOnUse">
<stop stop-color="#D88788"/>
<stop offset="1" stop-color="#FFA9A9"/>
</linearGradient>
<linearGradient id="paint1_linear_138_943" x1="48.4561" y1="31.4718" x2="49.7658" y2="30.898" gradientUnits="userSpaceOnUse">
<stop stop-color="#E98A7C"/>
<stop offset="1" stop-color="#D67884"/>
</linearGradient>
<linearGradient id="paint2_linear_138_943" x1="67.6959" y1="87.7765" x2="69.7976" y2="86.6752" gradientUnits="userSpaceOnUse">
<stop stop-color="#B98657"/>
<stop offset="1" stop-color="#D5A56B"/>
</linearGradient>
<linearGradient id="paint3_linear_138_943" x1="19.6999" y1="85.7706" x2="28.5307" y2="85.3291" gradientUnits="userSpaceOnUse">
<stop stop-color="#CC9C5E"/>
<stop offset="1" stop-color="#E8C38F"/>
</linearGradient>
<linearGradient id="paint4_linear_138_943" x1="23.2852" y1="85.8369" x2="22.0405" y2="84.0144" gradientUnits="userSpaceOnUse">
<stop stop-color="#695C2A"/>
<stop offset="1" stop-color="#81613C"/>
</linearGradient>
<linearGradient id="paint5_linear_138_943" x1="47.825" y1="65.7932" x2="20.1384" y2="44.4723" gradientUnits="userSpaceOnUse">
<stop stop-color="#5B9716"/>
<stop offset="1" stop-color="#ADD053"/>
</linearGradient>
<linearGradient id="paint6_linear_138_943" x1="60.5157" y1="87.1138" x2="63.1082" y2="77.5594" gradientUnits="userSpaceOnUse">
<stop stop-color="#7EB230"/>
<stop offset="1" stop-color="#A8CD4D"/>
</linearGradient>
<linearGradient id="paint7_linear_138_943" x1="55.9486" y1="85.0021" x2="55.8641" y2="85.8314" gradientUnits="userSpaceOnUse">
<stop stop-color="#576626"/>
<stop offset="1" stop-color="#6B5B2C"/>
</linearGradient>
<linearGradient id="paint8_linear_138_943" x1="46.8222" y1="66.1945" x2="74.4906" y2="49.0774" gradientUnits="userSpaceOnUse">
<stop stop-color="#619919"/>
<stop offset="1" stop-color="#ADD154"/>
</linearGradient>
<linearGradient id="paint9_linear_138_943" x1="37.0024" y1="71.199" x2="33.2158" y2="79.3858" gradientUnits="userSpaceOnUse">
<stop stop-color="#57751E"/>
<stop offset="1" stop-color="#6F854C"/>
</linearGradient>
</defs>
</svg>
