<svg width="96" height="96" viewBox="0 0 96 96" fill="none" xmlns="http://www.w3.org/2000/svg">
<rect width="96" height="96" fill="white"/>
<path d="M38.6222 21.0586C38.5746 18.9436 38.9377 16.8396 39.6913 14.8631C41.2456 10.703 44.5106 6.47136 48.5907 4.45498C49.7459 3.88396 49.7586 4.50936 50.3438 4.41163C51.8504 4.15963 51.6489 3.68796 53.2674 4.3018C54.239 4.17968 54.2958 4.42175 55.2508 4.65641C62.4909 6.43542 64.0117 18.1323 61.4216 24.0801C61.2159 24.5525 60.3995 26.4135 60.3456 26.7053C60.3991 27.2745 60.2586 27.3379 59.9948 27.9187C58.3079 31.2885 54.9379 34.4642 51.3361 35.6511C49.2721 36.331 47.6408 35.4845 46.4144 37.933C45.6938 39.3719 45.2099 41.91 45.077 43.4801L45.1545 43.6359C45.4992 43.4729 45.5283 43.4507 45.8345 43.2193L46.547 42.8463L46.7487 42.9254C46.6219 43.58 45.1821 44.7799 44.5823 45.0612C44.357 45.7812 44.1499 46.5907 44.1517 47.3509C44.9779 46.1835 45.3872 44.7326 46.8474 44.3286C46.6048 44.9398 46.2936 44.8753 45.9071 45.3074C44.964 46.362 44.4061 47.4556 44.4341 48.8775L44.4355 48.9832C44.4478 51.0624 44.1345 53.5216 44.1463 55.8828C44.2257 63.0036 45.7957 70.0287 48.7552 76.5048C51.4105 69.7896 57.8527 66.7742 64.7993 68.0703C65.8072 68.2584 66.19 67.6863 67.6424 68.279C67.8408 68.3607 68.038 68.4457 68.2335 68.5342L67.9766 68.9851C68.1956 69.2395 68.201 69.145 68.2157 69.3829L67.5978 69.6013C67.0559 69.7081 66.6502 69.782 66.1235 69.9561C62.4936 72.2608 61.5361 74.5928 60.2267 78.2836C60.7775 78.8006 60.6645 78.4707 61.344 78.696C61.96 78.9673 62.0586 79.0213 62.7464 79.0204L62.9744 79.206L62.8865 79.2159C62.618 79.2484 62.5429 79.241 62.3034 79.3785L62.36 79.4923L62.6248 79.8436L63.0723 79.7801L63.1272 80.0418C62.5403 80.3177 62.5911 80.1842 62.3266 80.6652L60.0008 80.7427L59.4039 80.8159L59.2751 80.89C58.464 81.1562 57.5918 82.1131 56.9995 82.0885C56.9779 81.8835 56.9757 81.7997 56.9809 81.5932L56.4797 81.6548C54.6237 81.6261 53.6522 81.9068 51.9946 81.9999L52.1048 82.3113C51.8879 82.7203 52.0466 82.5812 51.6122 82.7423L51.4797 82.7215C50.882 82.8437 50.7168 82.8549 50.115 82.87C49.129 81.6093 49.3939 81.2597 47.6686 81.3078L47.5514 80.931C47.1547 79.8384 46.8882 78.4742 45.7005 78.0937L45.6859 78.1734C45.4551 78.0632 45.2204 78.0778 44.9606 78.0648L44.5041 77.7229C44.5049 77.5633 44.5588 77.3646 44.5928 77.2024C43.6783 77.0693 43.0609 76.8588 42.2811 76.3741L42.1473 76.2667C41.5498 76.1706 41.4359 76.196 40.8568 76.2873C40.5069 76.4872 39.9127 76.9472 39.5435 76.7726C38.4832 76.2714 38.4794 75.9812 37.315 76.6115C36.8394 76.7808 36.6146 76.6758 36.1879 76.4739C36.3311 76.0329 36.3505 75.3181 36.3718 74.8408C36.3653 74.7443 36.3588 74.6479 36.3523 74.5514L36.34 74.428C36.2493 73.4504 35.5917 73.0123 35.6672 72.3622L36.555 72.0361C38.6463 71.4734 41.1436 71.5406 43.1212 72.491C42.8222 70.6903 42.248 68.7472 41.9319 66.9312C41.3465 63.569 40.9469 59.8444 40.9688 56.4327C40.991 54.754 41.0647 53.0763 41.1893 51.4021C41.3395 49.4755 41.9315 45.9976 41.47 44.2434C40.6859 41.5181 37.265 42.5171 35.2068 42.1359C28.2701 40.8515 24.086 36.3012 22.043 29.7492C26.7393 29.1001 30.3821 28.4518 35.0764 30.3159C38.1773 31.5923 41.0119 33.7091 42.2954 36.899C42.6883 37.8756 42.8081 39.0951 43.1947 39.9346C43.7241 38.5234 43.963 37.0195 43.8971 35.5136C43.4244 35.0504 42.8219 34.5891 42.2547 34.1205C38.5869 31.0897 37.6559 26.1845 37.9914 21.6641C38.0185 21.2994 38.3478 21.1957 38.6222 21.0586Z" fill="#4B602D"/>
<path d="M38.6213 21.0586C38.5737 18.9436 38.9368 16.8396 39.6904 14.8631C41.2447 10.703 44.5097 6.47137 48.5898 4.45498C49.745 3.88396 49.7577 4.50936 50.3429 4.41163C51.8495 4.15963 51.648 3.68796 53.2665 4.3018C54.2381 4.17968 54.2949 4.42175 55.2499 4.65641C62.49 6.43542 64.0108 18.1323 61.4207 24.0801C61.215 24.5525 60.3986 26.4135 60.3447 26.7053C60.3982 27.2745 60.2577 27.3379 59.9939 27.9187C59.809 27.7035 59.5909 27.6083 59.3425 27.4678C58.4148 27.7854 57.3843 28.5406 56.5543 28.7831C54.2065 29.4688 49.281 29.9838 47.6787 32.0526C46.8314 32.6675 46.519 32.9463 46.0154 33.8688L45.5371 32.855L46.0649 32.6863C45.5109 31.4794 45.2312 30.9812 44.541 29.855C44.1241 29.4119 44.0583 29.2143 43.8135 28.6772C43.5194 28.4265 43.4878 28.41 43.291 28.0843L42.9871 28.0489L42.5301 28.2191C41.0273 26.5015 39.4494 25.2583 38.755 23.0495C38.8915 22.3094 38.769 21.7799 38.6213 21.0586Z" fill="url(#paint0_linear_138_941)"/>
<path d="M38.6213 21.0586C38.5737 18.9436 38.9368 16.8396 39.6904 14.8631C41.2447 10.703 44.5097 6.47136 48.5898 4.45498C49.745 3.88396 49.7577 4.50936 50.3429 4.41163C51.8495 4.15963 51.648 3.68796 53.2665 4.3018L53.1482 4.82748C54.2216 4.87697 54.6967 5.02493 55.4648 5.8774C55.6616 6.09833 55.8541 6.32324 56.042 6.55157C54.6394 7.13217 53.9203 7.67213 52.7416 8.60679C52.4709 8.99392 52.3373 9.1733 52.0138 9.51563C51.3979 10.4454 48.8459 12.2707 47.7746 13.2953C47.5594 13.4741 47.576 13.4853 47.306 13.5386L47.1995 13.0935C46.8666 15.2299 45.3594 16.4566 44.5318 18.4461C44.008 19.7054 43.7516 20.8503 43.4775 22.1793C43.4289 22.4147 43.3031 23.3617 43.2695 23.4549C43.1149 25.2297 42.9735 26.306 43.291 28.0843L42.9871 28.0489L42.5301 28.2191C41.0273 26.5015 39.4494 25.2583 38.755 23.0495C38.8915 22.3094 38.769 21.7799 38.6213 21.0586Z" fill="#F8B1B0"/>
<path d="M38.6213 21.0586C38.5737 18.9436 38.9368 16.8396 39.6904 14.8631C41.2447 10.703 44.5097 6.47136 48.5898 4.45498C49.745 3.88396 49.7577 4.50936 50.3429 4.41163C51.8495 4.15963 51.648 3.68796 53.2665 4.3018L53.1482 4.82748C54.2216 4.87697 54.6967 5.02493 55.4648 5.8774C55.6616 6.09833 55.8541 6.32324 56.042 6.55157C54.6394 7.13217 53.9203 7.67213 52.7416 8.60679C52.4709 8.99392 52.3373 9.1733 52.0138 9.51563C51.3979 10.4454 48.8459 12.2707 47.7746 13.2953C47.5594 13.4741 47.576 13.4853 47.306 13.5386L47.1995 13.0935C47.5155 11.7417 47.7842 10.0946 48.0348 8.70759L47.9617 8.65593C47.8351 8.38351 47.9633 7.98428 48.0162 7.63058C47.7309 8.27458 47.838 8.40736 47.3739 9.04775C47.4416 7.96712 48.2778 7.26495 47.574 6.44788C47.6226 6.30463 48.1567 5.45595 48.2749 5.26591C42.7534 8.59035 37.0521 17.527 40.0478 24.4031C40.5513 25.5592 42.3266 26.8541 42.9871 28.0489L42.5301 28.2191C41.0273 26.5015 39.4494 25.2583 38.755 23.0495C38.8915 22.3094 38.769 21.7799 38.6213 21.0586Z" fill="#4E3F3B"/>
<path d="M53.1492 4.82812C54.2227 4.87762 54.6977 5.02557 55.4658 5.87805C55.6626 6.09898 55.8551 6.32388 56.043 6.55222C54.6405 7.13282 53.9213 7.67277 52.7426 8.60744C52.472 8.99457 52.3383 9.17395 52.0148 9.51628L51.402 8.84824L50.6976 9.20068C50.2953 9.57535 50.0046 9.8474 49.4678 9.83999L49.2876 9.6411C48.9742 8.55849 49.7737 7.10157 50.2702 6.19038C50.8601 5.64935 52.0428 5.21019 52.8056 4.99577L53.1492 4.82812Z" fill="url(#paint1_linear_138_941)"/>
<path d="M50.2702 6.18973C50.8601 5.6487 52.0428 5.20955 52.8056 4.99512C51.5542 6.06653 51.4123 5.60625 50.25 7.16162C50.1845 7.7283 50.0434 8.37936 50.259 8.89005C50.4109 9.00548 50.5306 9.10718 50.6976 9.20004C50.2953 9.5747 50.0046 9.84675 49.4678 9.83934L49.2876 9.64045C48.9742 8.55784 49.7737 7.10092 50.2702 6.18973Z" fill="#F2A09E"/>
<path d="M51.4023 8.84778C52.2282 8.0598 52.7546 7.13977 53.2984 6.15723L53.3558 6.20962C53.1507 6.9201 52.8167 7.88945 52.743 8.60698C52.4723 8.99411 52.3387 9.17349 52.0152 9.51582L51.4023 8.84778Z" fill="#F2A09E"/>
<path d="M50.27 6.18945C49.7735 7.10064 48.9739 8.55755 49.2874 9.64017L49.4676 9.83906C50.0044 9.84647 50.2951 9.57442 50.6974 9.19975L51.4017 8.84731L52.0145 9.51535C51.3987 10.4451 48.8466 12.2704 47.7754 13.295C48.1896 11.3785 48.279 9.11702 49.1 7.32464C49.3082 6.87031 49.8657 6.48264 50.27 6.18945Z" fill="#D97B78"/>
<path d="M48.276 5.26614C48.744 5.06328 49.0378 4.89907 49.5553 4.88281L49.7056 5.00367C49.2371 5.85018 48.7601 6.52634 48.4156 7.45757C48.2933 7.7878 48.1518 8.45998 48.0358 8.70783L47.9627 8.65617C47.8361 8.38375 47.9643 7.98452 48.0172 7.63082C47.732 8.27482 47.839 8.40759 47.375 9.04799C47.4427 7.96736 48.2789 7.26518 47.5751 6.44812C47.6236 6.30486 48.1577 5.45618 48.276 5.26614Z" fill="#F8B1B0"/>
<path d="M51.5181 4.65723L51.7113 4.75477C51.4134 5.08987 50.6527 5.35868 50.2076 5.55052L50.0664 5.55757L50.1766 5.33357C50.7381 4.90327 50.8455 4.8722 51.5181 4.65723Z" fill="#D97B78"/>
<path d="M47.3729 9.04803C47.8369 8.40764 47.7299 8.27487 48.0151 7.63086C47.9622 7.98457 47.834 8.38379 47.9606 8.65621L48.0337 8.70787C47.7831 10.0949 47.5145 11.742 47.1985 13.0938C46.8655 15.2301 45.3584 16.4569 44.5307 18.4464C44.0069 19.7057 43.7505 20.8506 43.4764 22.1796C43.4279 22.415 43.302 23.362 43.2684 23.4552L43.079 23.1622C43.1424 22.5001 43.1702 21.926 43.3385 21.2787C43.527 20.5538 44.7645 17.5392 44.682 17.0008C43.311 19.0438 42.6968 22.5275 42.3469 24.9274L42.2382 24.973C41.9682 21.1467 44.3113 17.2075 46.1442 14.0106C46.651 13.1265 46.5389 11.5758 46.8666 10.5496C46.8857 10.2826 47.2577 9.35748 47.3729 9.04803Z" fill="#F2A09E"/>
<path d="M47.5757 6.44824C48.2795 7.26531 47.4433 7.96748 47.3756 9.04811C47.2604 9.35756 46.8885 10.2827 46.8693 10.5497C46.1897 10.2046 45.2918 10.4149 45.0957 9.75192C45.3521 8.7206 46.8354 7.2691 47.5757 6.44824Z" fill="#FCD1CE"/>
<path d="M53.2673 4.30227C54.2389 4.18015 54.2957 4.42222 55.2507 4.65688C62.4908 6.43589 64.0116 18.1328 61.4215 24.0806C61.2158 24.553 60.3993 26.414 60.3455 26.7057L59.7192 26.4761C61.848 21.8872 62.4758 18.3786 61.4664 13.2949C61.0147 11.4584 59.9487 8.29637 58.304 7.27409C56.1844 5.95681 52.9397 9.06683 52.0122 10.7635C50.703 11.9644 49.6371 12.2422 48.0363 13.816L47.7754 13.2958C48.8466 12.2711 51.3987 10.4459 52.0145 9.5161C52.3381 9.17377 52.4717 8.99439 52.7424 8.60726C53.9211 7.6726 54.6402 7.13264 56.0428 6.55204C55.8549 6.3237 55.6624 6.0988 55.4656 5.87787C54.6975 5.0254 54.2224 4.87744 53.149 4.82795L53.2673 4.30227Z" fill="#4E3F3B"/>
<path d="M55.6406 5.28418C56.5799 5.45832 56.791 5.58785 57.4182 6.29779L56.7801 6.32019C56.2462 6.12365 56.0129 5.73562 55.6406 5.28418Z" fill="#F8B1B0"/>
<path d="M48.0346 13.8162C49.6355 12.2424 50.7013 11.9646 52.0105 10.7637C52.0095 12.4701 51.0061 12.2023 50.1331 13.1097C49.333 13.6464 48.5956 14.2915 47.8752 14.9328C47.3195 15.5591 46.1554 18.0398 45.7686 18.8458C45.8981 18.4563 46.7242 16.3776 46.7095 16.1645C45.7688 17.4333 44.4096 20.6115 44.2516 22.1558L44.4274 22.2187C45.0018 21.553 44.9713 20.0325 45.3317 19.6224C45.683 20.2908 44.8223 21.7571 44.6824 22.4907C44.4119 23.9075 45.6005 25.3399 45.6551 26.5817L45.5236 26.5573C45.1231 25.8412 44.6571 24.906 44.3818 24.1167C44.2313 23.6859 44.4171 22.8381 44.1916 22.5549C43.7745 23.3235 43.8854 27.7411 44.1479 28.7156C44.2081 28.9393 44.4679 29.5477 44.5401 29.8557C44.1232 29.4126 44.0575 29.215 43.8126 28.6779C43.5185 28.4272 43.4869 28.4107 43.2901 28.085C42.9727 26.3067 43.1141 25.2304 43.2686 23.4556C43.3022 23.3624 43.428 22.4154 43.4766 22.18C43.7507 20.851 44.0071 19.7061 44.5309 18.4468C45.3586 16.4573 46.8657 15.2305 47.1987 13.0942L47.3052 13.5393C47.5751 13.486 47.5585 13.4748 47.7737 13.296L48.0346 13.8162Z" fill="#F2A09E"/>
<path d="M47.1987 13.0938L47.3052 13.5389C47.5751 13.4856 47.5585 13.4744 47.7737 13.2955L48.0346 13.8158C44.1434 18.4523 43.3529 22.8189 43.8126 28.6774C43.5185 28.4267 43.4869 28.4103 43.2901 28.0846C42.9727 26.3063 43.1141 25.23 43.2686 23.4551C43.3022 23.3619 43.428 22.415 43.4766 22.1796C43.7507 20.8505 44.0071 19.7056 44.5309 18.4463C45.3586 16.4569 46.8657 15.2301 47.1987 13.0938Z" fill="#64403D"/>
<path d="M46.0649 32.6862C50.2878 27.993 54.7364 29.9624 59.7184 26.4756L60.3447 26.7052C60.3982 27.2744 60.2577 27.3378 59.9939 27.9186C59.809 27.7034 59.5909 27.6082 59.3425 27.4677C58.4148 27.7853 57.3843 28.5406 56.5543 28.783C54.2065 29.4687 49.281 29.9838 47.6787 32.0525C46.8314 32.6674 46.519 32.9462 46.0154 33.8687L45.5371 32.855L46.0649 32.6862Z" fill="#4E522B"/>
<path d="M50.1348 13.1094L50.3288 13.3583C49.9994 14.0809 48.7958 15.4076 47.9071 15.2723L47.877 14.9325C48.5974 14.2912 49.3348 13.6461 50.1348 13.1094Z" fill="#FCD1CE"/>
<path d="M56.4077 7.7627L56.5251 7.81165L56.6025 8.038C56.1524 8.81352 54.3436 9.87482 53.4233 10.6857L53.2887 10.6543L53.2227 10.4749C54.4261 8.86934 54.6558 8.54977 56.4077 7.7627Z" fill="#FCD1CE"/>
<path d="M43.7145 45.6416C43.9936 45.0955 43.9346 43.9583 44.1504 43.1611C44.3015 43.4868 44.2748 43.894 44.2854 44.2624C44.3667 44.4855 44.4907 44.8587 44.583 45.0621C44.3576 45.7821 44.1505 46.5916 44.1523 47.3518C44.9786 46.1844 45.3879 44.7335 46.8481 44.3296C46.6054 44.9407 46.2943 44.8762 45.9077 45.3083C44.9647 46.3629 44.4068 47.4566 44.4347 48.8784L44.4362 48.9841C44.4485 51.0633 44.1352 53.5225 44.1469 55.8837C44.2264 63.0045 45.7963 70.0297 48.7559 76.5057C51.4112 69.7905 57.8533 66.7751 64.8 68.0713C65.8079 68.2593 66.1906 67.6872 67.6431 68.2799C67.8415 68.3616 68.0387 68.4466 68.2342 68.5352L67.9773 68.9861C68.1963 69.2404 68.2017 69.1459 68.2163 69.3838L67.5985 69.6022C67.0566 69.709 66.6509 69.7829 66.1242 69.957C62.4942 72.2617 61.5367 74.5937 60.2273 78.2845C60.7782 78.8015 60.6652 78.4716 61.3446 78.6969C61.9607 78.9682 62.0593 79.0223 62.747 79.0214L62.9751 79.2069L62.8871 79.2168C62.6187 79.2493 62.5435 79.2419 62.3041 79.3794L62.3606 79.4932L62.6255 79.8446L63.0729 79.781L63.1278 80.0427C62.541 80.3186 62.5917 80.1851 62.3272 80.6661L60.0015 80.7436L59.4045 80.8168L59.2758 80.8909C58.4647 81.1571 57.5924 82.114 57.0002 82.0895C56.9785 81.8844 56.9764 81.8006 56.9816 81.5941L56.4804 81.6557C54.6244 81.627 53.6528 81.9077 51.9953 82.0008L52.1054 82.3122C51.8886 82.7212 52.0473 82.5821 51.6129 82.7432L51.4803 82.7224C50.8827 82.8446 50.7175 82.8558 50.1157 82.8709C49.1296 81.6102 49.3945 81.2607 47.6693 81.3087L47.5521 80.9319C47.1554 79.8393 46.8889 78.4751 45.7012 78.0946L45.4126 77.447C42.0858 68.1614 41.3069 60.7932 41.8416 51.0811C42.1743 50.6137 42.2303 50.5191 42.4336 49.9838C42.2559 49.1086 43.0419 44.4117 43.5139 43.4563L43.6587 43.461C43.87 44.1491 43.7428 44.8841 43.7145 45.6416Z" fill="#ACCC4F"/>
<path d="M57.0454 69.2175C60.0338 68.0418 62.3643 68.1023 65.3421 69.2597C66.2306 69.6649 65.5174 69.6452 66.1228 69.9561C62.4929 72.2608 61.5354 74.5928 60.226 78.2836C60.7768 78.8006 60.6638 78.4707 61.3433 78.696C61.9593 78.9673 62.0579 79.0214 62.7457 79.0205L62.9737 79.206L62.8858 79.2159C62.6173 79.2484 62.5422 79.241 62.3027 79.3785L62.3593 79.4923L62.6241 79.8437L63.0716 79.7801L63.1265 80.0418C62.5396 80.3177 62.5904 80.1842 62.3259 80.6652L60.0001 80.7427L59.4031 80.8159C59.0305 80.7321 58.9379 80.7097 58.5896 80.5587C58.7369 80.2785 58.8348 80.3265 59.2276 80.1712L59.3499 80.2003C59.5025 79.6874 59.7632 79.2249 59.6059 78.8241C59.8426 78.3591 59.8053 78.5605 59.7718 78.0603C55.3863 75.9366 54.941 79.1227 51.2417 77.8466C50.6715 77.6499 50.0096 77.9176 49.4867 77.4477C49.302 76.8032 49.6197 76.2018 49.8848 75.6201C51.1572 72.8282 54.1001 70.0866 57.0454 69.2175Z" fill="url(#paint2_linear_138_941)"/>
<path d="M65.342 69.2598C66.2305 69.665 65.5173 69.6453 66.1227 69.9562C62.4927 72.2609 61.5352 74.5928 60.2258 78.2836C60.7767 78.8006 60.6637 78.4708 61.3431 78.696C61.9592 78.9674 62.0578 79.0214 62.7455 79.0205L62.9736 79.206L62.8856 79.2159C62.6171 79.2485 62.542 79.2411 62.3026 79.3785L62.3591 79.4923L62.624 79.8437L63.0714 79.7801L63.1263 80.0419C62.5395 80.3177 62.5902 80.1842 62.3257 80.6653L59.9999 80.7428L59.403 80.8159C59.0303 80.7321 58.9377 80.7097 58.5894 80.5587C58.7367 80.2785 58.8346 80.3266 59.2275 80.1712L59.3497 80.2003C59.5023 79.6874 59.763 79.225 59.6058 78.8241C59.8425 78.3591 59.8051 78.5606 59.7717 78.0604C60.4338 74.3936 62.8788 71.7299 65.7887 69.6514C63.5535 69.9675 61.9496 70.1522 59.8129 71.0213C58.8949 71.3947 57.9587 72.5244 57.3555 72.4648C57.5317 72.1678 58.3715 71.6163 58.6941 71.3844C61.4968 69.3635 64.3274 69.9731 65.342 69.2598Z" fill="#50682F"/>
<path d="M62.3596 79.4922L62.6245 79.8435L63.0719 79.78L63.1268 80.0417C62.54 80.3176 62.5907 80.1841 62.3262 80.6651L60.0004 80.7426C59.9037 80.674 59.7063 80.4489 59.6142 80.3508C59.555 79.9239 59.5081 80.1091 59.7231 79.7689C60.1879 79.8564 60.3231 79.888 60.7613 80.0713L60.8621 80.1143C61.3461 80.0218 61.2728 79.9718 61.6623 79.5887C61.9285 79.7025 61.9573 79.7082 62.2423 79.7644L62.3596 79.4922Z" fill="#4B602D"/>
<path d="M61.3441 78.6963C61.9602 78.9676 62.0588 79.0216 62.7465 79.0207L62.9746 79.2063L62.8866 79.2162C62.6181 79.2487 62.543 79.2413 62.3036 79.3788L62.3601 79.4926L62.2427 79.7648C61.9578 79.7086 61.9289 79.7029 61.6628 79.589C61.1585 79.4283 60.9183 79.3643 60.4473 79.0943L60.5406 78.9105L61.3441 78.6963Z" fill="#5A7430"/>
<path d="M57.0471 69.2175C60.0355 68.0418 62.366 68.1023 65.3438 69.2597C64.3292 69.9731 61.4986 69.3634 58.696 71.3843C57.9367 71.3964 57.1968 71.7239 56.5912 71.4317C56.329 69.9133 59.1887 69.633 59.4424 69.2068L58.9041 69.2346L58.8379 69.0706C58.6727 69.0077 57.4741 69.227 57.0471 69.2175Z" fill="#ACCC4F"/>
<path d="M46.8472 44.3291C46.6045 44.9402 46.2934 44.8757 45.9069 45.3078C44.9638 46.3625 44.4059 47.4561 44.4339 48.878L44.4353 48.9836C44.4476 51.0629 44.1343 53.522 44.146 55.8833C44.2255 63.004 45.7955 70.0292 48.755 76.5052C51.4103 69.79 57.8525 66.7747 64.7991 68.0708C65.807 68.2589 66.1898 67.6868 67.6422 68.2795C67.8406 68.3611 68.0378 68.4462 68.2333 68.5347L67.9764 68.9856C68.1954 69.24 68.2008 69.1455 68.2155 69.3834L67.5976 69.6018C67.0557 69.7085 66.65 69.7824 66.1233 69.9566C65.5179 69.6457 66.2311 69.6654 65.3426 69.2602C62.3648 68.1028 60.0343 68.0423 57.0459 69.2179C54.1006 70.087 51.1577 72.8287 49.8853 75.6206C49.6202 76.2023 49.3025 76.8036 49.4872 77.4482C50.0101 77.918 50.672 77.6503 51.2422 77.8471C54.9415 79.1231 55.3867 75.9371 59.7723 78.0608C59.8057 78.561 59.8431 78.3596 59.6064 78.8245C59.7637 79.2254 59.5029 79.6879 59.3504 80.2007L59.2281 80.1716C58.8352 80.327 58.7374 80.2789 58.59 80.5591C58.9383 80.7101 59.031 80.7325 59.4036 80.8164L59.2749 80.8904C58.4638 81.1567 57.5916 82.1136 56.9993 82.089C56.9777 81.884 56.9755 81.8002 56.9807 81.5937L56.4795 81.6553C54.6235 81.6266 53.6519 81.9073 51.9944 82.0003L52.1045 82.3118C51.8877 82.7207 52.0464 82.5816 51.612 82.7428L51.4795 82.722C51.2906 82.3134 51.0625 81.9199 50.8181 81.5424C49.6244 79.6992 48.6685 77.7902 47.6765 75.8377C47.5162 75.0859 46.1048 71.6281 45.7162 70.3632C43.7499 63.9624 42.6651 53.8888 44.1515 47.3513C44.9777 46.184 45.387 44.733 46.8472 44.3291Z" fill="#4B602D"/>
<path d="M50.7684 79.9824C50.3569 79.495 49.8798 79.1348 50.1409 78.4967C50.9144 78.0762 52.555 78.6873 53.3829 78.9252L54.9116 78.3096C55.1337 78.528 55.713 79.0515 55.824 79.2957C56.3615 80.105 57.1829 80.4302 56.4794 81.6557C54.6235 81.627 53.6519 81.9077 51.9944 82.0007C51.8337 81.6483 51.5079 81.1156 51.3073 80.7624L50.7684 79.9824Z" fill="url(#paint3_linear_138_941)"/>
<path d="M50.7695 79.9814C51.8946 79.8611 51.9341 79.948 52.8144 80.7556C52.4941 80.8698 51.7586 80.7477 51.3085 80.7614L50.7695 79.9814Z" fill="#AE8851"/>
<path d="M55.279 78.1031C56.7419 77.6204 56.706 78.5333 58.1069 78.1938L58.2355 78.8808C58.5296 79.2159 59.0272 80.0017 59.2286 80.1708C58.8357 80.3262 58.7378 80.2781 58.5905 80.5583C58.9388 80.7093 59.0314 80.7317 59.4041 80.8156L59.2753 80.8896C58.4642 81.1559 57.592 82.1128 56.9997 82.0882C56.9781 81.8832 56.9759 81.7994 56.9811 81.5929L56.4799 81.6545C57.1834 80.429 56.362 80.1038 55.8245 79.2945C55.7134 79.0503 55.1342 78.5268 54.9121 78.3084C55.1441 78.3185 55.0259 78.3318 55.279 78.1031Z" fill="#AE8851"/>
<path d="M58.2353 78.8809C58.5294 79.216 59.027 80.0018 59.2283 80.1709C58.8354 80.3262 58.7376 80.2782 58.5902 80.5583C58.9385 80.7094 59.0312 80.7318 59.4038 80.8156L59.2751 80.8897C58.464 81.1559 57.5917 82.1128 56.9995 82.0882C56.9778 81.8832 56.9757 81.7994 56.9809 81.5929C57.1463 81.0819 57.3229 80.7963 57.7414 80.4686C58.0323 80.4055 58.0912 80.4082 58.3597 80.2661L58.4702 79.7633C58.3203 79.3803 58.3055 79.2898 58.2353 78.8809Z" fill="#4F452E"/>
<path d="M55.279 78.1035C56.0626 78.9625 56.6827 78.5667 57.5206 79.1666C57.016 79.3825 56.3542 79.4446 55.8245 79.2949C55.7134 79.0507 55.1342 78.5271 54.9121 78.3087C55.1441 78.3189 55.0259 78.3322 55.279 78.1035Z" fill="#4E522B"/>
<path d="M58.1055 78.1942C58.7775 78.1619 59.0687 78.4105 59.6054 78.8241C59.7626 79.225 59.5019 79.6875 59.3493 80.2003L59.2271 80.1712C59.0258 80.0021 58.5282 79.2163 58.234 78.8812L58.1055 78.1942Z" fill="#AE8851"/>
<path d="M65.3379 68.68C65.6318 68.6214 65.9319 68.6012 66.2309 68.6202C66.7026 68.6453 66.9447 68.7784 67.2491 69.1186C66.5258 69.1419 65.7763 69.3074 65.3379 68.68Z" fill="#8CB23C"/>
<path d="M43.7132 45.6416C43.9924 45.0955 43.9333 43.9583 44.1491 43.1611C44.3002 43.4868 44.2735 43.894 44.2841 44.2624C44.3654 44.4855 44.4894 44.8587 44.5817 45.0621C44.3564 45.7821 44.1493 46.5916 44.1511 47.3518C42.6647 53.8892 43.7495 63.9628 45.7158 70.3637C46.1044 71.6286 47.5158 75.0863 47.6761 75.8382C48.6681 77.7906 49.624 79.6997 50.8177 81.5428C51.0621 81.9204 51.2902 82.3138 51.4791 82.7224C50.8814 82.8446 50.7162 82.8558 50.1144 82.8709C49.1284 81.6102 49.3932 81.2607 47.668 81.3087L47.5508 80.9319C47.1541 79.8393 46.8876 78.4751 45.6999 78.0946L45.4114 77.447L46.0083 77.6452C46.4521 77.7892 47.0967 79.209 47.9616 79.3637C48.1956 79.7777 48.212 79.8606 48.5822 80.1336L48.675 79.9916C48.2808 78.6476 47.4817 77.4645 47.0808 76.1229C43.9777 68.3195 42.265 59.1874 42.9829 50.8231C43.1105 49.3356 43.3111 47.0624 43.7132 45.6416Z" fill="#8CB23C"/>
<path d="M47.0816 76.1217C47.2 74.9992 45.6974 72.4279 45.7382 71.2676C46.4018 72.8656 46.7094 74.3566 47.6016 76.045L47.6769 75.837C48.6689 77.7895 49.6247 79.6985 50.8184 81.5417C51.0629 81.9192 51.2909 82.3127 51.4798 82.7213C50.8821 82.8434 50.7169 82.8546 50.1151 82.8698C49.1291 81.6091 49.394 81.2595 47.6687 81.3076L47.5516 80.9307C47.1549 79.8382 46.8884 78.4739 45.7006 78.0935L45.4121 77.4459L46.009 77.644C46.4529 77.788 47.0975 79.2079 47.9623 79.3625C48.1963 79.7766 48.2128 79.8595 48.5829 80.1325L48.6757 79.9905C48.2816 78.6465 47.4824 77.4634 47.0816 76.1217Z" fill="#91B640"/>
<path d="M41.8416 51.0797C42.1743 50.6123 42.2303 50.5177 42.4336 49.9824C41.949 58.6002 42.2339 66.7638 45.1608 75.0118C45.4798 75.9114 47.9439 79.2655 47.9629 79.3623C47.098 79.2077 46.4534 77.7878 46.0096 77.6438L45.4126 77.4456C42.0858 68.16 41.3069 60.7918 41.8416 51.0797Z" fill="#8CB23C"/>
<path d="M23.0527 31.1545L23.1791 30.5907C23.5085 30.4848 23.3664 30.4617 23.6251 30.5875L23.3963 30.696C24.3611 30.7845 27.0313 32.2711 27.9345 32.0599C33.3435 34.0526 38.0826 36.3308 41.088 41.6004C41.2332 41.8549 41.2453 41.9377 41.1861 42.1956L40.7455 42.0596L40.6561 42.146C38.9755 41.4819 37.7139 41.7959 36.0015 41.5811C29.5666 40.774 25.5304 36.8373 23.0527 31.1545Z" fill="url(#paint4_linear_138_941)"/>
<path d="M23.0548 31.1548C22.8963 30.7081 22.7912 30.6779 22.9171 30.3435C29.8899 28.4782 40.0862 30.5126 42.1408 38.5115C42.3904 39.483 42.4144 40.302 42.5547 41.2728C42.3113 41.4208 42.2333 41.5079 41.9651 41.5519C40.8013 37.9775 31.6175 32.0598 27.9366 32.0602C27.0335 32.2714 24.3632 30.7848 23.3985 30.6963L23.6272 30.5878C23.3685 30.462 23.5106 30.4851 23.1812 30.591L23.0548 31.1548Z" fill="url(#paint5_linear_138_941)"/>
<path d="M47.6789 32.0536C49.2812 29.9848 54.2067 29.4698 56.5545 28.784C57.3845 28.5416 58.415 27.7863 59.3427 27.4688C59.2645 27.7081 59.2271 27.8689 59.1067 28.0913C57.5418 31.0372 54.4071 34.0429 51.1872 35.0207C50.9895 35.0828 50.7894 35.1379 50.5879 35.186C49.8056 34.546 49.4446 34.7293 48.5046 34.4634L48.4008 34.4332L48.481 34.2448C48.3353 34.3174 48.1881 34.3868 48.0393 34.4529C47.1477 34.8455 46.3381 34.9112 46.0156 33.8698C46.5192 32.9472 46.8316 32.6685 47.6789 32.0536Z" fill="#91B640"/>
<path d="M47.6798 32.0536C49.282 29.9848 54.2075 29.4698 56.5553 28.784C57.3854 28.5416 58.4158 27.7863 59.3435 27.4688C59.2653 27.7081 59.228 27.8689 59.1075 28.0913C58.1396 28.85 57.1481 28.9114 56.1622 29.707C55.8802 29.9344 55.487 30.3342 55.2006 30.4991C53.6713 31.0219 52.9479 31.3958 51.5688 32.2931C50.4842 32.9492 48.4062 34.6238 47.2921 33.5688L47.1233 33.6095L47.0913 33.821L47.8134 34.2576C47.6 34.7203 46.7856 34.4694 46.4294 34.2831C46.2925 33.4601 47.2401 32.8611 47.6798 32.0536Z" fill="#8CB23C"/>
<path d="M51.5684 32.2921C52.9475 31.3948 53.6708 31.0208 55.2001 30.498C54.1393 31.4889 53.1055 32.3123 51.5684 32.2921Z" fill="#8CB23C"/>
<path d="M27.9355 32.0605C31.6164 32.0602 40.8002 37.9778 41.9641 41.5523C41.9778 41.101 42.7555 44.6254 42.6905 44.4193L42.8075 44.3183C42.8661 43.4055 43.5822 40.6104 43.8551 39.6297C43.8356 40.147 43.7834 40.4173 43.9733 40.8998C44.1351 40.7258 44.879 38.5794 45.0496 38.1384L45.5149 38.1283C45.1378 39.3576 44.8505 40.6127 44.6553 41.8838C44.5526 42.5408 44.4417 43.6915 44.2835 44.262C44.2729 43.8936 44.2996 43.4865 44.1485 43.1608C43.9327 43.958 43.9918 45.0951 43.7126 45.6412C43.741 44.8838 43.8681 44.1487 43.6568 43.4606L43.512 43.4559C43.04 44.4114 42.2541 49.1082 42.4317 49.9834C42.2284 50.5187 42.1724 50.6133 41.8397 51.0807C41.8068 48.8851 42.5996 46.7453 42.2896 44.6186C42.1179 43.4417 41.4919 42.8311 40.6572 42.1466L40.7466 42.0603L41.1871 42.1963C41.2464 41.9383 41.2343 41.8556 41.0891 41.6011C38.0837 36.3314 33.3446 34.0533 27.9355 32.0605Z" fill="#6E9230"/>
<path d="M38.7486 26.4514C38.6457 25.4652 38.4601 23.9744 38.7549 23.0498C39.4494 25.2586 41.0273 26.5018 42.5301 28.2194L42.9871 28.0492L43.2909 28.0846C43.4877 28.4103 43.5194 28.4268 43.8135 28.6775C44.0583 29.2146 44.124 29.4122 44.541 29.8553C45.2312 30.9815 45.5109 31.4797 46.0649 32.6866L45.5371 32.8553C45.3455 32.6165 44.9873 32.0439 44.8006 31.7658C44.7587 32.7901 45.1957 33.5994 45.02 34.0342C44.0448 33.5266 43.6403 32.9258 43.2016 31.9673C43.2028 31.5906 42.6788 30.2495 42.3847 29.9458C42.2321 29.7883 41.9418 29.8938 41.7199 29.9227C40.7795 28.8609 39.9567 26.9393 38.9171 25.9076C38.8373 26.1143 38.8053 26.2397 38.7486 26.4514Z" fill="#91B640"/>
<path d="M42.9863 28.0488L43.2902 28.0842C43.487 28.4099 43.5186 28.4264 43.8127 28.6771C44.0576 29.2142 44.1233 29.4118 44.5402 29.8549C45.2305 30.9811 45.5101 31.4793 46.0641 32.6862L45.5363 32.8549C45.3448 32.6161 44.9865 32.0435 44.7998 31.7655C44.0249 30.1947 43.572 29.5695 42.5293 28.219L42.9863 28.0488Z" fill="#4E522B"/>
<path d="M38.748 26.451C38.8047 26.2393 38.8367 26.1139 38.9165 25.9072C39.9562 26.9389 40.779 28.8604 41.7193 29.9223C41.9412 29.8934 42.2316 29.7879 42.3841 29.9454C42.6783 30.2491 43.2023 31.5902 43.201 31.9668L43.1356 32.6244L42.9419 32.7145C42.4287 32.4484 42.5183 32.3838 42.0898 32.4826L41.8147 32.8656C40.3003 31.275 39.2271 28.581 38.748 26.451Z" fill="#8CB23C"/>
<path d="M44.7998 31.7656C44.9865 32.0436 45.3447 32.6163 45.5363 32.8551L46.0146 33.8689C46.3371 34.9103 47.1467 34.8446 48.0383 34.452C48.1871 34.3859 48.3343 34.3165 48.48 34.2439L48.3998 34.4323L48.5036 34.4625C49.4436 34.7284 49.8046 34.5451 50.5869 35.1851C49.6547 35.3231 48.9375 35.4026 48.0002 35.479C47.714 35.5285 46.5987 35.3894 46.2389 35.3536C45.4386 34.6657 45.3169 34.6432 44.317 34.4777C43.358 34.2024 42.5683 33.496 41.8145 32.8658L42.0896 32.4828C42.5181 32.384 42.4285 32.4487 42.9417 32.7147L43.1354 32.6246L43.2008 31.9671C43.6395 32.9256 44.044 33.5264 45.0192 34.034C45.1949 33.5992 44.7579 32.7899 44.7998 31.7656Z" fill="#6E9230"/>
<path d="M36.3713 74.841L37.0786 74.3594L37.225 74.492C38.4398 75.4236 39.3686 75.8835 40.8564 76.2874C40.5065 76.4874 39.9123 76.9473 39.543 76.7728C38.4828 76.2715 38.479 75.9814 37.3145 76.6117C36.839 76.781 36.6142 76.676 36.1875 76.474C36.3307 76.0331 36.35 75.3183 36.3713 74.841Z" fill="#FEFDFE"/>
<path d="M36.3713 74.841L37.0786 74.3594L37.225 74.492L37.3145 76.6117C36.839 76.781 36.6142 76.676 36.1875 76.474C36.3307 76.0331 36.35 75.3183 36.3713 74.841Z" fill="#5A7430"/>
<path d="M44.8228 36.7276C44.7455 36.3233 44.6635 35.9199 44.5772 35.5176C44.9818 35.8776 46.3351 36.0015 46.9234 36.055C46.0776 36.8426 45.7582 37.0189 45.5154 38.1274L45.0501 38.1375C44.8795 38.5785 44.1356 40.7249 43.9738 40.8989C43.7838 40.4164 43.836 40.1461 43.8555 39.6287C44.2369 38.7963 44.3445 37.7441 44.8228 36.7276Z" fill="#8CB23C"/>
<path d="M42.2793 76.3747C42.8598 76.3875 43.9152 76.2739 44.2956 76.3998C44.5585 76.6848 44.5352 76.7954 44.591 77.2029C43.6765 77.0698 43.0591 76.8593 42.2793 76.3747Z" fill="#FEFDFE"/>
<path d="M36.209 72.6344C39.0927 72.2408 40.2916 71.9104 42.9803 73.1651C43.5848 73.5044 43.6502 73.9405 43.8344 74.6017L43.8757 74.7523C44.0263 75.293 44.1019 75.216 43.9347 75.6243C42.8924 76.1453 40.7327 75.7018 39.6925 75.2383C38.2213 74.8005 37.1863 73.758 36.209 72.6344Z" fill="#8CB23C"/>
<path d="M42.9812 73.1641C43.5857 73.5033 43.651 73.9394 43.8352 74.6006L43.8765 74.7512C44.0271 75.2919 44.1028 75.215 43.9356 75.6232C42.8932 76.1442 40.7336 75.7007 39.6934 75.2372C41.5073 75.4306 42.2611 75.4836 44.0732 75.4749C43.3365 75.1842 41.3175 74.4244 40.8121 73.9074C41.1158 73.7649 41.2604 73.885 41.6568 73.9909C42.1392 73.7503 42.5354 73.4647 42.9812 73.1641Z" fill="#6E9230"/>
<path d="M42.9826 73.1641C43.5871 73.5033 43.6525 73.9394 43.8366 74.6006L43.878 74.7512C43.3526 74.6578 42.1708 74.1869 41.6582 73.9909C42.1407 73.7503 42.5368 73.4647 42.9826 73.1641Z" fill="#8CB23C"/>
<path d="M67.795 66.7322L67.8628 66.1375L67.9598 66.1064C68.2501 66.493 68.4166 66.7837 68.8294 67.0317L69.0184 67.8757L69.1463 67.8963C69.2474 67.5876 69.3413 67.2971 69.4296 66.9842C69.6609 68.106 70.053 68.2775 70.5586 69.2564L70.8536 69.4033C76.2473 69.7355 81.414 75.7711 81.0204 81.2358C81.0135 81.3305 81.0059 81.4251 80.9974 81.5198C81.2748 81.7727 81.7569 81.9763 81.8972 82.1257C82.7413 83.0257 82.9397 83.123 83.9893 83.6402L84.0604 83.7717C84.9903 83.8848 85.788 84.2029 86.648 84.5716C88.5497 85.1513 89.2502 85.4181 90.2812 87.0967C88.593 87.9615 87.0902 88.7847 85.2644 89.3505C78.0383 91.5898 70.5335 92.1783 63.0167 92.5342C58.6995 92.7387 53.6698 93.059 49.3911 92.8789C48.5241 93.0879 47.7518 92.9883 46.8852 92.8588C43.3978 93.0353 39.1085 92.2144 35.5372 92.2049C34.1149 92.2715 32.3191 91.5442 30.9414 91.6405C27.2687 91.8972 6.37658 88.7027 5 85.8C5.11104 83.8834 10.5348 82.8027 12.1431 82.5442L13.3772 82.2613C13.7622 82.1425 14.3761 81.6457 14.7525 81.3948C16.5859 80.1729 17.7047 80.1409 19.8466 80.179C20.1323 78.7664 20.9782 78.3993 22.2569 78.1395C22.988 75.977 24.6345 75.394 26.7077 74.8763C27.4272 74.6967 29.5257 73.9266 30.0087 74.4691C29.5049 75.3848 29.6235 76.085 29.6277 77.1456C30.0098 77.728 30.6728 76.7903 31.3347 76.6138C32.3449 76.3446 33.2515 76.4913 34.2681 76.6049C34.5185 76.9859 34.5387 77 34.5656 77.442C34.8123 77.9072 35.0957 78.404 35.2866 78.8903C35.9088 78.9288 35.8335 78.9147 36.2358 78.5924L36.256 78.4555C36.2752 77.9486 36.3427 77.6556 36.0684 77.2025C35.9529 77.0128 35.834 76.8251 35.7122 76.6394L36.187 76.4738C36.6137 76.6757 36.8385 76.7807 37.3141 76.6114C38.4785 75.9811 38.4823 76.2713 39.5426 76.7726C39.9118 76.9471 40.506 76.4871 40.8559 76.2872C41.435 76.1959 41.5489 76.1705 42.1464 76.2666L42.2802 76.374C43.06 76.8587 43.6773 77.0692 44.5919 77.2023C44.5579 77.3645 44.5039 77.5632 44.5032 77.7228L44.9597 78.0647C45.2195 78.0777 45.4542 78.0631 45.685 78.1733L45.6996 78.0936C46.8873 78.4741 47.1538 79.8383 47.5505 80.9309L47.6677 81.3077C49.3929 81.2597 49.1281 81.6092 50.1141 82.8699C50.7159 82.8548 50.8811 82.8436 51.4788 82.7214L51.6113 82.7422C52.0457 82.5811 51.887 82.7202 52.1038 82.3112L51.9937 81.9998C53.6512 81.9067 54.6228 81.626 56.4788 81.6547L56.98 81.5931C56.9748 81.7996 56.977 81.8834 56.9986 82.0885C57.5909 82.113 58.4631 81.1561 59.2742 80.8899L59.4029 80.8158L59.9999 80.7426L62.3256 80.6651C62.5902 80.1841 62.5394 80.3176 63.1263 80.0417L63.0714 79.78L62.6239 79.8436L62.3591 79.4922L62.3025 79.3784C62.542 79.2409 62.6171 79.2483 62.8856 79.2158L62.9735 79.2059L62.7455 79.0204C62.0577 79.0213 61.9591 78.9672 61.343 78.6959C60.6636 78.4706 60.7766 78.8005 60.2257 78.2835C61.5352 74.5927 62.4927 72.2607 66.1226 69.956C66.6493 69.7819 67.055 69.708 67.5969 69.6012L68.2148 69.3828C68.2001 69.1449 68.1947 69.2394 67.9757 68.9851L68.2326 68.5342C68.2113 68.1122 67.9215 67.1844 67.795 66.7322Z" fill="#E9C28C"/>
<path d="M80.9081 81.5146L80.9974 81.5201C81.2748 81.773 81.7569 81.9766 81.8972 82.126C82.7413 83.0259 82.9397 83.1233 83.9893 83.6405L84.0604 83.772C84.9903 83.8851 85.788 84.2032 86.648 84.5719C88.5497 85.1516 89.2502 85.4184 90.2812 87.097C88.593 87.9618 87.0902 88.785 85.2644 89.3507C78.0383 91.59 70.5335 92.1786 63.0167 92.5345C58.6995 92.739 53.6698 93.0593 49.3911 92.8792C48.5241 93.0882 47.7518 92.9886 46.8852 92.8591C43.3978 93.0356 39.1085 92.2147 35.5372 92.2052C34.1149 92.2718 32.3191 91.5445 30.9414 91.6408C27.2687 91.8975 6.37658 88.703 5 85.8003C5.11104 83.8837 10.5348 82.803 12.1431 82.5445C11.9015 82.8791 11.1271 83.8524 11.0769 84.1837C12.2969 84.3734 17.9966 83.6427 17.7263 85.2994C16.912 86.3005 15.8669 86.3488 14.5873 86.7516C15.0394 86.7474 15.8917 86.6961 16.2815 86.8389L16.4274 87.0542C17.9551 87.1163 22.5776 87.4541 23.835 88.1384C27.2022 89.9713 29.7178 89.7064 33.4442 89.9919C34.2096 90.0504 35.4339 90.2144 36.2228 90.1985C37.7639 89.7446 39.8397 88.626 41.3657 88.2714C42.1045 88.0703 42.919 89.0785 43.8184 89.2445C45.2948 89.5171 46.8927 88.167 48.1855 88.5389C49.3713 88.9602 49.8494 90.4364 51.2094 90.5636C54.6328 90.8841 58.0116 90.4774 61.364 89.7783C62.1718 89.6098 64.0379 90.1012 64.689 89.6181L64.4398 89.238L64.4933 89.0276C65.1942 88.7393 66.7019 88.6713 67.4904 88.5154C68.1653 88.3819 68.7012 88.2246 69.3606 88.0302C70.5967 86.7814 74.2108 86.3835 75.9804 86.2427C77.9167 85.5333 78.2443 86.1396 78.9504 85.8368C79.3235 85.4172 79.9007 84.9665 80.3434 84.5974L80.907 84.4749C81.3278 84.179 81.559 83.9577 81.4566 83.4438L81.1072 83.335C81.4692 83.199 81.5303 83.1379 81.848 82.906C81.5198 82.6536 80.9196 82.4141 80.5253 82.2353C80.797 82.0183 80.8075 81.8501 80.9081 81.5146Z" fill="#F4DDBF"/>
<path d="M75.9812 86.2428C77.9175 85.5334 78.245 86.1397 78.9512 85.8369L79.4414 86.3575C78.6159 86.3955 78.397 86.4161 77.6069 86.6348L77.5423 86.8471C76.3869 86.2643 73.5696 87.2801 72.2808 87.462C71.4053 87.5856 70.4423 87.673 69.6121 87.9456C69.5284 87.9731 69.4447 88.0014 69.3613 88.0303C70.5974 86.7815 74.2115 86.3836 75.9812 86.2428Z" fill="#E9C28B"/>
<path d="M80.9082 81.5146L80.9976 81.5201C81.2749 81.773 81.757 81.9766 81.8973 82.126C82.7414 83.0259 82.9398 83.1233 83.9894 83.6405L84.0606 83.772C84.476 84.4796 84.7369 84.4823 85.5577 84.762C84.1409 84.8405 82.7065 84.3105 80.9071 84.4749C81.328 84.179 81.5591 83.9577 81.4567 83.4438L81.1073 83.335C81.4693 83.199 81.5304 83.1379 81.8482 82.906C81.5199 82.6536 80.9197 82.4141 80.5254 82.2353C80.7971 82.0183 80.8076 81.8501 80.9082 81.5146Z" fill="#E9C28C"/>
<path d="M80.9082 81.5146L80.9976 81.5201C81.2749 81.773 81.757 81.9766 81.8973 82.126C82.7414 83.0259 82.9398 83.1233 83.9894 83.6405L83.8542 83.8481C83.0343 84.134 82.262 83.5863 81.8482 82.906C81.5199 82.6536 80.9197 82.4141 80.5254 82.2353C80.7971 82.0183 80.8076 81.8501 80.9082 81.5146Z" fill="#634F3A"/>
<path d="M84.0605 83.7715C84.9904 83.8846 85.7881 84.2027 86.6481 84.5714L86.9127 85.1399L86.8025 85.3198C86.0913 85.1292 86.0082 84.9312 85.5577 84.7614C84.7369 84.4818 84.476 84.4791 84.0605 83.7715Z" fill="#634F3A"/>
<path d="M79.4401 86.3574C79.928 86.5914 79.9208 86.485 80.0744 86.8582C79.6183 87.2285 78.0737 87.065 77.541 86.847L77.6057 86.6347C78.3958 86.416 78.6146 86.3954 79.4401 86.3574Z" fill="#9E7754"/>
<path d="M14.5874 86.7516C15.0395 86.7474 15.8918 86.6961 16.2816 86.8389L16.4275 87.0542C15.8228 87.4052 14.9041 87.328 14.2767 87.0619L14.2754 86.8636L14.5874 86.7516Z" fill="#9E7754"/>
<path d="M46.8848 92.8592C47.6736 92.3807 48.6158 92.342 49.3907 92.8793C48.5237 93.0883 47.7514 92.9887 46.8848 92.8592Z" fill="#AE8851"/>
<path d="M67.7938 66.7322L67.8617 66.1375L67.9587 66.1064C68.249 66.493 68.4155 66.7837 68.8282 67.0317L69.0173 67.8757L69.1451 67.8963C69.2462 67.5876 69.3401 67.2971 69.4284 66.9842C69.6597 68.106 70.0519 68.2775 70.5575 69.2564L70.8525 69.4033C76.2461 69.7355 81.4128 75.7711 81.0192 81.2358C81.0124 81.3305 81.0048 81.4251 80.9963 81.5198L80.9069 81.5144C80.8063 81.8498 80.7959 82.018 80.5241 82.235L79.7042 82.1493C78.9432 81.8191 78.0135 81.9965 77.2482 82.1584C76.9032 82.0283 77.0372 82.136 76.8375 81.8191C76.208 80.4534 75.2119 80.4106 73.8973 80.2072L73.1232 80.1537L72.9519 80.3403C73.0095 81.4112 73.2054 81.884 72.2646 82.565L72.0519 82.2472C72.3165 81.9694 72.3058 81.9779 72.4667 81.6265C72.5095 81.1211 72.2749 80.8292 72.0198 80.3945C71.3909 79.2521 70.6288 78.9494 69.4145 78.5805C68.9001 78.3435 68.3758 78.2571 67.8222 78.1381C68.3445 77.6232 68.6347 77.7206 69.4024 77.694C68.6966 77.5999 68.2228 77.5446 67.5398 77.3517L67.5275 77.3194C65.4666 77.5082 64.5391 77.6489 62.8133 78.8485L62.7443 79.0204C62.0566 79.0213 61.958 78.9672 61.3419 78.6959C60.6625 78.4706 60.7755 78.8005 60.2246 78.2835C61.534 74.5927 62.4915 72.2607 66.1215 69.956C66.6482 69.7819 67.0539 69.708 67.5958 69.6012L68.2136 69.3828C68.199 69.1449 68.1936 69.2394 67.9746 68.9851L68.2315 68.5342C68.2102 68.1122 67.9204 67.1844 67.7938 66.7322Z" fill="url(#paint6_linear_138_941)"/>
<path d="M67.5958 69.6016C68.6787 69.816 68.9575 69.9806 69.8098 70.691C69.8594 70.9613 72.2757 74.8906 72.5344 75.0705C72.6682 75.1635 72.8125 75.2387 72.9587 75.3098C73.1122 76.0398 73.3251 76.9526 73.3003 77.6873C73.1144 78.1021 73.1458 78.2947 73.19 78.743C73.0744 78.6019 72.9535 78.4791 72.815 78.3604C71.7421 78.1395 70.4668 77.847 69.4024 77.6944C68.6966 77.6003 68.2228 77.545 67.5398 77.352L67.5275 77.3197C65.4666 77.5085 64.5391 77.6492 62.8133 78.8489L62.7443 79.0207C62.0566 79.0216 61.958 78.9676 61.3419 78.6962C60.6625 78.471 60.7755 78.8008 60.2246 78.2838C61.534 74.593 62.4915 72.2611 66.1215 69.9564C66.6482 69.7822 67.0539 69.7083 67.5958 69.6016Z" fill="#ACCC4F"/>
<path d="M67.7938 66.7322L67.8617 66.1375L67.9586 66.1064C68.249 66.493 68.4154 66.7837 68.8282 67.0317L69.0172 67.8757L69.1451 67.8963C69.2462 67.5876 69.3401 67.2971 69.4284 66.9842C69.6597 68.106 70.0518 68.2775 70.5574 69.2564L70.8524 69.4033C76.2461 69.7355 81.4128 75.7711 81.0192 81.2358C81.0123 81.3305 81.0047 81.4251 80.9962 81.5198L80.9069 81.5144C80.6822 81.5754 80.5609 81.5266 80.3164 81.4927C80.3294 81.1531 80.3302 80.8131 80.3186 80.4735C80.1962 77.1301 78.9944 75.0537 76.5745 72.8155C75.993 72.3324 75.4549 72.0056 74.8215 71.6052L73.6072 71.543C73.0989 71.5137 72.7247 71.4225 72.3276 71.6998C72.2395 71.9 72.1718 72.0275 72.1245 72.2408C72.8781 73.457 74.2013 76.9733 73.6834 78.3357L73.5193 78.3651C73.414 78.0965 73.3655 77.9767 73.3003 77.687C73.325 76.9523 73.1121 76.0395 72.9587 75.3095C72.8124 75.2383 72.6681 75.1632 72.5343 75.0701C72.2756 74.8902 69.8594 70.961 69.8097 70.6907C68.9575 69.9802 68.6787 69.8157 67.5957 69.6012L68.2136 69.3828C68.1989 69.1449 68.1935 69.2394 67.9745 68.9851L68.2315 68.5342C68.2101 68.1122 67.9203 67.1844 67.7938 66.7322Z" fill="#4B602D"/>
<path d="M69.6797 69.7295C72.1669 70.1737 72.7192 70.2368 74.8242 71.605L73.6099 71.5428C73.1016 71.5136 72.7273 71.4223 72.3303 71.6996C72.2422 71.8998 72.1745 72.0273 72.1272 72.2407C71.2874 71.2831 70.6717 70.5336 69.6797 69.7295Z" fill="#91B640"/>
<path d="M69.8125 70.6914C71.3974 71.9787 72.41 73.3099 72.9614 75.3102C72.8152 75.239 72.6709 75.1639 72.5371 75.0708C72.2784 74.8909 69.8622 70.9617 69.8125 70.6914Z" fill="#91B640"/>
<path d="M69.4045 77.6943C70.4689 77.847 71.7441 78.1395 72.817 78.3604C72.8226 79.0067 72.7027 79.0902 73.0478 79.4739C74.7073 80.0798 76.3583 79.3052 77.3778 81.3718C78.2311 81.3947 79.5486 81.502 80.3185 81.493C80.563 81.5269 80.6843 81.5757 80.909 81.5147C80.8084 81.8501 80.7979 82.0183 80.5262 82.2353L79.7063 82.1496C78.9452 81.8194 78.0155 81.9968 77.2503 82.1587C76.9053 82.0286 77.0392 82.1363 76.8395 81.8194C76.2101 80.4537 75.214 80.4109 73.8993 80.2075L73.1252 80.154L72.9539 80.3406C73.0115 81.4115 73.2074 81.8843 72.2667 82.5653L72.054 82.2475C72.3185 81.9697 72.3079 81.9782 72.4687 81.6268C72.5115 81.1214 72.277 80.8295 72.0218 80.3948C71.393 79.2524 70.6308 78.9497 69.4166 78.5808C68.9022 78.3438 68.3778 78.2574 67.8242 78.1384C68.3466 77.6235 68.6367 77.7209 69.4045 77.6943Z" fill="#4E522B"/>
<path d="M73.608 71.5439L74.8223 71.6061C75.4557 72.0066 75.9938 72.3334 76.5753 72.8164C76.5398 73.2453 76.5589 73.4836 76.3366 73.8541C75.8006 73.7919 73.4833 72.4152 73.3359 71.835L73.608 71.5439Z" fill="#ACCC4F"/>
<path d="M22.2573 78.1402C22.9884 75.9777 24.6349 75.3947 26.7081 74.877C27.4276 74.6974 29.5261 73.9273 30.0091 74.4698C29.5053 75.3855 29.624 76.0857 29.6281 77.1463C30.0102 77.7287 30.6732 76.7909 31.3351 76.6145C32.3453 76.3453 33.2519 76.492 34.2685 76.6056C34.5189 76.9866 34.5391 77.0007 34.566 77.4427C34.8127 77.9079 35.0962 78.4047 35.287 78.891C35.9092 78.9294 35.8339 78.9154 36.2362 78.5931L36.2564 78.4561L36.4579 77.9176C36.6206 78.1366 36.641 78.3537 36.7015 78.6227C36.9333 78.523 36.9581 78.542 37.0937 78.3376C37.1296 78.958 37.1574 79.5783 37.23 80.1952C37.2394 80.4888 37.289 80.4005 37.1755 80.6102L35.473 80.507C34.1002 80.5327 31.8712 80.7755 30.5979 81.2441C30.175 81.5201 29.8748 81.6567 29.624 82.0899C29.5028 83.7343 32.6077 83.6682 33.7131 83.6653C34.6072 83.6629 37.9423 82.6911 38.4426 82.9691C36.682 83.9527 35.6591 83.771 33.8185 84.0806C31.6973 84.2293 29.9428 83.5739 28.3331 82.2501C27.6548 82.3632 27.0048 82.5984 26.3176 82.7333L26.2287 82.8321C24.781 82.878 23.904 83.5699 22.816 82.8928C22.3967 82.5872 20.8148 82.066 20.2069 81.8104L20.115 81.54L20.0682 80.8775L19.7129 80.6915L19.8471 80.1797C20.1327 78.767 20.9786 78.4 22.2573 78.1402Z" fill="#634F3A"/>
<path d="M22.2559 78.1402C22.9869 75.9777 24.6335 75.3947 26.7066 74.877C27.4262 74.6974 29.5246 73.9273 30.0076 74.4698C29.5039 75.3855 29.6225 76.0857 29.6266 77.1463L29.3645 77.4185C28.99 77.7822 28.8988 77.8428 28.7892 78.3452L28.5619 78.0174C26.7771 78.8151 25.1192 78.8097 23.2385 78.444L22.8885 78.0685L22.2559 78.1402Z" fill="#8CB23C"/>
<path d="M23.2402 78.4429C25.4302 77.923 26.1705 76.6753 28.207 76.2021L28.3253 76.5042L28.8112 76.3967C29.1237 76.6173 29.0288 76.4719 29.1053 76.8474C28.9179 77.4051 28.8591 77.5162 28.5637 78.0162C26.7788 78.8139 25.1209 78.8085 23.2402 78.4429Z" fill="#6E9230"/>
<path d="M22.2559 78.1402C22.9869 75.9777 24.6335 75.3947 26.7066 74.877C27.4262 74.6974 29.5246 73.9273 30.0076 74.4698C29.5039 75.3855 29.6225 76.0857 29.6266 77.1463L29.3645 77.4185C28.99 77.7822 28.8988 77.8428 28.7892 78.3452L28.5619 78.0174C28.8573 77.5173 28.9161 77.4062 29.1036 76.8486C29.027 76.473 29.122 76.6184 28.8094 76.3979L28.3235 76.5053L28.2053 76.2033C28.6001 75.9146 28.7928 75.8301 28.9862 75.3824L28.8912 75.1292C27.9366 74.9187 25.1112 75.808 24.2332 76.3912C23.4537 76.9089 23.2572 77.2323 22.8885 78.0685L22.2559 78.1402Z" fill="#4B602D"/>
<path d="M29.3659 77.418C29.5714 77.8109 29.5931 77.8271 29.5261 78.2464C29.3372 78.5177 29.1883 78.7358 28.9752 78.9878C28.784 79.4266 28.6141 79.581 28.7365 79.9434C27.3695 80.6443 26.3177 80.9987 24.7496 81C24.4188 81.0004 23.9315 80.9106 23.6684 80.9216C22.9991 81.8982 21.4378 80.9747 20.6059 80.6001L20.5126 80.4156L20.5223 80.8994L20.3338 80.985L20.0682 80.877L19.7129 80.6909L19.8471 80.1792C20.1327 78.7665 20.9786 78.3994 22.2573 78.1397L22.89 78.0679L23.2399 78.4435C25.1206 78.8091 26.7785 78.8146 28.5634 78.0168L28.7907 78.3447C28.9003 77.8423 28.9915 77.7816 29.3659 77.418Z" fill="#4E522B"/>
<path d="M20.5117 80.4157C20.5569 78.9017 22.7776 78.2959 23.7524 79.2772C23.7762 80.022 23.1975 80.0836 23.6675 80.9217C22.9982 81.8982 21.4369 80.9748 20.6051 80.6001L20.5117 80.4157Z" fill="#E9C28B"/>
<path d="M29.3665 77.418C29.572 77.8109 29.5936 77.8271 29.5266 78.2464C29.3378 78.5177 29.1888 78.7358 28.9757 78.9878C28.7511 79.1254 28.5178 79.2483 28.2773 79.3558C27.4022 79.748 24.891 80.4611 23.9582 80.1092L23.8672 79.8603C24.5596 78.9827 27.7342 79.52 28.7912 78.3447C28.9008 77.8423 28.992 77.7816 29.3665 77.418Z" fill="#6E9230"/>
<path d="M32.1175 79.5798C31.227 79.389 30.2477 79.3305 30.0684 78.2982C30.8312 76.7468 33.2202 77.0131 34.5659 77.4423C34.8125 77.9075 35.096 78.4043 35.2869 78.8906C35.9091 78.9291 35.8338 78.915 36.2361 78.5927L36.2563 78.4558L36.4578 77.9173C36.6205 78.1362 36.6409 78.3533 36.7014 78.6223C36.9332 78.5226 36.958 78.5416 37.0936 78.3373C37.1295 78.9576 37.1573 79.5779 37.2299 80.1949C37.2393 80.4884 37.2889 80.4001 37.1753 80.6098L35.4729 80.5066C34.7974 80.3513 32.5731 79.899 32.1175 79.5798Z" fill="#E9C28B"/>
<path d="M36.256 78.4555L36.4575 77.917C36.6202 78.1359 36.6406 78.3531 36.701 78.6221C36.9329 78.5223 36.9576 78.5413 37.0932 78.337C37.1291 78.9573 37.157 79.5777 37.2295 80.1946C37.2389 80.4881 37.2886 80.3998 37.175 80.6095L35.4725 80.5064C34.797 80.351 32.5727 79.8987 32.1172 79.5795C32.8421 79.597 33.9322 79.8754 34.522 79.485C34.4352 79.261 34.4119 79.2597 34.4386 79.0258C34.9344 78.9868 34.6896 79.1804 35.2694 79.5491L35.3627 79.1826L35.3093 79.5329L35.1883 79.4223L35.3667 79.1589L35.2865 78.8903C35.9087 78.9288 35.8335 78.9147 36.2357 78.5924L36.256 78.4555Z" fill="url(#paint7_linear_138_941)"/>
<path d="M28.736 79.9434C29.0932 81.522 27.9044 81.7973 26.6038 81.9386C25.0972 82.1023 21.4767 82.0952 20.6055 80.6C21.4373 80.9747 22.9986 81.8981 23.6679 80.9216C23.931 80.9106 24.4183 81.0003 24.7491 81C26.3173 80.9987 27.369 80.6443 28.736 79.9434Z" fill="#CA9B69"/>
<path d="M20.1152 81.5391C21.6951 81.5274 24.2229 83.0154 26.2156 82.3275C26.4416 82.2494 28.0196 82.0778 28.2918 82.1033L28.3334 82.2493C27.655 82.3623 27.005 82.5975 26.3178 82.7325L26.229 82.8313C24.7812 82.8772 23.9043 83.5691 22.8162 82.892C22.397 82.5863 20.8151 82.0652 20.2071 81.8096L20.1152 81.5391Z" fill="#CD9E68"/>
<path d="M29.207 79.1279C29.9944 79.2513 30.2628 79.5886 30.3846 80.3567L30.0203 80.8242L29.7583 81.119L29.5745 81.1024C29.254 80.6345 29.2352 79.7056 29.207 79.1279Z" fill="#9E7754"/>
<path d="M40.8567 76.2877C41.4357 76.1964 41.5496 76.171 42.1471 76.2671L42.2809 76.3745C43.0607 76.8592 43.6781 77.0697 44.5926 77.2028C44.5587 77.365 44.5047 77.5637 44.504 77.7232L44.9604 78.0652C45.2202 78.0782 45.455 78.0636 45.6857 78.1738L45.7003 78.0941C46.888 78.4746 47.1545 79.8388 47.5512 80.9314L47.6684 81.3082C49.3937 81.2601 49.1288 81.6097 50.1148 82.8704C50.7166 82.8553 50.8818 82.844 51.4795 82.7219L51.612 82.7427C52.0464 82.5816 51.8877 82.7207 52.1046 82.3117L51.9944 82.0002C53.652 81.9072 54.6235 81.6265 56.4795 81.6552L56.9807 81.5936C56.9755 81.8001 56.9777 81.8839 56.9993 82.0889C57.5916 82.1135 58.4639 81.1566 59.2749 80.8904L59.4037 80.8163L60.0006 80.7431L62.3264 80.6656L62.5461 80.8118C61.9167 80.978 61.108 81.1261 60.6248 81.5302C60.4435 81.9049 60.3828 82.4457 60.6252 82.8092C61.5442 83.2733 61.5168 83.401 62.2298 84.157C61.2586 83.9169 61.0041 83.9684 60.0246 84.1622L59.8928 84.03C58.3149 82.3298 55.8765 81.7396 53.6581 82.3491C52.7508 82.6278 50.0357 83.5583 50.1916 84.6691C50.685 85.1682 50.9755 85.1272 51.7196 85.3162C51.5273 85.4297 51.4412 85.4472 51.2334 85.5207C50.4978 85.4311 49.7981 85.1827 49.2687 84.6426L49.1335 84.5365C48.6245 83.7928 47.9149 83.4246 47.132 83.0256L46.1526 83.2339C45.6828 83.4519 45.1677 83.4091 44.6473 83.4106C43.6981 83.3878 43.4504 83.3311 42.5221 83.091C41.4893 82.4284 41.0096 82.8292 39.9833 81.8628L39.468 81.6267C38.5305 80.9079 38.3279 80.8815 37.1758 80.61C37.2894 80.4003 37.2397 80.4886 37.2303 80.195C37.1577 79.5781 37.1299 78.9578 37.094 78.3374C36.9584 78.5418 36.9337 78.5228 36.7018 78.6225C36.6413 78.3535 36.6209 78.1364 36.4582 77.9174L36.2567 78.456C36.2759 77.9491 36.3434 77.656 36.0691 77.203C35.9536 77.0133 35.8348 76.8256 35.7129 76.6399L36.1878 76.4743C36.6144 76.6762 36.8392 76.7812 37.3148 76.6119C38.4792 75.9816 38.483 76.2717 39.5433 76.773C39.9125 76.9475 40.5067 76.4876 40.8567 76.2877Z" fill="#4E522B"/>
<path d="M40.2123 79.2676L41.0284 79.3563C41.6445 80.7362 42.8413 80.2853 44.0896 81.1147L44.2225 81.1508C44.9123 81.3428 45.7784 81.9215 46.0693 81.8138L46.1388 81.6499C46.33 82.2237 46.4835 82.8153 47.1319 83.0257L46.1525 83.234C45.6827 83.4521 45.1676 83.4093 44.6472 83.4107C43.698 83.388 43.4503 83.3312 42.522 83.0912C41.4892 82.4285 41.0095 82.8294 39.9832 81.8629C40.2264 81.8526 40.4228 81.7706 40.6547 81.6947L40.6872 81.4637L40.3434 81.0744C39.8703 80.9209 39.8389 80.7249 39.6699 80.3105C39.8135 79.8964 39.9893 79.6399 40.2123 79.2676Z" fill="#634F3A"/>
<path d="M40.2123 79.2676L41.0284 79.3563C41.6445 80.7362 42.8413 80.2853 44.0896 81.1147C42.7551 80.9384 41.6795 81.0159 40.3434 81.0744C39.8703 80.9209 39.8389 80.7249 39.6699 80.3105C39.8135 79.8964 39.9893 79.6399 40.2123 79.2676Z" fill="#AE8851"/>
<path d="M41.1924 81.567C42.5892 81.4388 44.5687 81.3567 45.426 82.7304L45.2389 82.9596C44.3719 82.8633 41.3233 82.5611 40.9492 81.7898L41.1924 81.567Z" fill="#F4DDBF"/>
<path d="M42.1539 78.4336C42.6076 78.6977 42.7929 78.8635 43.157 79.2257C43.7803 79.2241 44.3095 77.9137 45.3429 79.0064L45.6479 79.7702L46.0335 81.0317L46.1377 81.6495L46.0682 81.8133C45.7773 81.921 44.9112 81.3424 44.2214 81.1503L44.0885 81.1142C42.8402 80.2849 41.6434 80.7358 41.0273 79.3558C41.8236 79.1426 41.8314 79.156 42.1539 78.4336Z" fill="#CA9B69"/>
<path d="M45.3422 79.0068L45.6472 79.7706L46.0329 81.0321C45.3554 81.0599 44.9089 81.1231 44.386 80.6993C44.0543 80.1552 43.8348 79.9276 43.9377 79.3618C44.341 79.0428 44.8083 79.0628 45.3422 79.0068Z" fill="#CD9E68"/>
<path d="M62.3267 80.666L62.5464 80.8122C61.917 80.9784 61.1082 81.1265 60.6251 81.5306C60.4438 81.9053 60.3831 82.4461 60.6254 82.8096C60.0753 82.7727 58.9645 82.2167 58.5176 81.8982C58.8632 81.5109 58.9943 81.3158 59.2752 80.8907L59.4039 80.8167L60.0009 80.7435L62.3267 80.666Z" fill="#CD9E68"/>
<path d="M37.2303 80.1949L37.5268 79.9951C38.193 80.1523 38.4951 80.1915 39.1793 80.2502L39.5619 80.3868L39.67 80.3102C39.839 80.7246 39.8704 80.9206 40.3435 81.0741L40.6873 81.4634L40.6548 81.6945C40.4229 81.7703 40.2265 81.8524 39.9833 81.8626L39.468 81.6265C38.5305 80.9077 38.3279 80.8814 37.1758 80.6099C37.2894 80.4001 37.2397 80.4885 37.2303 80.1949Z" fill="#4F452E"/>
<path d="M40.2113 79.2676C39.8739 78.8323 39.4878 78.521 39.847 78.0063C40.6398 77.7523 41.3951 78.1389 42.154 78.4341C41.8315 79.1565 41.8237 79.1431 41.0275 79.3563L40.2113 79.2676Z" fill="#CD9E68"/>
<path d="M47.668 81.308C49.3932 81.2599 49.1283 81.6095 50.1144 82.8702C49.2887 82.8939 48.7753 83.049 48.1923 82.4307C48.0791 82.1221 47.8184 81.6214 47.668 81.308Z" fill="#6E9230"/>
<path d="M37.5273 79.995C37.8536 79.4789 38.1221 78.9149 38.6537 78.6535L39.0005 78.625C39.4602 79.1073 39.2934 79.6522 39.1798 80.2501C38.4957 80.1914 38.1936 80.1522 37.5273 79.995Z" fill="#CA9B69"/>
<path d="M45.7002 78.0938C46.8879 78.4742 47.1544 79.8384 47.5511 80.931L46.7012 80.8042C46.5607 80.1876 45.954 78.7874 45.6855 78.1734L45.7002 78.0938Z" fill="#6E9230"/>
<path d="M46.7012 80.8047L47.5511 80.9315L47.6682 81.3083C47.8187 81.6218 48.0794 82.1225 48.1926 82.4311C47.5958 82.6522 47.7195 82.7112 47.2046 82.5635C46.8572 82.142 46.7985 81.3754 46.7012 80.8047Z" fill="#5A7430"/>
<path d="M44.9608 78.0646C43.662 78.1766 43.2681 78.4001 42.2031 77.8094C42.5182 77.6659 43.624 77.8679 44.3783 77.7443L44.5044 77.7227L44.9608 78.0646Z" fill="#F4DDBF"/>
<path d="M67.5288 77.3193L67.5411 77.3517C68.2242 77.5446 68.698 77.5999 69.4038 77.694C68.636 77.7205 68.3459 77.6232 67.8235 78.138C68.3771 78.2571 68.9014 78.3434 69.4159 78.5804C70.6301 78.9493 71.3922 79.2521 72.0211 80.3945C72.2763 80.8291 72.5108 81.1211 72.468 81.6265C72.3071 81.9779 72.3178 81.9694 72.0533 82.2472L72.266 82.565C73.2067 81.8839 73.0108 81.4112 72.9532 80.3403L73.1245 80.1537L73.8986 80.2072L73.4768 80.3878C73.4219 81.1891 73.8984 81.7067 73.1899 82.5565C72.5921 83.2738 71.7709 83.3905 70.9044 83.4915C68.9036 83.1878 68.3211 83.2384 66.7934 81.8382C65.6133 81.8713 65.419 81.4289 64.1596 81.006C63.5502 80.9005 63.1626 80.8537 62.5456 80.8112L62.3258 80.6651C62.5904 80.184 62.5396 80.3175 63.1264 80.0417L63.0716 79.7799L62.6241 79.8435L62.3592 79.4922L62.3027 79.3784C62.5422 79.2409 62.6173 79.2483 62.8858 79.2158L62.9737 79.2058L62.7456 79.0203L62.8146 78.8485C64.5404 77.6488 65.4679 77.5081 67.5288 77.3193Z" fill="#4E522B"/>
<path d="M67.5434 78.1402C67.6452 78.1028 67.6985 78.127 67.824 78.1384C68.3776 78.2574 68.9019 78.3438 69.4163 78.5808C70.6306 78.9497 71.3927 79.2524 72.0216 80.3948C72.2768 80.8295 72.5113 81.1214 72.4685 81.6269C72.3076 81.9782 72.3183 81.9697 72.0538 82.2476C71.6331 82.1807 70.9141 82.3791 70.5364 82.2985C68.606 81.8866 66.4602 80.311 67.5434 78.1402Z" fill="#8CB23C"/>
<path d="M67.543 78.1402C67.6448 78.1028 67.6981 78.127 67.8236 78.1384C68.3772 78.2574 68.9015 78.3438 69.4159 78.5808C70.6302 78.9497 71.3923 79.2524 72.0212 80.3948C72.1337 80.8522 72.2595 81.1176 72.0835 81.5403L71.8164 81.6101C71.4523 81.4467 70.0322 80.1446 69.3729 79.6889C68.5889 79.5664 67.9225 78.7847 67.543 78.1402Z" fill="#91B640"/>
<path d="M67.543 78.1402C67.6448 78.1028 67.6981 78.127 67.8236 78.1384C68.3772 78.2574 68.9015 78.3438 69.4159 78.5808C69.7862 78.8507 69.9094 78.9206 70.1995 79.266L70.0795 79.35L69.0221 79.0776L68.9586 79.1919L69.3729 79.6889C68.5889 79.5664 67.9225 78.7847 67.543 78.1402Z" fill="url(#paint8_linear_138_941)"/>
<path d="M72.2655 82.5656C73.2062 81.8845 73.0103 81.4118 72.9527 80.3409L73.1241 80.1543L73.8981 80.2078L73.4764 80.3884C73.4215 81.1898 73.898 81.7073 73.1895 82.5571C72.5916 83.2744 71.7704 83.3911 70.9039 83.4921C68.9032 83.1884 68.3207 83.239 66.793 81.8388C69.1036 82.465 69.8193 83.0569 72.2655 82.5656Z" fill="#CD9E68"/>
<path d="M63.1641 79.8643C63.8159 79.0847 65.9331 77.4852 66.9004 78.1843C66.9497 78.6585 66.8274 78.704 66.5858 79.1815C66.5248 79.2481 66.2668 79.5207 66.2332 79.576C66.0595 79.7554 65.8627 79.9402 65.6825 80.1156C64.9148 80.3432 63.9703 80.0416 63.1641 79.8643Z" fill="#CD9E68"/>
<path d="M66.2329 79.5762C66.2664 79.5209 66.5245 79.2483 66.5855 79.1816C66.8874 80.564 67.2758 80.858 68.2728 81.8518C67.2552 81.5992 66.6785 81.4549 65.6934 81.0633C66.009 80.536 66.2892 80.1987 66.2329 79.5762Z" fill="#AE8851"/>
<path d="M13.8517 83.8626C14.9291 84.1218 19.2737 83.3897 20.1702 84.193C20.2879 84.8746 19.9243 84.9998 19.4198 85.4013C21.918 88.2731 22.2616 86.4283 23.785 87.1061L23.7559 87.2168C22.7977 87.3232 22.2011 87.2952 21.249 87.2629L21.1983 87.3265C21.998 87.5426 22.5958 87.3984 23.4703 87.721C25.9537 88.6375 26.9863 90.1504 29.6042 88.4929C31.0308 88.4042 31.1686 89.667 32.9252 88.7813C33.8838 88.2272 34.9383 88.7278 35.6502 88.5054C36.3253 88.2942 37.15 87.8347 38.0325 87.5554C38.4328 87.7655 38.8927 88.0607 39.2867 88.2982L41.3649 88.2715C39.839 88.6261 37.7631 89.7446 36.2221 90.1986C35.4332 90.2145 34.2088 90.0505 33.4434 89.9919C29.7171 89.7065 27.2015 89.9713 23.8343 88.1385C22.5769 87.4542 17.9544 87.1164 16.4267 87.0543L16.2808 86.8389C15.891 86.6962 15.0387 86.7475 14.5866 86.7517C15.8662 86.3488 16.9113 86.3006 17.7256 85.2995C17.9959 83.6427 12.2962 84.3735 11.0762 84.1838C11.7522 84.1551 13.2387 84.0322 13.8517 83.8626Z" fill="#E9C28B"/>
<path d="M35.4727 80.5068L37.1752 80.61C38.3274 80.8815 38.53 80.9079 39.4674 81.6267L39.2347 82.0344C38.8472 82.1673 36.8194 81.5994 36.4499 81.4211C35.6219 81.8826 34.3222 81.4636 33.2186 81.7889L33.0838 82.0306C32.1965 82.3066 31.3634 82.1072 30.6311 81.5604L30.5977 81.2439C31.871 80.7753 34.1 80.5325 35.4727 80.5068Z" fill="#F4DDBF"/>
<path d="M33.2177 81.7885C32.9956 81.4258 33.0189 81.6079 33.0844 81.2359C33.7967 80.8172 35.7356 81.0358 36.449 81.4207C35.6209 81.8823 34.3213 81.4632 33.2177 81.7885Z" fill="#4F452E"/>
<path d="M27.4961 87.7499C28.2057 86.9935 31.3743 85.4024 32.3401 85.7124L32.4004 85.9019C31.8495 86.2852 30.8204 86.3851 30.0566 86.6825L30.2384 86.8528C31.7121 86.6118 31.9548 86.9937 33.3637 87.2663C32.6317 87.7786 31.8867 87.5293 31.141 87.9674L31.1098 88.1493C31.8667 88.6896 31.9015 88.3538 32.7475 88.4263L32.9264 88.7816C31.1697 89.6673 31.032 88.4046 29.6054 88.4933L29.0209 88.5186C28.9682 88.2465 28.8768 88.0912 28.669 87.9445C28.1393 87.9788 27.9906 87.9432 27.4961 87.7499Z" fill="#9E7754"/>
<path d="M53.6582 82.349C55.8766 81.7395 58.315 82.3296 59.8929 84.0299C59.0943 84.8784 58.2991 84.2402 57.3904 84.1435C57.0298 83.7571 56.8059 83.6547 56.3585 83.3866C55.1384 83.3635 54.2046 83.6025 53.6582 82.349Z" fill="#E9C28B"/>
<path d="M73.8985 80.207C75.2132 80.4104 76.2093 80.4533 76.8387 81.819C76.1239 81.8945 75.3665 81.878 74.893 82.4234L74.7163 82.2594C73.8165 82.4268 72.0005 84.2241 70.9043 83.4914C71.7708 83.3904 72.592 83.2737 73.1898 82.5563C73.8983 81.7066 73.4218 81.189 73.4767 80.3877L73.8985 80.207Z" fill="#E9C28B"/>
<path d="M19.8484 80.1788L19.7143 80.6905C19.4149 80.7511 18.7145 80.9133 18.4431 80.909C15.9133 80.5012 14.2804 82.9521 12.4648 84.1225C12.7653 83.2449 12.8709 83.0382 13.379 82.2611C13.764 82.1422 14.3779 81.6454 14.7543 81.3945C16.5877 80.1726 17.7065 80.1407 19.8484 80.1788Z" fill="#634F3A"/>
<path d="M49.2687 84.6426C49.7981 85.1827 50.4977 85.4311 51.2333 85.5207C51.4412 85.4472 51.5273 85.4297 51.7196 85.3162C52.5501 85.3791 53.3444 85.3039 54.0204 85.8688C52.282 86.0121 49.0103 85.4347 47.7803 85.6721C47.8502 86.0531 47.9042 86.1501 47.761 86.4881L47.4696 86.526C46.8737 86.2762 46.9935 86.2986 46.5395 85.9633C46.0737 85.6193 45.3036 85.7187 44.8242 85.2078L44.8919 85.0456C45.5082 84.9676 45.7817 85.2855 46.3209 85.2889C47.1727 85.2944 48.2552 85.102 49.0999 84.9659L49.2687 84.6426Z" fill="#E9C28B"/>
<path d="M62.5456 80.8115C63.1626 80.854 63.5503 80.9008 64.1597 81.0063C63.5627 81.1645 63.3728 81.3444 62.8746 81.7068C62.2011 82.0874 62.0641 82.116 61.2893 82.2101C61.5083 83.1798 62.3091 82.6868 62.8784 83.3191C62.7896 83.7073 62.5839 83.9239 62.2293 84.1567C61.5163 83.4007 61.5437 83.273 60.6247 82.8089C60.3824 82.4455 60.443 81.9046 60.6243 81.53C61.1075 81.1258 61.9162 80.9777 62.5456 80.8115Z" fill="#E9C28B"/>
<path d="M61.2903 82.2101L61.2461 82.1624L61.3068 81.9689C61.8618 81.606 62.2372 81.4591 62.8756 81.7068C62.2022 82.0874 62.0651 82.116 61.2903 82.2101Z" fill="#9E7754"/>
<path d="M26.2285 82.8311L26.3174 82.7323C27.0046 82.5973 27.6546 82.3621 28.3329 82.249C29.9426 83.5728 31.6971 84.2282 33.8183 84.0795C33.0865 84.5924 31.0305 84.6296 30.2194 84.5432C28.453 84.3548 29.2978 83.8548 28.7338 82.8889C28.5269 82.5344 27.0385 82.8464 26.3542 82.8343L26.2285 82.8311Z" fill="#E9C28B"/>
<path d="M79.7059 82.1494L80.5258 82.235C80.9202 82.4139 81.5203 82.6534 81.8486 82.9058C81.5308 83.1377 81.4698 83.1988 81.1078 83.3348L80.749 83.3892C79.9812 83.3209 78.4369 83.5296 77.9805 82.8382C78.5619 82.1012 78.8686 82.2751 79.7059 82.1494Z" fill="#E9C28B"/>
<path d="M19.7125 80.6904L20.0679 80.8765L20.1147 81.5389L20.2066 81.8094C20.8145 82.065 22.3964 82.5861 22.8156 82.8918C21.7039 82.8513 21.4306 82.1697 19.8196 82.5236L19.6661 82.5585C19.1367 82.2261 18.98 81.7537 18.4611 81.3639L18.4414 80.9088C18.7128 80.9132 19.4132 80.7509 19.7125 80.6904Z" fill="#CA9B69"/>
<path d="M33.3633 87.2656C33.9322 87.8778 34.9845 87.8041 35.8669 87.9832C35.3128 88.033 33.0249 88.1275 32.747 88.4256C31.9011 88.3531 31.8663 88.6889 31.1094 88.1486L31.1406 87.9667C31.8863 87.5286 32.6313 87.7779 33.3633 87.2656Z" fill="#E9C28B"/>
<path d="M81.1085 83.335L81.4579 83.4437C81.5603 83.9576 81.3292 84.1789 80.9083 84.4748L80.3448 84.5973L79.9432 84.6134L79.991 84.4718C79.6265 84.2619 78.0869 84.3446 77.209 84.0617C78.2492 83.9959 79.9309 83.977 80.7497 83.3893L81.1085 83.335Z" fill="#CD9E68"/>
<path d="M42.5217 83.0908C43.45 83.3309 43.6977 83.3876 44.6469 83.4104C44.2553 83.4913 44.2051 83.4902 43.8629 83.6832C43.5912 84.1196 43.7221 84.6733 43.7683 85.2248C43.0997 84.846 42.4473 84.5754 41.8457 84.2345L41.9459 84.0824L42.9065 83.9122L42.9737 83.7247C42.6802 83.4949 42.6792 83.4436 42.5217 83.0908Z" fill="#84634A"/>
<path d="M79.9425 84.6135C78.9871 84.6449 76.8578 84.767 76.1309 84.1778L76.1771 84.0376C76.7475 83.8589 76.5203 83.8943 77.2083 84.0618C78.0861 84.3447 79.6258 84.262 79.9903 84.4719L79.9425 84.6135Z" fill="#84634A"/>
<path d="M27.4965 87.749C27.991 87.9423 28.1396 87.9779 28.6694 87.9436C28.8772 88.0903 28.9686 88.2456 29.0213 88.5177C28.4502 88.5525 27.2818 88.6799 26.8223 88.3558C26.9524 87.9766 27.0834 88.0008 27.4965 87.749Z" fill="#84634A"/>
<path d="M74.8926 82.4238C75.366 81.8784 76.1234 81.8948 76.8383 81.8193C77.038 82.1362 76.904 82.0285 77.2491 82.1586C76.4008 82.3483 75.7611 82.5562 74.8926 82.4238Z" fill="#84634A"/>
<path d="M23.5604 85.1803C23.1258 85.0961 23.0776 85.0999 22.7031 84.8815L22.7826 84.7438C23.4472 84.6429 26.0491 84.2877 26.3013 84.9471C25.6096 85.7885 24.9847 86.0983 23.8973 85.7071C23.7922 85.5418 23.6704 85.3371 23.5604 85.1803Z" fill="#84634A"/>
<path d="M23.5605 85.1795C24.4108 85.1878 25.4423 85.0419 26.3014 84.9463C25.6097 85.7877 24.9848 86.0976 23.8975 85.7063C23.7924 85.541 23.6705 85.3363 23.5605 85.1795Z" fill="#CA9B69"/>
<path d="M67.6529 86.7295C67.6947 86.73 69.5476 87.0093 69.5507 87.0106C69.2575 87.3504 69.0343 87.3332 68.5501 87.494C68.3502 87.4981 68.1501 87.5009 67.9501 87.5023C67.2278 87.5075 66.6787 87.5966 66.1484 87.0736L66.3007 86.9331C66.8635 86.9166 66.9922 86.9147 67.5369 86.7629L67.6529 86.7295Z" fill="#84634A"/>
<path d="M54.5781 85.8447C55.209 85.4927 57.3983 85.1729 58.0326 85.5581C57.1652 85.6775 55.3715 85.9947 54.5781 85.8447Z" fill="#84634A"/>
<path d="M71.627 84.7947C72.2851 84.707 73.0879 84.4758 73.2944 85.2504C72.5534 85.327 71.9402 85.5322 71.627 84.7947Z" fill="#84634A"/>
<path d="M53.2793 83.5712C53.7466 83.497 53.8222 83.4859 54.2875 83.5606L54.4421 83.7979L54.2729 84.2226C53.9093 84.2427 53.8795 84.2217 53.5252 84.1099C53.2287 83.7802 53.2874 83.9621 53.2793 83.5712Z" fill="#E9C28B"/>
<path d="M63.2444 88.9751C63.5001 88.972 63.7903 88.9847 64.049 88.9904L64.1559 89.1386L63.817 89.4119C63.4142 89.3895 63.1236 89.3487 62.7246 89.2871L62.7428 89.146L63.2444 88.9751Z" fill="#9E7754"/>
<path d="M45.8332 43.2197C46.515 42.5603 46.9776 41.1744 47.592 40.371C52.1483 34.4149 62.1687 35.2231 67.6418 39.1276C68.3092 39.5639 68.8411 39.9274 69.4742 40.4101C65.7592 44.1585 62.0741 46.2751 56.6211 46.2997C55.2611 46.314 53.9042 46.1667 52.5789 45.8609C50.5608 45.3833 48.0196 43.7759 46.1026 45.5722C45.337 46.2896 44.7394 47.8887 44.4328 48.8779C44.4048 47.456 44.9627 46.3624 45.9058 45.3078C46.2924 44.8756 46.6035 44.9401 46.8461 44.329C45.386 44.7329 44.9766 46.1839 44.1504 47.3512C44.1486 46.5911 44.3557 45.7816 44.581 45.0615C45.1809 44.7803 46.6206 43.5804 46.7474 42.9257L46.5457 42.8466L45.8332 43.2197Z" fill="url(#paint9_linear_138_941)"/>
<path d="M45.8332 43.2197C46.515 42.5603 46.9776 41.1744 47.592 40.371C52.1483 34.4149 62.1687 35.2231 67.6418 39.1276C67.949 39.6288 68.2379 39.8278 68.6882 40.2018L68.4182 40.3481L68.4143 40.493C67.2327 40.5566 66.1483 40.254 65.012 39.9523L65.1324 40.0032C64.0321 39.6555 62.4502 39.3383 61.3158 39.5941C61.8125 39.6584 62.8646 39.7478 63.2591 39.9519C57.4072 39.7877 52.6473 39.6098 47.6346 43.7929C47.5315 43.8788 47.4479 44.0098 47.3746 44.1202C47.0847 44.3536 47.249 44.2719 46.8461 44.329C45.386 44.7329 44.9766 46.1839 44.1504 47.3512C44.1486 46.5911 44.3557 45.7816 44.581 45.0615C45.1809 44.7803 46.6206 43.5804 46.7474 42.9257L46.5457 42.8466L45.8332 43.2197Z" fill="#ACCC4F"/>
<path d="M45.8332 43.2197C46.515 42.5603 46.9776 41.1744 47.592 40.371C52.1483 34.4149 62.1687 35.2231 67.6418 39.1276C67.949 39.6288 68.2379 39.8278 68.6882 40.2018L68.4182 40.3481C65.1507 38.4497 63.1503 37.2103 59.1978 36.6893C56.1641 36.2895 52.4882 37.0278 50.0422 38.936C49.5921 39.2872 48.6747 40.1344 48.6126 40.7078C49.9039 41.0602 52.2055 40.0838 53.3504 39.9247C56.0709 39.5466 58.6155 39.5975 61.3158 39.5941C61.8125 39.6584 62.8646 39.7478 63.2591 39.9519C57.4072 39.7877 52.6473 39.6098 47.6346 43.7929C47.5315 43.8788 47.4479 44.0098 47.3746 44.1202C47.0847 44.3536 47.249 44.2719 46.8461 44.329C45.386 44.7329 44.9766 46.1839 44.1504 47.3512C44.1486 46.5911 44.3557 45.7816 44.581 45.0615C45.1809 44.7803 46.6206 43.5804 46.7474 42.9257L46.5457 42.8466L45.8332 43.2197Z" fill="#5A7430"/>
<path d="M67.6436 39.1279C68.311 39.5642 68.8429 39.9277 69.476 40.4103C65.761 44.1588 62.0759 46.2754 56.6229 46.3C55.2629 46.3142 53.906 46.167 52.5807 45.8612C50.5626 45.3836 48.0214 43.7762 46.1044 45.5725C45.3388 46.2899 44.7412 47.8889 44.4346 48.8782C44.4066 47.4563 44.9645 46.3627 45.9076 45.308C46.2942 44.8759 46.6053 44.9404 46.8479 44.3293C47.2508 44.2722 47.0865 44.3539 47.3764 44.1205C49.6477 43.9743 50.4961 44.5918 52.556 45.1606C57.1165 46.4199 62.216 45.3814 66.0468 42.6453C66.6578 42.2089 68.1098 41.1228 68.4161 40.4933L68.42 40.3484L68.69 40.2021C68.2397 39.8281 67.9508 39.629 67.6436 39.1279Z" fill="#50682F"/>
<path d="M34.9952 70.2702C34.9109 70.1013 34.5184 69.3161 34.3568 69.3327C32.1151 69.5637 27.2929 66.3285 29.3444 63.9055C29.709 63.4748 30.7245 63.5104 31.3319 63.5386C33.2041 63.6257 34.3987 64.577 35.5602 65.9022C39.3933 66.499 38.5687 69.2951 35.5363 69.4918C35.4127 69.91 35.3217 69.9521 34.9952 70.2702Z" fill="#50682F"/>
<path d="M29.8898 64.1565C32.0556 64.0964 33.5483 64.3355 34.9314 66.1447C35.0466 66.915 35.2329 67.8964 34.5358 68.4015L34.14 68.1705L34.0643 68.1201C34.0654 68.3804 34.0874 68.375 34.1627 68.6333L33.9764 68.7466C32.2349 68.6758 28.4693 66.4906 29.8898 64.1565Z" fill="#91B640"/>
<path d="M35.5458 66.4209C36.7248 66.4534 38.0812 67.2862 37.0271 68.4844C36.3944 68.7689 36.0212 69.0975 35.4683 68.5881C35.2412 68.0014 35.4286 67.0526 35.5458 66.4209Z" fill="#8CB23C"/>
<path d="M28.0635 70.9355C27.0905 70.6687 24.4664 71.9444 22.7914 71.4866C21.4554 71.1215 16.8561 70.1677 17.2109 68.1145C18.7633 66.0613 26.1339 66.295 27.4502 69.8337L27.4829 70.3095C27.6616 70.4645 28.0101 70.7288 28.0635 70.9355Z" fill="#50682F"/>
<path d="M17.5371 68.2704C20.2959 67.4456 25.0381 66.5842 26.7675 69.7141L26.7435 69.9211C26.5613 69.9069 26.5067 69.9213 26.3414 69.8601C26.5091 70.0335 26.5634 70.0918 26.703 70.2877L26.4719 70.5639C24.4 71.6272 20.0409 70.5102 18.322 68.9677C18.0672 68.7437 17.7796 68.5025 17.5371 68.2704Z" fill="url(#paint10_linear_138_941)"/>
<path d="M17.5371 68.2704C20.2959 67.4456 25.0381 66.5842 26.7675 69.7141L26.7435 69.9211C26.5613 69.9069 26.5067 69.9213 26.3414 69.8601C22.6899 67.8236 21.6376 69.6303 18.322 68.9677C18.0672 68.7437 17.7796 68.5025 17.5371 68.2704Z" fill="url(#paint11_linear_138_941)"/>
<path d="M69.4297 66.9845C69.5357 66.2234 69.8322 64.101 70.9892 64.4681C72.7758 65.0349 70.9218 67.2432 71.0408 68.0926C72.3741 68.2123 72.0319 64.8229 75.263 65.003C82.8277 65.4242 76.4827 70.2504 72.5597 68.1124C72.1791 68.3829 71.1138 69.0995 70.8538 69.4035L70.5587 69.2567C70.0532 68.2777 69.661 68.1063 69.4297 66.9845Z" fill="#50682F"/>
<path d="M73.7683 67.1025C73.3234 67.2308 73.1067 67.3723 72.7031 67.2827C72.931 65.2038 77.8498 64.927 77.8765 66.7423C77.5947 67.1641 77.4923 67.2232 77.0808 67.528C76.1673 68.0069 73.7905 68.6075 73.0603 67.6734C73.3587 67.4864 73.5485 67.3788 73.7683 67.1025Z" fill="#91B640"/>
<path d="M73.7685 67.1029C75.2395 66.4318 75.4813 67.2088 77.081 67.5284C76.1676 68.0073 73.7907 68.6079 73.0605 67.6738C73.359 67.4868 73.5488 67.3791 73.7685 67.1029Z" fill="#8CB23C"/>
<path d="M70.6115 65.0068C71.0351 65.1519 70.8908 65.0195 71.0865 65.3839C71.0125 66.4417 70.7691 67.2422 70.2863 68.1822L70.0837 68.1821C70.049 67.0306 70.1191 66.0652 70.6115 65.0068Z" fill="#ACCC4F"/>
<path d="M63.7447 63.6553C63.2802 62.9195 62.9272 61.6648 63.2495 60.8217C63.6669 60.5236 63.6236 60.6241 64.227 60.6707C66.4342 61.134 70.1181 62.8433 68.2222 65.6041C68.4696 66.2138 68.7069 66.4089 68.8313 67.0322C68.4185 66.7841 68.252 66.4935 67.9617 66.1069L67.8647 66.138L67.7968 66.7326C67.6372 66.3816 67.6315 66.3793 67.3857 66.0789L67.2734 66.0429C65.7692 65.5481 64.4854 65.1377 63.7447 63.6553Z" fill="#50682F"/>
<path d="M63.7447 63.6553C63.2802 62.9195 62.9272 61.6648 63.2495 60.8217C63.6669 60.5236 63.6236 60.6241 64.227 60.6707C64.0746 61.0793 64.2032 60.927 63.8341 61.1479C65.5047 61.5239 67.3928 62.0371 67.9993 63.8493L67.6847 63.9351C66.9197 63.744 66.2155 62.9828 65.8735 63.0328L66.1012 63.5343C65.9033 63.6382 65.6002 63.3768 65.1592 63.3049L64.534 63.769L64.1792 63.2411L63.7447 63.6553Z" fill="#91B640"/>
<path d="M63.7447 63.6553C63.2802 62.9195 62.9272 61.6648 63.2495 60.8217C63.6669 60.5236 63.6236 60.6241 64.227 60.6707C64.0746 61.0793 64.2032 60.927 63.8341 61.1479C63.8681 62.0125 63.9349 62.3989 64.1792 63.2411L63.7447 63.6553Z" fill="#4B602D"/>
<path d="M64.5312 63.7688L65.1565 63.3047C65.5974 63.3766 65.9006 63.638 66.0985 63.5341L65.8708 63.0326C66.2128 62.9826 66.917 63.7438 67.682 63.935L67.9965 63.8492C68.0512 64.2737 68.0453 64.3821 68.0039 64.8095C67.65 65.1357 67.797 64.7744 67.0784 64.8145L67.2636 65.1877C66.4367 65.5102 65.0137 64.4218 64.5312 63.7688Z" fill="#8CB23C"/>
<path d="M27.4512 69.834C28.7947 70.5091 30.4107 70.6866 31.6631 71.774C32.5027 72.5029 33.2202 73.1684 33.8655 74.0814C34.3052 74.6114 35.3391 76.4124 35.7123 76.64C35.8342 76.8257 35.953 77.0134 36.0685 77.2031C36.3428 77.6562 36.2753 77.9492 36.2561 78.4561L36.2359 78.593C35.8336 78.9153 35.9089 78.9294 35.2867 78.8909C35.0959 78.4046 34.8124 77.9078 34.5657 77.4427C34.5388 77.0006 34.5186 76.9865 34.2682 76.6055L34.3823 76.4245C33.9713 75.9008 33.8915 75.5507 33.5559 75.0422C32.6968 73.7634 31.5082 72.6445 30.1689 71.8807C29.4982 71.4983 28.7398 71.3697 28.0645 70.9357C28.0111 70.7291 27.6626 70.4648 27.4839 70.3098L27.4512 69.834Z" fill="#5A7430"/>
<path d="M34.3836 76.4241L34.4656 76.293C35.0098 77.1671 35.406 78.0539 36.2373 78.5926C35.835 78.9149 35.9103 78.929 35.2881 78.8905C35.0972 78.4042 34.8137 77.9074 34.5671 77.4422C34.5402 77.0002 34.52 76.9861 34.2695 76.6051L34.3836 76.4241Z" fill="#50682F"/>
<path d="M34.9941 70.2696C35.3206 69.9515 35.4116 69.9094 35.5353 69.4912C35.9267 70.341 36.3236 71.1255 36.5536 72.0358L35.6658 72.3619C35.7798 71.8711 35.22 70.7924 34.9941 70.2696Z" fill="#5A7430"/>
<defs>
<linearGradient id="paint0_linear_138_941" x1="58.5684" y1="26.9329" x2="47.4908" y2="14.47" gradientUnits="userSpaceOnUse">
<stop stop-color="#EE9794"/>
<stop offset="1" stop-color="#FFC5C5"/>
</linearGradient>
<linearGradient id="paint1_linear_138_941" x1="53.2085" y1="7.95246" x2="51.746" y2="5.81551" gradientUnits="userSpaceOnUse">
<stop stop-color="#F19594"/>
<stop offset="1" stop-color="#FFB9B8"/>
</linearGradient>
<linearGradient id="paint2_linear_138_941" x1="51.8023" y1="79.2766" x2="62.2675" y2="68.3629" gradientUnits="userSpaceOnUse">
<stop stop-color="#88B543"/>
<stop offset="1" stop-color="#BDD655"/>
</linearGradient>
<linearGradient id="paint3_linear_138_941" x1="53.0542" y1="80.9483" x2="53.4961" y2="78.3128" gradientUnits="userSpaceOnUse">
<stop stop-color="#AB8051"/>
<stop offset="1" stop-color="#C49A63"/>
</linearGradient>
<linearGradient id="paint4_linear_138_941" x1="32.0787" y1="42.0791" x2="32.0655" y2="30.4042" gradientUnits="userSpaceOnUse">
<stop stop-color="#8FBC47"/>
<stop offset="1" stop-color="#C2D95C"/>
</linearGradient>
<linearGradient id="paint5_linear_138_941" x1="32.7107" y1="40.0568" x2="33.68" y2="30.3233" gradientUnits="userSpaceOnUse">
<stop stop-color="#81A93D"/>
<stop offset="1" stop-color="#BFD957"/>
</linearGradient>
<linearGradient id="paint6_linear_138_941" x1="78.9524" y1="81.7237" x2="72.4725" y2="71.4552" gradientUnits="userSpaceOnUse">
<stop stop-color="#8BB742"/>
<stop offset="1" stop-color="#B7D253"/>
</linearGradient>
<linearGradient id="paint7_linear_138_941" x1="36.579" y1="78.7938" x2="34.8957" y2="80.8522" gradientUnits="userSpaceOnUse">
<stop stop-color="#3D6118"/>
<stop offset="1" stop-color="#5B4A35"/>
</linearGradient>
<linearGradient id="paint8_linear_138_941" x1="68.7872" y1="79.0767" x2="69.1641" y2="78.5129" gradientUnits="userSpaceOnUse">
<stop stop-color="#739530"/>
<stop offset="1" stop-color="#9DBD38"/>
</linearGradient>
<linearGradient id="paint9_linear_138_941" x1="57.3607" y1="45.7447" x2="58.4892" y2="38.8349" gradientUnits="userSpaceOnUse">
<stop stop-color="#87B444"/>
<stop offset="1" stop-color="#B6CF53"/>
</linearGradient>
<linearGradient id="paint10_linear_138_941" x1="24.182" y1="71.6575" x2="21.7747" y2="67.9836" gradientUnits="userSpaceOnUse">
<stop stop-color="#7DA73A"/>
<stop offset="1" stop-color="#97C347"/>
</linearGradient>
<linearGradient id="paint11_linear_138_941" x1="23.7152" y1="71.1911" x2="20.7733" y2="66.578" gradientUnits="userSpaceOnUse">
<stop stop-color="#88B540"/>
<stop offset="1" stop-color="#B2D04C"/>
</linearGradient>
</defs>
</svg>
