<svg width="96" height="96" viewBox="0 0 96 96" fill="none" xmlns="http://www.w3.org/2000/svg">
<rect width="96" height="96" fill="white"/>
<path d="M45.4729 8.20478C46.2256 5.79678 50.021 3.70039 52.3699 3.0432C52.877 2.9013 53.117 3.13132 53.4977 3.40841C54.073 3.46183 54.2626 3.1266 54.4486 3.214C57.1981 4.5053 59.7502 7.03794 60.3673 10.0183C62.3377 8.99425 64.9503 8.34469 67.1855 8.91031C69.175 9.4136 69.6788 11.6381 69.7927 13.3824C70.2243 16.6249 70.0556 19.401 68.9357 22.4651C68.0694 24.8051 66.8223 26.9857 65.2452 28.9185C64.7836 29.4863 63.0389 31.0807 62.947 31.3841C62.813 32.3002 58.6898 36.0869 57.7126 36.7892C55.3608 38.4791 53.8088 39.248 50.9376 39.5469C50.5075 39.9932 49.8979 40.5928 49.5407 41.0695C49.0389 45.9842 49.0222 53.0396 49.5726 57.9879C50.8973 55.4074 50.416 54.6461 51.2323 52.0675C53.1919 45.9268 58.0055 41.1181 64.1453 39.1679C69.1352 37.5759 73.6035 38.1962 78.4224 39.8645C75.4123 48.5141 68.8795 55.7179 59.3826 57.3904C56.2546 57.9412 52.0426 57.0034 50.7202 61.0652C49.6249 64.6933 51.0168 71.7156 51.4223 75.633C55.2874 70.3856 60.8585 69.1328 66.8227 70.3756C68.2999 70.6836 68.0216 69.9933 69.8706 71.0056C69.6565 70.4069 69.2353 68.8988 68.6355 68.792C65.9835 68.3199 65.5324 67.1929 65.3275 64.5109L65.3206 64.4113C67.5949 64.6353 70.6044 65.1219 70.4524 68.0908C70.2367 68.3911 70.2396 68.3797 69.9359 68.5974C70.2182 69.254 70.4697 69.6296 70.5131 70.3367L70.6853 70.4005L70.9504 70.1409C70.9195 69.0925 71.1055 67.9302 72.3184 67.6769C72.8353 67.8092 73.0761 67.9665 73.1382 68.5505C73.1729 68.8779 72.716 70.6167 72.5979 70.844L73.2172 70.4757C73.9674 67.5127 77.7824 68.1079 79.7 69.6376C77.7305 72.4531 76.3063 71.6348 73.3906 71.1734C73.3164 71.1616 72.7198 71.5058 72.5959 71.5777C73.476 71.8346 74.6831 72.1342 75.4421 72.6034C79.2683 74.3929 82.0667 77.5288 81.8528 81.9089C82.9577 82.5012 82.9931 82.6158 83.9412 83.3922C84.8048 84.0994 86.4932 84.3777 87.5884 84.7075C88.7547 85.0987 90.1961 85.6836 90.9316 86.7212C90.9752 86.9429 91.0787 87.2509 90.8935 87.3997C88.7558 89.1136 82.3173 90.741 79.8578 91.2129C72.418 92.6401 65.2828 92.9897 57.773 93.1961C55.0036 93.2721 52.7876 93.376 50.0432 93.2557C49.2726 93.457 48.4586 93.4051 47.685 93.2484C47.0534 93.0985 43.353 93.1229 42.4649 93.0822C40.8212 92.8689 38.0701 93.0546 36.2202 92.8685C28.5677 92.1096 20.9039 91.7338 13.4128 89.824C11.5773 89.3562 4.77037 88.0389 4 86.3344C4.21756 84.3394 10.6052 82.8419 12.4518 82.4621L13.5467 82.3121C15.4746 80.2217 18.0216 80.3065 20.4212 79.7887C20.5986 79.7505 20.6173 79.5025 20.68 79.2848C21.4852 78.1198 22.1955 78.0833 23.4949 77.8718C23.8957 75.6795 29.5471 73.9577 30.8162 74.5855C30.7508 75.4155 30.6625 76.2358 30.5986 77.0662L30.8601 77.3029C33.0499 76.446 32.6369 76.2778 35.2446 76.5672C35.1549 76.3585 35.0578 76.153 34.9533 75.9513C33.5996 73.3632 31.3063 72.2885 28.6963 71.4631C25.8654 73.0304 22.3025 72.4459 19.6134 70.8081C19.1158 70.5048 18.6424 70.1525 18.5165 69.56C18.7326 69.1112 18.6424 69.2589 19.1854 68.9862C21.7126 67.9295 25.3207 67.3468 27.6426 69.1855C28.1168 69.4833 28.6727 70.2888 29.0275 70.7623L29.102 70.7783C32.1248 71.4533 34.4782 73.363 36.0573 76.0283C36.2918 76.4239 36.441 76.4499 36.8293 76.5502C38.0829 75.5823 36.2268 71.1062 35.5695 69.9597C33.813 69.9032 32.6765 69.5502 31.2765 68.4099C29.6012 67.0452 29.8696 64.6642 32.3389 64.7524C34.1768 64.8179 35.4627 65.5842 36.7096 66.884C37.6022 66.9403 38.7217 67.1342 39.1007 68.0703C39.1452 69.4495 37.6487 69.8741 36.6012 70.11C37.0472 71.0028 37.3592 71.6687 37.5683 72.6464C41.8876 71.4594 44.0518 71.8959 46.7931 75.3888C45.258 76.2531 45.0274 76.3178 43.2809 76.4335C44.0511 76.6797 46.5253 77.7477 47.0209 77.2475C47.1553 76.4181 46.876 73.3669 46.7679 72.3361C46.34 68.2523 46.6404 63.4587 45.5199 59.5272C43.6572 52.9925 38.1903 53.8421 33.1467 51.2257C25.1904 47.098 21.3979 39.9536 18.7172 31.6905C19.7947 31.6092 20.8705 31.4919 21.9501 31.4237C33.2466 30.7119 43.1607 39.3376 44.9379 50.353C45.2762 52.4489 45.0148 53.367 46.1016 55.3606C46.0224 52.3003 46.1815 49.301 46.2236 46.2453C46.2616 43.5052 46.7855 41.3543 45.4146 38.8756C40.6367 37.2812 38.6169 32.7732 36.1363 28.6567C36.078 28.3478 36.129 28.1659 36.1632 27.8463C35.9863 27.4939 35.0877 26.2294 34.7641 25.6564C32.536 21.6667 32.0097 16.5996 33.0105 12.1668C33.2549 11.0841 33.7611 10.0619 34.6933 9.45121L34.9107 9.30894C35.0952 7.73674 36.6637 4.94773 38.6997 5.16485C38.8791 5.21881 39.2659 5.50317 39.4423 5.49027C42.3269 5.28059 43.5963 6.10239 45.4729 8.20478Z" fill="#698237"/>
<path d="M45.4757 8.20478C46.2284 5.79678 50.0238 3.70039 52.3727 3.0432C52.8797 2.9013 53.1198 3.13132 53.5005 3.40841C54.0758 3.46183 54.2654 3.1266 54.4514 3.214C57.2009 4.5053 59.753 7.03794 60.3701 10.0183C62.3405 8.99425 64.9531 8.34469 67.1883 8.91031C69.1778 9.4136 69.6816 11.6381 69.7954 13.3824C70.2271 16.6249 70.0584 19.401 68.9384 22.4651C68.0722 24.8051 66.8251 26.9857 65.248 28.9185C64.7864 29.4863 63.0417 31.0807 62.9498 31.3841L61.9363 31.3222C59.6805 32.4365 58.1618 33.0806 55.6623 33.5227C54.0175 33.6319 51.7429 34.4233 50.425 35.395C50.2635 34.0267 50.0015 34.1884 49.1154 33.2421L48.592 33.4783C47.7127 33.9322 47.2331 34.3923 46.5595 35.1145C46.859 35.4612 46.7821 35.4808 47.1513 35.6002C47.5051 36.1358 47.8772 36.6669 48.1647 37.24L47.9562 37.4396C47.6696 37.3811 47.6689 37.3975 47.4288 37.2381C45.2216 33.1051 41.059 32.4234 37.927 29.8681C37.801 29.0372 36.8541 28.715 36.1391 28.6567C36.0808 28.3478 36.1318 28.166 36.166 27.8464C35.9891 27.4939 35.0905 26.2294 34.7669 25.6564C32.5388 21.6667 32.0125 16.5996 33.0133 12.1668C33.2577 11.0841 33.7639 10.0619 34.6961 9.45121L34.9134 9.30894C35.098 7.73674 36.6665 4.94773 38.7025 5.16485C38.8819 5.21881 39.2687 5.50317 39.4451 5.49027C42.3297 5.28059 43.5991 6.10239 45.4757 8.20478Z" fill="url(#paint0_linear_138_2464)"/>
<path d="M53.4983 3.40825C54.0736 3.46167 54.2632 3.12644 54.4492 3.21384C57.1987 4.50514 59.7508 7.03778 60.3679 10.0181C62.3383 8.99409 64.9509 8.34453 67.1861 8.91015C69.1756 9.41344 69.6794 11.6379 69.7933 13.3822C70.225 16.6247 70.0562 19.4008 68.9363 22.4649C68.07 24.805 66.8229 26.9855 65.2459 28.9184C64.7842 29.4862 63.0395 31.0805 62.9476 31.384L61.9341 31.322C59.6784 32.4363 58.1596 33.0805 55.6601 33.5225C54.0153 33.6317 51.7407 34.4232 50.4228 35.3949C50.2614 34.0265 49.9993 34.1882 49.1132 33.242L48.5898 33.4782C48.8114 31.9309 48.7794 30.8062 48.7498 29.2581C49.0146 29.3813 49.0671 29.5058 49.2347 29.7456L49.2974 29.8367L49.4488 29.786L49.5022 29.4518C49.6325 29.0423 49.8017 28.6168 49.9539 28.2125L50.4878 28.1169L50.701 27.7348C50.618 27.4459 50.5274 27.159 50.4297 26.8749C50.9041 25.8354 51.4086 24.8984 51.8388 23.8269C51.8822 23.7686 52.0638 23.3611 52.1072 23.2673C52.2801 22.7237 52.37 22.615 52.6872 22.1575L52.4515 22.0943C53.2308 20.5829 53.2462 19.9018 53.6661 18.3041C54.0052 17.0532 54.5175 15.8558 55.1885 14.7469C56.0397 13.3386 56.9757 12.4699 58.2553 11.4364C58.6699 11.1016 59.4679 10.6048 59.737 10.2169L59.6153 9.60041C58.9695 7.90411 58.5203 7.21003 57.3658 5.87258C57.1221 5.65018 55.1631 4.44682 54.806 4.09142C54.6028 3.88901 54.1094 4.12231 53.8185 4.22351C53.3961 4.07707 53.5228 4.11341 53.1999 3.69497L53.4983 3.40825Z" fill="#FEA5A3"/>
<path d="M53.4983 3.40825C54.0736 3.46167 54.2632 3.12644 54.4492 3.21384C57.1987 4.50514 59.7508 7.03778 60.3679 10.0181C62.3383 8.99409 64.9509 8.34453 67.1861 8.91015C69.1756 9.41344 69.6794 11.6379 69.7933 13.3822C70.2249 16.6247 70.0562 19.4008 68.9363 22.4649C68.07 24.805 66.8229 26.9855 65.2458 28.9184C64.7842 29.4862 63.0395 31.0805 62.9476 31.384L61.9341 31.322C65.3639 28.2376 67.9699 24.4819 68.9757 19.9263C69.2942 18.4838 69.7072 15.451 68.196 14.5152C67.6436 14.4286 66.7208 14.4747 66.2263 14.7504C66.1777 15.5106 64.8432 16.6264 64.1749 16.8397C63.9419 16.7012 63.8858 16.6391 63.6252 16.5748C63.0606 17.0156 62.5029 17.5792 61.9709 18.0714C61.4359 18.5667 61.1214 18.5423 60.924 18.714L60.7876 18.6392L60.7393 18.4515C60.4709 18.2431 60.2411 18.3307 59.8262 18.3432C58.2384 18.9584 54.4848 21.4046 53.7605 22.8648C52.3758 24.2784 51.3435 25.859 50.701 27.7348C50.618 27.4459 50.5274 27.159 50.4297 26.8749C50.904 25.8354 51.4085 24.8984 51.8388 23.8269C51.8822 23.7686 52.0638 23.3611 52.1072 23.2673C52.2801 22.7237 52.37 22.615 52.6872 22.1575L52.4515 22.0943C53.2308 20.5829 53.2462 19.9018 53.6661 18.3041C54.0051 17.0532 54.5175 15.8558 55.1885 14.7469C56.0397 13.3386 56.9757 12.4699 58.2553 11.4364C58.6699 11.1016 59.4679 10.6048 59.737 10.2169L59.6153 9.60041C58.9695 7.9041 58.5202 7.21003 57.3658 5.87258C57.1221 5.65018 55.1631 4.44682 54.806 4.09142C54.6028 3.88901 54.1094 4.12231 53.8185 4.22351C53.396 4.07707 53.5228 4.11341 53.1999 3.69497L53.4983 3.40825Z" fill="#AB4E4B"/>
<path d="M59.8262 18.3428C60.6913 17.7209 61.3669 17.5923 62.2675 17.0661C63.7095 16.2237 64.6558 15.4195 66.2263 14.75C66.1777 15.5102 64.8432 16.626 64.1749 16.8393C63.9419 16.7009 63.8858 16.6387 63.6252 16.5744C63.0606 17.0152 62.5029 17.5788 61.9709 18.071C61.4359 18.5663 61.1214 18.542 60.924 18.7137L60.7876 18.6388L60.7393 18.4511C60.4709 18.2427 60.2411 18.3303 59.8262 18.3428Z" fill="#FDBDC4"/>
<path d="M52.6875 22.1572C53.5761 21.8336 53.4359 20.0294 54.6014 19.5879L54.8902 19.7223C54.7465 20.3833 52.9234 22.9883 52.3417 23.3773L52.1074 23.267C52.2803 22.7234 52.3702 22.6147 52.6875 22.1572Z" fill="#F0B113"/>
<path d="M60.0023 10.9031C61.5617 10.0003 64.7574 9.3331 66.651 9.27841C67.0222 9.26769 67.6056 10.1724 67.8269 10.5319C67.8665 11.9459 67.8177 12.6014 67.4733 13.9889C64.8219 14.1211 63.9798 15.3725 61.8201 16.6165C61.3489 16.888 60.2768 17.2735 59.7046 17.5437C58.0691 18.436 57.0675 19.2538 55.5596 20.1528L55.3448 19.4381C54.6979 19.0765 54.5924 19.5374 54.0572 19.2729C53.8536 18.1244 55.6264 15.1911 56.3187 14.2976C56.5376 13.878 57.1245 13.1936 57.5097 12.8936C58.0543 12.2657 59.3127 11.3565 60.0023 10.9031Z" fill="#FEA5A3"/>
<path d="M59.7046 17.543C58.0691 18.4353 57.0675 19.2531 55.5596 20.1522L55.3448 19.4374C54.6979 19.0758 54.5924 19.5368 54.0572 19.2722C53.8536 18.1237 55.6264 15.1904 56.3187 14.2969C56.2187 15.4139 54.9171 17.3942 55.242 18.0785C55.9641 17.6679 56.3861 17.4062 57.1667 17.142C58.2129 17.847 58.4886 17.8128 59.7046 17.543Z" fill="#FE9191"/>
<path d="M57.5117 12.8938C58.0564 12.2658 59.3147 11.3566 60.0043 10.9033C59.9552 11.5581 60.0611 11.6763 59.5479 12.1329C59.0374 12.5867 58.19 12.8765 57.5117 12.8938Z" fill="#FDBDC4"/>
<path d="M68.3984 10.8682C68.9553 11.3624 69.3213 13.7289 68.9572 14.1997C68.5476 14.0707 68.457 14.074 68.1715 13.7773C68.017 12.7923 68.2536 11.8678 68.3984 10.8682Z" fill="#FE9191"/>
<path d="M59.8264 18.3433C60.2413 18.3308 60.4711 18.2432 60.7395 18.4516L60.7878 18.6393C60.3703 19.4341 58.8217 20.0409 57.9874 20.628C55.8668 22.1201 54.236 23.6726 52.5 25.5971C52.8794 24.247 53.6123 23.5545 53.7607 22.865C54.485 21.4047 58.2386 18.9586 59.8264 18.3433Z" fill="#FED2D8"/>
<path d="M49.9539 28.2128L50.4878 28.1172C49.8655 29.9618 49.5293 31.3377 49.1132 33.2423L48.5898 33.4785C48.8114 31.9311 48.7794 30.8065 48.7498 29.2584C49.0146 29.3816 49.0671 29.5061 49.2347 29.7459L49.2974 29.8369L49.4488 29.7862L49.5022 29.4521C49.6325 29.0426 49.8017 28.617 49.9539 28.2128Z" fill="#903E3A"/>
<path d="M34.9134 9.30762L35.3882 9.33487C36.6917 9.35558 36.9482 9.35867 37.9568 10.2493C38.9889 11.1611 39.5061 13.0018 40.318 13.8556C42.0179 15.6431 43.9525 17.9254 45.7092 19.5979L45.8821 19.8268C46.5066 20.9777 47.2124 22.5428 47.8015 23.5627C47.8887 23.9626 47.7693 24.1748 47.6337 24.5734C48.4059 26.6398 48.29 27.6753 48.752 29.257C48.7816 30.805 48.8136 31.9297 48.592 33.477C47.7127 33.9309 47.2331 34.3909 46.5595 35.1132C46.859 35.4598 46.7821 35.4795 47.1513 35.5988C47.5051 36.1345 47.8772 36.6656 48.1647 37.2386L47.9562 37.4383C47.6696 37.3798 47.6689 37.3962 47.4288 37.2368C45.2216 33.1038 41.059 32.4221 37.927 29.8667C37.801 29.0358 36.8541 28.7137 36.1391 28.6554C36.0808 28.3465 36.1318 28.1646 36.166 27.845C35.9891 27.4925 35.0905 26.2281 34.7669 25.6551C32.5388 21.6654 32.0125 16.5983 33.0133 12.1655C33.2577 11.0828 33.7639 10.0606 34.6961 9.44988L34.9134 9.30762Z" fill="url(#paint1_linear_138_2464)"/>
<path d="M46.2447 23.7057C46.3816 22.7651 44.4246 20.0377 43.9167 19.0811C44.7824 19.7137 45.0561 20.7614 45.9354 21.6508L46.0925 21.633C46.5957 22.1052 47.3372 23.8802 47.6332 24.575C48.4054 26.6414 48.2896 27.6769 48.7516 29.2585C48.7812 30.8065 48.8131 31.9312 48.5916 33.4785C47.7122 33.9324 47.2326 34.3925 46.5591 35.1147C46.8585 35.4614 46.7817 35.481 47.1509 35.6004C47.5047 36.136 47.8768 36.6671 48.1643 37.2402L47.9558 37.4399C47.6692 37.3813 47.6685 37.3977 47.4284 37.2384C45.2212 33.1053 41.0586 32.4236 37.9266 29.8683C37.8005 29.0374 36.8536 28.7152 36.1387 28.6569C36.0804 28.348 36.1314 28.1662 36.1655 27.8466L36.8773 27.9091C36.5731 27.4535 36.303 27.0079 36.0195 26.54C36.8195 26.8923 37.9693 28.6204 39.2231 29.2896C40.5662 30.0416 43.4087 31.4914 45.002 30.9688C47.7493 30.068 46.8191 25.5607 46.2447 23.7057Z" fill="#FEA5A3"/>
<path d="M36.8765 27.9092C39.486 31.6105 44.6572 31.9446 46.5582 35.1148C46.8577 35.4615 46.7809 35.4811 47.1501 35.6005C47.5039 36.1361 47.876 36.6672 48.1635 37.2403L47.955 37.44C47.6684 37.3815 47.6677 37.3978 47.4276 37.2385C45.2204 33.1055 41.0578 32.4237 37.9258 29.8684C37.7997 29.0375 36.8528 28.7154 36.1379 28.657C36.0796 28.3482 36.1306 28.1663 36.1647 27.8467L36.8765 27.9092Z" fill="#647133"/>
<path d="M34.9134 9.30762L35.3882 9.33487C36.6917 9.35558 36.9482 9.35867 37.9568 10.2493C38.9889 11.1611 39.5061 13.0018 40.318 13.8556C42.0179 15.6431 43.9525 17.9254 45.7092 19.5979L45.8821 19.8268C46.5066 20.9777 47.2124 22.5428 47.8015 23.5627C47.8887 23.9626 47.7693 24.1748 47.6337 24.5734C47.3377 23.8786 46.5962 22.1036 46.0929 21.6314C44.8384 18.6038 41.2453 16.5374 39.5137 13.8018C38.608 12.3708 37.4071 9.15372 35.0598 10.0202C34.4425 10.2479 34.0212 11.0751 33.8307 11.6707C32.9574 14.5819 33.0184 19.5085 34.0808 22.329C34.4482 23.714 35.1808 25.3663 36.02 26.5385C36.3035 27.0063 36.5735 27.452 36.8777 27.9075L36.166 27.845C35.9891 27.4925 35.0905 26.2281 34.7669 25.6551C32.5388 21.6654 32.0125 16.5983 33.0133 12.1655C33.2577 11.0828 33.7639 10.0606 34.6961 9.44988L34.9134 9.30762Z" fill="#AB4E4B"/>
<path d="M34.0763 22.3296C33.0139 19.5091 32.9529 14.5825 33.8263 11.6714C34.0168 11.0758 34.4381 10.2485 35.0554 10.0209C37.4026 9.15436 38.6036 12.3714 39.5093 13.8025C41.2409 16.5381 44.834 18.6045 46.0885 21.6321L45.9314 21.6499C45.0521 20.7605 44.7784 19.7128 43.9127 19.0802C44.4206 20.0368 46.3776 22.7642 46.2407 23.7048C45.7091 23.1298 45.75 22.6221 45.3072 22.0478C44.5743 20.3791 43.2046 18.4702 41.7063 17.4207L41.5807 17.4191C40.9518 17.0428 40.4296 16.328 39.875 15.9085C38.2413 14.6724 37.9059 13.0802 36.9012 11.5491C36.3764 10.8359 36.0909 10.4471 35.1798 10.6562C34.7087 12.1036 34.5038 11.4008 34.1325 12.0602C33.1741 13.7612 33.3735 17.6984 33.8032 19.2113L33.8239 19.1781C34.0961 20.1456 34.6052 21.4496 34.0763 22.3296Z" fill="#FDBDC4"/>
<path d="M41.7088 17.4219C43.2071 18.4713 44.5768 20.3802 45.3097 22.0489L45.0785 22.1194C44.513 21.5207 43.9569 20.4669 43.169 19.7636C42.8688 19.4957 41.9593 18.4514 41.6731 18.1003C41.5132 17.9043 41.6396 17.6595 41.7088 17.4219Z" fill="#FED2D8"/>
<path d="M35.1816 10.657C36.0928 10.4479 36.3782 10.8367 36.9031 11.5498L36.6841 11.7325C36.2094 11.578 35.5527 10.9984 35.1816 10.657Z" fill="#FED2D8"/>
<path d="M34.9121 9.30841C35.0966 7.7362 36.6651 4.94719 38.7011 5.16431C38.8806 5.21828 39.2674 5.50263 39.4437 5.48973C42.3284 5.28005 43.5978 6.10185 45.4743 8.20424L45.2831 8.6821C44.2715 10.3953 44.154 11.4126 44.0302 13.3471C44.1539 14.5001 44.4926 17.0397 45.1104 17.9781L45.3309 17.9593C45.6879 17.0357 42.9491 14.2545 45.6123 9.13416C47.3316 11.5333 47.31 14.6515 47.2895 17.589C46.5538 17.9578 46.1248 18.1437 45.7013 18.8841C45.6993 19.1308 45.6995 19.3509 45.7079 19.5987C43.9512 17.9262 42.0165 15.6439 40.3167 13.8564C39.5047 13.0026 38.9875 11.1619 37.9555 10.2501C36.9468 9.35946 36.6904 9.35637 35.3868 9.33566L34.9121 9.30841Z" fill="#FEA5A3"/>
<path d="M34.9121 9.3084C35.0966 7.7362 36.6651 4.94719 38.7011 5.16431C38.8806 5.21828 39.2674 5.50263 39.4437 5.48973C42.3284 5.28005 43.5978 6.10185 45.4743 8.20424L45.2831 8.6821C44.2715 10.3953 44.154 11.4126 44.0302 13.3471C43.8827 13.3564 43.5024 13.2902 43.4251 13.1596C42.6543 11.8569 41.9216 10.4863 40.9185 9.34474C40.4456 8.80638 39.6237 8.57109 39.2409 7.95587C38.8515 7.33229 39.2964 6.79248 38.9283 6.15909C38.6472 5.7332 38.8085 5.86438 38.3034 5.68178C36.9475 5.83822 35.7508 8.16754 35.3868 9.33566L34.9121 9.3084Z" fill="#FE9191"/>
<path d="M34.9121 9.30841C35.0966 7.7362 36.6651 4.94719 38.7011 5.16431C38.8806 5.21828 39.2674 5.50263 39.4437 5.48973C42.3284 5.28005 43.5978 6.10185 45.4743 8.20424L45.2831 8.6821C43.7233 7.14624 41.8213 5.46502 39.4708 6.29009C39.2378 6.37186 39.163 6.26484 38.9283 6.15909C38.6472 5.7332 38.8085 5.86438 38.3034 5.68178C36.9475 5.83822 35.7508 8.16754 35.3868 9.33566L34.9121 9.30841Z" fill="#AB4E4B"/>
<path d="M45.4754 8.20478C46.2281 5.79678 50.0235 3.70039 52.3724 3.0432C52.8795 2.9013 53.1196 3.13132 53.5002 3.40841L53.2018 3.69512C52.0528 3.09026 51.7918 3.94968 50.7741 4.33142C48.0631 5.348 47.3837 6.25593 45.8889 8.60124C47.9812 11.4978 47.3754 13.1707 47.7288 16.3812C47.9086 18.0143 48.0802 20.179 48.2856 21.7834C48.6016 21.2434 48.9624 20.5669 49.3656 20.1031C49.8387 19.5583 50.0219 20.12 50.1688 19.4235C50.0108 19.0821 49.7075 18.6124 49.8679 18.2632C50.2691 17.3895 50.5722 17.126 51.4646 17.2383C52.5377 18.1749 51.1163 20.0184 50.896 21.2988C50.9913 21.8662 51.0783 22.4351 51.1568 23.0051C51.2732 23.4691 51.2479 23.6345 51.1528 24.1027C51.4629 24.0618 51.5714 23.9766 51.8407 23.8271C51.4105 24.8985 50.906 25.8355 50.4316 26.875C50.5293 27.1592 50.6199 27.4461 50.7029 27.735L50.4897 28.1171L49.9558 28.2126C49.8036 28.6169 49.6344 29.0424 49.5041 29.452L49.4507 29.7861L49.2993 29.8368L49.2366 29.7458C49.069 29.5059 49.0165 29.3815 48.7517 29.2583C48.2897 27.6766 48.4056 26.6412 47.6334 24.5748C47.7691 24.1761 47.8884 23.9639 47.8012 23.564C47.2121 22.5441 46.5064 20.979 45.8818 19.8282L45.7089 19.5992C45.7006 19.3514 45.7004 19.1314 45.7024 18.8846C46.1259 18.1442 46.5549 17.9583 47.2905 17.5895C47.3111 14.652 47.3327 11.5338 45.6134 9.1347C42.9502 14.255 45.689 17.0362 45.3319 17.9598L45.1114 17.9787C44.4936 17.0402 44.1549 14.5007 44.0312 13.3477C44.1551 11.4131 44.2726 10.3958 45.2842 8.68264L45.4754 8.20478Z" fill="#AB4E4B"/>
<path d="M49.5015 29.4512C49.3099 29.0646 49.2755 28.3587 49.1578 28.0049C48.3299 25.5146 50.0134 23.2671 50.3866 20.81C50.4569 20.3471 50.2391 18.8971 50.1854 18.2563C50.3505 17.8373 50.3752 17.7875 50.7614 17.5617C51.248 17.546 51.0654 17.4839 51.4385 17.7659C51.946 18.9676 50.8159 19.3108 50.8199 21.1049L50.8214 21.2759L50.8933 21.298C50.9886 21.8655 51.0756 22.4344 51.1541 23.0043C51.2705 23.4684 51.2452 23.6337 51.1501 24.102C51.4603 24.0611 51.5687 23.9759 51.838 23.8263C51.4078 24.8978 50.9033 25.8348 50.4289 26.8743C50.5266 27.1584 50.6172 27.4453 50.7002 27.7342L50.487 28.1163L49.9531 28.2119C49.8009 28.6162 49.6317 29.0417 49.5015 29.4512Z" fill="#F0B113"/>
<path d="M50.8233 21.2764L50.8952 21.2985C50.9905 21.866 51.0775 22.4349 51.1559 23.0048C51.2724 23.4689 51.2471 23.6342 51.152 24.1024C51.4621 24.0616 51.5706 23.9764 51.8399 23.8268C51.4097 24.8983 50.9052 25.8353 50.4308 26.8747C50.5285 27.1589 50.6191 27.4458 50.7021 27.7347L50.4889 28.1168L49.955 28.2124C49.052 27.3524 50.7157 22.836 50.8233 21.2764Z" fill="#87653D"/>
<path d="M50.4301 26.8738C50.3182 27.071 50.3694 26.9972 50.1511 27.1267C50.1093 26.1787 50.5615 23.8508 51.1552 23.0039C51.2716 23.468 51.2464 23.6333 51.1512 24.1015C51.4614 24.0606 51.5698 23.9754 51.8391 23.8259C51.4089 24.8974 50.9044 25.8343 50.4301 26.8738Z" fill="#F0B113"/>
<path d="M45.8809 19.8279C46.3247 19.1028 46.4161 18.7147 47.1174 18.271L47.4578 18.2354C47.9236 18.7864 47.8722 21.0983 48.0126 22.1218L47.9365 21.9657C47.4518 20.9548 47.388 19.5808 46.8692 19.212C46.6603 20.1262 47.975 21.9457 47.8003 23.5637C47.2111 22.5439 46.5054 20.9788 45.8809 19.8279Z" fill="#F0B113"/>
<path d="M49.9426 20.1436L50.0953 20.3803C50.1741 20.8909 49.4005 23.157 49.1539 23.4335C48.4916 21.8537 48.7331 21.3169 49.9426 20.1436Z" fill="#D8A766"/>
<path d="M59.6166 9.60085C59.225 9.89774 59.1072 10.058 58.6472 9.98314C58.0312 9.31069 57.7306 8.45454 57.2541 7.67561C56.8841 7.07093 55.7485 6.15301 55.8866 5.48438C56.4425 5.68279 56.7766 5.80053 57.367 5.87302C58.5215 7.21048 58.9708 7.90455 59.6166 9.60085Z" fill="#FDBDC4"/>
<path d="M23.4949 77.8721C23.8957 75.6797 29.5471 73.958 30.8162 74.5858C30.7508 75.4157 30.6625 76.2361 30.5986 77.0664L30.8601 77.3032C33.0499 76.4463 32.6369 76.2781 35.2446 76.5675C35.2354 76.8413 35.2007 77.0152 35.2744 77.2703L34.8545 77.234L34.9571 77.8719L35.5377 79.5021L36.424 79.2172C36.4966 79.5319 36.5901 79.8774 36.6276 80.1945L37.3024 80.1638V80.2466C38.4832 80.297 39.3429 80.3598 40.28 81.1677C41.2654 81.6041 42.2699 82.2805 43.5714 82.8636C44.0848 83.0077 44.4622 83.139 45.0025 83.1385C45.7534 83.0322 46.5369 83.0811 47.2671 82.8725C47.9371 84.4118 48.4065 84.6429 50.0521 84.6635L50.4968 84.4701C50.8951 84.8117 50.9717 84.8704 51.4454 85.0923L51.3578 85.1847C51.0264 85.5289 50.9614 85.5994 50.5468 85.8232C50.8782 85.9399 50.9423 85.9464 51.2939 85.9878C52.2829 86.1546 53.3193 86.1234 54.0271 86.9961C54.6567 87.7726 55.2017 88.3544 56.0211 88.9407C57.5751 89.0945 63.97 89.1164 64.6917 89.6793C65.1408 89.6893 65.1691 89.7718 65.4394 89.5605L65.1786 89.0138C65.5051 88.3233 69.1988 88.7908 70.8325 87.6015C73.4302 87.7737 74.8918 87.159 77.3853 86.5678C78.3278 86.3445 77.9885 86.1374 79.1612 86.1165C80.1526 86.1822 79.9263 85.3121 81.3319 84.8775C82.2223 85.2076 82.9653 85.3632 83.772 85.841C84.9023 85.2878 85.4587 85.1417 86.7465 85.1635C87.0907 85.3495 87.1486 85.3864 87.5221 85.4853C87.7354 85.1867 87.6471 85.2024 87.5884 84.7078C88.7547 85.099 90.1961 85.6839 90.9316 86.7215C90.9752 86.9432 91.0787 87.2512 90.8935 87.4C88.7558 89.1139 82.3173 90.7413 79.8578 91.2132C72.418 92.6404 65.2828 92.99 57.773 93.1964C55.0036 93.2723 52.7876 93.3763 50.0432 93.256C49.2726 93.4573 48.4586 93.4053 47.685 93.2487C47.0534 93.0988 43.353 93.1232 42.4649 93.0825C40.8212 92.8692 38.0701 93.0548 36.2202 92.8688C28.5677 92.1099 20.9039 91.7341 13.4128 89.8243C11.5773 89.3565 4.77037 88.0392 4 86.3347C4.21756 84.3397 10.6052 82.8421 12.4518 82.4624L13.5467 82.3123C15.4746 80.2219 18.0216 80.3068 20.4212 79.789C20.5986 79.7508 20.6173 79.5028 20.68 79.2851C21.4852 78.1201 22.1955 78.0836 23.4949 77.8721Z" fill="#F0D8B6"/>
<path d="M23.4955 77.8721C23.8963 75.6797 29.5477 73.958 30.8168 74.5858C30.7514 75.4157 30.6631 76.2361 30.5992 77.0664L30.8607 77.3032C33.0505 76.4463 32.6375 76.2781 35.2452 76.5675C35.236 76.8413 35.2013 77.0152 35.275 77.2703L34.8551 77.234L34.9577 77.8719L35.5383 79.5021L36.4246 79.2172C36.4972 79.5319 36.5907 79.8774 36.6282 80.1945L37.303 80.1638V80.2466C38.4838 80.297 39.3435 80.3598 40.2806 81.1677C41.266 81.6041 42.2705 82.2805 43.572 82.8636L43.7931 83.3077C43.4762 83.6347 43.2217 83.5315 42.6816 83.7599C42.7572 84.0844 42.753 83.9906 43.1173 84.245C43.5234 84.5946 43.7449 84.6962 44.2204 84.9031C44.4552 85.261 44.4623 85.2725 44.4347 85.6866C43.8944 86.7308 42.1174 86.6452 41.0775 86.943L40.9598 87.1952C41.1129 87.4886 41.0984 87.4699 41.392 87.6245L40.792 87.9096C39.7434 87.9194 39.4592 87.6996 38.5343 87.1836C37.2879 87.6689 36.3423 88.0077 34.9901 88.0681C34.3891 88.0948 33.8458 88.0519 33.3752 88.472L33.2888 88.4901C33.1184 87.9276 33.3458 87.4648 33.7778 87.0831L33.8283 86.9177C33.0389 87.2039 31.4549 87.4992 31.2395 87.5835C30.7773 87.5936 29.7805 87.4955 29.5224 87.6671L29.5557 87.906C28.9575 88.1987 28.4039 88.1097 27.7365 88.0741C27.2981 88.1304 26.9956 88.1069 26.5588 88.0913L26.4706 87.9389C26.5189 88.2 26.5764 88.4382 26.6382 88.6953L26.4782 88.8183C26.2668 88.7832 25.7725 88.6742 25.6014 88.6591C24.973 88.6037 24.7685 87.8028 24.2451 87.5624C23.2338 87.098 21.3222 86.9212 20.6045 86.0135C19.586 84.7256 20.9307 84.6924 21.0238 83.8418C20.0933 82.7851 13.3019 84.1856 12.4518 83.9498C12.3093 83.5237 12.4153 83.6738 11.9688 83.4101C12.2074 83.1056 12.3031 82.8167 12.4524 82.4624L13.5473 82.3123C15.4752 80.2219 18.0222 80.3068 20.4218 79.789C20.5992 79.7508 20.6179 79.5028 20.6806 79.2851C21.4858 78.1201 22.1961 78.0836 23.4955 77.8721Z" fill="#E3BD7D"/>
<path d="M23.4945 77.8721C23.8953 75.6797 29.5467 73.958 30.8158 74.5858C30.7504 75.4157 30.6621 76.2361 30.5982 77.0664L30.8597 77.3032C30.7814 77.8354 30.7577 78.2687 30.411 78.7026L30.1068 79.1221C30.1676 79.6229 30.16 80.3622 30.4542 80.6377L30.6698 80.6578L31.0197 80.9798C30.6757 81.3037 30.387 81.4836 30.322 81.9286C30.6238 82.6686 31.2867 82.7302 32.022 82.9871C34.3791 83.6238 37.1273 82.796 39.468 82.3667C38.7923 83.1961 37.0325 83.3874 35.9917 83.4712C35.5984 83.8377 32.8721 84.0746 32.2156 84.2145C32.1922 84.2181 32.1685 84.2218 32.1449 84.2254C30.1827 84.0517 29.933 83.9447 29.7332 82.3456L29.2583 81.7578C28.8087 81.53 25.1028 81.9938 23.681 81.8624L22.6578 81.6669C21.7115 81.5772 20.5131 81.5483 19.5422 81.4914C19.4518 81.2937 19.1794 80.9571 19.0361 80.7659C16.758 79.82 13.9576 83.5417 12.897 83.517C12.866 83.1218 13.1277 82.8036 13.3976 82.4833C13.446 82.4255 13.4956 82.3685 13.5463 82.3123C15.4742 80.2219 18.0212 80.3068 20.4208 79.789C20.5982 79.7508 20.6169 79.5028 20.6796 79.2851C21.4848 78.1201 22.1951 78.0836 23.4945 77.8721Z" fill="#87653D"/>
<path d="M23.4954 77.8721C23.8962 75.6797 29.5476 73.958 30.8167 74.5858C30.7513 75.4157 30.6631 76.2361 30.5991 77.0664L30.3216 76.99L30.3382 77.1404L30.4627 77.2291C30.0394 77.5894 29.5723 78.1394 29.143 78.3759C28.0679 78.9677 25.5848 78.5454 24.9503 79.4425L24.8531 78.9512C24.2019 78.8569 23.8908 78.8321 23.4375 78.3643L23.4954 77.8721Z" fill="#698237"/>
<path d="M24.1488 77.6561C24.2267 77.5492 24.3064 77.4439 24.3882 77.3398C25.508 75.9147 27.9026 75.4127 29.6382 75.0382C29.7804 75.0075 29.7646 75.0553 29.9321 75.1921C29.8879 75.6723 29.8669 75.5504 29.4675 75.9988C30.1173 76.2956 29.9379 76.1059 30.2001 76.6764C29.7835 78.518 24.7089 78.7012 24.0605 77.8719L24.1488 77.6561Z" fill="#84AA38"/>
<path d="M24.1484 77.6561C24.2263 77.5492 24.3061 77.4439 24.3878 77.3398C25.5076 75.9147 27.9022 75.4127 29.6378 75.0382C29.78 75.0075 29.7642 75.0553 29.9317 75.1921C29.8876 75.6723 29.8665 75.5504 29.4671 75.9988C28.0096 76.6564 27.3402 76.7225 26.0506 77.7211C25.5374 77.7342 24.5899 77.8058 24.1484 77.6561Z" fill="#90B43C"/>
<path d="M30.4642 77.2284L30.3396 77.1397L30.3231 76.9893L30.6006 77.0657L30.8621 77.3025C30.7838 77.8347 30.76 78.268 30.4133 78.7019L30.1092 79.1214C30.0451 79.177 29.5725 79.5831 29.5456 79.6189C27.7452 80.4983 26.0978 80.9375 24.1465 80.1989C24.2861 79.7783 24.609 79.3331 24.8546 78.9505L24.9517 79.4418C25.5863 78.5447 28.0694 78.967 29.1445 78.3752C29.5738 78.1387 30.0409 77.5887 30.4642 77.2284Z" fill="#84AA38"/>
<path d="M30.4642 77.2284L30.3396 77.1397L30.3231 76.9893L30.6006 77.0657L30.8621 77.3025C30.7838 77.8347 30.76 78.268 30.4133 78.7019L30.1092 79.1214C30.0451 79.177 29.5725 79.5831 29.5456 79.6189C27.7452 80.4983 26.0978 80.9375 24.1465 80.1989C24.2861 79.7783 24.609 79.3331 24.8546 78.9505L24.9517 79.4418C25.0422 79.6269 24.9955 79.5677 25.1288 79.709C25.2921 79.882 25.6335 79.8737 25.8665 79.8778C27.2765 79.904 29.1764 79.5337 30.1807 78.4535C30.5663 78.0387 30.4969 77.74 30.4642 77.2284Z" fill="#647133"/>
<path d="M23.4946 77.8711L23.4367 78.3633C23.8899 78.8312 24.201 78.8559 24.8523 78.9502C24.6067 79.3328 24.2838 79.778 24.1442 80.1986C23.6377 81.0751 22.6263 80.911 21.7492 80.8289C21.3987 80.3545 21.2127 80.2542 21.1464 79.6326L20.6797 79.2841C21.4849 78.1191 22.1952 78.0826 23.4946 77.8711Z" fill="#D8A766"/>
<path d="M23.4946 77.8711L23.4367 78.3633C22.3525 78.5459 21.9956 78.9291 21.1464 79.6326L20.6797 79.2841C21.4849 78.1191 22.1952 78.0826 23.4946 77.8711Z" fill="#825446"/>
<path d="M29.5422 79.6182C29.7467 80.0192 29.7774 80.0744 29.7338 80.519C28.8169 81.9508 22.985 81.7276 21.748 80.8284C22.6252 80.9106 23.6366 81.0746 24.1431 80.1981C26.0944 80.9367 27.7418 80.4976 29.5422 79.6182Z" fill="#C18F51"/>
<path d="M29.7344 82.3447C30.5901 82.8602 31.0632 83.0205 31.9845 83.3622C33.6238 83.6104 34.2836 83.624 35.9929 83.4703C35.5995 83.8368 32.8733 84.0737 32.2168 84.2136C32.1933 84.2173 32.1697 84.2209 32.1461 84.2245C30.1838 84.0508 29.9341 83.9438 29.7344 82.3447Z" fill="#D2A360"/>
<path d="M19.0371 80.7653C21.2115 80.3972 20.2671 81.0469 22.6589 81.6663C21.7125 81.5766 20.5141 81.5477 19.5432 81.4908C19.4528 81.2931 19.1804 80.9565 19.0371 80.7653Z" fill="#C18F51"/>
<path d="M30.8604 77.3029C33.0502 76.4461 32.6372 76.2778 35.2449 76.5673C35.2356 76.8411 35.2009 77.015 35.2747 77.27L34.8548 77.2337L34.9574 77.8716L35.538 79.5018L36.4242 79.2169C36.4969 79.5316 36.5904 79.8772 36.6278 80.1942C35.7033 80.2153 34.7322 80.213 33.8198 80.3381C33.5176 80.3734 32.7994 80.4375 32.5382 80.5042C31.851 80.6474 31.6652 80.7037 31.0204 80.9795L30.6704 80.6576L30.4548 80.6374C30.1606 80.362 30.1683 79.6226 30.1074 79.1219L30.4116 78.7023C30.7583 78.2685 30.7821 77.8351 30.8604 77.3029Z" fill="#87653D"/>
<path d="M31.6445 77.7263C32.598 77.019 33.7437 76.7417 34.857 77.2341L34.9596 77.872C33.9927 78.9291 31.8643 79.4046 31.6445 77.7263Z" fill="#D2A360"/>
<path d="M31.6443 77.7256C31.864 79.4039 33.9925 78.9284 34.9594 77.8713L35.5399 79.5015C34.4794 79.4226 31.6049 79.3461 31.0332 78.416C31.1529 77.9567 31.148 78.0853 31.6443 77.7256Z" fill="#D8A766"/>
<path d="M30.4116 78.7021C31.018 79.1142 31.069 79.248 31.4248 79.8933C31.7266 79.7391 32.143 79.466 32.4538 79.5054L32.5865 79.7305C32.3555 80.2373 31.2003 80.4261 30.6704 80.6574L30.4548 80.6372C30.1606 80.3618 30.1683 79.6224 30.1074 79.1217L30.4116 78.7021Z" fill="#A97948"/>
<path d="M27.6624 87.0257C28.6699 86.1519 31.4956 84.8515 32.7855 84.8604L32.9753 85.0256C32.8109 85.5296 32.5977 85.8257 32.7036 86.2482C33.1736 86.4244 33.598 86.5053 33.8281 86.9175C33.0387 87.2037 31.4547 87.499 31.2393 87.5833C30.7771 87.5934 29.7803 87.4953 29.5222 87.6669L29.5555 87.9058C28.9572 88.1985 28.4037 88.1095 27.7363 88.0738C27.2979 88.1302 26.9954 88.1067 26.5586 88.0911C26.7887 87.5611 27.1895 87.3509 27.6624 87.0257Z" fill="#C18F51"/>
<path d="M27.6624 87.0256C28.6474 86.788 31.0851 85.8746 31.902 86.3673C31.4353 86.8107 28.9927 87.3816 27.7363 88.0738C27.2979 88.1301 26.9954 88.1067 26.5586 88.0911C26.7887 87.5611 27.1895 87.3509 27.6624 87.0256Z" fill="#A97948"/>
<path d="M36.6294 80.1938L37.3042 80.1631V80.2459C38.4851 80.2963 39.3448 80.3591 40.2819 81.167C39.9154 81.4855 39.7138 81.7427 39.2465 81.7887L38.871 81.6524C38.675 81.2316 38.8009 81.3439 38.4271 81.1717C37.7966 81.4488 37.7272 81.595 37.2901 81.115C36.5459 81.4024 34.8251 81.1357 34.0094 81.2542C33.5969 81.7369 31.7175 81.7289 31.2324 81.3855L31.357 81.099C31.8769 80.934 32.1089 80.8721 32.5398 80.5038C32.801 80.4371 33.5192 80.3729 33.8214 80.3377C34.7338 80.2125 35.7048 80.2149 36.6294 80.1938Z" fill="#F0D8B6"/>
<path d="M33.8281 80.6513C34.8219 80.5569 36.3345 80.706 37.0573 80.5938L37.2895 81.1148C36.5453 81.4023 34.8246 81.1356 34.0088 81.254L33.8281 80.6513Z" fill="#87653D"/>
<path d="M39.4692 82.3662L39.9389 82.8999L39.9801 83.2363C39.1512 83.9055 34.7418 84.4448 33.5013 84.3774C33.2641 84.3645 32.5008 84.2493 32.2168 84.214C32.8733 84.0741 35.5996 83.8372 35.9929 83.4707C37.0337 83.387 38.7935 83.1956 39.4692 82.3662Z" fill="#D8A766"/>
<path d="M23.6816 81.863C25.1034 81.9944 28.8093 81.5305 29.2589 81.7583C28.4848 82.1753 24.5105 82.9419 23.8046 82.5978L23.6816 81.863Z" fill="#D8A766"/>
<path d="M19.5449 81.4902C20.5158 81.5471 21.7142 81.576 22.6606 81.6658L23.6837 81.8613L23.8067 82.596C22.3457 82.1449 21.8206 82.1727 20.297 82.1616C19.9421 82.1591 19.7309 81.7522 19.5449 81.4902Z" fill="#D2A360"/>
<path d="M33.7783 87.083C34.446 87.2549 35.0125 87.1866 35.6439 87.3863C34.983 87.548 33.8985 87.6661 33.4955 88.0338L33.3757 88.4719L33.2892 88.49C33.1189 87.9275 33.3462 87.4647 33.7783 87.083Z" fill="#D8A766"/>
<path d="M24.079 84.6869C23.6838 84.6133 23.6136 84.5743 23.2416 84.4082L23.1953 84.2478C23.7038 84.0148 26.3567 83.9002 26.9894 84.1066C26.9691 85.3872 24.9384 85.4673 24.2661 85.0398L24.079 84.6869Z" fill="#A97948"/>
<path d="M26.9885 84.1064C26.9682 85.387 24.9375 85.4672 24.2652 85.0396L24.0781 84.6868C25.0761 84.6346 26.1383 84.6695 26.9885 84.1064Z" fill="#C18F51"/>
<path d="M43.5717 82.8633C44.0851 83.0074 44.4625 83.1387 45.0028 83.1382C45.7537 83.0319 46.5372 83.0808 47.2674 82.8722C47.9373 84.4115 48.4068 84.6426 50.0523 84.6632L50.4971 84.4698C50.8953 84.8114 50.972 84.8701 51.4456 85.0919L51.3581 85.1844C51.0266 85.5286 50.9616 85.5991 50.547 85.8229C50.8785 85.9396 50.9426 85.9461 51.2941 85.9875C52.2832 86.1543 53.3196 86.1231 54.0273 86.9957C54.657 87.7723 55.2019 88.3541 56.0214 88.9404C57.5754 89.0941 63.9703 89.1161 64.692 89.679C63.6221 89.8115 62.6496 89.8064 61.4585 90.0061C58.2526 90.5437 54.0524 91.4671 50.9511 90.1836C50.7568 90.1031 49.3876 88.7462 49.06 88.4671C46.3884 88.297 45.0233 90.0142 42.7283 88.1059C42.4445 87.8699 42.0112 88.0363 41.7024 88.1244C40.7007 88.3238 38.1675 89.2735 37.1338 89.6988C36.9258 89.7844 36.9805 90.1064 36.979 90.3378L36.7933 90.4628C36.083 90.4985 35.5767 90.2799 34.9002 90.0582C33.976 89.7551 32.8695 89.7528 31.8961 89.6336C29.7404 89.3698 27.2073 89.2909 25.1083 88.8285C24.7382 88.4638 24.4055 88.0732 23.9175 87.9022C24.0503 88.1025 24.0834 88.1791 24.1836 88.399C22.1246 87.8319 18.183 87.2498 16.0491 87.3822C15.5915 87.5803 14.4501 87.5074 14.0211 87.2191L14.0418 86.9938L14.3696 86.7539C15.2493 86.4826 18.7614 86.1532 17.9215 84.5541C16.7603 83.7574 13.2518 84.1838 11.7207 84.272L12.4515 83.9495C13.3016 84.1853 20.0929 82.7848 21.0235 83.8415C20.9303 84.692 19.5857 84.7253 20.6041 86.0131C21.3219 86.9209 23.2334 87.0977 24.2448 87.5621C24.7682 87.8025 24.9727 88.6034 25.601 88.6588C25.7721 88.6739 26.2664 88.7829 26.4778 88.818L26.6378 88.695C26.5761 88.4379 26.5185 88.1997 26.4702 87.9386L26.5585 88.091C26.9952 88.1066 27.2978 88.1301 27.7362 88.0737C28.4036 88.1094 28.9571 88.1984 29.5553 87.9057L29.5221 87.6667C29.7802 87.4952 30.777 87.5933 31.2392 87.5832C31.4546 87.4989 33.0385 87.2036 33.828 86.9174L33.7775 87.0828C33.3455 87.4645 33.1181 87.9273 33.2884 88.4898L33.3749 88.4717C33.8454 88.0516 34.3888 88.0945 34.9897 88.0677C36.342 88.0074 37.2876 87.6686 38.5339 87.1833C39.4589 87.6993 39.7431 87.9191 40.7917 87.9093L41.3917 87.6242C41.098 87.4696 41.1126 87.4883 40.9595 87.1949L41.0772 86.9427C42.117 86.6449 43.894 86.7305 44.4343 85.6863C44.4619 85.2722 44.4549 85.2607 44.22 84.9028C43.7446 84.6958 43.523 84.5943 43.117 84.2447C42.7527 83.9903 42.7568 84.0841 42.6813 83.7596C43.2214 83.5312 43.4758 83.6344 43.7927 83.3073L43.5717 82.8633Z" fill="#EACA90"/>
<path d="M43.5712 82.8633C44.0846 83.0074 44.462 83.1387 45.0023 83.1382C45.7532 83.0319 46.5367 83.0808 47.2669 82.8722C47.9368 84.4115 48.4063 84.6426 50.0518 84.6632L50.4966 84.4698C50.8948 84.8114 50.9715 84.8701 51.4451 85.0919L51.3576 85.1844C51.0261 85.5286 50.9611 85.5991 50.5465 85.8229C50.878 85.9396 50.9421 85.9461 51.2936 85.9875C49.9979 86.2163 48.6927 86.62 47.6483 85.6305C45.6791 85.848 45.3598 84.0238 44.128 86.3972C43.8182 86.9941 42.1318 87.5474 41.3912 87.6242C41.0976 87.4696 41.1121 87.4883 40.959 87.1949L41.0767 86.9427C42.1165 86.6449 43.8936 86.7305 44.4338 85.6863C44.4614 85.2722 44.4544 85.2607 44.2195 84.9028C43.7441 84.6958 43.5225 84.5943 43.1165 84.2447C42.7522 83.9903 42.7563 84.0841 42.6808 83.7596C43.2209 83.5312 43.4753 83.6344 43.7922 83.3073L43.5712 82.8633Z" fill="#D8A766"/>
<path d="M50.4984 84.4697C50.8967 84.8113 50.9733 84.87 51.447 85.0919L51.3594 85.1843C51.028 85.5285 50.963 85.599 50.5484 85.8228C50.8798 85.9395 50.9439 85.946 51.2955 85.9874C49.9997 86.2162 48.6945 86.6199 47.6501 85.6304L47.6374 85.5515C47.0944 85.2189 46.4388 85.5872 46.1016 84.8495C46.5098 84.6394 48.82 85.3956 50.0537 84.6631L50.4984 84.4697Z" fill="url(#paint2_linear_138_2464)"/>
<path d="M43.572 82.8633C44.0854 83.0074 44.4628 83.1387 45.0031 83.1382C44.7663 83.7002 44.8689 84.2632 44.9152 84.8783C44.5088 84.7273 43.4871 84.3221 43.1173 84.2447C42.753 83.9903 42.7572 84.0841 42.6816 83.7596C43.2217 83.5312 43.4762 83.6344 43.7931 83.3073L43.572 82.8633Z" fill="#A97948"/>
<path d="M31.2402 87.5817C31.4556 87.4974 33.0396 87.2022 33.829 86.916L33.7785 87.0814C33.3465 87.4631 33.1191 87.9259 33.2895 88.4884C32.7993 88.6101 32.0618 88.8467 31.5998 88.6454C31.5203 88.1973 31.5188 87.9382 31.2402 87.5817Z" fill="#D2A360"/>
<path d="M16.8709 86.6924L17.1013 86.845C16.785 87.066 16.8057 87.062 16.4221 87.0747L16.0495 87.3828C15.5918 87.5809 14.4504 87.508 14.0215 87.2197L14.0422 86.9944L14.37 86.7545C15.3394 86.7845 15.9066 86.7776 16.8709 86.6924Z" fill="#C18F51"/>
<path d="M29.5567 87.9048L29.5234 87.6659C29.7815 87.4944 30.7783 87.5925 31.2405 87.5823C31.5191 87.9388 31.5206 88.1979 31.6001 88.6459C30.9614 88.3478 30.2157 87.8772 29.5567 87.9048Z" fill="#D8A766"/>
<path d="M42.464 93.0815L42.3848 92.9105L42.5126 92.658C43.3382 92.3847 46.6431 92.8003 47.7224 92.9024L47.684 93.2478C47.0524 93.0979 43.352 93.1222 42.464 93.0815Z" fill="#D8A766"/>
<path d="M47.7239 92.9018C48.5752 92.7249 49.3471 92.5922 50.0437 93.2545C49.2732 93.4558 48.4592 93.4039 47.6855 93.2472L47.7239 92.9018Z" fill="#D2A360"/>
<path d="M11.9695 83.4092C12.4161 83.6728 12.3101 83.5227 12.4526 83.9488L11.7218 84.2713C11.2366 84.2026 11.2604 84.2895 10.9941 84.0133C11.2271 83.6645 11.5676 83.5816 11.9695 83.4092Z" fill="#D8A766"/>
<path d="M70.7713 88.7066C71.1403 88.6677 70.9951 88.613 71.2424 88.8005L71.1868 89.2645C71.4131 89.6839 71.8606 89.3607 72.5827 89.6376C71.894 89.832 69.4761 89.8351 68.7615 89.5898C67.9519 89.5909 66.9222 89.6503 66.1602 89.4575C66.723 88.8948 69.7832 89.4032 70.7713 88.7066Z" fill="#EACA90"/>
<path d="M79.6858 86.4521C80.1814 86.5061 80.798 86.4856 80.9135 87.0481C80.4665 87.3363 80.3963 87.2487 79.8169 87.273C79.2238 87.2807 78.7978 87.3568 78.3359 87.0314L78.343 86.7957C78.7505 86.4747 79.1524 86.5021 79.6858 86.4521Z" fill="#C18F51"/>
<path d="M45.7508 91.0867C46.122 91.0235 46.1062 91.0188 46.4729 91.0911L46.5977 91.3013C46.2938 91.6698 46.3697 91.5539 45.7719 91.6745C45.2663 91.6365 45.0504 91.6765 44.75 91.3467C45.1263 91.05 45.2135 91.1325 45.7508 91.0867Z" fill="#EACA90"/>
<path d="M52.4542 50.9481C56.8518 41.0701 67.2837 36.3106 77.4714 40.3075C75.0706 48.1953 67.541 55.1215 59.2946 56.494C55.9489 57.0509 51.124 56.4171 49.894 60.7651C48.7934 65.3089 50.3663 73.5904 51.2918 78.2445C51.5024 79.3034 52.7005 81.9353 52.6931 82.6935C50.986 83.1086 50.2047 82.2269 48.4066 82.4126C48.1306 80.7323 47.9651 78.9057 47.7801 77.2034C47.8819 76.6483 47.4127 73.3923 47.4586 72.2446C47.5298 71.6631 47.5856 71.0799 47.6253 70.4956C47.5945 71.3561 47.6488 72.8661 48.0935 73.6135C47.8053 66.7516 46.8902 59.4344 47.2948 52.561L47.0789 52.7751L46.8301 52.7471L46.9029 46.3362L47.0471 46.122L47.117 46.1543C47.38 45.5707 46.9519 44.3869 47.5638 42.8365C47.5854 42.4159 47.5512 41.929 47.7743 41.6041C47.9989 41.9911 48.0674 43.3865 47.97 43.7746C47.9858 45.1844 47.9944 47.976 48.3579 49.2715C48.3968 50.9685 48.5261 58.2546 49.202 59.5514L49.3998 59.64C50.0496 59.1878 51.0537 57.1227 51.4699 56.3454C51.3766 55.5207 51.3561 55.1785 51.5092 54.3509C51.7176 53.9922 51.5774 54.0929 51.8773 53.9363L52.1246 54.4198L52.3849 54.3155C52.5138 54.5277 51.4541 56.292 51.6078 56.8868C52.0275 56.7936 57.1969 50.2321 58.9588 49.0078C61.8678 46.9866 70.0257 41.6068 73.4683 41.5382L73.5184 41.3915C72.5604 41.7665 71.1608 42.0218 70.0599 42.4246C64.727 44.376 60.1324 47.3244 55.7032 50.8264C54.7054 51.6151 53.7794 52.7362 52.7305 53.4359C51.5057 52.897 52.3642 52.079 52.4542 50.9481Z" fill="url(#paint3_linear_138_2464)"/>
<path d="M47.5638 42.8369C47.5854 42.4163 47.5512 41.9294 47.7743 41.6045C47.9989 41.9915 48.0674 43.3869 47.97 43.775C46.9318 45.2235 49.9557 76.1169 50.5919 80.5913C50.4967 80.6358 50.4016 80.6805 50.3064 80.7252C48.9011 80.2473 48.0372 75.0258 48.0935 73.6138C47.8053 66.7519 46.8902 59.4347 47.2948 52.5614L47.0789 52.7754L46.8301 52.7475L46.9029 46.3366L47.0471 46.1223L47.117 46.1547C47.38 45.5711 46.9519 44.3873 47.5638 42.8369Z" fill="#99BD3D"/>
<path d="M46.9029 46.3356L47.0471 46.1213L47.117 46.1537C47.38 45.5701 46.9519 44.3863 47.5638 42.8359C47.5207 44.5635 47.6321 51.4468 47.2948 52.5604L47.0789 52.7745L46.8301 52.7465L46.9029 46.3356Z" fill="#90B43C"/>
<path d="M19.4727 32.1802C21.0766 32.1778 22.8741 32.0283 24.414 32.1257C29.4535 32.4424 34.2033 34.5924 37.7687 38.1705C41.5245 41.9176 44.1893 47.3495 44.2693 52.7201C44.2842 53.711 44.4718 53.8627 43.8887 54.5205C44.0073 54.6398 44.2071 54.7612 44.352 54.8602C44.5296 54.7767 44.5309 54.7552 44.6396 54.6011C45.082 55.4073 46.2094 57.7657 47.0045 58.0008C47.1367 58.3399 46.9609 58.5383 46.7946 58.9649C46.9528 59.2129 46.9809 59.6835 46.7842 59.913C45.4422 57.9999 45.8359 56.4108 43.5647 54.5292C41.3903 52.5231 38.1975 52.2715 35.5455 51.1121C34.8654 50.8146 32.216 49.3914 31.7574 49.4121C25.9367 46.414 21.513 38.5711 19.5887 32.5543C19.5487 32.43 19.5101 32.3052 19.4727 32.1802Z" fill="#99BD3D"/>
<path d="M29.1934 37.3271C29.8292 37.5074 32.4252 39.3988 32.9087 39.9975C32.1279 39.879 29.7899 37.9378 29.1934 37.3271Z" fill="#647133"/>
<path d="M68.8896 82.4136C70.2116 82.7123 72.6552 83.535 73.8493 82.4827C74.229 82.148 74.0959 81.2097 74.0631 80.7206L74.2076 80.5654L74.7472 80.6316C75.9151 80.7012 76.323 80.7922 77.3129 81.4201L77.4678 81.6852C77.0085 82.3413 76.4786 81.9806 76.007 82.5599C76.8794 83.0908 78.5751 81.9605 80.6831 82.45C81.3789 82.5406 81.7274 82.6509 82.4024 82.8553C83.5019 84.2497 84.9761 84.4686 86.7466 85.1619C85.4588 85.1401 84.9024 85.2862 83.7721 85.8395C82.9654 85.3616 82.2224 85.2061 81.332 84.876C79.9264 85.3106 80.1527 86.1807 79.1613 86.1149C77.9887 86.1358 78.3279 86.343 77.3854 86.5663C74.8919 87.1575 73.4303 87.7722 70.8326 87.5999C69.1989 88.7893 65.5052 88.3218 65.1787 89.0122L65.4395 89.559C65.1693 89.7703 65.1409 89.6878 64.6918 89.6778C63.9701 89.1149 57.5752 89.0929 56.0212 88.9392C55.2018 88.3529 54.6568 87.7711 54.0272 86.9945C53.3195 86.1218 52.283 86.1531 51.294 85.9863C50.9424 85.9449 50.8783 85.9383 50.5469 85.8217C50.9615 85.5978 51.0265 85.5273 51.3579 85.1832L51.4455 85.0907C51.8855 85.2065 52.3133 85.3838 52.7218 85.2515L52.6989 85.0222C52.1808 84.806 51.3241 84.6714 51.2927 84.0625C51.6323 83.6119 52.5342 83.1698 53.0632 82.8715L53.4153 82.7383C55.184 81.9923 56.0328 81.8622 57.9344 82.0317L58.8761 82.2721L59.0297 82.1333L58.9932 81.7366C59.6308 81.4223 60.133 81.1999 60.7933 80.9357C62.204 80.6988 63.6474 80.7382 65.0432 81.052C65.3906 81.1434 68.8128 82.3112 68.8896 82.4136Z" fill="#E3BD7D"/>
<path d="M80.6839 82.4507C81.3797 82.5414 81.7282 82.6517 82.4032 82.8561C83.5026 84.2504 84.9769 84.4693 86.7474 85.1627C85.4596 85.1409 84.9032 85.287 83.7729 85.8402C82.9662 85.3624 82.2232 85.2068 81.3328 84.8767C81.9034 84.7019 81.7454 84.7408 82.1893 84.25L82.3456 84.1414L82.3783 83.5856C81.4309 82.9587 80.1273 84.1014 79.1708 83.3982C78.9756 82.9616 78.9901 83.1537 79.0972 82.6973C79.6016 82.3181 79.971 82.4427 80.6839 82.4507Z" fill="#EACA90"/>
<path d="M60.7942 80.9367C62.2049 80.6998 63.6483 80.7392 65.0442 81.053C64.3052 81.1538 62.2082 81.2932 61.9518 82.0659C62.1029 82.3813 61.9957 82.2518 62.3012 82.4535C62.7389 82.9684 62.8678 83.1844 63.2103 83.7684C61.4807 83.2308 60.5937 82.561 58.9941 81.7376C59.6318 81.4233 60.1339 81.2009 60.7942 80.9367Z" fill="#C18F51"/>
<path d="M68.8887 82.4136C70.2106 82.7123 72.6543 83.535 73.8483 82.4827C74.2281 82.148 74.095 81.2097 74.0621 80.7206L74.2066 80.5654L74.7462 80.6316L74.4767 80.7784L74.6363 81.4058C75.0302 82.9171 73.7811 83.3346 72.6906 83.7791C71.5846 83.641 69.4406 83.5214 68.8887 82.4136Z" fill="#D8A766"/>
<path d="M70.834 87.6012C71.6198 86.9087 78.2214 85.8353 79.1626 86.1162C77.99 86.1371 78.3292 86.3442 77.3867 86.5675C74.8933 87.1587 73.4317 87.7734 70.834 87.6012Z" fill="#EACA90"/>
<path d="M82.1891 84.2504C81.5927 84.2511 80.1134 85.001 79.0571 84.8296C78.5134 84.7415 77.3613 84.8193 76.8926 84.3501L76.9603 84.1775C77.8653 83.7587 79.9056 84.1917 80.9077 84.1612C81.3862 84.1466 81.6323 83.6141 82.3782 83.5859L82.3455 84.1417L82.1891 84.2504Z" fill="#C18F51"/>
<path d="M58.877 82.2728L59.0306 82.1339L58.9941 81.7373C60.5937 82.5607 61.4806 83.2305 63.2103 83.7681L63.353 84.1102C62.6487 83.8877 62.1057 83.6008 61.451 83.9945C60.624 83.6204 60.6734 82.9946 58.877 82.2728Z" fill="#87653D"/>
<path d="M62.3008 82.4531C63.0072 82.7978 63.6548 82.9477 64.1993 83.3818C64.2734 83.697 64.3037 83.5593 64.1917 83.814C63.9178 83.9419 63.6441 84.1091 63.3526 84.1102L63.2099 83.768C62.8674 83.1841 62.7385 82.968 62.3008 82.4531Z" fill="#D2A360"/>
<path d="M68.4719 86.6287L68.6045 86.5615C69.2895 86.7814 70.1559 86.537 70.5794 86.827C70.3165 87.1337 69.9678 87.2102 69.5766 87.3568C68.4615 87.4297 68.1448 87.4504 67.1062 87.0628L67.0332 86.8653C67.4643 86.5848 67.9354 86.6416 68.4719 86.6287Z" fill="#A97948"/>
<path d="M59.8779 84.9903C60.1908 84.9247 60.2605 84.9865 60.4369 85.1676L60.2952 85.359C59.3728 85.5672 57.8826 85.6117 56.8434 85.7213L56.4413 85.7573L56.2826 85.6195L55.9668 85.6995L56.0198 85.5654C56.6208 85.1985 59.0995 85.0803 59.8779 84.9903Z" fill="#A97948"/>
<path d="M72.5371 84.7858C73.2991 84.6771 73.839 84.5972 74.2557 85.2835C73.6445 85.3578 73.0928 85.5044 72.592 85.1764L72.5371 84.7858Z" fill="#A97948"/>
<path d="M53.1777 85.2304C54.0097 85.1014 54.8432 85.1881 55.6094 85.542C54.6357 85.6799 54.0425 85.7021 53.1777 85.2304Z" fill="#A97948"/>
<path d="M73.5935 72.5429L73.7421 72.319C73.4767 72.0521 72.8235 72.0441 72.3188 71.884C72.2856 71.5203 72.2416 71.6853 72.4839 71.3818L72.5956 71.5768C73.4756 71.8337 74.6828 72.1333 75.4417 72.6025C79.268 74.392 82.0663 77.5278 81.8524 81.908C82.9573 82.5003 82.9927 82.6149 83.9409 83.3913C84.8044 84.0985 86.4928 84.3768 87.5881 84.7066C87.6467 85.2012 87.735 85.1855 87.5218 85.4841C87.1482 85.3852 87.0903 85.3483 86.7462 85.1623C84.9757 84.4689 83.5014 84.25 82.4019 82.8557C81.7269 82.6513 81.3784 82.541 80.6827 82.4503C78.5746 81.9608 76.8789 83.0911 76.0065 82.5602C76.4781 81.981 77.0081 82.3417 77.4673 81.6856L77.3124 81.4205C76.3225 80.7925 75.9146 80.7015 74.7467 80.6319L74.2071 80.5658L74.0626 80.7209C74.0955 81.2101 74.2286 82.1483 73.8488 82.483C72.6548 83.5354 70.2111 82.7127 68.8892 82.414C68.8124 82.3115 65.3902 81.1437 65.0428 81.0524C63.6469 80.7386 62.2035 80.6991 60.7928 80.9361C60.1325 81.2003 59.6303 81.4226 58.9927 81.737L59.0292 82.1336L58.8756 82.2724L57.934 82.032C56.0324 81.8625 55.1835 81.9926 53.4149 82.7387L53.5731 82.1376L52.7378 80.1143L51.9766 78.378L51.9829 78.173C52.2838 77.8454 52.4153 77.929 52.9501 77.8594C53.5602 78.1534 54.4193 78.3026 55.0989 78.4507C57.1465 77.6274 59.2241 77.2731 61.2964 78.3624L61.4313 78.2897L61.8169 78.6082C61.8376 79.1427 61.7526 79.3978 62.0161 79.7763C63.06 79.9625 62.8606 79.6575 63.7606 80.2265L63.9243 80.0728L63.7893 79.5983C63.8883 79.4936 63.9242 79.4305 64.0427 79.3677L64.6521 79.2289L64.8454 78.8617C66.2005 78.4579 66.0253 78.0669 67.763 78.0929L67.8457 77.9972C68.1386 77.9454 68.3663 77.9023 68.6544 77.8285C69.6815 78.1229 72.6671 78.819 73.7379 78.9209L74.1501 79.0366C74.2033 79.343 74.1908 79.496 74.1843 79.8001C74.5093 80.0007 74.3646 79.9558 74.8235 79.8752C74.8644 79.5218 74.7661 79.5964 74.5544 79.2087C74.4018 78.2281 74.2749 77.361 74.0372 76.3944L74.3621 76.1828C73.8657 74.5322 72.7498 73.4254 71.5328 72.28C72.2215 72.353 72.9085 72.4407 73.5935 72.5429Z" fill="#87653D"/>
<path d="M73.5939 72.5429L73.7424 72.319C73.4771 72.0521 72.8239 72.0441 72.3192 71.884C72.286 71.5203 72.242 71.6853 72.4843 71.3818L72.596 71.5768C73.476 71.8337 74.6832 72.1333 75.4421 72.6025C79.2684 74.392 82.0667 77.5278 81.8528 81.908C81.4785 82.0233 81.4398 82.0559 81.0677 81.9879C81.075 81.0622 81.0672 80.4315 80.9858 79.4994C79.4725 79.883 78.8071 80.4853 77.2669 80.587C75.9513 79.9698 75.2621 80.0207 73.8325 79.9862C73.9526 79.4801 73.9233 79.4118 73.7383 78.9209L74.1505 79.0366C74.2037 79.343 74.1912 79.496 74.1846 79.8001C74.5097 80.0007 74.365 79.9558 74.8239 79.8752C74.8648 79.5218 74.7665 79.5964 74.5548 79.2087C74.4022 78.2281 74.2753 77.361 74.0375 76.3944L74.3624 76.1828C73.8661 74.5322 72.7501 73.4254 71.5332 72.28C72.2219 72.353 72.9089 72.4407 73.5939 72.5429Z" fill="#99BD3D"/>
<path d="M75.4434 72.6035C79.2696 74.393 82.068 77.5289 81.8541 81.909C81.4798 82.0244 81.4411 82.0569 81.069 81.989C81.0762 81.0632 81.0684 80.4326 80.9871 79.5005C80.1548 76.6762 78.4936 75.2826 76.1402 73.6841L76.205 73.4111C75.852 73.1246 75.7016 72.9776 75.4434 72.6035Z" fill="#698237"/>
<path d="M73.5939 72.5429L73.7425 72.319C73.4771 72.0521 72.8239 72.0441 72.3192 71.884C72.286 71.5203 72.242 71.6853 72.4843 71.3818L72.596 71.5768C73.476 71.8337 74.6832 72.1333 75.4421 72.6025C75.7004 72.9766 75.8507 73.1236 76.2038 73.4101L76.1389 73.683L73.5939 72.5429Z" fill="#647133"/>
<path d="M74.0371 76.3953L74.362 76.1836C74.6578 77.1255 74.9491 77.9811 74.8792 78.975C74.6849 79.1861 74.8024 79.1301 74.5543 79.2095C74.4018 78.2289 74.2748 77.3619 74.0371 76.3953Z" fill="#647133"/>
<path d="M73.707 73.6405C74.8735 73.5128 77.08 74.2341 77.3381 75.5083C77.0154 75.4504 76.426 75.1584 76.1186 74.9932C75.3727 74.593 74.0174 74.4607 73.707 73.6405Z" fill="#A3C442"/>
<path d="M67.8452 77.9977C68.1381 77.9459 68.3658 77.9029 68.6538 77.8291C69.681 78.1234 72.6666 78.8195 73.7374 78.9215C73.9224 79.4124 73.9517 79.4807 73.8316 79.9867C73.4232 80.6056 74.021 81.2352 73.913 82.1147L73.7602 82.1812C73.7139 81.8171 73.6863 81.1854 73.4829 80.9217L73.3854 81.0409C73.4946 81.5646 73.6075 81.8122 73.3967 82.2962C71.7918 82.5237 71.3307 82.4928 69.9175 81.6707L69.2354 81.7822C68.4272 80.9579 68.2592 80.6981 67.9469 79.5905C68.1668 79.1137 68.2712 79.1106 68.1601 78.6856L67.7344 78.5383C68.0624 78.4768 68.0751 78.4612 68.3638 78.3259L67.7625 78.0935L67.8452 77.9977Z" fill="#647133"/>
<path d="M69.92 81.6708C69.2729 81.146 67.8785 79.5716 68.9422 78.8623C69.4017 78.9788 69.3731 79.0938 69.7226 79.5182L69.9759 79.7388L70.2305 79.5213C70.3736 79.6089 70.548 79.7081 70.6818 79.8042C70.867 80.4067 72.799 82.0841 73.3992 82.2963C71.7943 82.5238 71.3332 82.4929 69.92 81.6708Z" fill="#84AA38"/>
<path d="M70.7991 79.1445C72.187 79.5352 72.6187 79.7796 73.3878 81.0414C73.4969 81.5651 73.6099 81.8127 73.399 82.2968C72.7988 82.0845 70.8669 80.4071 70.6816 79.8046C70.7828 79.7915 70.9453 79.733 71.0498 79.7007C70.9927 79.4678 70.9132 79.3508 70.7991 79.1445Z" fill="#99BD3D"/>
<path d="M69.7208 79.5188C69.7813 79.3798 69.7353 79.2441 69.7168 79.0675L69.9449 78.9258L70.7975 79.1447C70.9116 79.3509 70.9911 79.468 71.0482 79.7009C70.9437 79.7332 70.7812 79.7917 70.68 79.8048C70.5462 79.7087 70.3719 79.6095 70.2288 79.5219L69.9741 79.7394L69.7208 79.5188Z" fill="url(#paint4_linear_138_2464)"/>
<path d="M51.9766 78.3785C53.9032 78.2677 54.2775 79.6387 56.2794 78.5537C56.8184 78.8802 57.4189 79.2267 57.9407 79.5692L58.1506 79.4741C59.0056 79.4836 59.4023 79.3553 59.9494 79.9131C59.4313 80.555 59.3401 80.4291 58.9016 80.8323C58.7276 81.1008 58.4837 81.451 58.3408 81.7262C58.0466 81.8636 58.0286 81.8074 57.934 82.0326C56.0324 81.863 55.1835 81.9931 53.4149 82.7392L53.5731 82.1381L52.7378 80.1148L51.9766 78.3785Z" fill="#C18F51"/>
<path d="M58.1511 79.4732C59.0061 79.4827 59.4027 79.3544 59.9499 79.9122C59.4317 80.5541 59.3406 80.4282 58.902 80.8314C58.728 81.1 58.4841 81.4501 58.3412 81.7254C58.047 81.8627 58.029 81.8066 57.9344 82.0317C56.0328 81.8622 55.184 81.9923 53.4153 82.7383L53.5735 82.1372L52.7383 80.1139C53.8125 80.4758 54.1695 80.6913 55.1404 81.2996C56.1823 81.3293 57.4484 81.5756 58.124 80.6999C58.2164 80.0292 58.2003 80.2409 57.9411 79.5683L58.1511 79.4732Z" fill="#A97948"/>
<path d="M53.5742 82.1379C53.7226 82.0747 53.8724 82.0147 54.0235 81.958C55.0784 81.5649 57.3156 81.2636 58.3419 81.726C58.0477 81.8634 58.0297 81.8072 57.9351 82.0324C56.0335 81.8628 55.1847 81.9929 53.416 82.739L53.5742 82.1379Z" fill="#87653D"/>
<path d="M58.1523 79.4732C59.0073 79.4827 59.404 79.3544 59.9512 79.9122C59.4799 80.047 59.3377 80.0694 58.8484 80.109C58.3548 79.8986 58.5281 79.9994 58.1523 79.4732Z" fill="#C18F51"/>
<path d="M77.2676 80.5876C78.8078 80.4859 79.4732 79.8836 80.9865 79.5C81.0679 80.4321 81.0757 81.0628 81.0684 81.9885C80.1475 81.7241 79.2769 81.7688 78.3271 81.7686C77.9495 81.187 77.775 81.0515 77.2676 80.5876Z" fill="#84AA38"/>
<path d="M67.7355 78.5391L68.1612 78.6864C68.2723 79.1114 68.1679 79.1145 67.948 79.5913L67.6806 79.8525C67.3855 80.1372 67.2797 80.215 66.9353 80.439C66.204 80.5426 65.3637 80.2392 64.5957 80.062C65.7229 79.1616 66.3411 78.8211 67.7355 78.5391Z" fill="#D2A360"/>
<path d="M61.4318 78.29L61.8174 78.6085C61.8381 79.1431 61.7531 79.3982 62.0166 79.7767C63.0605 79.9629 62.8611 79.6578 63.7611 80.2269L63.9247 80.0732L63.7898 79.5986C63.8888 79.494 63.9247 79.4309 64.0431 79.368L64.6526 79.2292C64.4401 79.5581 64.2418 80.1991 63.9674 80.3455C62.9479 80.8897 62.1141 81.2113 61.4926 80.0517C61.5008 79.3678 61.4999 79.1794 61.3348 78.5126L61.2969 78.3627L61.4318 78.29Z" fill="#647133"/>
<path d="M67.9478 79.5908C68.2601 80.6984 68.4281 80.9583 69.2363 81.7826C68.6998 81.8169 67.6646 81.4892 67.1055 81.33C67.4006 80.7958 67.6379 80.4608 67.6804 79.8521L67.9478 79.5908Z" fill="#A97948"/>
<path d="M58.9012 80.8322C59.7329 80.5931 59.93 80.6163 60.7924 80.9365C60.1321 81.2007 59.63 81.4231 58.9924 81.7374L59.0289 82.134L58.8752 82.2728L57.9336 82.0325C58.0282 81.8073 58.0462 81.8635 58.3404 81.7261C58.4833 81.4509 58.7272 81.1007 58.9012 80.8322Z" fill="#7D5C36"/>
<path d="M59.5762 78.4453C60.1462 78.4738 60.6805 78.6105 61.0968 79.0096C61.2836 79.4933 61.2731 79.2749 61.0374 79.8709L60.6812 80.0497C60.2345 79.7739 59.8698 78.9553 59.5762 78.4453Z" fill="#C18F51"/>
<path d="M52.9505 77.8604C52.1246 77.7216 51.4377 77.3297 51.945 76.3625C54.458 71.571 62.5727 68.8854 67.2057 71.663C64.5624 71.6897 61.4233 71.9195 59.2958 73.7919L59.2503 73.9195C60.074 73.7432 60.6933 73.1066 61.3039 72.8756C62.6136 72.3805 65.6501 71.649 66.9235 72.0516C66.482 72.4092 65.8647 72.6794 65.3397 73.048C63.7608 74.1571 61.8921 76.3876 61.4317 78.2907L61.2968 78.3633C59.2245 77.2741 57.1469 77.6284 55.0993 78.4516C54.4197 78.3036 53.5605 78.1544 52.9505 77.8604Z" fill="#99BD3D"/>
<path d="M65.433 73.7364C66.5071 72.7276 67.5616 71.9739 69.1042 72.0017C71.1456 72.0386 73.5047 74.6 74.0377 76.3946C74.2754 77.3612 74.4024 78.2282 74.5549 79.2088C74.7667 79.5966 74.8649 79.5219 74.8241 79.8753C74.3652 79.956 74.5099 80.0008 74.1848 79.8002C74.1914 79.4961 74.2039 79.3431 74.1507 79.0368L73.7384 78.921C72.6677 78.8191 69.6821 78.123 68.6549 77.8287C68.3669 77.9024 68.1391 77.9455 67.8462 77.9973L67.7636 78.093C66.0258 78.0671 66.201 78.4581 64.8459 78.8618C64.2319 78.9067 63.7886 78.9701 63.2093 78.7595C62.5081 78.0752 63.5267 77.0479 63.4099 75.779C63.8966 75.1634 64.7714 74.1405 65.433 73.7364Z" fill="#A3C442"/>
<path d="M65.433 73.7373C65.3081 74.137 64.9698 74.2793 64.7208 74.7248C64.2757 75.5212 63.9972 76.2538 63.69 77.1005C65.6544 78.7435 66.6086 77.3416 67.8462 77.9982L67.7636 78.094C66.0258 78.068 66.201 78.459 64.8459 78.8627C64.2319 78.9076 63.7886 78.971 63.2093 78.7604C62.5081 78.0762 63.5267 77.0489 63.4099 75.7799C63.8966 75.1643 64.7714 74.1414 65.433 73.7373Z" fill="#90B43C"/>
<path d="M41.1551 77.717C41.7284 77.6236 46.8626 77.9061 47.22 78.0982C47.3604 78.1737 47.4957 78.4447 47.672 78.5551C47.6735 78.052 47.7214 77.6955 47.7826 77.2031C47.9677 78.9054 48.1331 80.732 48.4092 82.4123C50.2073 82.2266 50.9885 83.1084 52.6956 82.6932L53.0654 82.872C52.5364 83.1703 51.6345 83.6124 51.2949 84.063C51.3263 84.6719 52.183 84.8065 52.7011 85.0227L52.724 85.252C52.3155 85.3843 51.8877 85.207 51.4476 85.0912C50.974 84.8694 50.8974 84.8107 50.4991 84.4691L50.0544 84.6624C48.4088 84.6419 47.9394 84.4108 47.2694 82.8715C46.5392 83.08 45.7557 83.0312 45.0048 83.1375C44.4645 83.138 44.0871 83.0066 43.5737 82.8626C42.2722 82.2795 41.2677 81.603 40.2823 81.1666C39.3452 80.3588 38.4855 80.2959 37.3047 80.2456V80.1628L38.042 80.0256L38.625 79.6664C38.9186 79.2136 39.17 78.6994 39.6234 78.4596C40.0778 78.4832 39.9184 78.4536 40.3331 78.8831L40.795 78.7581L40.6666 77.9281L41.1551 77.717Z" fill="#87653D"/>
<path d="M41.1545 77.717C41.7279 77.6236 46.8621 77.9061 47.2195 78.0982C47.3598 78.1737 47.4951 78.4447 47.6715 78.5551C47.6729 78.052 47.7209 77.6955 47.7821 77.2031C47.9671 78.9054 48.1326 80.732 48.4086 82.4123C47.9593 82.5482 48.1073 82.5777 47.7784 82.4034C47.7023 82.0809 47.6528 81.8251 47.5985 81.4982L47.5037 81.8629C47.1706 81.9121 45.627 81.0029 45.0767 80.8281C43.9322 80.4645 41.251 81.2611 40.7339 80.0248C40.7915 79.5319 40.9599 79.4094 41.2986 79.0488L40.7944 78.7581L40.666 77.9281L41.1545 77.717Z" fill="#C18F51"/>
<path d="M41.1543 77.717C41.7276 77.6236 46.8618 77.9061 47.2192 78.0982C47.3596 78.1737 47.4949 78.4447 47.6712 78.5551C47.6727 78.052 47.7206 77.6955 47.7818 77.2031C47.9669 78.9054 48.1323 80.732 48.4084 82.4123C47.9591 82.5482 48.1071 82.5777 47.7782 82.4034C47.7021 82.0809 47.6525 81.8251 47.5982 81.4982C47.4108 80.0823 47.9771 79.2672 46.5958 78.532C46.0282 78.2324 45.0343 78.608 44.5841 79.0092L44.4644 79.1772C43.4309 78.1955 42.5963 77.8836 41.1543 77.717Z" fill="#647133"/>
<path d="M41.1545 77.7168C42.5965 77.8834 43.4312 78.1954 44.4647 79.1771L44.5844 79.009C44.7373 79.4909 44.7985 79.6947 45.0351 80.1511L42.6283 80.1582C42.2527 79.7451 41.8112 79.2492 41.2986 79.0486L40.7944 78.7579L40.666 77.9279L41.1545 77.7168Z" fill="#D8A766"/>
<path d="M44.584 79.0092C45.0342 78.608 46.0281 78.2325 46.5956 78.5321C47.0467 79.291 47.4023 79.8496 46.5775 80.4677C46.059 80.5571 45.4804 80.4192 45.0347 80.1514C44.7981 79.6949 44.7369 79.4911 44.584 79.0092Z" fill="#D2A360"/>
<path d="M47.2676 82.872C48.8165 82.7294 49.4801 83.3395 50.4973 84.4697L50.0525 84.663C48.407 84.6425 47.9375 84.4114 47.2676 82.872Z" fill="#EACA90"/>
<path d="M38.623 79.6668C38.9167 79.214 39.1681 78.6998 39.6215 78.46C40.0759 78.4836 39.9164 78.454 40.3312 78.8835C40.2368 79.4593 40.3252 79.4996 39.972 79.8884C39.4661 79.9248 39.1136 79.7952 38.623 79.6668Z" fill="#C18F51"/>
<path d="M41.8711 81.2998C43.3797 81.1016 45.7807 81.0909 46.6559 82.6269C45.8383 82.612 42.0705 82.2101 41.8711 81.2998Z" fill="#F0D8B6"/>
<path d="M57.0207 33.7492C58.1591 33.6566 60.5572 32.5186 61.7242 32.0215C59.2469 34.8005 55.2775 38.5876 51.44 38.6306C50.7441 38.6384 49.283 38.8283 48.7475 38.5162C48.6723 38.0894 48.7776 37.8203 49.0459 37.4265L48.7742 37.4129L48.7582 36.9827C48.5555 37.0864 48.3788 37.2041 48.1638 37.2401C47.8763 36.6671 47.5042 36.136 47.1504 35.6003C46.7812 35.481 46.8581 35.4613 46.5586 35.1147C47.2322 34.3924 47.7118 33.9324 48.5911 33.4785L49.1145 33.2423C50.0006 34.1886 50.2626 34.0268 50.4241 35.3952C51.742 34.4235 54.0166 33.632 55.6614 33.5228C56.228 33.4665 56.5493 33.3575 57.0207 33.7492Z" fill="#84AA38"/>
<path d="M48.5911 33.4784L49.1145 33.2422C50.0006 34.1885 50.2626 34.0267 50.4241 35.3951L50.2472 35.3428L49.7821 34.3823C49.7781 35.8733 49.7367 35.8019 48.7582 36.9826C48.5555 37.0863 48.3788 37.204 48.1638 37.24C47.8763 36.6669 47.5042 36.1359 47.1504 35.6002C46.7812 35.4808 46.8581 35.4612 46.5586 35.1146C47.2322 34.3923 47.7118 33.9323 48.5911 33.4784Z" fill="#A3C442"/>
<path d="M48.5911 33.4784L49.1145 33.2422C50.0006 34.1885 50.2626 34.0267 50.4241 35.3951L50.2472 35.3428L49.7821 34.3823C48.5386 33.6426 47.81 34.6051 47.1504 35.6002C46.7812 35.4808 46.8581 35.4612 46.5586 35.1146C47.2322 34.3923 47.7118 33.9323 48.5911 33.4784Z" fill="#825446"/>
<path d="M55.6591 33.5218C56.2257 33.4654 56.5469 33.3564 57.0184 33.7481C53.5341 34.4162 51.7613 34.9279 49.0435 37.4255L48.7718 37.4118L48.7559 36.9816C49.7344 35.8009 49.7758 35.8723 49.7798 34.3813L50.2448 35.3418L50.4217 35.3941C51.7396 34.4224 54.0143 33.631 55.6591 33.5218Z" fill="#647133"/>
<path d="M37.9246 29.8672C41.0566 32.4225 45.2192 33.1043 47.4264 37.2373C47.6262 37.6385 47.7408 37.7656 47.4097 38.0981C46.22 38.111 45.383 36.4106 43.7211 37.3296C43.1084 36.9853 42.9729 36.887 42.4491 36.4175C40.9565 35.0589 40.1282 34.1279 39.1555 32.2928C38.6 31.5515 37.8974 30.7953 37.9246 29.8672Z" fill="url(#paint5_linear_138_2464)"/>
<path d="M39.1562 32.2939C40.3129 32.1805 44.9333 35.4775 45.284 36.8417C44.3389 36.8353 43.5134 36.4907 42.4499 36.4185C40.9572 35.06 40.1289 34.129 39.1562 32.2939Z" fill="#90B43C"/>
<path d="M19.1875 68.986C21.7147 67.9292 25.3229 67.3465 27.6447 69.1853C27.2419 69.3357 27.1871 69.333 26.7581 69.2854C27.2132 69.656 27.7163 69.9885 27.9818 70.492L27.8823 70.6405L27.4132 70.7202L27.9182 71.0522C27.7199 71.3275 26.364 71.6271 25.9847 71.6979C24.1479 72.0408 20.5336 71.1187 19.3028 69.6726L19.362 69.4309L19.1875 68.986Z" fill="#90B43C"/>
<path d="M19.1875 68.986C21.7147 67.9292 25.3229 67.3465 27.6447 69.1853C27.2419 69.3357 27.1871 69.333 26.7581 69.2854C24.3417 68.2824 21.773 68.5949 19.362 69.4309L19.1875 68.986Z" fill="#698237"/>
<path d="M31.7578 49.4114C32.2164 49.3906 34.8658 50.8139 35.5459 51.1113C38.1979 52.2707 41.3907 52.5223 43.5651 54.5284C45.8363 56.4101 45.4426 57.9992 46.7846 59.9122C46.9813 59.6827 46.9532 59.2122 46.795 58.9641C46.9613 58.5375 47.1371 58.3391 47.0049 58.0001C46.2099 57.765 45.0824 55.4066 44.64 54.6004C44.5313 54.7545 44.53 54.7759 44.3524 54.8595C44.2075 54.7604 44.0077 54.6391 43.8891 54.5197L44.3923 54.6384L44.4735 54.2657L44.5874 54.2108C45.4457 55.4376 46.1428 56.8072 46.85 58.1291C46.9608 56.3254 46.6784 54.5468 46.8317 52.7469L47.0805 52.7749L47.2964 52.5609C46.8918 59.4342 47.8069 66.7514 48.0951 73.6133C47.6504 72.866 47.5961 71.3559 47.6269 70.4954C47.5872 71.0797 47.5314 71.663 47.4602 72.2444C46.9553 67.1697 47.6026 62.392 45.517 57.6303C43.2381 52.4269 38.6641 52.9947 34.2418 50.824C33.5661 50.4924 32.2974 49.8887 31.7578 49.4114Z" fill="#84AA38"/>
<path d="M46.3672 39.1631C47.5293 39.4749 48.2891 39.6633 49.5202 39.7378C49.2841 40.2106 48.9714 40.6635 48.6816 41.1074L48.3579 49.2722C47.9944 47.9767 47.9858 45.1852 47.97 43.7754C48.0674 43.3873 47.9989 41.9919 47.7743 41.6049C47.5513 41.9298 47.5854 42.4167 47.5638 42.8373C46.952 44.3877 47.38 45.5715 47.117 46.1551L47.0471 46.1227L46.9029 46.3369C47.013 44.0567 47.4421 41.1036 46.3672 39.1631Z" fill="#84AA38"/>
<path d="M70.9523 70.1397C70.9214 69.0914 71.1074 67.9291 72.3203 67.6758C72.8372 67.8081 73.078 67.9654 73.1401 68.5494C73.1748 68.8768 72.7178 70.6156 72.5998 70.8429C72.5441 70.8811 72.3668 70.9372 72.2942 70.9635L72.1747 70.5389C71.6386 70.2851 72.0964 70.731 71.4711 70.838C71.3222 70.5627 71.2207 70.3202 70.9523 70.1397Z" fill="#84AA38"/>
<path d="M48.1619 37.2399C48.3769 37.2039 48.5536 37.0862 48.7563 36.9824L48.7723 37.4127L48.6157 37.8911C47.3877 39.0554 45.0036 37.9732 43.7207 37.3304C45.3826 36.4114 46.2196 38.1118 47.4093 38.0989C47.7404 37.7664 47.6258 37.6392 47.426 37.2381C47.6661 37.3974 47.6668 37.3811 47.9534 37.4396L48.1619 37.2399Z" fill="#84AA38"/>
<path d="M61.9355 78.5806C62.3329 77.3738 62.6502 76.7909 63.4098 75.7783C63.5266 77.0473 62.508 78.0746 63.2092 78.7589C63.7885 78.9694 64.2318 78.906 64.8458 78.8611L64.6526 79.2283L64.0431 79.3672C63.4205 79.1758 62.2597 78.9782 61.9355 78.5806Z" fill="#84AA38"/>
<path d="M38.041 80.026C38.2043 78.9071 38.4395 78.8362 39.0113 77.9334C38.9814 77.5079 38.9342 77.6013 38.5264 77.2013L38.637 77.0707C39.1257 77.0731 38.9322 77.0229 39.37 77.2878C39.4427 77.6412 39.4325 77.7421 39.6933 77.9943C40.0167 77.9646 40.3411 77.9427 40.6656 77.9285L40.794 78.7585L40.3322 78.8835C39.9174 78.4539 40.0768 78.4836 39.6224 78.4599C39.169 78.6998 38.9176 79.214 38.624 79.6668L38.041 80.026Z" fill="#647133"/>
<path d="M34.8555 77.2334L35.2753 77.2697C35.9353 77.7329 36.1447 78.4715 36.4249 79.2166L35.5387 79.5015L34.9581 77.8713L34.8555 77.2334Z" fill="#C18F51"/>
<path d="M40.1997 72.6946C41.5579 72.5198 45.7995 73.4544 45.3301 75.2689C44.7389 75.8586 43.852 75.7409 42.9999 75.7545C41.8387 75.5854 37.7375 74.3845 37.5742 73.1227C38.3228 72.9241 39.4097 72.8051 40.1997 72.6946Z" fill="#84AA38"/>
<path d="M31.5065 65.4385C34.8023 65.6025 36.2721 65.8722 36.085 69.5404C35.7381 69.1947 35.5296 68.9043 35.0678 68.788C35.2009 69.0431 35.1835 69.038 35.1999 69.3298C33.7581 69.8151 29.034 66.6854 31.5065 65.4385Z" fill="#99BD3D"/>
<path d="M66.9966 67.4017C66.4554 66.7567 65.7949 66.1017 66.2493 65.2047C67.305 64.6456 69.0551 65.9164 69.6306 66.8208C69.8039 67.093 69.789 67.8336 69.732 68.1557L69.6125 68.1639C68.383 68.4325 67.952 68.1456 66.9966 67.4017Z" fill="#90B43C"/>
<path d="M66.9961 67.4003C68.0654 67.4054 67.6086 67.4164 68.5129 66.9766C68.9037 67.1199 69.3279 67.7891 69.6119 68.1625C68.3825 68.431 67.9515 68.1441 66.9961 67.4003Z" fill="#84AA38"/>
<path d="M75.4634 68.9824C76.6289 68.9028 77.4293 68.903 78.4283 69.5388C78.6462 69.9307 78.6253 69.7323 78.5106 70.1514C78.1622 70.577 77.6481 70.7305 77.1369 70.9396C76.0527 71.0423 75.0061 71.0814 74.1103 70.3742C73.828 69.5333 74.8109 69.267 75.4634 68.9824Z" fill="#90B43C"/>
<path d="M38.002 74.4707C38.6031 74.7943 39.273 75.3765 39.9786 75.665C40.6692 75.9473 41.2772 76.0293 41.9332 76.3612L41.5006 76.6025C41.3039 76.7045 41.076 76.8227 40.8163 76.9574C39.1555 76.4744 39.8193 76.1317 38.1465 76.6532C38.0853 75.9381 38.0483 75.1897 38.002 74.4707Z" fill="#FEFDFE"/>
<path d="M36.6938 67.2695C37.774 67.4947 38.7584 68.0267 37.9354 69.1552C37.3546 69.3414 37.1122 69.5058 36.6169 69.1566C36.3672 68.6152 36.561 67.851 36.6938 67.2695Z" fill="#90B43C"/>
<defs>
<linearGradient id="paint0_linear_138_2464" x1="46.3322" y1="19.5237" x2="55.7937" y2="4.97402" gradientUnits="userSpaceOnUse">
<stop stop-color="#FA6B69"/>
<stop offset="1" stop-color="#FF9695"/>
</linearGradient>
<linearGradient id="paint1_linear_138_2464" x1="39.9378" y1="30.8373" x2="40.4748" y2="11.3129" gradientUnits="userSpaceOnUse">
<stop stop-color="#FCB7B9"/>
<stop offset="1" stop-color="#FDD8E6"/>
</linearGradient>
<linearGradient id="paint2_linear_138_2464" x1="47.9747" y1="83.9656" x2="49.1716" y2="86.4034" gradientUnits="userSpaceOnUse">
<stop stop-color="#D7A360"/>
<stop offset="1" stop-color="#E6C281"/>
</linearGradient>
<linearGradient id="paint3_linear_138_2464" x1="55.5682" y1="83.5411" x2="65.8425" y2="37.6699" gradientUnits="userSpaceOnUse">
<stop stop-color="#699837"/>
<stop offset="1" stop-color="#A7C73F"/>
</linearGradient>
<linearGradient id="paint4_linear_138_2464" x1="69.8706" y1="79.7006" x2="70.4484" y2="79.0842" gradientUnits="userSpaceOnUse">
<stop stop-color="#6E9133"/>
<stop offset="1" stop-color="#94B836"/>
</linearGradient>
<linearGradient id="paint5_linear_138_2464" x1="42.3432" y1="36.4905" x2="43.6108" y2="32.1316" gradientUnits="userSpaceOnUse">
<stop stop-color="#89A83A"/>
<stop offset="1" stop-color="#ACCE41"/>
</linearGradient>
</defs>
</svg>
