<svg width="96" height="96" viewBox="0 0 96 96" fill="none" xmlns="http://www.w3.org/2000/svg">
<rect width="96" height="96" fill="white"/>
<path d="M34.0112 49.0971C34.2301 49.0286 34.4971 48.9449 34.8121 48.8462C35.8154 47.3833 36.5436 45.5768 37.5818 44.1301C41.6632 38.4422 49.2462 32.3792 56.478 32.0146C60.1543 31.8456 63.7467 33.1464 66.4638 35.6302C68.3064 37.314 68.9248 39.0072 69.0478 41.4438L68.9412 42.7499C68.4102 44.6858 68.0169 45.4263 66.8505 47.0898C70.6272 45.9248 72.4515 46.2822 75.4646 48.8821C76.4777 48.7868 77.1464 48.7003 78.1371 48.3673C79.6183 48.8033 80.1551 48.7874 80.8018 50.314C80.8431 50.4808 80.8747 50.8486 81.0797 50.8833C83.0122 51.2108 85.6938 50.6951 86.6047 52.9716L86.8212 53.1745C87.9834 52.9928 96.1003 55.0791 93.4833 57.3673C91.4401 59.1539 86.6063 60.3917 83.8882 61.2031C80.2039 62.3028 75.9581 62.5316 72.1671 62.9594C66.7595 63.5964 61.484 64.0716 56.0285 64.2515C49.9425 64.4774 43.849 64.4154 37.7688 64.0654C33.8087 63.8226 29.9357 63.2805 25.9748 63.1498C20.0942 62.956 14.2266 61.6945 8.52972 60.291C6.42742 59.7632 1.93419 58.9471 1 56.7897C1.03207 55.1417 4.56797 54.3359 5.90453 53.9152C7.45815 53.3221 8.70627 53.2137 10.2739 52.7344C14.0241 51.0034 12.6665 49.9015 17.5522 51.0965C17.9017 50.5732 19.2358 49.7977 19.814 49.4375L19.3444 48.9509C18.7091 48.8085 17.5747 48.2494 17.3393 47.6004C17.4092 47.1563 17.3809 47.3001 17.7501 46.9135C18.9346 46.4771 19.5209 46.8929 20.5495 47.4719C20.7294 47.5612 21.086 47.7504 21.2569 47.8182C24.2651 45.0002 28.0817 46.1342 30.6538 48.9022L31.0929 49.3797C31.5093 49.4841 32.1585 49.6649 32.5592 49.7272L32.5181 49.3448L32.9889 49.09L33.3678 49.0393L33.8723 49.2262L34.0112 49.0971Z" fill="#F3DCBD"/>
<path d="M34.0107 49.0971C34.2296 49.0286 34.4966 48.9449 34.8116 48.8462C35.8149 47.3832 36.5431 45.5768 37.5813 44.1301C41.6627 38.4422 49.2457 32.3792 56.4775 32.0146C60.1538 31.8456 63.7462 33.1464 66.4633 35.6302C68.3059 37.314 68.9243 39.0072 69.0473 41.4438L68.9407 42.7499C68.4097 44.6858 68.0164 45.4263 66.85 47.0898C66.522 47.3892 66.4178 47.4529 66.2851 47.8695C66.0694 48.7779 65.3621 48.9158 65.4098 49.7968C65.2547 50.4065 65.3845 50.2295 64.974 50.5684L65.3292 50.9214L65.2889 50.9832L64.3982 52.5098L64.4493 52.6825L63.9768 52.7442C63.8308 53.4565 63.4129 53.3925 63.2238 53.8551L63.2947 54.1568L62.692 54.1049L62.6264 54.0353L61.2433 53.6694C60.4436 53.5826 59.8739 53.7028 59.0834 53.855L58.8813 53.8227L58.358 53.3365C55.5349 51.4533 51.4015 51.5209 48.8797 53.8718L48.8136 53.8834C48.5654 53.8694 48.6542 53.8861 48.4249 53.7845C48.5286 53.4031 49.0949 52.9933 49.4274 52.7022C47.7288 52.7766 45.8526 52.7142 44.1828 52.3906C42.4817 52.3099 39.4171 51.7386 37.8248 51.1958C36.9004 51.1407 36.1856 50.8631 35.3641 50.6958L35.1981 50.663L35.0874 50.4161C35.0712 50.8638 35.0115 50.6984 35.2907 51.0138C35.6177 51.1 35.7794 51.1351 36.1143 51.181C35.2109 51.8992 34.5698 50.9884 34.0742 51.3056L34.1072 51.1448C34.0882 51.2679 34.0608 51.3934 34.0608 51.5148L33.5751 51.5221L33.1874 51.1799C33.0972 50.821 32.7332 50.0985 32.5587 49.7272L32.5176 49.3448L32.9884 49.09L33.3673 49.0393L33.8718 49.2262L34.0107 49.0971Z" fill="url(#paint0_linear_138_938)"/>
<path d="M38.9718 43.1861C40.5192 41.3105 41.7123 40.1468 43.5043 38.5137C49.7065 32.8615 60.2806 29.4651 66.647 36.8607C65.5424 36.8816 64.2735 36.5986 62.9604 36.6343C55.9453 36.5055 47.1413 41.0153 41.5992 45.1452C41.2019 44.818 40.3421 45.4851 39.0707 45.1422C38.4109 44.5774 38.6085 43.8994 38.9718 43.1861Z" fill="url(#paint1_linear_138_938)"/>
<path d="M34.0107 49.0971C34.2296 49.0286 34.4966 48.9449 34.8116 48.8462C35.8149 47.3832 36.5431 45.5768 37.5813 44.1301C41.6627 38.4422 49.2457 32.3792 56.4775 32.0146C60.1538 31.8456 63.7462 33.1464 66.4633 35.6302C68.3059 37.314 68.9243 39.0072 69.0473 41.4438L68.9407 42.7499C68.4097 44.6858 68.0164 45.4263 66.85 47.0898C66.522 47.3892 66.4178 47.4529 66.2851 47.8695C66.0694 48.7779 65.3621 48.9158 65.4098 49.7968C65.2547 50.4065 65.3845 50.2295 64.974 50.5684L65.3292 50.9214L65.2889 50.9832L64.3982 52.5098L64.4493 52.6825L63.9768 52.7442C63.8308 53.4565 63.4129 53.3925 63.2238 53.8551L63.2947 54.1568L62.692 54.1049L62.6264 54.0353L61.2433 53.6694C60.4436 53.5826 59.8739 53.7028 59.0834 53.855L58.8813 53.8227L58.358 53.3365C55.5349 51.4533 51.4015 51.5209 48.8797 53.8718L48.8136 53.8834C48.5654 53.8694 48.6542 53.8861 48.4249 53.7845C48.5286 53.4031 49.0949 52.9933 49.4274 52.7022C52.4462 50.7573 55.073 51.1878 58.2882 52.2366C60.4245 51.3878 62.1962 50.6023 63.9629 49.1009C66.8243 47.2476 69.0723 42.9752 68.2067 39.5746C67.9883 38.7167 67.4343 37.6676 66.6673 37.1976L66.6466 36.8604C60.2802 29.4647 49.7061 32.8611 43.5038 38.5133C41.7118 40.1464 40.5188 41.3101 38.9714 43.1857C38.6081 43.8991 38.4105 44.577 39.0703 45.1418C40.3417 45.4847 41.2015 44.8177 41.5988 45.1448C40.6917 46.0937 38.3256 47.678 37.1373 48.6778L37.0335 48.7349C36.4927 49.0384 35.6104 49.7651 35.5235 50.3977L35.463 50.3488C35.4567 50.097 35.5392 49.5731 35.5013 49.4224C35.2415 49.8058 35.216 49.9786 35.0874 50.4161C35.0712 50.8638 35.0115 50.6984 35.2907 51.0138C35.6177 51.1 35.7794 51.1351 36.1143 51.181C35.2109 51.8992 34.5698 50.9884 34.0742 51.3056L34.1072 51.1448C34.0882 51.2679 34.0608 51.3934 34.0608 51.5148L33.5751 51.5221L33.1874 51.1799C33.0972 50.821 32.7332 50.0985 32.5587 49.7272L32.5176 49.3448L32.9884 49.09L33.3673 49.0393L33.8718 49.2262L34.0107 49.0971Z" fill="#623D23"/>
<path d="M62.3968 50.9818C63.5917 50.4013 63.5972 50.4132 64.9754 50.569L65.3307 50.922L65.2903 50.9838L64.3996 52.5104L64.4507 52.6831L63.9782 52.7448C63.8323 53.4571 63.4143 53.3931 63.2252 53.8557L63.2961 54.1574L62.6934 54.1055L62.6278 54.0359L61.2448 53.67C60.445 53.5832 59.8753 53.7034 59.0848 53.8556L58.8828 53.8233L58.3594 53.3371L58.9304 52.7873C59.5911 52.39 60.2401 51.9702 60.956 51.6859C61.3694 51.4205 61.9369 51.1884 62.3968 50.9818Z" fill="#9A643C"/>
<path d="M62.3969 50.9818C63.5918 50.4013 63.5973 50.4132 64.9755 50.569L65.3307 50.922L65.2904 50.9838L64.3997 52.5104L64.4508 52.6831L63.9783 52.7448L63.4503 52.6396C62.9187 52.674 62.6112 52.7036 62.206 52.4115C62.1347 51.7162 62.5274 51.7281 62.3969 50.9818Z" fill="#B78052"/>
<path d="M63.4488 52.6392C63.1549 52.4195 62.9177 52.2521 62.9479 51.8807C63.4488 51.4376 64.6262 51.0691 65.2889 50.9834L64.3982 52.51L64.4493 52.6827L63.9768 52.7443L63.4488 52.6392Z" fill="#CF9C66"/>
<path d="M58.3594 53.3369L58.9304 52.7871C59.1835 52.8428 60.5635 53.0554 60.5832 53.0641C61.16 53.2003 62.4157 53.3992 62.8433 53.6725L62.8615 53.8284L62.6278 54.0357L61.2448 53.6698C60.445 53.583 59.8753 53.7032 59.0848 53.8554L58.8828 53.8231L58.3594 53.3369Z" fill="#784D2C"/>
<path d="M60.9553 51.6855C61.3773 51.8562 61.2388 51.8704 61.619 51.7828L61.5 51.7355L61.7759 51.8035C61.6633 52.1359 60.8797 52.7896 60.5825 53.0639C60.5628 53.0552 59.1828 52.8426 58.9297 52.7869C59.5904 52.3896 60.2395 51.9699 60.9553 51.6855Z" fill="#895430"/>
<path d="M35.5016 49.4222C35.9532 47.6763 37.6817 44.4574 38.9717 43.1855C38.6083 43.8989 38.4108 44.5768 39.0705 45.1417C40.342 45.4845 41.2018 44.8175 41.599 45.1446C40.692 46.0935 38.3258 47.6778 37.1375 48.6776L37.0337 48.7347C36.493 49.0382 35.6107 49.7649 35.5237 50.3976L35.4632 50.3486C35.457 50.0969 35.5394 49.5729 35.5016 49.4222Z" fill="#9A643C"/>
<path d="M33.3673 49.0391L33.8718 49.226C33.7346 50.2438 34.0613 50.7545 33.59 51.4599C33.585 51.4806 33.5801 51.5011 33.5751 51.5218L33.1874 51.1796C33.0972 50.8207 32.7332 50.0982 32.5587 49.7269L32.5176 49.3446L32.9884 49.0897L33.3673 49.0391Z" fill="#5D7D22"/>
<path d="M66.2853 47.8691C66.0696 48.7775 65.3624 48.9154 65.41 49.7965C64.8552 50.3352 64.899 50.334 64.1827 50.1671L64.1367 49.9607C64.4531 49.4503 65.729 48.3941 66.2853 47.8691Z" fill="#9A643C"/>
<path d="M44.1836 52.391C45.5802 52.3432 48.7185 51.4334 50.2777 51.2076C53.4251 50.7521 56.5808 50.3788 59.7276 49.9271C60.8819 49.7614 62.9181 49.0755 63.9637 49.1013C62.197 50.6027 60.4254 51.3882 58.289 52.237C55.0738 51.1882 52.447 50.7577 49.4282 52.7026C47.7296 52.777 45.8534 52.7147 44.1836 52.391Z" fill="#895430"/>
<path d="M41.5987 45.1454C47.1408 41.0155 55.9448 36.5057 62.9599 36.6345L62.3798 36.9949C57.0702 37.4607 53.2528 39.0637 48.5101 41.4836C44.1329 43.7169 41.455 46.0048 37.7993 49.1468C37.3823 49.3876 36.5579 50.4129 35.9332 50.5055L35.8535 50.3323C35.9593 49.8509 36.7479 49.1124 37.1372 48.6784C38.3255 47.6786 40.6916 46.0943 41.5987 45.1454Z" fill="#784D2C"/>
<path d="M35.5018 49.4223C35.5397 49.573 35.4572 50.097 35.4635 50.3487L35.524 50.3977C35.6109 49.765 36.4932 49.0383 37.034 48.7348L37.1378 48.6777C36.7485 49.1117 35.9599 49.8502 35.8541 50.3317L35.9338 50.5048C36.5585 50.4122 37.3829 49.3869 37.7999 49.1461C39.8607 50.2204 41.1377 50.2576 43.4245 50.531C40.904 50.8133 39.8688 50.9651 37.3009 50.8679L37.2687 50.9627L37.8253 51.1957C36.9009 51.1406 36.1861 50.8631 35.3646 50.6957L35.1986 50.663L35.0879 50.416C35.2165 49.9786 35.242 49.8057 35.5018 49.4223Z" fill="#895430"/>
<path d="M62.961 36.634C64.274 36.5983 65.543 36.8812 66.6476 36.8604L66.6683 37.1976C65.2459 37.0255 63.813 36.9575 62.3809 36.9944L62.961 36.634Z" fill="#9A643C"/>
<path d="M63.6407 44.4121C64.261 44.9993 62.7117 45.7958 62.2805 46.0712L62.1412 45.966L62.1387 45.7358C62.4876 45.2376 63.1426 44.7924 63.6407 44.4121Z" fill="#784D2C"/>
<path d="M21.2571 47.8187C24.2653 45.0007 28.0819 46.1347 30.654 48.9027L31.0931 49.3802C31.5095 49.4846 32.1587 49.6654 32.5594 49.7277C32.7338 50.099 33.0979 50.8215 33.1881 51.1804L33.5758 51.5226L34.0615 51.5153C34.0615 51.3939 34.0889 51.2684 34.1079 51.1453L34.0749 51.3061C34.5705 50.9888 35.2116 51.8997 36.115 51.1815C35.7801 51.1356 35.6184 51.1005 35.2914 51.0143C35.0122 50.6989 35.0719 50.8643 35.0881 50.4166L35.1988 50.6635L35.3648 50.6963C36.1862 50.8636 36.9011 51.1412 37.8255 51.1963C39.4178 51.7391 42.4824 52.3103 44.1835 52.3911C45.8533 52.7147 47.7295 52.7771 49.4281 52.7027C49.0956 52.9938 48.5292 53.4036 48.4256 53.785C48.6549 53.8866 48.5661 53.8699 48.8143 53.8839L48.8804 53.8723C51.4022 51.5214 55.5356 51.4538 58.3586 53.337L58.882 53.8232L59.084 53.8555C59.8746 53.7033 60.4442 53.5831 61.244 53.6699L62.6271 54.0357L62.6927 54.1054L63.2954 54.1573L63.2245 53.8556C63.4136 53.393 63.8315 53.457 63.9775 52.7447L64.45 52.683C65.1081 52.9207 65.5313 53.0723 66.1487 53.3919C66.1403 54.4353 65.7116 54.6991 65.7812 55.7969L65.9299 56.0713L66.3721 56.7823C66.7328 56.7777 66.8424 56.7636 67.1884 56.8455C66.7888 57.9981 66.725 57.8774 66.0297 58.8649C65.7892 59.3575 65.3646 59.49 64.8995 59.7576L64.8568 59.9721L65.2149 60.2291C65.1683 60.5271 65.0955 60.4876 64.7766 60.7453C63.0921 60.714 60.906 61.3587 59.231 61.6034C57.1887 61.9016 50.4036 62.7735 49.0305 61.1786C48.7205 60.4497 48.2631 59.6163 47.4684 59.4448L46.8673 59.23C46.3871 59.6876 45.3696 59.8206 44.5602 60.2428C43.0167 60.8813 41.7563 60.1051 40.4552 59.3434C39.9838 59.4301 39.5582 59.4787 39.1378 59.7144C38.0634 59.5836 37.1097 59.5796 36.2511 58.9149C35.2289 57.0244 35.8546 56.3422 33.5054 56.6976C33.2921 58.9266 33.4549 59.6463 30.9843 59.8272C30.4424 59.9799 29.8642 60.1317 29.3294 60.2958C28.9891 60.3737 28.1313 60.1137 27.7275 60.074C26.5108 59.9541 25.2788 60.0764 24.0691 59.9516C23.9127 59.9354 23.1582 59.1934 23.0064 59.0472C21.4166 58.7455 19.2168 58.2654 17.719 57.681C17.1153 57.4455 16.7187 56.9422 16.2813 56.4573C16.8325 55.8407 17.1856 55.2666 17.5053 54.5121C17.0591 54.3847 16.6288 54.2172 16.193 54.0569C14.3043 54.7025 13.0983 54.8682 11.105 54.3341C10.9947 54.0099 11.0121 54.1816 11.1271 53.8015L11.0749 53.3624C10.7871 53.3857 10.4996 53.4145 10.2128 53.4493L10.0293 53.2594L10.2741 52.7349C14.0243 51.0039 12.6667 49.902 17.5524 51.097C17.9019 50.5737 19.236 49.7982 19.8142 49.4379L19.3446 48.9514C18.7093 48.8089 17.5749 48.2499 17.3395 47.6009C17.4094 47.1568 17.3811 47.3006 17.7503 46.914C18.9347 46.4776 19.5211 46.8934 20.5497 47.4724C20.7296 47.5617 21.0861 47.7509 21.2571 47.8187Z" fill="#E0B17A"/>
<path d="M21.2571 47.8187C24.2653 45.0007 28.0819 46.1347 30.654 48.9027L31.0931 49.3802C31.5095 49.4846 32.1587 49.6654 32.5594 49.7277C32.7338 50.099 33.0978 50.8215 33.1881 51.1804C32.4715 51.1863 32.3126 51.1867 31.6259 51.3693L31.4409 51.3177C30.8608 51.3784 30.1394 51.4333 29.5834 51.5638C28.7304 51.4946 28.5861 51.4748 27.7713 51.1991C27.3339 51.3246 27.21 51.3593 26.7582 51.387C27.5789 51.7452 27.9035 51.9076 28.5995 52.4738L29.2936 52.985C29.0353 53.4469 28.7106 54.1461 28.1983 54.3384C27.7295 55.1644 25.3003 55.569 24.3605 55.6268C23.9398 55.8832 24.0795 55.8979 23.8347 56.1594C23.5055 56.5112 22.1938 57.1673 21.7572 57.2279L20.9856 56.6111C20.2751 56.3184 19.5709 56.0107 18.8734 55.6882C18.8161 55.5699 18.7557 55.4533 18.6922 55.3382C18.3477 54.7193 18.1731 54.6988 17.5053 54.5121C17.0591 54.3847 16.6288 54.2172 16.193 54.0569C14.3043 54.7025 13.0983 54.8682 11.105 54.3341C10.9947 54.0099 11.0121 54.1816 11.1271 53.8015L11.0749 53.3624C10.7871 53.3857 10.4996 53.4145 10.2128 53.4493L10.0293 53.2594L10.2741 52.7349C14.0243 51.0039 12.6667 49.902 17.5524 51.097C17.9019 50.5737 19.236 49.7982 19.8142 49.4379L19.3446 48.9514C18.7093 48.8089 17.5749 48.2499 17.3395 47.6009C17.4094 47.1568 17.3811 47.3006 17.7503 46.914C18.9347 46.4776 19.5211 46.8934 20.5497 47.4724C20.7296 47.5617 21.0861 47.7509 21.2571 47.8187Z" fill="#784D2C"/>
<path d="M22.1523 47.6297C24.6223 46.4551 27.6857 46.4032 29.6485 48.5445C30.1778 49.0399 30.4713 49.4833 30.8234 50.1225C31.0276 50.3528 31.0495 50.3602 31.1886 50.6485C31.3152 50.9075 31.3921 51.0281 31.4412 51.3177C30.8611 51.3784 30.1396 51.4333 29.5837 51.5638C28.7307 51.4947 28.5864 51.4748 27.7715 51.1991C27.0665 50.9442 26.0989 50.4331 25.4824 50.0236C25.0939 49.7772 24.6656 49.5332 24.2672 49.2974C23.4001 48.7106 22.8832 48.3937 22.1523 47.6297Z" fill="#9FBB3F"/>
<path d="M27.2819 50.0523C28.0625 49.4286 28.2951 49.4592 29.2998 49.4268C29.7429 49.7005 30.3286 50.1388 30.8234 50.1219C31.0275 50.3521 31.0495 50.3596 31.1886 50.6479C31.3152 50.9069 31.3921 51.0274 31.4412 51.3171C30.8611 51.3778 30.1396 51.4327 29.5837 51.5632C28.7307 51.494 28.5864 51.4742 27.7715 51.1985C27.0665 50.9436 26.0989 50.4325 25.4824 50.023C25.9099 50.0258 26.902 50.0065 27.2819 50.0523Z" fill="#5D7D22"/>
<path d="M27.2812 50.0523C28.0619 49.4286 28.2945 49.4592 29.2992 49.4268C29.7423 49.7005 30.328 50.1388 30.8228 50.1219C31.0269 50.3521 31.0489 50.3596 31.188 50.6479C30.4789 50.6761 30.0843 50.7403 29.4576 50.3535C28.7585 49.9218 28.2414 50.1831 27.4213 50.072L27.2812 50.0523Z" fill="#6F8F28"/>
<path d="M24.2656 49.2962C24.3625 49.2934 24.4595 49.2888 24.5562 49.2825C25.3139 49.2333 25.4336 48.9568 25.9612 48.3657C26.478 48.1547 29.1563 49.168 29.9888 49.3331C29.7823 49.0517 29.7542 48.8814 29.6469 48.5433C30.1763 49.0387 30.4697 49.4821 30.8218 50.1214C30.327 50.1382 29.7413 49.6999 29.2983 49.4262C28.2935 49.4586 28.0609 49.428 27.2803 50.0517C26.9004 50.0059 25.9084 50.0253 25.4808 50.0224C25.0924 49.776 24.664 49.5321 24.2656 49.2962Z" fill="#8AA933"/>
<path d="M20 52.2567C22.1483 50.7015 24.3016 50.5786 26.7577 51.3857C27.5783 51.7439 27.903 51.9064 28.599 52.4725C27.0039 53.8736 21.4002 54.4412 20 52.2567Z" fill="#ECCA9E"/>
<path d="M10.2741 52.7344C14.0243 51.0034 12.6667 49.9015 17.5524 51.0965L17.4564 51.3297L16.9226 51.4791L17.8343 51.7093L17.2198 52.1397C15.3584 53.1969 14.5381 53.5152 12.4485 54.0536C11.8443 54.3513 11.6558 54.1242 11.1271 53.801L11.0749 53.3619C10.7871 53.3852 10.4996 53.414 10.2128 53.4488L10.0293 53.2589L10.2741 52.7344Z" fill="#CF9C66"/>
<path d="M10.2741 52.7344C14.0243 51.0034 12.6667 49.9015 17.5524 51.0965L17.4564 51.3297L16.9226 51.4791C15.7348 51.2948 15.1175 51.1996 13.9129 51.2864C11.5578 52.0618 12.1615 52.7025 11.0749 53.3619C10.7871 53.3852 10.4996 53.414 10.2128 53.4488L10.0293 53.2589L10.2741 52.7344Z" fill="#784D2C"/>
<path d="M13.9122 51.2861L14.3656 51.4054C14.5642 51.9429 14.175 52.0375 14.2663 52.689C13.4294 53.0008 12.7411 53.1376 12.4478 54.0534C11.8436 54.3511 11.6551 54.124 11.1265 53.8008L11.0742 53.3617C12.1608 52.7022 11.5571 52.0615 13.9122 51.2861Z" fill="#ECCA9E"/>
<path d="M13.9121 51.2864C15.1168 51.1995 15.734 51.2948 16.9218 51.479L17.8335 51.7093L17.219 52.1396C16.1086 52.2124 15.2718 52.1909 14.2662 52.6892C14.175 52.0377 14.5641 51.9431 14.3656 51.4056L13.9121 51.2864Z" fill="#EBC38F"/>
<path d="M17.7506 46.913C18.9351 46.4765 19.5215 46.8923 20.5501 47.4713C20.7299 47.5606 21.0865 47.7499 21.2575 47.8177C21.8025 48.0267 22.0143 48.2553 22.3275 48.7559C21.6059 49.3962 20.7042 49.2253 20.3165 49.7825C20.1249 49.569 20.0965 49.5035 19.8146 49.4369L19.3449 48.9503C18.7096 48.8079 17.5753 48.2488 17.3398 47.5998C17.4098 47.1558 17.3815 47.2995 17.7506 46.913Z" fill="#9FBB3F"/>
<path d="M20.5489 47.4717C20.7287 47.561 21.0853 47.7502 21.2563 47.818C21.8013 48.0271 22.0131 48.2556 22.3263 48.7563C21.6047 49.3965 20.703 49.2257 20.3153 49.7829C20.1237 49.5694 20.0953 49.5039 19.8134 49.4372L19.3438 48.9506L19.4497 48.7417C19.6352 48.9124 19.7369 48.9723 19.9435 49.1053C20.5304 49.0542 20.6482 48.9538 20.8557 48.451C20.785 48.0272 20.8341 48.1754 20.3722 47.8377L20.5489 47.4717Z" fill="#5B602D"/>
<path d="M19.3449 48.9504C18.7096 48.808 17.5753 48.249 17.3398 47.6C17.4098 47.1559 17.3815 47.2996 17.7506 46.9131C17.8386 47.0064 18.0486 47.212 18.1011 47.31C18.6303 48.0088 18.7715 48.2061 19.4509 48.7415L19.3449 48.9504Z" fill="#695D31"/>
<path d="M17.75 46.913C18.9345 46.4765 19.5208 46.8923 20.5494 47.4713L20.3727 47.8373C20.0138 47.6749 19.6498 47.5244 19.281 47.386C18.8804 47.2389 18.4959 47.1293 18.1005 47.3099C18.0479 47.2118 17.8379 47.0062 17.75 46.913Z" fill="#695D31"/>
<path d="M20 52.2578C21.4002 54.4423 27.0039 53.8747 28.599 52.4737L29.2931 52.9849C29.0347 53.4468 28.7101 54.146 28.1978 54.3383L26.8328 54.8295C25.4259 54.1982 21.0433 53.6673 19.1992 53.3653C19.4598 52.9915 19.7267 52.6223 20 52.2578Z" fill="#E0B17A"/>
<path d="M19.1992 53.3652C21.0433 53.6672 25.4259 54.1982 26.8328 54.8295C25.2659 55.3004 19.2486 55.839 19.1992 53.3652Z" fill="#C08A59"/>
<path d="M16.1934 54.0564C16.7711 53.6834 17.0006 53.4352 17.4921 52.9473C18.5054 53.8558 19.3394 54.7891 20.5798 55.3012C20.7079 55.8051 20.8073 56.1222 20.986 56.6106C20.2755 56.3178 19.5712 56.0102 18.8738 55.6877C18.8164 55.5694 18.7561 55.4528 18.6926 55.3377C18.3481 54.7188 18.1735 54.6983 17.5056 54.5116C17.0594 54.3842 16.6291 54.2167 16.1934 54.0564Z" fill="#CF9C66"/>
<path d="M22.3274 48.7568C23.2714 49.4333 23.9583 49.8957 24.9576 50.4831C24.1128 50.5163 21.5103 50.9061 21.1745 50.7378C20.8786 50.3441 20.6574 50.1268 20.3164 49.7834C20.7041 49.2262 21.6059 49.3971 22.3274 48.7568Z" fill="#B78052"/>
<path d="M19.8135 49.4375C20.0954 49.5042 20.1238 49.5696 20.3154 49.7832C20.6565 50.1265 20.8777 50.3439 21.1736 50.7375C20.7917 51.4998 19.2376 51.9373 18.5527 51.1386C18.3889 51.5031 18.3879 51.5833 18.0592 51.7638L17.8336 51.7094L16.9219 51.4791L17.4557 51.3298L17.5517 51.0966C17.9012 50.5733 19.2353 49.7977 19.8135 49.4375Z" fill="url(#paint2_linear_138_938)"/>
<path d="M19.8135 49.4375C20.0954 49.5042 20.1238 49.5696 20.3154 49.7832C19.8048 50.3402 19.2333 49.8887 18.5527 51.1386C18.3889 51.5031 18.3879 51.5833 18.0592 51.7638L17.8336 51.7094L16.9219 51.4791L17.4557 51.3298L17.5517 51.0966C17.9012 50.5733 19.2353 49.7977 19.8135 49.4375Z" fill="#623D23"/>
<path d="M20.5801 55.3018C21.9879 55.6613 22.9267 55.6261 24.3611 55.6269C23.9404 55.8833 24.0801 55.898 23.8353 56.1595C23.5061 56.5113 22.1944 57.1674 21.7578 57.2279L20.9863 56.6112C20.8076 56.1228 20.7082 55.8057 20.5801 55.3018Z" fill="#C08A59"/>
<path d="M34.061 51.5147C34.061 51.3933 34.0885 51.2678 34.1075 51.1447L34.0744 51.3055C34.57 50.9883 35.2111 51.8991 36.1146 51.181C35.7796 51.135 35.618 51.0999 35.291 51.0138C35.0118 50.6983 35.0714 50.8637 35.0876 50.416L35.1984 50.6629L35.3644 50.6957C36.1858 50.8631 36.9006 51.1406 37.8251 51.1957C39.4174 51.7385 42.482 52.3098 44.183 52.3905C45.8529 52.7142 47.729 52.7765 49.4276 52.7021C49.0952 52.9932 48.5288 53.403 48.4252 53.7844C48.6545 53.886 48.5657 53.8693 48.8138 53.8833L48.6464 54.2244L48.2326 55.0206C48.5118 55.8982 48.8456 55.7558 49.668 56.0098L49.4971 56.3045C48.8251 56.199 48.2365 56.1583 47.5847 56.4203C47.104 56.2521 47.025 56.2152 46.5214 56.2543C45.9954 56.5751 45.9144 56.9696 45.4379 57.2187C44.8797 57.5104 43.744 57.7301 43.2331 58.0109C41.7924 57.4689 39.8169 58.4333 38.1838 57.5834C36.8261 56.8768 37.1808 56.3259 36.4044 55.2502C36.1161 55.1046 35.8714 54.9811 35.6705 54.8797L35.5558 54.8407C35.0012 53.4606 33.7708 53.4905 32.4469 53.2204C31.7369 53.0302 31.0284 52.8344 30.3213 52.633L29.2932 52.9844L28.5991 52.4732C27.9031 51.907 27.5784 51.7446 26.7578 51.3864C27.2096 51.3588 27.3334 51.324 27.7709 51.1985C28.5857 51.4742 28.73 51.4941 29.583 51.5632C30.139 51.4327 30.8604 51.3778 31.4405 51.3171L31.6255 51.3687C32.3122 51.1861 32.4711 51.1858 33.1877 51.1798L33.5754 51.522L34.061 51.5147Z" fill="#784D2C"/>
<path d="M38.1647 54.5802C38.8363 54.2175 39.3349 54.1524 40.0859 54.0391C40.4131 54.7087 41.1392 54.7941 41.7687 55.1406C42.9776 55.806 43.4512 56.392 44.8824 56.3632C45.1822 56.3548 45.6534 56.2788 45.9655 56.2391C45.6701 56.7954 45.7397 56.6669 45.0586 56.9303C44.1095 57.2977 40.6174 57.7464 39.6753 57.5051C38.4497 57.4553 37.8572 56.8943 37.0508 56.0723C37.0825 55.6912 37.0936 55.6441 37.2697 55.3052C37.4965 55.084 37.9041 54.7847 38.1647 54.5802Z" fill="#CF9C66"/>
<path d="M38.166 54.5802C38.8377 54.2175 39.3363 54.1524 40.0873 54.0391C40.4145 54.7087 41.1405 54.7941 41.77 55.1406C42.979 55.806 43.4526 56.392 44.8837 56.3632C43.8394 56.6174 40.4135 56.567 39.4374 56.1169C38.5236 55.5703 38.4456 55.5754 38.166 54.5802Z" fill="#EBC38F"/>
<path d="M37.0508 56.0721C38.2311 56.0498 38.4925 56.1373 39.179 57.1925C39.203 57.2294 39.5586 57.3935 39.6753 57.505C38.4497 57.4552 37.8572 56.8942 37.0508 56.0721Z" fill="#B78052"/>
<path d="M37.2695 55.305C37.4963 55.0839 37.904 54.7845 38.1645 54.5801C38.4441 55.5753 38.5221 55.5701 39.436 56.1168C38.5413 56.1045 37.9415 55.8945 37.2695 55.305Z" fill="#E0B17A"/>
<path d="M33.1877 51.1797L33.5754 51.5219L34.061 51.5146L34.1844 51.6095L34.0723 51.9953C33.7134 52.4036 33.899 52.2781 33.3219 52.4329C33.8982 52.592 34.4279 52.8925 34.9617 53.1666L35.5609 53.2754C35.7644 53.9183 35.6082 54.2089 35.7377 54.6743L35.6705 54.8796L35.5558 54.8405C35.0012 53.4605 33.7708 53.4904 32.4469 53.2203C31.7369 53.0301 31.0284 52.8343 30.3213 52.6328L29.2932 52.9843L28.5991 52.4731C27.9031 51.9069 27.5784 51.7445 26.7578 51.3863C27.2096 51.3586 27.3334 51.3239 27.7709 51.1984C28.5857 51.4741 28.73 51.4939 29.583 51.5631C30.139 51.4326 30.8604 51.3777 31.4405 51.317L31.6255 51.3686C32.3122 51.186 32.4711 51.1856 33.1877 51.1797Z" fill="#784D2C"/>
<path d="M33.1885 51.1797L33.5762 51.5219L34.0619 51.5146L34.1852 51.6095L34.0731 51.9953C33.7142 52.4036 33.8999 52.2781 33.3228 52.4329C33.8991 52.592 34.4287 52.8925 34.9625 53.1666C34.1728 53.1643 29.7963 52.2819 29.4336 51.7582L29.5839 51.5631C30.1398 51.4326 30.8612 51.3777 31.4413 51.317L31.6263 51.3686C32.313 51.186 32.4719 51.1856 33.1885 51.1797Z" fill="#9A643C"/>
<path d="M33.1872 51.1797L33.5749 51.5219L34.0606 51.5146L34.1839 51.6095L34.0718 51.9953C33.7129 52.4036 33.8986 52.2781 33.3214 52.4329C32.2603 52.5348 32.1203 52.2177 31.625 51.3686C32.3117 51.186 32.4706 51.1856 33.1872 51.1797Z" fill="#CF9C66"/>
<path d="M40.2901 53.9173C42.3 53.7891 43.4378 53.9026 45.0376 55.2138C45.3874 55.5403 45.7493 55.8225 45.9655 56.2403C45.6534 56.28 45.1822 56.3559 44.8824 56.3643C43.4512 56.3931 42.9776 55.8071 41.7687 55.1417C41.1392 54.7952 40.4131 54.7099 40.0859 54.0402L40.2901 53.9173Z" fill="#ECCA9E"/>
<path d="M34.1847 51.6094C36.0451 51.6334 37.2724 51.5659 38.7586 52.8283L39.2982 53.3376C38.5083 53.6007 36.4621 53.3536 35.5613 53.2752L34.962 53.1664C34.4282 52.8923 33.8985 52.5918 33.3223 52.4327C33.8994 52.2779 33.7137 52.4034 34.0726 51.9951L34.1847 51.6094Z" fill="#ECCA9E"/>
<path d="M34.0726 51.9951C35.5907 52.7827 37.0369 53.177 38.7586 52.8284L39.2982 53.3376C38.5083 53.6008 36.4621 53.3537 35.5613 53.2753L34.962 53.1664C34.4282 52.8924 33.8985 52.5919 33.3223 52.4328C33.8994 52.2779 33.7137 52.4035 34.0726 51.9951Z" fill="#CF9C66"/>
<path d="M40.2902 53.9171L39.9551 53.6812C41.7479 53.0165 44.1078 53.8901 45.9933 54.0836C46.9039 54.1771 47.7361 54.2009 48.6465 54.2254L48.2327 55.0216C46.5319 54.1683 46.3886 55.0333 45.0377 55.2136C43.4379 53.9024 42.3001 53.7889 40.2902 53.9171Z" fill="#623D23"/>
<path d="M35.5605 53.2754C36.4613 53.3538 38.5076 53.6009 39.2975 53.3377L39.4299 53.5544C38.5765 54.2474 36.8794 54.7393 35.7373 54.6743C35.6078 54.2089 35.764 53.9183 35.5605 53.2754Z" fill="#B78052"/>
<path d="M48.8798 53.8723C51.4017 51.5214 55.535 51.4538 58.3581 53.337L58.8815 53.8232L59.0835 53.8555C59.0883 54.4468 58.892 54.5685 58.6608 55.0708C57.6145 57.3426 53.908 55.9365 52.4226 56.9004L52.4531 56.6905C51.3494 56.7707 50.5736 56.5342 49.4969 56.3051L49.6678 56.0104C48.8454 55.7563 48.5116 55.8987 48.2324 55.0212L48.6462 54.225L48.8137 53.8839L48.8798 53.8723Z" fill="url(#paint3_linear_138_938)"/>
<path d="M58.8815 53.8232L59.0835 53.8555C59.0883 54.4468 58.892 54.5685 58.6608 55.0708C57.6145 57.3427 53.908 55.9365 52.4226 56.9004L52.4531 56.6905C51.3494 56.7707 50.5736 56.5342 49.4969 56.3051L49.6678 56.0104C48.8454 55.7564 48.5116 55.8988 48.2324 55.0212L48.6462 54.225L48.8137 53.8839L48.8798 53.8724C49.2842 54.5192 50.545 55.0657 51.237 55.4937C51.8778 55.2522 51.9776 55.2096 52.6566 55.2188C53.433 55.096 54.1994 55.4416 55.0653 55.2349L55.1354 55.0814C54.8298 54.7136 54.1467 54.6299 53.6501 54.5143C54.3647 54.5212 54.4368 54.7227 55.0334 54.9254C55.8119 55.1901 57.6125 54.9651 58.343 54.6216C58.7333 54.438 58.7573 54.1782 58.8815 53.8232Z" fill="#B78052"/>
<path d="M48.8137 53.8836L48.8798 53.8721C49.2842 54.5189 50.545 55.0654 51.237 55.4934C51.8778 55.252 51.9776 55.2093 52.6566 55.2185C53.3684 55.4584 55.1958 55.3188 55.6363 55.7635C54.0192 56.3416 52.0328 55.9681 50.7389 56.0592C50.4052 56.0837 50.0067 56.0371 49.6678 56.0101C48.8454 55.7561 48.5116 55.8985 48.2324 55.0209L48.6462 54.2247L48.8137 53.8836Z" fill="#C08A59"/>
<path d="M48.4858 58.7695C49.0959 58.8241 49.2158 58.7035 49.6135 59.0019L49.6762 59.3203C50.2935 59.7263 50.5284 59.1673 50.7635 59.4693L50.7469 59.577C50.7031 59.8798 50.6539 59.9938 50.8018 60.2587C51.0417 60.3773 51.2528 60.4867 51.5042 60.5826C53.9155 60.1264 54.6776 60.2068 57.0917 60.3067C59.3522 60.4002 62.6563 59.4099 64.777 60.745C63.0924 60.7137 60.9063 61.3584 59.2313 61.6031C57.189 61.9013 50.4039 62.7732 49.0308 61.1783C48.7208 60.4494 48.2634 59.616 47.4688 59.4445C48.07 59.3218 48.1434 59.3021 48.4858 58.7695Z" fill="#EBC38F"/>
<path d="M29.2943 52.9853L30.3224 52.6338C31.0294 52.8352 31.738 53.0311 32.448 53.2213C28.8643 53.4838 30.6104 54.839 29.7735 55.3901C28.5476 56.1975 23.6852 57.2205 22.076 57.393C21.9747 57.3479 21.8087 57.2968 21.7578 57.2281C22.1944 57.1676 23.5062 56.5115 23.8353 56.1597C24.0801 55.8982 23.9404 55.8835 24.3612 55.6271C25.301 55.5692 27.7301 55.1647 28.1989 54.3387C28.7112 54.1463 29.0359 53.4472 29.2943 52.9853Z" fill="#CF9C66"/>
<path d="M35.5566 54.8408L35.6714 54.8798C35.8722 54.9812 36.1169 55.1048 36.4052 55.2503C37.1817 56.3261 36.8269 56.877 38.1846 57.5835C39.8178 58.4335 41.7933 57.4691 43.234 58.0111C41.4697 59.2722 38.3767 59.2721 36.3627 58.5347C36.0792 57.3067 35.8106 56.0753 35.5566 54.8408Z" fill="#C08A59"/>
<path d="M63.9782 52.7443L64.4506 52.6826C65.1088 52.9203 65.532 53.072 66.1494 53.3915C66.141 54.435 65.7123 54.6988 65.7819 55.7965L65.9305 56.0709L66.3728 56.7819L66.0094 57.0929C64.6265 57.099 64.0395 56.5689 63.7036 55.2581C63.3219 55.0071 63.0078 54.8312 62.7117 54.4768L62.6934 54.105L63.2961 54.1569L63.2252 53.8553C63.4143 53.3926 63.8322 53.4567 63.9782 52.7443Z" fill="#CF9C66"/>
<path d="M63.9776 52.7443L64.4501 52.6826C65.1082 52.9203 65.5314 53.072 66.1489 53.3915C66.1404 54.435 65.7118 54.6988 65.7814 55.7965C65.6927 55.4693 65.5185 55.2686 65.3239 54.9905C64.9986 54.9505 64.8338 54.7355 64.541 54.5006C63.925 54.4821 63.8363 54.4259 63.2955 54.1569L63.2246 53.8553C63.4137 53.3927 63.8317 53.4567 63.9776 52.7443Z" fill="#C08A59"/>
<path d="M63.2246 53.8555C63.5109 53.9861 64.335 54.3419 64.541 54.5008C63.925 54.4823 63.8363 54.4261 63.2955 54.1572L63.2246 53.8555Z" fill="#9A643C"/>
<path d="M62.6934 54.1055L63.2961 54.1574C63.8368 54.4263 63.9256 54.4826 64.5416 54.5011C64.8343 54.736 64.9992 54.951 65.3245 54.991L65.1142 55.3079L65.2336 55.7214C64.7122 55.6422 64.2052 55.4354 63.7036 55.2586C63.3219 55.0075 63.0078 54.8317 62.7117 54.4773L62.6934 54.1055Z" fill="#B78052"/>
<path d="M65.3236 54.9902C65.5181 55.2683 65.6924 55.469 65.781 55.7962L65.9296 56.0706L66.3718 56.7816L66.0085 57.0926C65.8177 56.8116 65.4196 56.0493 65.2326 55.7206L65.1133 55.3071L65.3236 54.9902Z" fill="#623D23"/>
<path d="M47.5859 56.4208C48.2378 56.1588 48.8263 56.1995 49.4983 56.305C50.575 56.5341 51.3508 56.7706 52.4544 56.6904L52.424 56.9003C51.6573 57.1598 51.8294 56.9779 51.4427 57.5738C50.6809 57.9765 49.4446 57.4778 48.3193 57.417C48.109 57.0346 47.8607 56.7577 47.5859 56.4208Z" fill="#CF9C66"/>
<path d="M61.2434 53.6689L62.6264 54.0348L62.692 54.1044L62.7104 54.4762C62.1891 54.7382 60.877 54.51 60.5449 53.9834L60.6408 53.7779L61.2434 53.6689Z" fill="#ECCA9E"/>
<path d="M46.8668 59.2295L46.7148 59.0415L46.8263 58.8104C47.373 58.4623 47.6373 58.4097 48.2799 58.4826L48.4849 58.7694C48.1425 59.302 48.0691 59.3217 47.4678 59.4444L46.8668 59.2295Z" fill="#E0B17A"/>
<path d="M29.3297 60.2955C29.0847 60.2467 29.1029 60.2363 28.9297 60.0499C28.9738 59.7014 28.9019 59.8529 29.1891 59.5997C30.0085 59.3832 30.2191 59.4408 30.9847 59.827C30.4428 59.9796 29.8645 60.1315 29.3297 60.2955Z" fill="#CF9C66"/>
<path d="M66.8502 47.09C70.627 45.925 72.4512 46.2824 75.4644 48.8822C76.4774 48.787 77.1461 48.7004 78.1369 48.3675C79.6181 48.8035 80.1548 48.7876 80.8015 50.3142C80.8429 50.4809 80.8745 50.8488 81.0794 50.8835C83.012 51.211 85.6935 50.6953 86.6044 52.9718L86.821 53.1747C86.5102 53.2246 85.3675 53.3014 85.2609 53.5349L84.7274 54.0867C83.7455 55.0891 84.4897 55.1083 83.2932 56.0588L83.5834 56.4125C82.901 56.4356 81.831 56.3858 81.2753 56.7307L81.0609 57.1028C80.3754 56.2871 77.3979 57.3842 76.3029 57.5449L75.1865 57.6592C75.1093 57.5256 75.0665 57.3398 75.0199 57.1862C74.5014 56.8445 72.839 57.2776 72.1012 57.3954C71.6529 57.5694 71.1062 57.8077 70.6452 57.9012L69.4225 58.0639C68.6252 57.5911 68.0317 57.2461 67.1879 56.8451C66.8419 56.7633 66.7323 56.7773 66.3716 56.782L65.9294 56.0709L65.7808 55.7965C65.7112 54.6988 66.1399 54.435 66.1483 53.3915C65.5308 53.072 65.1076 52.9203 64.4495 52.6827L64.3984 52.51L65.2891 50.9834L65.3295 50.9215L64.9742 50.5686C65.3847 50.2297 65.2549 50.4067 65.41 49.797C65.3624 48.916 66.0696 48.778 66.2853 47.8697C66.4181 47.453 66.5222 47.3894 66.8502 47.09Z" fill="url(#paint4_linear_138_938)"/>
<path d="M65.3295 50.9219C66.0641 50.9198 66.7623 51.0139 67.3607 51.4924C67.431 51.471 67.595 51.431 67.6445 51.3933C68.3413 51.5 68.7802 51.5711 69.4551 51.7611C70.0823 51.8976 70.9312 52.0554 71.5326 52.2232C72.0111 52.2298 72.563 52.2201 73.0325 52.275L73.1553 52.2269L73.3679 52.2563C73.4662 52.8603 73.6851 53.1465 73.7736 53.5861L73.2712 53.8505C73.2834 54.0312 73.2872 54.2359 73.3256 54.4089C73.5638 54.8533 73.5091 54.6539 73.4796 55.2086C73.291 55.6447 72.9956 56.4019 72.7296 56.7585L72.1012 57.3958C71.6529 57.5698 71.1062 57.8081 70.6452 57.9016L69.4225 58.0643C68.6252 57.5914 68.0317 57.2464 67.1879 56.8455C66.8419 56.7636 66.7323 56.7777 66.3716 56.7823L65.9294 56.0713L65.7808 55.7969C65.7112 54.6992 66.1399 54.4354 66.1483 53.3919C65.5308 53.0724 65.1076 52.9207 64.4495 52.683L64.3984 52.5104L65.2891 50.9838L65.3295 50.9219Z" fill="#ECCA9E"/>
<path d="M66.1486 53.3916C66.5576 53.7647 66.6338 53.6997 66.6764 54.1494L66.6293 54.2495C66.4815 54.5694 66.4304 54.6278 66.4225 54.9661C67.4499 55.9446 70.637 54.3494 71.6373 54.6646L71.9803 55.0232C72.4275 54.8155 72.876 54.6107 73.3258 54.4086C73.5641 54.853 73.5093 54.6536 73.4799 55.2083C73.2913 55.6444 72.9959 56.4016 72.7299 56.7582L72.1015 57.3955C71.6532 57.5695 71.1065 57.8078 70.6454 57.9012L69.4228 58.064C68.6255 57.5911 68.032 57.2461 67.1882 56.8452C66.8422 56.7633 66.7326 56.7774 66.3719 56.782L65.9297 56.071L65.7811 55.7966C65.7115 54.6989 66.1401 54.4351 66.1486 53.3916Z" fill="#B78052"/>
<path d="M66.1486 53.3916C66.5576 53.7647 66.6338 53.6997 66.6764 54.1494L66.6293 54.2495C66.4815 54.5694 66.4304 54.6278 66.4225 54.9661C67.4499 55.9446 70.637 54.3494 71.6373 54.6646L71.9803 55.0232L71.3912 55.1615C69.2123 55.8317 68.2806 56.1874 65.9297 56.071L65.7811 55.7966C65.7115 54.6989 66.1401 54.4351 66.1486 53.3916Z" fill="#CF9C66"/>
<path d="M73.3253 54.4082C73.5635 54.8526 73.5088 54.6531 73.4794 55.2079C72.8895 55.2525 71.8664 55.4082 71.3906 55.1611L71.9798 55.0228C72.427 54.8151 72.8755 54.6103 73.3253 54.4082Z" fill="#9A643C"/>
<path d="M70.6462 57.901C70.5885 57.7507 70.6161 57.8087 70.6565 57.6056C71.1435 57.2727 72.1483 56.7001 72.7307 56.758L72.1023 57.3952C71.654 57.5692 71.1073 57.8076 70.6462 57.901Z" fill="#895430"/>
<path d="M65.3295 50.9219C66.0641 50.9198 66.7623 51.0139 67.3607 51.4924C67.431 51.471 67.595 51.431 67.6445 51.3933C68.3413 51.5 68.7802 51.5711 69.4551 51.7611C68.3281 52.1731 67.1231 52.5646 66.064 53.1126C66.4478 53.3911 66.7963 53.5689 66.9567 53.9946C66.9234 54.4317 66.7046 54.6165 66.4222 54.9665C66.4301 54.6281 66.4812 54.5697 66.629 54.2498L66.6761 54.1497C66.6335 53.7 66.5573 53.765 66.1483 53.3919C65.5308 53.0724 65.1076 52.9207 64.4495 52.683L64.3984 52.5104L65.2891 50.9838L65.3295 50.9219Z" fill="#E0B17A"/>
<path d="M71.5332 52.2227C72.0118 52.2293 72.5636 52.2195 73.0331 52.2744L73.1559 52.2263L73.3685 52.2557C73.4669 52.8598 73.6857 53.1459 73.7742 53.5855L73.2718 53.85C72.7253 53.0184 72.374 52.744 71.5332 52.2227Z" fill="#C08A59"/>
<path d="M80.8021 50.3145C80.8435 50.4812 80.875 50.849 81.08 50.8837C83.0125 51.2112 85.6941 50.6955 86.605 52.972L86.8215 53.1749C86.5108 53.2249 85.3681 53.3016 85.2615 53.5352C84.6065 53.2406 81.9111 53.5805 80.9693 53.628C80.2951 53.6328 79.9275 53.6447 79.2667 53.5327C79.2074 53.0694 79.266 52.9149 79.3599 52.4647C79.0895 52.2143 79.0878 52.2009 78.9863 51.8364C79.5181 51.6859 79.7795 51.6145 80.0397 51.1631L80.1336 50.5771C80.1943 50.5804 80.7086 50.3537 80.8021 50.3145Z" fill="#ECCA9E"/>
<path d="M80.8021 50.3145C80.8435 50.4812 80.875 50.849 81.08 50.8837C83.0125 51.2112 85.6941 50.6955 86.605 52.972C85.8991 52.884 85.6792 52.2833 84.9993 52.0466C83.6964 51.5933 82.0476 51.5549 80.6829 51.476C80.2611 51.8364 79.8165 52.1517 79.3599 52.4647C79.0895 52.2143 79.0878 52.2009 78.9863 51.8364C79.5181 51.6859 79.7795 51.6145 80.0397 51.1631L80.1336 50.5771C80.1943 50.5804 80.7086 50.3537 80.8021 50.3145Z" fill="#784D2C"/>
<path d="M66.85 47.09C70.6268 45.925 72.451 46.2824 75.4642 48.8822C76.4773 48.787 77.146 48.7004 78.1367 48.3675C79.6179 48.8035 80.1547 48.7876 80.8014 50.3142C80.7078 50.3534 80.1935 50.5802 80.1328 50.5769L80.0389 51.1628C79.5656 51.1963 78.6725 51.0912 78.1641 51.0461C77.6052 50.9295 77.3362 50.8994 76.9699 50.472C76.8156 50.3087 76.6399 50.204 76.4543 50.0775C76.0917 50.0898 75.8834 49.925 75.5586 49.7454C73.3219 47.766 72.4449 47.1108 69.385 47.1869C68.0808 47.2498 67.5007 47.3943 66.2852 47.8697C66.4179 47.453 66.522 47.3894 66.85 47.09Z" fill="#623D23"/>
<path d="M76.4551 50.0772L76.293 49.6732C76.9602 48.7941 79.6756 49.0528 80.1337 50.5766L80.0398 51.1626C79.5665 51.196 78.6733 51.091 78.165 51.0458C77.6061 50.9292 77.3371 50.8991 76.9708 50.4717C76.8165 50.3085 76.6408 50.2038 76.4551 50.0772Z" fill="#ECCA9E"/>
<path d="M69.3855 47.1875C72.4455 47.1114 73.3225 47.7665 75.5592 49.746C73.9564 50.4426 70.5503 48.5143 69.3477 47.3837L69.3855 47.1875Z" fill="#E0B17A"/>
<path d="M76.7025 56.4179C78.4543 56.1755 80.1724 56.0623 81.9242 55.8343C82.9735 55.6976 83.1148 55.3381 83.5717 55.2646L83.6404 55.3511L83.2729 55.9219L83.293 56.0592L83.5833 56.4128C82.9009 56.436 81.8308 56.3862 81.2752 56.731L81.0608 57.1032C80.3752 56.2874 77.3978 57.3845 76.3027 57.5453C76.4289 57.256 76.5922 56.7335 76.7025 56.4179Z" fill="#ECCA9E"/>
<path d="M80.9688 53.6276C81.9105 53.5802 84.606 53.2403 85.261 53.5349L84.7275 54.0866C83.9761 54.2821 81.6115 54.3297 80.832 54.184C80.8717 54.081 80.9392 53.7533 80.9688 53.6276Z" fill="#CF9C66"/>
<path d="M67.6465 51.3924L67.6481 51.1764C68.2575 51.0551 71.961 51.4853 72.7524 51.7365C72.9187 51.7893 72.9741 52.0908 73.0344 52.2741C72.5649 52.2192 72.0131 52.2289 71.5345 52.2223C70.9331 52.0544 70.0842 51.8966 69.457 51.7602C68.7822 51.5702 68.3433 51.499 67.6465 51.3924Z" fill="#784D2C"/>
<path d="M78.1652 51.0459C78.6735 51.0911 79.5667 51.1961 80.04 51.1627C79.7798 51.614 79.5185 51.6855 78.9866 51.836C78.5178 51.6679 78.3505 51.8625 77.7969 51.5763L77.8137 51.3458L78.1652 51.0459Z" fill="#E0B17A"/>
<path d="M73.1562 52.2266C73.101 51.9019 73.084 52.0565 73.2192 51.7479C73.7798 51.462 74.4093 51.4028 75.0332 51.3057C74.9378 51.5319 74.712 52.0271 74.6541 52.2391L73.3688 52.256L73.1562 52.2266Z" fill="#9A643C"/>
<path d="M73.3672 52.2561L74.6525 52.2393C74.4629 52.8104 74.3748 53.3472 73.7729 53.5859C73.6844 53.1463 73.4655 52.8601 73.3672 52.2561Z" fill="#CF9C66"/>
<path d="M79.266 53.5322C79.9268 53.6442 80.2945 53.6323 80.9686 53.6275C80.939 53.7532 80.8716 54.0808 80.8319 54.1839C80.1159 54.1455 79.5467 54.1167 78.9023 53.7601L78.9095 53.5527L79.266 53.5322Z" fill="#B78052"/>
<path d="M81.3997 55.0074C81.892 54.9934 82.5989 54.9669 83.0446 55.1396L83.0495 55.2727L82.7052 55.4456C82.2998 55.5719 81.6718 55.7856 81.2886 55.6505C81.1709 55.3338 81.2124 55.4302 81.3997 55.0074Z" fill="#E0B17A"/>
<path d="M75.7943 54.3723C76.2464 54.3744 77.1793 54.344 77.5197 54.5924L77.2912 54.7651C76.7781 54.9113 76.0907 55.2543 75.6973 54.8718L75.7943 54.3723Z" fill="#B78052"/>
<path d="M16.1926 54.0566C16.6283 54.2169 17.0586 54.3844 17.5048 54.5118C17.1851 55.2663 16.832 55.8404 16.2808 56.457C16.7183 56.9419 17.1149 57.4452 17.7186 57.6808C19.2163 58.2651 21.4162 58.7452 23.006 59.0469C23.1577 59.1931 23.9122 59.9351 24.0686 59.9513C25.2784 60.0762 26.5103 59.9538 27.727 60.0737C28.1309 60.1134 28.9887 60.3734 29.3289 60.2955C29.8637 60.1314 30.442 59.9796 30.9839 59.8269C33.4545 59.646 33.2916 58.9264 33.5049 56.6973C35.8542 56.3419 35.2285 57.0241 36.2506 58.9146C34.8787 58.3873 33.1885 59.7452 31.8458 60.0863C31.3262 60.2182 29.5959 60.4926 29.3818 60.8998C28.4627 61.7311 24.5617 61.1512 23.416 60.6602C22.5643 60.295 21.5368 59.6418 20.6808 59.3498C19.678 59.0076 18.4261 58.9503 17.3873 58.6753C16.2716 58.4133 14.0587 58.609 13.0671 58.3188C12.8284 58.456 12.467 58.6797 12.2303 58.7917C12.3338 58.2409 12.5666 58.0794 12.9542 57.6502L12.4194 57.2405C13.2032 57.1586 14.0941 56.9133 14.2386 56.0391C13.8292 54.6777 11.6535 54.9751 10.5625 55.0204L9.95312 54.5674C10.3414 54.4779 10.7139 54.4076 11.1045 54.3338C13.0979 54.8679 14.3039 54.7022 16.1926 54.0566Z" fill="#EBC38F"/>
<path d="M12.9544 57.6494L13.8499 57.9888L13.8565 58.0981L13.0673 58.3181C12.8286 58.4552 12.4672 58.679 12.2305 58.791C12.334 58.2402 12.5667 58.0786 12.9544 57.6494Z" fill="#CF9C66"/>
<path d="M29.3828 60.8994C29.5969 60.4922 31.3272 60.2178 31.8468 60.0858C33.1895 59.7448 34.8797 58.3869 36.2516 58.9141C37.1102 59.5789 38.0639 59.5828 39.1383 59.7137L39.0128 59.7499C38.5367 59.8928 37.2756 60.5552 36.8099 60.8661C34.7658 62.2308 31.6901 61.7611 29.3828 60.8994Z" fill="#ECCA9E"/>
<path d="M67.1899 56.8447C68.0337 57.2456 68.6272 57.5907 69.4245 58.0635L70.6471 57.9008C71.1082 57.8073 71.6549 57.569 72.1032 57.395C72.841 57.2772 74.5034 56.8441 75.0218 57.1858C75.0685 57.3394 75.1113 57.5252 75.1885 57.6588C72.3609 58.1016 69.6387 59.1159 66.7408 58.8154C66.4888 58.7893 66.2791 58.8262 66.0312 58.8642C66.7266 57.8766 66.7904 57.9974 67.1899 56.8447Z" fill="#EBC38F"/>
<path d="M5.9043 53.9161C7.45792 53.323 8.70603 53.2147 10.2737 52.7354L10.0289 53.2598L10.2124 53.4497C10.4992 53.415 10.7867 53.3862 11.0745 53.3629L11.1267 53.802C11.0117 54.1821 10.9943 54.0104 11.1046 54.3346C10.7139 54.4083 10.3415 54.4786 9.95316 54.5681L10.5625 55.0211C7.92873 55.0982 7.94146 55.9687 5.9043 53.9161Z" fill="#ECCA9E"/>
<path d="M9.95483 54.568L9.70272 54.4958C9.56634 54.0447 9.79828 53.7093 10.0305 53.2598L10.214 53.4496C10.5009 53.4149 10.7883 53.3861 11.0762 53.3628L11.1284 53.8019C11.0133 54.182 10.996 54.0103 11.1062 54.3345C10.7156 54.4083 10.3432 54.4786 9.95483 54.568Z" fill="#E0B17A"/>
<path d="M81.275 56.7313C81.8306 56.3865 82.9007 56.4362 83.5831 56.4131L83.9911 56.8821C83.9997 57.5029 84.0888 57.4015 83.8015 57.8636C82.8261 58.5075 81.5705 58.1438 81.0605 57.1034L81.275 56.7313Z" fill="#E0B17A"/>
<path d="M81.2754 56.7313C81.831 56.3865 82.9011 56.4362 83.5835 56.4131L83.9915 56.8821C82.9657 57.0925 82.2246 57.2712 81.2754 56.7313Z" fill="#B78052"/>
<path d="M46.8677 59.2295L47.4687 59.4443C48.2634 59.6159 48.7208 60.4493 49.0308 61.1782C47.3983 60.3234 46.3514 60.3666 44.5605 60.2424C45.3699 59.8201 46.3874 59.6871 46.8677 59.2295Z" fill="#ECCA9E"/>
<path d="M12.4191 57.2402L12.9539 57.6499C12.5662 58.0791 12.3335 58.2407 12.23 58.7915L11.8015 58.9008C11.0973 58.7504 10.8609 58.7061 10.2168 58.404C10.6813 57.8419 11.7263 57.5069 12.4191 57.2402Z" fill="#CF9C66"/>
<path d="M10.2183 58.4043C10.8624 58.7065 11.0988 58.7508 11.803 58.9011C11.7121 59.4059 11.8024 59.2901 11.5102 59.6436C10.9232 59.824 10.2879 59.9069 9.91992 59.331C10.012 58.9916 10.0986 58.7353 10.2183 58.4043Z" fill="#ECCA9E"/>
<path d="M73.9879 59.665C74.5416 59.7983 75.3184 59.9742 75.6632 60.4263C75.1637 60.4546 74.6052 60.5428 74.1686 60.3245C73.9149 59.9867 73.9798 60.1429 73.9879 59.665Z" fill="#ECCA9E"/>
<path d="M73.7233 58.3082C74.165 58.2996 74.6531 58.383 74.9664 58.7091L74.931 58.9754C74.3671 58.9428 74.0473 58.988 73.6641 58.6471L73.7233 58.3082Z" fill="#ECCA9E"/>
<path d="M69.9144 59.9912C70.3728 59.938 70.9233 59.8867 71.3128 60.1223L71.1118 60.3072C70.5003 60.3493 70.2415 60.37 69.6344 60.3072L69.5664 60.1815L69.9144 59.9912Z" fill="#ECCA9E"/>
<path d="M69.048 41.4438C69.7083 40.8907 70.8419 40.2945 71.4948 39.736C73.6943 37.8553 74.6704 36.6844 77.8307 36.7711C78.5772 36.9946 79.3172 37.6307 78.9176 38.4217C77.5225 41.1838 74.2863 41.3431 71.7545 41.0168C70.6575 41.4731 69.8799 42.0354 68.9414 42.7499L69.048 41.4438Z" fill="#9FBB3F"/>
<path d="M69.048 41.4438C69.7083 40.8907 70.8419 40.2945 71.4948 39.736C73.6943 37.8553 74.6704 36.6844 77.8307 36.7711C78.152 37.0777 78.5324 37.3447 78.5951 37.7506C77.1249 36.6136 74.735 37.6756 73.4781 38.6903C72.9678 39.1447 72.4552 39.5673 72.6386 40.3251L72.412 40.5439L71.7545 41.0168C70.6575 41.4731 69.8799 42.0354 68.9414 42.7499L69.048 41.4438Z" fill="#5B602D"/>
<path d="M77.83 36.7705C78.5766 36.994 79.3165 37.6301 78.917 38.4211C77.5219 41.1832 74.2857 41.3425 71.7539 41.0162L72.4114 40.5433C73.2055 40.655 73.9594 40.797 74.7562 40.6361C76.4754 40.2076 77.9092 39.4595 78.5944 37.75C78.5318 37.3441 78.1514 37.0771 77.83 36.7705Z" fill="#695D31"/>
<path d="M72.4121 40.544L72.6388 40.3252C72.4553 39.5673 72.9679 39.1448 73.4782 38.6904C73.8361 39.0961 73.9251 39.1673 74.4455 39.3475L74.5524 39.528C74.3109 39.7516 73.7683 40.1838 73.6981 40.4611C73.9637 40.6661 74.357 40.6128 74.7569 40.6368C73.9601 40.7977 73.2063 40.6556 72.4121 40.544Z" fill="#8AA933"/>
<path d="M32.5185 49.3451C31.7114 48.5202 30.5533 46.6681 30.6817 45.4826C31.1755 40.9238 34.8726 44.492 34.4178 47.2885C34.3279 47.8424 34.0391 48.5004 34.0116 49.0973L33.8728 49.2265L33.3682 49.0396L32.9893 49.0902L32.5185 49.3451Z" fill="#9FBB3F"/>
<path d="M32.5185 49.3451C31.7114 48.5202 30.5533 46.6681 30.6817 45.4826C31.1755 40.9238 34.8726 44.492 34.4178 47.2885C34.3279 47.8424 34.0391 48.5004 34.0116 49.0973L33.8728 49.2265L33.3682 49.0396L33.6727 48.2948C33.9619 47.14 34.0705 46.0471 33.5235 44.9457C32.9191 43.7289 31.3458 43.7592 31.1532 45.1923C31.01 46.2571 31.7453 47.6185 32.4178 48.398L32.8386 48.8672L32.9893 49.0902L32.5185 49.3451Z" fill="#895430"/>
<path d="M32.9634 47.0264C33.1018 47.6838 33.1585 47.81 33.6726 48.2943L33.3681 49.039L32.9892 49.0897L32.8385 48.8667C32.8309 48.2286 32.8993 47.6608 32.9634 47.0264Z" fill="#8AA933"/>
<path d="M32.418 48.3984C32.5329 48.2092 32.6821 46.9121 32.7289 46.6022L32.8299 46.543L32.9637 47.0272C32.8995 47.6617 32.8311 48.2295 32.8387 48.8676L32.418 48.3984Z" fill="#6F8F28"/>
<defs>
<linearGradient id="paint0_linear_138_938" x1="53.4661" y1="50.8416" x2="51.5012" y2="38.7713" gradientUnits="userSpaceOnUse">
<stop stop-color="#8F5530"/>
<stop offset="1" stop-color="#C78B5C"/>
</linearGradient>
<linearGradient id="paint1_linear_138_938" x1="43.7893" y1="49.2815" x2="60.5839" y2="31.2822" gradientUnits="userSpaceOnUse">
<stop stop-color="#AF7448"/>
<stop offset="1" stop-color="#CD9566"/>
</linearGradient>
<linearGradient id="paint2_linear_138_938" x1="20.1573" y1="49.8575" x2="19.6533" y2="51.5308" gradientUnits="userSpaceOnUse">
<stop stop-color="#845935"/>
<stop offset="1" stop-color="#A56E42"/>
</linearGradient>
<linearGradient id="paint3_linear_138_938" x1="52.8878" y1="55.9289" x2="54.8784" y2="51.7451" gradientUnits="userSpaceOnUse">
<stop stop-color="#DAA66D"/>
<stop offset="1" stop-color="#F1D2A5"/>
</linearGradient>
<linearGradient id="paint4_linear_138_938" x1="68.6082" y1="45.7662" x2="80.4989" y2="58.6166" gradientUnits="userSpaceOnUse">
<stop stop-color="#B06F43"/>
<stop offset="1" stop-color="#F4CF96"/>
</linearGradient>
</defs>
</svg>
